<?xml version="1.0" standalone="no"?>
<!DOCTYPE svg PUBLIC "-//W3C//DTD SVG 1.1//EN" "http://www.w3.org/Graphics/SVG/1.1/DTD/svg11.dtd" >
<svg>
<metadata>
Created by FontForge 20120731 at Mon Sep 16 15:52:23 2019
 By www
Copyright (c) 2015 CJ Type. All rights reserved.
</metadata>
<defs>
<font id="DunbarTall-Light" horiz-adv-x="0" >
  <font-face 
    font-family="DunbarTall Light"
    font-weight="300"
    font-stretch="normal"
    units-per-em="1000"
    panose-1="0 0 0 0 0 0 0 2 0 0"
    ascent="780"
    descent="-220"
    x-height="574"
    cap-height="746"
    bbox="-181.524 -256 1201 1085"
    underline-thickness="0"
    underline-position="0"
    unicode-range="U+0020-FEFF"
  />
<missing-glyph 
 />
    <glyph glyph-name="f_f" unicode="ff" horiz-adv-x="470" 
d="M143 0h-47v532h-85v42h85v43q0 52 14 84.5t36 49.5t50 23t57 6v-43q-18 0 -37.5 -3.5t-35.5 -16t-26.5 -36.5t-10.5 -65v-42h161v43q0 52 14 84.5t36 49.5t50 23t57 6v-43q-18 0 -37.5 -3.5t-35.5 -16t-26.5 -36.5t-10.5 -65v-42h94v-42h-94v-532h-47v532h-161v-532z" />
    <glyph glyph-name="f_i" unicode="fi" horiz-adv-x="402" 
d="M349 780v-104h-51v104h51zM227 532h-84v-532h-47v532h-85v42h85v43q0 52 14 84.5t35.5 49.5t47.5 23t50 6v-43q-13 0 -30.5 -3.5t-33 -16t-26 -36.5t-10.5 -65v-42h84v-42zM347 574v-574h-47v574h47z" />
    <glyph glyph-name="f_l" unicode="fl" horiz-adv-x="402" 
d="M347 780v-780h-47v780h47zM227 532h-84v-532h-47v532h-85v42h85v43q0 52 14 84.5t35.5 49.5t47.5 23t50 6v-43q-13 0 -30.5 -3.5t-33 -16t-26 -36.5t-10.5 -65v-42h84v-42z" />
    <glyph glyph-name="f_f_i" unicode="ffi" horiz-adv-x="610" 
d="M557 780v-104h-51v104h51zM555 574v-574h-47v574h47zM143 0h-47v532h-85v42h85v43q0 52 14 84.5t36 49.5t50 23t57 6v-43q-18 0 -37.5 -3.5t-35.5 -16t-26.5 -36.5t-10.5 -65v-42h161v43q0 52 14 84.5t35.5 49.5t47.5 23t50 6v-43q-13 0 -30.5 -3.5t-33 -16t-26 -36.5
t-10.5 -65v-42h84v-42h-84v-532h-47v532h-161v-532z" />
    <glyph glyph-name="f_f_l" unicode="ffl" horiz-adv-x="610" 
d="M555 780v-780h-47v780h47zM143 0h-47v532h-85v42h85v43q0 52 14 84.5t36 49.5t50 23t57 6v-43q-18 0 -37.5 -3.5t-35.5 -16t-26.5 -36.5t-10.5 -65v-42h161v43q0 52 14 84.5t35.5 49.5t47.5 23t50 6v-43q-13 0 -30.5 -3.5t-33 -16t-26 -36.5t-10.5 -65v-42h84v-42h-84
v-532h-47v532h-161v-532z" />
    <glyph glyph-name=".notdef" 
 />
    <glyph glyph-name=".null" 
 />
    <glyph glyph-name="nonmarkingreturn" horiz-adv-x="333" 
 />
    <glyph glyph-name="space" unicode=" " horiz-adv-x="170" 
 />
    <glyph glyph-name="exclam" unicode="!" horiz-adv-x="250" 
d="M145 155h-40l-10 591h60zM93 0v80h64v-80h-64z" />
    <glyph glyph-name="quotedbl" unicode="&#x22;" horiz-adv-x="331" 
d="M62 490l46 256h60l-76 -256h-30zM177 490l46 256h60l-76 -256h-30z" />
    <glyph glyph-name="numbersign" unicode="#" horiz-adv-x="723" 
d="M448 278l39 190h-201l-40 -190h202zM390 0l49 235h-202l-49 -235h-48l49 235h-144v43h153l39 190h-153v43h162l49 235h49l-49 -235h201l49 235h49l-49 -235h133v-43h-142l-40 -190h142v-43h-151l-49 -235h-48z" />
    <glyph glyph-name="dollar" unicode="$" horiz-adv-x="506" 
d="M93 595q0 -41 29 -75t95 -79v252q-37 -4 -61 -15.5t-38 -26t-19.5 -29.5t-5.5 -27zM427 181q0 43 -38 80t-125 94v-313q43 3 74 16.5t51 32.5t29 42.5t9 47.5zM264 -116h-47v114q-47 2 -99 15.5t-84 38.5v51q45 -32 88.5 -46t94.5 -16v343q-89 57 -129.5 104t-40.5 101
q0 51 42.5 94.5t127.5 52.5v110h47v-108q36 -1 79 -11t77 -28l1 -50q-29 20 -70 32.5t-87 13.5v-284l1 -1q50 -31 89 -56.5t66 -50.5t41 -53t14 -64q0 -44 -16.5 -78t-45 -57t-67 -36t-82.5 -16v-115z" />
    <glyph glyph-name="percent" unicode="%" horiz-adv-x="626" 
d="M552 746l-434 -746h-44l434 746h44zM143 746q52 0 87 -47.5t35 -140.5v-26q0 -93 -35 -140.5t-87 -47.5q-51 0 -86 47.5t-35 140.5v26q0 93 35 140.5t86 47.5zM224 532v26q0 77 -22.5 114t-58.5 37q-34 0 -57 -37t-23 -114v-26q0 -77 23 -114t57 -37q36 0 58.5 37
t22.5 114zM482 402q52 0 87 -47.5t35 -140.5v-26q0 -93 -35 -140.5t-87 -47.5q-51 0 -86 47.5t-35 140.5v26q0 93 35 140.5t86 47.5zM563 188v26q0 77 -22.5 114t-58.5 37q-34 0 -57 -37t-23 -114v-26q0 -77 23 -114t57 -37q36 0 58.5 37t22.5 114z" />
    <glyph glyph-name="ampersand" unicode="&#x26;" horiz-adv-x="656" 
d="M256 465l8 -9q8 6 17 12l18 12q45 31 77.5 65.5t32.5 78.5q0 17 -7 35t-21.5 32.5t-37 24t-53.5 9.5q-57 0 -87.5 -33.5t-30.5 -77.5q0 -34 22 -67t62 -82zM252 21q69 0 119 35.5t88 86.5q-29 35 -59 71.5t-57 69.5t-50.5 61t-38.5 46q-31 -21 -60 -41.5t-51 -44.5
t-35.5 -53t-13.5 -67q0 -32 13.5 -62t35.5 -52.5t51 -36t58 -13.5zM577 0q-16 19 -37.5 45.5t-46.5 57.5q-43 -54 -101.5 -91.5t-139.5 -35.5q-39 0 -77 15.5t-67 42.5t-47 65.5t-18 85.5q0 84 50.5 136.5t129.5 106.5q-46 55 -74 96.5t-28 90.5q0 31 12 59t34 49.5t53.5 34
t69.5 12.5q42 0 74 -13t53 -33.5t32 -47t11 -52.5q0 -33 -13 -59.5t-34 -49.5t-48 -43t-54 -41q-4 -3 -8.5 -6t-8.5 -6q40 -48 92 -111t101 -122q19 29 35.5 60t32.5 60l42 -29q-16 -31 -34.5 -65.5t-40.5 -67.5q46 -56 79.5 -96t39.5 -47v-1h-64z" />
    <glyph glyph-name="quotesingle" unicode="'" horiz-adv-x="216" 
d="M62 490l46 256h60l-76 -256h-30z" />
    <glyph glyph-name="parenleft" unicode="(" horiz-adv-x="399" 
d="M295 767l29 -39q-29 -26 -60 -68.5t-56.5 -97.5t-42 -121.5t-16.5 -141.5v-13q0 -74 16 -141t41.5 -122t56.5 -97t61 -67l-28 -39q-32 26 -67 70t-63.5 102.5t-47 133t-18.5 160.5v13q0 86 18.5 159.5t47 132t63 103t66.5 73.5z" />
    <glyph glyph-name="parenright" unicode=")" horiz-adv-x="399" 
d="M104 767q32 -29 66.5 -73.5t63 -103t47 -132t18.5 -159.5v-13q0 -86 -18.5 -160.5t-47 -133t-63.5 -102.5t-67 -70l-28 39q30 25 61 67t56.5 97t41.5 122t16 141v13q0 75 -16.5 141.5t-42 121.5t-56.5 97.5t-60 68.5z" />
    <glyph glyph-name="asterisk" unicode="*" horiz-adv-x="354" 
d="M260 432l-83 131l-82 -132l-43 31l96 114l-129 32l16 51l125 -51l-10 138h53l-10 -137l125 51l17 -51l-128 -32l96 -114z" />
    <glyph glyph-name="plus" unicode="+" horiz-adv-x="604" 
d="M564 328h-237v-258h-50v258h-237v43h237v235h50v-235h237v-43z" />
    <glyph glyph-name="comma" unicode="," horiz-adv-x="207" 
d="M79 99h68l-68 -245h-32z" />
    <glyph glyph-name="hyphen" unicode="-" horiz-adv-x="404" 
d="M364 344v-53h-324v53h324z" />
    <glyph glyph-name="period" unicode="." horiz-adv-x="205" 
d="M68 98h69v-98h-69v98z" />
    <glyph glyph-name="slash" unicode="/" horiz-adv-x="499" 
d="M479 780l-503 -1000h-48l502 1000h49z" />
    <glyph glyph-name="zero" unicode="0" horiz-adv-x="552" 
d="M276 770q50 0 93.5 -23.5t74.5 -70t48.5 -116.5t17.5 -162v-52q0 -91 -17.5 -160.5t-48.5 -116t-74.5 -70t-93.5 -23.5t-93 23.5t-74 70t-49 116t-18 160.5v52q0 92 18 162t49 116.5t74 70t93 23.5zM463 346v52q0 167 -52 248t-135 81q-80 0 -133.5 -81t-53.5 -248v-52
q0 -166 53.5 -246.5t133.5 -80.5q83 0 135 80.5t52 246.5z" />
    <glyph glyph-name="one" unicode="1" horiz-adv-x="315" 
d="M239 0h-47v671l-155 -173v60l165 188h37v-746z" />
    <glyph glyph-name="two" unicode="2" horiz-adv-x="549" 
d="M489 0h-460v2q7 8 49 53.5t91.5 99t93.5 101t54 59.5q72 84 99 138t27 108q0 31 -13 61t-35.5 53t-54 37.5t-68.5 14.5q-46 0 -90.5 -16.5t-92.5 -59.5v58q40 30 85.5 45.5t97.5 15.5q47 0 87 -17.5t69.5 -46t46 -66.5t16.5 -79q1 -58 -27 -118t-111 -156
q-9 -10 -34.5 -38t-58.5 -63.5t-69 -74t-65 -69.5h383z" />
    <glyph glyph-name="three" unicode="3" horiz-adv-x="477" 
d="M172 -24q-15 0 -35 3t-41 8t-40.5 12t-33.5 14v48q43 -19 84.5 -30.5t65.5 -11.5q48 0 89 15t70 42t45.5 63.5t16.5 78.5t-16 76.5t-43.5 59t-66 38t-83.5 13.5h-59v42h59q35 0 65 12.5t51.5 33t33.5 47.5t12 55q0 55 -43 93.5t-106 38.5q-31 0 -58.5 -5.5t-61.5 -21.5
l9 46q20 11 51.5 17.5t59.5 6.5q40 0 75.5 -13t62 -37t42.5 -56t16 -69q0 -50 -31 -95.5t-77 -69.5q69 -21 112 -77.5t43 -134.5q0 -51 -20 -95.5t-55.5 -77t-85 -51t-107.5 -18.5z" />
    <glyph glyph-name="four" unicode="4" horiz-adv-x="614" 
d="M423 214v450l-308 -450h308zM556 172h-83v-172h-50v172h-388v2l394 572h44v-532h100z" />
    <glyph glyph-name="five" unicode="5" horiz-adv-x="553" 
d="M198 -24q-36 0 -79.5 12.5t-86.5 34.5v48q38 -22 85.5 -37t80.5 -15q53 0 97.5 17.5t76.5 48t50 73.5t18 93q0 86 -58.5 142.5t-145.5 56.5q-46 0 -81 -9t-72 -25l86 330h347l-15 -42h-298l-57 -224q21 5 44 9t48 4q54 0 99.5 -18t79 -50.5t52 -77t18.5 -96.5
q0 -60 -21.5 -110.5t-60 -87t-91.5 -57t-116 -20.5z" />
    <glyph glyph-name="six" unicode="6" horiz-adv-x="555" 
d="M280 -24q-47 0 -92 17t-79.5 48t-55.5 75.5t-21 100.5t25.5 120.5t65.5 132t90 138t99 138.5h58q-76 -101 -136.5 -186.5t-99.5 -157.5q30 23 66.5 36t79.5 13q51 0 96.5 -18.5t79 -50.5t53 -75.5t19.5 -92.5t-19.5 -92.5t-53 -75.5t-79 -51t-96.5 -19zM280 408
q-41 0 -77.5 -15.5t-64 -41.5t-43.5 -61.5t-16 -75.5t16 -75.5t43.5 -62t64 -42t77.5 -15.5q42 0 78.5 15.5t64 42t43 62t15.5 75.5t-15.5 75.5t-43 61.5t-64 41.5t-78.5 15.5z" />
    <glyph glyph-name="seven" unicode="7" horiz-adv-x="505" 
d="M174 0h-51l296 704h-396l22 42h443z" />
    <glyph glyph-name="eight" unicode="8" horiz-adv-x="562" 
d="M280 -24q-52 0 -98 18.5t-80.5 49.5t-54.5 73t-20 89q0 71 42.5 129t108.5 85q-47 24 -76.5 67t-29.5 92q0 40 16.5 75t45 60.5t66.5 40.5t80 15q43 0 81 -15t66.5 -40.5t45 -60.5t16.5 -75q0 -50 -29 -92.5t-76 -66.5q66 -28 108.5 -85.5t42.5 -128.5q0 -47 -20 -89
t-55 -73t-81.5 -49.5t-98.5 -18.5zM280 440q32 0 60.5 11t50 29.5t34.5 44t13 54.5q0 61 -47 104.5t-111 43.5t-110.5 -43.5t-46.5 -104.5q0 -28 12.5 -53.5t34 -44.5t50 -30t60.5 -11zM280 19q42 0 79.5 15t65 40.5t43.5 59.5t16 72q0 40 -16 74.5t-43.5 60t-64.5 40
t-80 14.5q-41 0 -77.5 -14.5t-64 -40t-44 -60t-16.5 -74.5q0 -38 16 -72t43.5 -59.5t64.5 -40.5t78 -15z" />
    <glyph glyph-name="nine" unicode="9" horiz-adv-x="555" 
d="M243 0h-58q76 101 136.5 186.5t99.5 157.5q-30 -23 -66.5 -36t-79.5 -13q-51 0 -96.5 18.5t-79 50.5t-53 75.5t-19.5 92.5t19.5 92.5t53 75.5t79 51t96.5 19q47 0 92 -17t79.5 -48t55.5 -75.5t21 -100.5t-25.5 -120.5t-65.5 -132t-90 -138t-99 -138.5zM275 338
q41 0 77.5 15.5t64 41.5t43.5 61.5t16 75.5t-16 75.5t-43.5 62t-64 42t-77.5 15.5q-42 0 -78.5 -15.5t-64 -42t-43 -62t-15.5 -75.5t15.5 -75.5t43 -61.5t64 -41.5t78.5 -15.5z" />
    <glyph glyph-name="colon" unicode=":" horiz-adv-x="212" 
d="M71 520h70v-110h-70v110zM71 110h70v-110h-70v110z" />
    <glyph glyph-name="semicolon" unicode=";" horiz-adv-x="212" 
d="M71 520h70v-110h-70v110zM76 98h67l-63 -240h-32z" />
    <glyph glyph-name="less" unicode="&#x3c;" horiz-adv-x="562" 
d="M527 60l-494 253v29l494 252v-50l-427 -216l427 -216v-52z" />
    <glyph glyph-name="equal" unicode="=" horiz-adv-x="524" 
d="M484 461v-43h-444v43h444zM484 261v-43h-444v43h444z" />
    <glyph glyph-name="greater" unicode="&#x3e;" horiz-adv-x="562" 
d="M35 60v52l427 216l-427 216v50l494 -252v-29z" />
    <glyph glyph-name="question" unicode="?" horiz-adv-x="507" 
d="M243 155h-50v221h24q35 0 67.5 11.5t57.5 34t40.5 55.5t15.5 76q0 68 -45.5 115.5t-120.5 47.5q-44 0 -88.5 -16.5t-92.5 -59.5v62q39 28 84 43.5t97 15.5q46 0 86.5 -14.5t69.5 -41.5t46 -65.5t17 -85.5q0 -50 -17 -90t-46 -67.5t-66.5 -44t-78.5 -20.5v-177zM193 0v80
h50v-80h-50z" />
    <glyph glyph-name="at" unicode="@" horiz-adv-x="1000" 
d="M532 -189q-108 2 -197.5 40.5t-152.5 102.5t-97.5 148.5t-34.5 177.5q0 88 33 171t93 146t146 101t190 38q98 0 180 -35.5t140 -95t90.5 -140t32.5 -168.5q0 -75 -19 -127t-46.5 -83t-60 -44.5t-59.5 -13.5q-24 0 -40.5 9t-26 23t-14 30t-4.5 29v9q-31 -43 -80 -72.5
t-109 -29.5q-53 0 -97.5 17.5t-76 48t-49.5 74.5t-18 96t18 96t49.5 74.5t76 48t97.5 17.5q60 0 109 -30.5t80 -73.5v79h47v-354q0 -27 13.5 -37.5t24.5 -10.5q21 0 46 11.5t46.5 37.5t36 69.5t14.5 107.5q0 81 -29.5 154t-82 128t-126.5 87.5t-163 32.5q-95 0 -173 -35.5
t-132.5 -93.5t-84.5 -134t-30 -156q0 -86 31.5 -164t89 -137t139 -95t180.5 -38q42 0 87 6t87 17t79.5 27.5t63.5 37.5l25 -32q-28 -22 -68 -39t-85.5 -29t-94 -18t-94.5 -6zM496 70q40 0 75 17t60.5 44t40.5 62t15 70t-14 70t-39 62t-60 44t-78 17q-37 0 -72 -12t-61 -36
t-42 -60.5t-16 -84.5t16 -84.5t42 -60.5t61 -36t72 -12z" />
    <glyph glyph-name="A" unicode="A" horiz-adv-x="679" 
d="M532 223l-193 472l-195 -472h388zM623 0l-74 180h-423l-74 -180h-50l312 746h51l312 -746h-54z" />
    <glyph glyph-name="B" unicode="B" horiz-adv-x="478" 
d="M206 0h-151v746h130q65 0 110 -14.5t72 -39t39 -57t12 -67.5q0 -55 -31.5 -103.5t-88.5 -75.5q68 -23 106.5 -75.5t38.5 -119.5q0 -35 -12 -70t-40 -62.5t-73.5 -44.5t-111.5 -17zM185 703h-80v-298h75q41 0 75.5 14t59 36.5t38.5 52t14 60.5q0 25 -9.5 49.5t-31 43.5
t-56.5 30.5t-85 11.5zM201 362h-96v-319h101q51 0 87 14t57.5 36t31.5 49t10 52q0 70 -53.5 119t-137.5 49z" />
    <glyph glyph-name="C" unicode="C" horiz-adv-x="654" 
d="M621 726v-54q-40 25 -86 39t-95 14q-73 0 -138 -29t-113.5 -77.5t-77 -112t-28.5 -131.5q0 -70 28.5 -134.5t77 -113t113.5 -77.5t138 -29q49 0 95 14.5t86 38.5v-54q-41 -20 -86.5 -32t-94.5 -12q-84 0 -159 31.5t-130 85t-87 126.5t-32 155t32 154.5t87 126t130 84.5
t159 31q49 0 94 -12t87 -32z" />
    <glyph glyph-name="D" unicode="D" horiz-adv-x="613" 
d="M55 0v746h161q70 0 136 -27t116 -75.5t80.5 -117.5t30.5 -152q0 -84 -30.5 -153.5t-80.5 -118t-115.5 -75.5t-136.5 -27h-161zM105 703v-660h103q62 0 120 21.5t102 63.5t71 104t27 142q0 79 -27 140.5t-71 103.5t-102 63.5t-120 21.5h-103z" />
    <glyph glyph-name="E" unicode="E" horiz-adv-x="449" 
d="M55 0v746h346v-43h-296v-277h277v-43h-277v-340h304v-43h-354z" />
    <glyph glyph-name="F" unicode="F" horiz-adv-x="464" 
d="M55 0v746h374v-43h-324v-287h297v-43h-297v-373h-50z" />
    <glyph glyph-name="G" unicode="G" horiz-adv-x="848" 
d="M818 374q0 -82 -30 -155t-81 -126.5t-120 -85t-147 -31.5q-84 0 -159 31.5t-130 85t-87 126.5t-32 155t32 154.5t87 126t130 84.5t159 31q78 0 149.5 -26.5t122.5 -70.5l-33 -37q-50 40 -110 64.5t-129 24.5q-73 0 -138 -29t-113.5 -77.5t-77 -112t-28.5 -131.5
q0 -70 28.5 -134.5t77 -113t113.5 -77.5t138 -29q64 0 122 27t102 72.5t71.5 106.5t30.5 129l-285 -2l23 53h314v-33z" />
    <glyph glyph-name="H" unicode="H" horiz-adv-x="656" 
d="M55 0v746h50v-327h446v327h50v-746h-50v376h-446v-376h-50z" />
    <glyph glyph-name="I" unicode="I" horiz-adv-x="166" 
d="M58 0v746h50v-746h-50z" />
    <glyph glyph-name="J" unicode="J" horiz-adv-x="262" 
d="M0 0v45q13 -4 27 -7.5t32 -3.5t36 4t31.5 19.5t22 47.5t8.5 88v553h50v-548q0 -62 -8.5 -102.5t-26 -64t-45.5 -33t-68 -9.5q-18 0 -32 3.5t-27 7.5z" />
    <glyph glyph-name="K" unicode="K" horiz-adv-x="565" 
d="M466 0l-361 369v-369h-50v746h50v-359l342 359h63l-348 -367l372 -379h-68z" />
    <glyph glyph-name="L" unicode="L" horiz-adv-x="403" 
d="M55 746h50v-703h289v-43h-339v746z" />
    <glyph glyph-name="M" unicode="M" horiz-adv-x="799" 
d="M385 114l-280 538v-652h-50v746h61l287 -555l283 555h58v-746h-50v651l-277 -537h-32z" />
    <glyph glyph-name="N" unicode="N" horiz-adv-x="686" 
d="M581 0l-476 673v-673h-50v746h62l464 -654v654h50v-746h-50z" />
    <glyph glyph-name="O" unicode="O" horiz-adv-x="879" 
d="M440 770q84 0 158 -31t129.5 -84.5t87.5 -126t32 -154.5t-32 -155t-87.5 -126.5t-129.5 -85t-158 -31.5t-159 31.5t-130 85t-87 126.5t-32 155t32 154.5t87 126t130 84.5t159 31zM440 725q-73 0 -138 -29t-113.5 -77.5t-77 -112t-28.5 -131.5q0 -70 28.5 -134.5t77 -113
t113.5 -77.5t138 -29q72 0 137 29t113.5 77.5t77 112.5t28.5 135q0 68 -28.5 131.5t-77 112t-113.5 77.5t-137 29z" />
    <glyph glyph-name="P" unicode="P" horiz-adv-x="462" 
d="M202 323h-97v-323h-50v746h156q63 0 107 -16t71 -43.5t39 -63.5t12 -76q0 -98 -64 -161t-174 -63zM211 703h-106v-337h106q78 0 128 51.5t50 129.5q0 30 -8.5 58t-28 50t-54 35t-87.5 13z" />
    <glyph glyph-name="Q" unicode="Q" horiz-adv-x="879" 
d="M440 725q-73 0 -138 -29t-113.5 -77.5t-77 -112t-28.5 -131.5q0 -70 28.5 -134.5t77 -113t113.5 -77.5t138 -29q72 0 137 29t113.5 77.5t77 112.5t28.5 135q0 68 -28.5 131.5t-77 112t-113.5 77.5t-137 29zM821 -23h-352q-7 -1 -14.5 -1h-14.5q-84 0 -159 31.5t-130 85
t-87 126.5t-32 155t32 154.5t87 126t130 84.5t159 31t158 -31t129.5 -84.5t87.5 -126t32 -154.5q0 -115 -61.5 -210t-160.5 -144h224z" />
    <glyph glyph-name="R" unicode="R" horiz-adv-x="503" 
d="M196 703h-91v-337h86q43 0 79.5 14t63 38.5t41 57.5t14.5 71q0 26 -10 54t-32.5 50.5t-59.5 37t-91 14.5zM420 0l-315 321v-321h-50v746h141q68 0 115 -17.5t75.5 -45.5t41 -64t12.5 -72q0 -48 -18 -89.5t-51.5 -71t-81.5 -46.5t-107 -17h-12l317 -323h-67z" />
    <glyph glyph-name="S" unicode="S" horiz-adv-x="507" 
d="M410 724l-3 -57q-31 20 -71 34.5t-84 14.5q-43 0 -70.5 -12.5t-43.5 -30t-22.5 -37t-6.5 -34.5q0 -44 32.5 -84.5t120.5 -86.5q110 -58 158.5 -113t48.5 -121q0 -52 -19 -91.5t-51.5 -65.5t-76 -39t-91.5 -13q-24 0 -50.5 3.5t-52 10t-49 16.5t-39.5 23l3 59
q49 -34 92 -50.5t100 -16.5q48 0 82.5 14.5t57 37.5t33 51.5t10.5 56.5q0 51 -39.5 98t-138.5 98q-100 52 -141 102t-41 107q0 31 12 60t35.5 52t59.5 37t84 14q36 0 80.5 -8.5t80.5 -28.5z" />
    <glyph glyph-name="T" unicode="T" horiz-adv-x="374" 
d="M162 0v703h-153v43h356v-43h-153v-703h-50z" />
    <glyph glyph-name="U" unicode="U" horiz-adv-x="626" 
d="M571 278q0 -68 -16 -123.5t-48 -95t-81 -61.5t-114 -22q-64 0 -112.5 22t-80.5 61.5t-48 95t-16 123.5v468h50v-497q0 -57 17.5 -100t46 -71t66 -42.5t77.5 -14.5q41 0 79 14.5t66.5 42.5t46 71t17.5 100v497h50v-468z" />
    <glyph glyph-name="V" unicode="V" horiz-adv-x="639" 
d="M345 0h-51l-292 746h52l267 -676l264 676h52z" />
    <glyph glyph-name="W" unicode="W" horiz-adv-x="979" 
d="M686 0l-196 655l-197 -655h-51l-238 746h52l211 -664l198 664h50l198 -665l210 665h52l-238 -746h-51z" />
    <glyph glyph-name="X" unicode="X" horiz-adv-x="570" 
d="M505 0l-221 358l-223 -358h-56l247 398l-221 348h58l196 -307l196 307h58l-223 -347l249 -399h-60z" />
    <glyph glyph-name="Y" unicode="Y" horiz-adv-x="558" 
d="M303 0h-50v258l-251 488h55l223 -429l222 429h54l-253 -488v-258z" />
    <glyph glyph-name="Z" unicode="Z" horiz-adv-x="570" 
d="M537 0h-522l-1 2l430 701h-385l20 43h448l1 -2l-432 -701h461z" />
    <glyph glyph-name="bracketleft" unicode="[" horiz-adv-x="354" 
d="M125 -214v960h176v-38h-127v-884h135v-38h-184z" />
    <glyph glyph-name="backslash" unicode="\" horiz-adv-x="500" 
d="M20 780h51l501 -1000h-49z" />
    <glyph glyph-name="bracketright" unicode="]" horiz-adv-x="354" 
d="M229 -214h-184v38h135v884h-127v38h176v-960z" />
    <glyph glyph-name="asciicircum" unicode="^" horiz-adv-x="614" 
d="M502 369l-196 333l-196 -333h-50l221 377h49l224 -377h-52z" />
    <glyph glyph-name="underscore" unicode="_" horiz-adv-x="500" 
d="M500 -65v-39h-500v39h500z" />
    <glyph glyph-name="grave" unicode="`" horiz-adv-x="500" 
d="M160 790h66l92 -147h-37z" />
    <glyph glyph-name="a" unicode="a" horiz-adv-x="491" 
d="M230 24q69 0 116.5 43t47.5 103t-45.5 103t-118.5 43q-68 0 -109.5 -43t-41.5 -103t41.5 -103t109.5 -43zM392 0v60q-28 -33 -70.5 -56t-93.5 -23q-42 0 -78.5 15t-63 40.5t-42 60t-15.5 73.5t15.5 73.5t42 60t63 40.5t78.5 15q53 0 94.5 -20t69.5 -51v80
q0 104 -41 141.5t-100 37.5q-29 0 -55.5 -3t-81.5 -13l-7 41q54 10 82 13.5t62 3.5q98 0 143 -54.5t45 -147.5v-387h-47z" />
    <glyph glyph-name="b" unicode="b" horiz-adv-x="699" 
d="M359 -29q-82 0 -151 43.5t-109 110.5v-125h-47v780h47v-332q40 69 108.5 112t151.5 43q67 0 124 -26t98.5 -69.5t65 -101t23.5 -119.5t-23.5 -119.5t-65 -101t-98.5 -69.5t-124 -26zM98 287q0 -53 19.5 -103t54 -87.5t83 -60t104.5 -22.5t104.5 22.5t83 60t54 87.5
t19.5 103t-19.5 103t-54 87.5t-83 60t-104.5 22.5t-104.5 -22.5t-83 -60t-54 -87.5t-19.5 -103z" />
    <glyph glyph-name="c" unicode="c" horiz-adv-x="529" 
d="M480 58v-48q-39 -16 -75.5 -21.5t-62.5 -5.5q-65 0 -122.5 24.5t-99.5 66t-66.5 97t-24.5 116.5t24.5 116.5t66.5 97t99.5 66t122.5 24.5q25 0 61 -7t77 -26v-49h-2q-42 24 -79.5 31.5t-56.5 7.5q-54 0 -102 -21t-83.5 -56.5t-56.5 -83t-21 -100.5t21 -100.5t56.5 -83
t83.5 -56.5t102 -21q21 0 52.5 5t83.5 27h2z" />
    <glyph glyph-name="d" unicode="d" horiz-adv-x="699" 
d="M601 287q0 53 -19.5 103t-54 87.5t-83 60t-104.5 22.5t-104.5 -22.5t-83 -60t-54 -87.5t-19.5 -103t19.5 -103t54 -87.5t83 -60t104.5 -22.5t104.5 22.5t83 60t54 87.5t19.5 103zM600 0v125q-40 -67 -109 -110.5t-151 -43.5q-67 0 -124 26t-98.5 69.5t-65 101
t-23.5 119.5t23.5 119.5t65 101t98.5 69.5t124 26q83 0 151.5 -43t108.5 -112v332h47v-780h-47z" />
    <glyph glyph-name="e" unicode="e" horiz-adv-x="654" 
d="M332 560q-45 0 -86.5 -16.5t-74 -45t-55.5 -68.5t-32 -86h492q-7 44 -29.5 83.5t-55.5 69t-74 46.5t-85 17zM610 86q-40 -47 -110.5 -81t-157.5 -34q-68 0 -125.5 25.5t-99 69t-65 101t-23.5 120.5q0 61 22 118t61.5 101t95.5 70.5t124 26.5q59 0 113 -24t94.5 -64
t65 -94t24.5 -114v-5h-550v-6.5v-7.5q0 -58 21.5 -108t57.5 -87t83.5 -58t100.5 -21q69 0 130 30.5t108 77.5z" />
    <glyph glyph-name="f" unicode="f" horiz-adv-x="262" 
d="M237 532h-94v-532h-47v532h-85v42h85v43q0 52 14 84.5t36 49.5t50 23t57 6v-43q-18 0 -37.5 -3.5t-35.5 -16t-26.5 -36.5t-10.5 -65v-42h94v-42z" />
    <glyph glyph-name="g" unicode="g" horiz-adv-x="666" 
d="M326 74q50 0 94.5 19t77 52t51.5 77.5t19 94.5t-19 94.5t-51.5 77.5t-77 52t-94.5 19t-95 -19t-78 -52t-52.5 -77.5t-19.5 -94.5t19.5 -94.5t52.5 -77.5t78 -52t95 -19zM614 88q0 -91 -24.5 -150t-64.5 -92.5t-92 -46.5t-105 -13q-36 0 -83.5 4.5t-108.5 17.5v41
q73 -13 118.5 -18t73.5 -4q45 0 88.5 11.5t76.5 41t53.5 80t20.5 128.5v70q-22 -32 -52 -56t-61.5 -39.5t-62.5 -23.5t-57 -8q-60 0 -114.5 20t-96 57.5t-66 90.5t-24.5 118t24.5 117.5t65.5 90t96 58t115 20.5q26 0 58 -7.5t63 -23t60.5 -39.5t51.5 -57v98h47v-486z" />
    <glyph glyph-name="h" unicode="h" horiz-adv-x="545" 
d="M99 369v-369h-47v780h47v-285q27 39 77.5 66t110.5 27q99 0 153.5 -58t54.5 -158v-372h-47v359q0 53 -14.5 89t-39 57.5t-55.5 30.5t-64 9q-27 0 -58 -10.5t-57 -32.5t-43.5 -55t-17.5 -78z" />
    <glyph glyph-name="i" unicode="i" horiz-adv-x="157" 
d="M104 780v-104h-51v104h51zM102 574v-574h-47v574h47z" />
    <glyph glyph-name="j" unicode="j" horiz-adv-x="157" 
d="M104 780v-104h-51v104h51zM-63 -177h5q55 1 84 45t29 126v580h47v-580q0 -104 -41 -158.5t-107 -55.5h-17v43z" />
    <glyph glyph-name="k" unicode="k" horiz-adv-x="494" 
d="M433 0l-269 313l-65 -54v-259h-47v780h47v-464l308 258h67l-275 -231l296 -343h-62z" />
    <glyph glyph-name="l" unicode="l" horiz-adv-x="157" 
d="M102 780v-780h-47v780h47z" />
    <glyph glyph-name="m" unicode="m" horiz-adv-x="835" 
d="M99 369v-369h-47v574h47v-70q22 35 63 59.5t92 24.5q62 0 106 -28t65 -79q19 43 64.5 75t109.5 32q85 0 135.5 -58t50.5 -158v-372h-47v359q0 107 -42 146.5t-107 39.5q-25 0 -51 -11t-46.5 -32t-34.5 -51t-15 -67v-5v-7v-372h-47v359q0 54 -12 90t-32.5 57t-48 30
t-56.5 9q-24 0 -50.5 -10.5t-47.5 -32.5t-35 -55t-14 -78z" />
    <glyph glyph-name="n" unicode="n" horiz-adv-x="544" 
d="M99 369v-369h-47v574h47v-79q27 39 77.5 66t110.5 27q98 0 152.5 -58t54.5 -158v-372h-47v359q0 53 -14.5 89t-38.5 57.5t-55.5 30.5t-63.5 9q-27 0 -58 -10.5t-57 -32.5t-43.5 -55t-17.5 -78z" />
    <glyph glyph-name="o" unicode="o" horiz-adv-x="684" 
d="M342 603q68 0 125.5 -26t99 -69.5t65 -101t23.5 -119.5t-23.5 -119.5t-65 -101t-99 -69.5t-125.5 -26t-125.5 26t-99 69.5t-65 101t-23.5 119.5t23.5 119.5t65 101t99 69.5t125.5 26zM342 560q-57 0 -105.5 -22.5t-83.5 -60t-54.5 -87.5t-19.5 -103t19.5 -103t54.5 -87.5
t83.5 -60t105.5 -22.5t105.5 22.5t83.5 60t54.5 87.5t19.5 103t-19.5 103t-54.5 87.5t-83.5 60t-105.5 22.5z" />
    <glyph glyph-name="p" unicode="p" horiz-adv-x="699" 
d="M98 287q0 -53 19.5 -103t54 -87.5t83 -60t104.5 -22.5t104.5 22.5t83 60t54 87.5t19.5 103t-19.5 103t-54 87.5t-83 60t-104.5 22.5t-104.5 -22.5t-83 -60t-54 -87.5t-19.5 -103zM359 -29q-83 0 -151.5 43t-108.5 112v-346h-47v794h47v-125q40 67 109 110.5t151 43.5
q67 0 124 -26t98.5 -69.5t65 -101t23.5 -119.5t-23.5 -119.5t-65 -101t-98.5 -69.5t-124 -26z" />
    <glyph glyph-name="q" unicode="q" horiz-adv-x="699" 
d="M647 -220h-47v346q-40 -69 -108.5 -112t-151.5 -43q-67 0 -124 26t-98.5 69.5t-65 101t-23.5 119.5t23.5 119.5t65 101t98.5 69.5t124 26q82 0 151 -43.5t109 -110.5v125h47v-794zM601 287q0 53 -19.5 103t-54 87.5t-83 60t-104.5 22.5t-104.5 -22.5t-83 -60t-54 -87.5
t-19.5 -103t19.5 -103t54 -87.5t83 -60t104.5 -22.5t104.5 22.5t83 60t54 87.5t19.5 103z" />
    <glyph glyph-name="r" unicode="r" horiz-adv-x="312" 
d="M99 330v-330h-47v574h47v-109q10 17 25 36t35 35.5t45 27t53 10.5h19v-53q-3 1 -8 2t-8 1q-37 0 -67 -19.5t-50.5 -48t-32 -63t-11.5 -63.5z" />
    <glyph glyph-name="s" unicode="s" horiz-adv-x="406" 
d="M196 588q31 0 60.5 -8.5t52.5 -21.5v-52q-25 18 -53 28.5t-60 10.5q-51 0 -83 -23.5t-32 -62.5q0 -31 29 -57t101 -71q100 -61 135.5 -102.5t35.5 -92.5q0 -71 -53 -109.5t-132 -39.5q-40 0 -85.5 13.5t-76.5 31.5v54q38 -24 83 -40t79 -16q67 1 101 31.5t34 72.5
q0 11 -3.5 25t-17.5 32.5t-42.5 42t-78.5 53.5q-44 27 -74.5 47.5t-49 39.5t-27 40t-8.5 50q0 19 9.5 40.5t29.5 40t51.5 31t74.5 12.5z" />
    <glyph glyph-name="t" unicode="t" horiz-adv-x="245" 
d="M231 532h-85v-532h-47v532h-85v42h85v139l47 30v-169h85v-42z" />
    <glyph glyph-name="u" unicode="u" horiz-adv-x="545" 
d="M446 0v79q-27 -39 -77.5 -66t-110.5 -27q-99 0 -153.5 58t-54.5 158v372h47v-359q0 -53 14.5 -89t39 -57.5t55.5 -30.5t64 -9q27 0 58 10.5t57 32.5t43.5 55t17.5 78v369h47v-574h-47z" />
    <glyph glyph-name="v" unicode="v" horiz-adv-x="584" 
d="M315 0h-49l-267 574h52l240 -524l244 524h50z" />
    <glyph glyph-name="w" unicode="w" horiz-adv-x="831" 
d="M584 0l-168 508l-167 -508h-47l-203 574h50l176 -509l164 509h56l162 -508l177 508h48l-203 -574h-45z" />
    <glyph glyph-name="x" unicode="x" horiz-adv-x="545" 
d="M470 0l-199 260l-195 -260h-58l223 298l-203 276h57l181 -241l172 241h58l-201 -275l222 -299h-57z" />
    <glyph glyph-name="y" unicode="y" horiz-adv-x="535" 
d="M231 -220h-46l79 207l-265 587h52l235 -530l202 530h48z" />
    <glyph glyph-name="z" unicode="z" horiz-adv-x="547" 
d="M504 0h-489v2l434 530h-356l20 42h426v-2l-435 -530h420z" />
    <glyph glyph-name="braceleft" unicode="{" horiz-adv-x="369" 
d="M301 -214h-60q-49 0 -72.5 28.5t-23.5 109.5v219q0 47 -15.5 66t-40.5 26h-4v60h4q25 7 40.5 26t15.5 65v222q0 81 23.5 109.5t72.5 28.5h60v-38h-42q-33 0 -49 -19t-16 -82v-223q0 -46 -14.5 -74t-47.5 -40v-10q33 -12 47.5 -40.5t14.5 -74.5v-220q0 -63 16 -82t49 -19
h42v-38z" />
    <glyph glyph-name="bar" unicode="|" horiz-adv-x="155" 
d="M55 746h45v-906h-45v906z" />
    <glyph glyph-name="braceright" unicode="}" horiz-adv-x="369" 
d="M128 -214h-60v38h42q33 0 49 19t16 82v220q0 46 14.5 74.5t47.5 40.5v10q-33 12 -47.5 40t-14.5 74v223q0 63 -16 82t-49 19h-42v38h60q49 0 72.5 -28.5t23.5 -109.5v-222q0 -46 15.5 -65t40.5 -26h4v-60h-4q-25 -7 -40.5 -26t-15.5 -66v-219q0 -81 -23.5 -109.5
t-72.5 -28.5z" />
    <glyph glyph-name="asciitilde" unicode="~" horiz-adv-x="665" 
d="M115 253l-48 6q0 37 11 61.5t28 39t38 20t42 5.5q35 0 75 -18.5t79 -40.5t75 -40.5t64 -18.5q26 0 48.5 15t22.5 75l48 -6q0 -37 -11 -61.5t-28 -39t-38.5 -20t-41.5 -5.5q-35 0 -75 18.5t-79 40.5t-75 40.5t-64 18.5q-26 0 -48.5 -15.5t-22.5 -74.5z" />
    <glyph glyph-name="exclamdown" unicode="&#xa1;" horiz-adv-x="250" 
d="M93 746h64v-80h-64v80zM145 591l10 -591h-60l10 591h40z" />
    <glyph glyph-name="cent" unicode="&#xa2;" horiz-adv-x="516" 
d="M480 -2q-35 -14 -69 -20t-59 -7v-88h-50v91q-58 7 -108 35t-86.5 70t-57.5 95.5t-21 112.5t21 112.5t57.5 95.5t86.5 70t108 35v95h50v-92q25 -1 58 -8.5t70 -24.5v-49h-2q-42 24 -79.5 31.5t-56.5 7.5q-54 0 -102 -22t-83.5 -59t-56.5 -87t-21 -105t21 -105t56.5 -87
t83.5 -59t102 -22q21 0 52.5 5t83.5 27h2v-48z" />
    <glyph glyph-name="sterling" unicode="&#xa3;" horiz-adv-x="561" 
d="M531 42v-42h-486v42h25q53 0 79 38t26 108v184h-100v42h100v170q0 43 17.5 76t46 55.5t66.5 34t79 11.5q28 0 56.5 -4.5t56.5 -16.5v-48q-27 14 -54.5 20t-55.5 6q-31 0 -60.5 -9t-52.5 -26.5t-37.5 -42.5t-14.5 -57v-169h209v-42h-209v-184q0 -51 -12 -88t-33 -58h354z
" />
    <glyph glyph-name="currency" unicode="&#xa4;" horiz-adv-x="572" 
d="M490 163l-104 103q-21 -16 -46.5 -25t-54.5 -9t-54.5 9t-46.5 25l-104 -103l-35 36l104 104q-13 20 -21 44.5t-8 49.5t8 49.5t21 44.5l-104 104l35 36l104 -103q21 16 46.5 25t54.5 9t54.5 -9t46.5 -25l104 103l35 -36l-104 -104q13 -20 21 -44.5t8 -49.5t-8 -49.5
t-21 -44.5l104 -104zM285 521q-51 0 -85.5 -37.5t-34.5 -86.5t34.5 -86.5t85.5 -37.5t85.5 37.5t34.5 86.5t-34.5 86.5t-85.5 37.5z" />
    <glyph glyph-name="yen" unicode="&#xa5;" horiz-adv-x="558" 
d="M514 193h-211v-193h-50v193h-203v38h203v47l-31 60h-172v38h153l-191 370h57l211 -412l211 412h55l-192 -370h160v-38h-180l-31 -60v-47h211v-38z" />
    <glyph glyph-name="brokenbar" unicode="&#xa6;" horiz-adv-x="155" 
d="M55 746h45v-390h-45v390zM55 230h45v-390h-45v390z" />
    <glyph glyph-name="section" unicode="&#xa7;" horiz-adv-x="436" 
d="M221 165q16 -10 31 -20t28 -20q43 13 66 47t23 75q0 12 -4 29.5t-18.5 39t-44 48t-80.5 56.5q-4 2 -7.5 4.5t-6.5 4.5q-51 0 -88 -30.5t-37 -75.5q0 -40 30 -74.5t108 -83.5zM192 -214q-45 0 -85.5 14.5t-71.5 30.5l3 52q38 -23 77.5 -38.5t76.5 -15.5q67 1 104.5 37
t37.5 85q0 18 -6 38t-23 42t-49 48.5t-84 58.5q-66 40 -100 80.5t-34 99.5q0 21 7.5 43.5t22.5 42.5t37.5 35.5t51.5 22.5q-50 37 -72 70.5t-22 79.5q0 25 10.5 51.5t31.5 48t52 35.5t71 14q31 0 56.5 -7.5t58.5 -23.5l-3 -51q-28 18 -54 28.5t-58 10.5q-47 0 -81 -29
t-34 -72q0 -40 29 -73.5t101 -79.5q99 -60 135 -109.5t36 -105.5q0 -57 -28 -96t-71 -57q37 -34 53 -68t16 -72q0 -42 -15 -74t-41 -53t-61 -32t-75 -11z" />
    <glyph glyph-name="dieresis" unicode="&#xa8;" horiz-adv-x="500" 
d="M380 741v-66h-64v66h64zM184 741v-66h-64v66h64z" />
    <glyph glyph-name="copyright" unicode="&#xa9;" horiz-adv-x="879" 
d="M440 756q83 0 154.5 -30t123.5 -82t81.5 -122t29.5 -149t-29.5 -149t-81.5 -122t-123.5 -82t-154.5 -30t-155 30t-124 82t-81.5 122t-29.5 149t29.5 149t81.5 122t124 82t155 30zM440 720q-72 0 -135.5 -27.5t-110.5 -74.5t-74.5 -110.5t-27.5 -134.5q0 -72 27.5 -135.5
t74.5 -110t110.5 -74t135.5 -27.5q71 0 134.5 27.5t110.5 74t74.5 110t27.5 135.5q0 71 -27.5 134.5t-74.5 110.5t-110.5 74.5t-134.5 27.5zM596 555l-23 -28q-29 20 -58 30.5t-62 10.5q-40 0 -76 -16t-62.5 -42.5t-42 -61t-15.5 -72.5t15.5 -73t42 -61.5t62.5 -42.5t76 -16
q33 0 62 10.5t58 30.5l23 -28q-32 -25 -68.5 -38t-75.5 -13q-50 0 -93.5 18.5t-75 49.5t-50 73.5t-18.5 89.5t18.5 89.5t50 73.5t75 49t93.5 18q39 0 75.5 -13t68.5 -38z" />
    <glyph glyph-name="ordfeminine" unicode="&#xaa;" horiz-adv-x="351" 
d="M166 368q44 0 74.5 28t30.5 68q0 39 -29 67t-76 28q-44 0 -71 -28t-27 -67q0 -40 27 -68t71 -28zM271 345v40q-19 -22 -48.5 -37.5t-66.5 -15.5q-57 0 -97 38.5t-40 93.5q0 54 40 93t100 39q35 0 63 -12t47 -31v46q0 68 -26.5 92.5t-68.5 24.5q-20 0 -39.5 -2.5
t-57.5 -9.5l-4 41q37 7 57.5 9.5t45.5 2.5q72 0 106 -38t34 -103v-271h-45z" />
    <glyph glyph-name="guillemotleft" unicode="&#xab;" horiz-adv-x="499" 
d="M281 0h-46l-185 285v4l185 285h48l-186 -288zM441 0h-46l-185 285v4l185 285h48l-186 -288z" />
    <glyph glyph-name="logicalnot" unicode="&#xac;" horiz-adv-x="654" 
d="M614 141h-50v237h-534v43h584v-280z" />
    <glyph glyph-name="registered" unicode="&#xae;" horiz-adv-x="527" 
d="M264 756q50 0 92.5 -18t73.5 -49t49 -73t18 -89t-18 -89.5t-49 -73.5t-73.5 -49t-92.5 -18t-93 18t-74 49t-49 73.5t-18 89.5t18 89t49 73t74 49t93 18zM264 734q-43 0 -81 -16t-66.5 -44t-45 -66t-16.5 -81t16.5 -81t45 -66t66.5 -44.5t81 -16.5t80.5 16.5t65.5 44.5
t44.5 66t16.5 81t-16.5 81t-44.5 66t-65.5 44t-80.5 16zM257 636h-31v-103h30q27 0 44 16t17 38q-1 16 -14 32.5t-46 16.5zM335 398l-109 111v-111h-25v260h56q44 0 64.5 -20.5t20.5 -50.5q0 -31 -23.5 -53t-59.5 -24l105 -109l-2 -3h-27z" />
    <glyph glyph-name="macron" unicode="&#xaf;" horiz-adv-x="500" 
d="M373 706v-43h-246v43h246z" />
    <glyph glyph-name="degree" unicode="&#xb0;" horiz-adv-x="358" 
d="M179 765q34 0 63 -13t50 -34.5t33 -50.5t12 -60t-12 -59.5t-33 -50.5t-50 -35t-63 -13t-63.5 13t-50 35t-32.5 50.5t-12 59.5t12 60t32.5 50.5t50 34.5t63.5 13zM179 729q-51 0 -83.5 -37t-32.5 -85t32.5 -85t83.5 -37t83.5 37.5t32.5 84.5q0 48 -32.5 85t-83.5 37z" />
    <glyph glyph-name="plusminus" unicode="&#xb1;" horiz-adv-x="594" 
d="M554 335h-231v-207h-50v207h-233v43h233v235h50v-235h231v-43zM554 85v-40h-514v40h514z" />
    <glyph glyph-name="two.sups" unicode="&#xb2;" horiz-adv-x="368" 
d="M323 279h-297l-1 3l36 42t65.5 76t66.5 77.5t38 45.5q25 31 38.5 53t13.5 55q0 36 -29 64.5t-74 29.5q-28 0 -55.5 -10.5t-56.5 -36.5v47q25 18 54 27t61 9q61 -1 101.5 -39.5t40.5 -89.5q0 -46 -17 -72t-45 -59q-7 -9 -26 -30.5t-42.5 -48.5t-49 -55.5t-47.5 -51.5h241z
" />
    <glyph glyph-name="three.sups" unicode="&#xb3;" horiz-adv-x="329" 
d="M126 264q-18 0 -48.5 5.5t-49.5 17.5v37q16 -13 47 -18t46 -5q59 -1 97 32.5t38 82.5t-36.5 79t-90.5 30h-36l1 35h35q43 0 70.5 27t27.5 61q0 32 -25.5 54t-64.5 22q-19 0 -37 -3t-39 -13l6 41q13 5 33 8.5t40 3.5q53 1 91 -31.5t38 -79.5q-1 -31 -20 -59.5t-47 -43.5
q42 -14 68.5 -48.5t26.5 -82.5q0 -65 -48 -109t-123 -43z" />
    <glyph glyph-name="acute" unicode="&#xb4;" horiz-adv-x="500" 
d="M339 790l-121 -147h-37l92 147h66z" />
    <glyph glyph-name="paragraph" unicode="&#xb6;" horiz-adv-x="543" 
d="M355 -207h-36v479h-7q-62 0 -113 19.5t-87.5 52.5t-57 76t-20.5 89q0 47 20 90t55 75.5t83.5 52t104.5 19.5h191v-953h-36v911h-97v-911z" />
    <glyph glyph-name="periodcentered" unicode="&#xb7;" horiz-adv-x="205" 
d="M68 395h69v-98h-69v98z" />
    <glyph glyph-name="cedilla" unicode="&#xb8;" horiz-adv-x="500" 
d="M223 -184q-8 0 -26.5 3t-34.5 9v38h1q17 -7 34.5 -10t25.5 -3q26 0 41 12t15 28q0 14 -16.5 23t-48.5 9h-19l-3 4l32 81h45l-24 -52q37 -4 57 -21.5t20 -45.5q0 -31 -26.5 -53t-72.5 -22z" />
    <glyph glyph-name="one.sups" unicode="&#xb9;" horiz-adv-x="233" 
d="M173 279h-41v400l-95 -103v56l104 114h32v-467z" />
    <glyph glyph-name="ordmasculine" unicode="&#xba;" horiz-adv-x="482" 
d="M241 766q48 0 89 -18t70 -48t46 -70t17 -84t-17 -84.5t-46 -70.5t-70 -48t-89 -18t-89 18t-70 48t-46 70.5t-17 84.5t17 84t46 70t70 48t89 18zM241 725q-37 0 -69 -15t-54.5 -39.5t-35.5 -57t-13 -67.5t13 -68t35.5 -57.5t54.5 -39.5t69 -15t69 15t54.5 39.5t35.5 57.5
t13 68t-13 67.5t-35.5 57t-54.5 39.5t-69 15z" />
    <glyph glyph-name="guillemotright" unicode="&#xbb;" horiz-adv-x="499" 
d="M104 0h-48l186 288l-184 286h46l185 -285v-4zM264 0h-48l186 288l-184 286h46l185 -285v-4z" />
    <glyph glyph-name="onequarter" unicode="&#xbc;" horiz-adv-x="662" 
d="M153 279h-41v400l-95 -103v56l104 114h32v-467zM499 746h44l-434 -746h-44zM548 139v259l-192 -259h192zM637 103h-46v-103h-43v103h-259l-1 4l266 360h37v-328h59z" />
    <glyph glyph-name="onehalf" unicode="&#xbd;" horiz-adv-x="718" 
d="M153 279h-41v400l-95 -103v56l104 114h32v-467zM499 746h44l-434 -746h-44zM693 0h-297l-1 3l36 42t65.5 76t66.5 77.5t38 45.5q25 31 38.5 53t13.5 55q0 36 -29 64.5t-74 29.5q-28 0 -55.5 -10.5t-56.5 -36.5v47q25 18 54 27t61 9q61 -1 101.5 -39.5t40.5 -89.5
q0 -46 -17 -72t-45 -59q-7 -9 -26 -30.5t-42.5 -48.5t-49 -55.5t-47.5 -51.5h241z" />
    <glyph glyph-name="threequarters" unicode="&#xbe;" horiz-adv-x="748" 
d="M106 264q-18 0 -48.5 5.5t-49.5 17.5v37q16 -13 47 -18t46 -5q59 -1 97 32.5t38 82.5t-36.5 79t-90.5 30h-36l1 35h35q43 0 70.5 27t27.5 61q0 32 -25.5 54t-64.5 22q-19 0 -37 -3t-39 -13l6 41q13 5 33 8.5t40 3.5q53 1 91 -31.5t38 -79.5q-1 -31 -20 -59.5t-47 -43.5
q42 -14 68.5 -48.5t26.5 -82.5q0 -65 -48 -109t-123 -43zM585 746h44l-434 -746h-44zM634 139v259l-192 -259h192zM723 103h-46v-103h-43v103h-259l-1 4l266 360h37v-328h59z" />
    <glyph glyph-name="questiondown" unicode="&#xbf;" horiz-adv-x="592" 
d="M354 746v-80h-50v80h50zM315 -15q-46 0 -86.5 14.5t-69.5 41.5t-46 65.5t-17 85.5q0 50 17 90t46 67.5t66.5 44t78.5 20.5v177h50v-221h-24q-35 0 -67.5 -11.5t-57.5 -34t-40.5 -55.5t-15.5 -76q0 -68 45.5 -115.5t120.5 -47.5q44 0 88.5 16.5t92.5 59.5v-62
q-39 -28 -84 -43.5t-97 -15.5z" />
    <glyph glyph-name="Agrave" unicode="&#xc0;" horiz-adv-x="679" 
d="M532 223l-193 472l-195 -472h388zM623 0l-74 180h-423l-74 -180h-50l312 746h51l312 -746h-54zM209 954h66l92 -147h-37z" />
    <glyph glyph-name="Aacute" unicode="&#xc1;" horiz-adv-x="679" 
d="M532 223l-193 472l-195 -472h388zM623 0l-74 180h-423l-74 -180h-50l312 746h51l312 -746h-54zM468 954l-121 -147h-37l92 147h66z" />
    <glyph glyph-name="Acircumflex" unicode="&#xc2;" horiz-adv-x="679" 
d="M532 223l-193 472l-195 -472h388zM623 0l-74 180h-423l-74 -180h-50l312 746h51l312 -746h-54zM429 807l-90 110l-90 -110h-37l94 147h66l94 -147h-37z" />
    <glyph glyph-name="Atilde" unicode="&#xc3;" horiz-adv-x="679" 
d="M532 223l-193 472l-195 -472h388zM623 0l-74 180h-423l-74 -180h-50l312 746h51l312 -746h-54zM199 807h-40q-4 36 2.5 60.5t19 39.5t29.5 21t33 6q22 0 48.5 -14t52 -30.5t49.5 -30.5t41 -14q18 0 32.5 17t11.5 72h40q4 -36 -2.5 -60.5t-19 -39.5t-29.5 -21t-33 -6
q-22 0 -48.5 14t-52 30.5t-49.5 30.5t-41 14q-18 0 -32.5 -17t-11.5 -72z" />
    <glyph glyph-name="Adieresis" unicode="&#xc4;" horiz-adv-x="679" 
d="M532 223l-193 472l-195 -472h388zM623 0l-74 180h-423l-74 -180h-50l312 746h51l312 -746h-54zM469 873v-66h-64v66h64zM273 873v-66h-64v66h64z" />
    <glyph glyph-name="Aring" unicode="&#xc5;" horiz-adv-x="679" 
d="M532 223l-193 472l-195 -472h388zM623 0l-74 180h-423l-74 -180h-50l312 746h51l312 -746h-54zM339 915q42 0 71.5 -30t29.5 -70t-29.5 -70t-71.5 -30t-71.5 30t-29.5 70t29.5 70t71.5 30zM339 883q-28 0 -47.5 -20t-19.5 -48t19.5 -48t47.5 -20t47.5 20t19.5 48
t-19.5 48t-47.5 20z" />
    <glyph glyph-name="AE" unicode="&#xc6;" horiz-adv-x="936" 
d="M500 223l-183 480l-179 -480h362zM585 0l-69 180h-395l-67 -180h-52l292 746h382v-43h-314l108 -277h317v-43h-300l133 -340h314v-43h-349z" />
    <glyph glyph-name="Ccedilla" unicode="&#xc7;" horiz-adv-x="654" 
d="M621 726v-54q-40 25 -86 39t-95 14q-73 0 -138 -29t-113.5 -77.5t-77 -112t-28.5 -131.5q0 -70 28.5 -134.5t77 -113t113.5 -77.5t138 -29q49 0 95 14.5t86 38.5v-54q-41 -20 -86.5 -32t-94.5 -12q-84 0 -159 31.5t-130 85t-87 126.5t-32 155t32 154.5t87 126t130 84.5
t159 31q49 0 94 -12t87 -32zM408 -208q-8 0 -26.5 3t-34.5 9v38h1q17 -7 34.5 -10t25.5 -3q26 0 41 12t15 28q0 14 -16.5 23t-48.5 9h-19l-3 4l32 81h45l-24 -52q37 -4 57 -21.5t20 -45.5q0 -31 -26.5 -53t-72.5 -22z" />
    <glyph glyph-name="Egrave" unicode="&#xc8;" horiz-adv-x="449" 
d="M55 0v746h346v-43h-296v-277h277v-43h-277v-340h304v-43h-354zM107 954h66l92 -147h-37z" />
    <glyph glyph-name="Eacute" unicode="&#xc9;" horiz-adv-x="449" 
d="M55 0v746h346v-43h-296v-277h277v-43h-277v-340h304v-43h-354zM366 954l-121 -147h-37l92 147h66z" />
    <glyph glyph-name="Ecircumflex" unicode="&#xca;" horiz-adv-x="449" 
d="M55 0v746h346v-43h-296v-277h277v-43h-277v-340h304v-43h-354zM327 807l-90 110l-90 -110h-37l94 147h66l94 -147h-37z" />
    <glyph glyph-name="Edieresis" unicode="&#xcb;" horiz-adv-x="449" 
d="M55 0v746h346v-43h-296v-277h277v-43h-277v-340h304v-43h-354zM367 873v-66h-64v66h64zM171 873v-66h-64v66h64z" />
    <glyph glyph-name="Igrave" unicode="&#xcc;" horiz-adv-x="166" 
d="M58 0v746h50v-746h-50zM-47 954h66l92 -147h-37z" />
    <glyph glyph-name="Iacute" unicode="&#xcd;" horiz-adv-x="166" 
d="M58 0v746h50v-746h-50zM212 954l-121 -147h-37l92 147h66z" />
    <glyph glyph-name="Icircumflex" unicode="&#xce;" horiz-adv-x="166" 
d="M58 0v746h50v-746h-50zM173 807l-90 110l-90 -110h-37l94 147h66l94 -147h-37z" />
    <glyph glyph-name="Idieresis" unicode="&#xcf;" horiz-adv-x="166" 
d="M58 0v746h50v-746h-50zM213 873v-66h-64v66h64zM17 873v-66h-64v66h64z" />
    <glyph glyph-name="Eth" unicode="&#xd0;" horiz-adv-x="620" 
d="M223 0h-161v361h-55v43h55v342h161q70 0 136 -27t116 -75.5t80.5 -117.5t30.5 -152q0 -84 -30.5 -153.5t-80.5 -118t-115.5 -75.5t-136.5 -27zM112 43h103q62 0 120 21.5t102 63.5t71 104t27 142q0 79 -27 140.5t-71 103.5t-102 63.5t-120 21.5h-103v-299h161v-43h-161
v-318z" />
    <glyph glyph-name="Ntilde" unicode="&#xd1;" horiz-adv-x="686" 
d="M581 0l-476 673v-673h-50v746h62l464 -654v654h50v-746h-50zM203 807h-40q-4 36 2.5 60.5t19 39.5t29.5 21t33 6q22 0 48.5 -14t52 -30.5t49.5 -30.5t41 -14q18 0 32.5 17t11.5 72h40q4 -36 -2.5 -60.5t-19 -39.5t-29.5 -21t-33 -6q-22 0 -48.5 14t-52 30.5t-49.5 30.5
t-41 14q-18 0 -32.5 -17t-11.5 -72z" />
    <glyph glyph-name="Ograve" unicode="&#xd2;" horiz-adv-x="879" 
d="M440 770q84 0 158 -31t129.5 -84.5t87.5 -126t32 -154.5t-32 -155t-87.5 -126.5t-129.5 -85t-158 -31.5t-159 31.5t-130 85t-87 126.5t-32 155t32 154.5t87 126t130 84.5t159 31zM440 725q-73 0 -138 -29t-113.5 -77.5t-77 -112t-28.5 -131.5q0 -70 28.5 -134.5t77 -113
t113.5 -77.5t138 -29q72 0 137 29t113.5 77.5t77 112.5t28.5 135q0 68 -28.5 131.5t-77 112t-113.5 77.5t-137 29zM310 954h66l92 -147h-37z" />
    <glyph glyph-name="Oacute" unicode="&#xd3;" horiz-adv-x="879" 
d="M440 770q84 0 158 -31t129.5 -84.5t87.5 -126t32 -154.5t-32 -155t-87.5 -126.5t-129.5 -85t-158 -31.5t-159 31.5t-130 85t-87 126.5t-32 155t32 154.5t87 126t130 84.5t159 31zM440 725q-73 0 -138 -29t-113.5 -77.5t-77 -112t-28.5 -131.5q0 -70 28.5 -134.5t77 -113
t113.5 -77.5t138 -29q72 0 137 29t113.5 77.5t77 112.5t28.5 135q0 68 -28.5 131.5t-77 112t-113.5 77.5t-137 29zM569 954l-121 -147h-37l92 147h66z" />
    <glyph glyph-name="Ocircumflex" unicode="&#xd4;" horiz-adv-x="879" 
d="M440 770q84 0 158 -31t129.5 -84.5t87.5 -126t32 -154.5t-32 -155t-87.5 -126.5t-129.5 -85t-158 -31.5t-159 31.5t-130 85t-87 126.5t-32 155t32 154.5t87 126t130 84.5t159 31zM440 725q-73 0 -138 -29t-113.5 -77.5t-77 -112t-28.5 -131.5q0 -70 28.5 -134.5t77 -113
t113.5 -77.5t138 -29q72 0 137 29t113.5 77.5t77 112.5t28.5 135q0 68 -28.5 131.5t-77 112t-113.5 77.5t-137 29zM530 807l-90 110l-90 -110h-37l94 147h66l94 -147h-37z" />
    <glyph glyph-name="Otilde" unicode="&#xd5;" horiz-adv-x="879" 
d="M440 770q84 0 158 -31t129.5 -84.5t87.5 -126t32 -154.5t-32 -155t-87.5 -126.5t-129.5 -85t-158 -31.5t-159 31.5t-130 85t-87 126.5t-32 155t32 154.5t87 126t130 84.5t159 31zM440 725q-73 0 -138 -29t-113.5 -77.5t-77 -112t-28.5 -131.5q0 -70 28.5 -134.5t77 -113
t113.5 -77.5t138 -29q72 0 137 29t113.5 77.5t77 112.5t28.5 135q0 68 -28.5 131.5t-77 112t-113.5 77.5t-137 29zM300 807h-40q-4 36 2.5 60.5t19 39.5t29.5 21t33 6q22 0 48.5 -14t52 -30.5t49.5 -30.5t41 -14q18 0 32.5 17t11.5 72h40q4 -36 -2.5 -60.5t-19 -39.5
t-29.5 -21t-33 -6q-22 0 -48.5 14t-52 30.5t-49.5 30.5t-41 14q-18 0 -32.5 -17t-11.5 -72z" />
    <glyph glyph-name="Odieresis" unicode="&#xd6;" horiz-adv-x="879" 
d="M440 770q84 0 158 -31t129.5 -84.5t87.5 -126t32 -154.5t-32 -155t-87.5 -126.5t-129.5 -85t-158 -31.5t-159 31.5t-130 85t-87 126.5t-32 155t32 154.5t87 126t130 84.5t159 31zM440 725q-73 0 -138 -29t-113.5 -77.5t-77 -112t-28.5 -131.5q0 -70 28.5 -134.5t77 -113
t113.5 -77.5t138 -29q72 0 137 29t113.5 77.5t77 112.5t28.5 135q0 68 -28.5 131.5t-77 112t-113.5 77.5t-137 29zM570 873v-66h-64v66h64zM374 873v-66h-64v66h64z" />
    <glyph glyph-name="multiply" unicode="&#xd7;" horiz-adv-x="505" 
d="M445 109l-198 198l-187 -187l-30 31l187 186l-179 179l30 30l179 -179l167 167l30 -30l-167 -167l198 -198z" />
    <glyph glyph-name="Oslash" unicode="&#xd8;" horiz-adv-x="879" 
d="M83 375q0 -81 37.5 -154t100.5 -122l402 573q-40 25 -87 39t-96 14q-73 0 -138 -29t-113.5 -77.5t-77 -112t-28.5 -131.5zM440 21q72 0 137 29t113.5 77.5t77 112.5t28.5 135q0 79 -37.5 151t-100.5 121l-402 -573q40 -25 87 -39t97 -14zM440 -24q-58 0 -112 15t-100 43
l-57 -82h-53l74 106q-72 54 -116 137t-44 179q0 82 32 154.5t87 126t130 84.5t159 31q57 0 111 -15t100 -42l57 81h53l-74 -105q72 -54 116 -136.5t44 -178.5q0 -82 -32 -155t-87.5 -126.5t-129.5 -85t-158 -31.5z" />
    <glyph glyph-name="Ugrave" unicode="&#xd9;" horiz-adv-x="626" 
d="M571 278q0 -68 -16 -123.5t-48 -95t-81 -61.5t-114 -22q-64 0 -112.5 22t-80.5 61.5t-48 95t-16 123.5v468h50v-497q0 -57 17.5 -100t46 -71t66 -42.5t77.5 -14.5q41 0 79 14.5t66.5 42.5t46 71t17.5 100v497h50v-468zM183 954h66l92 -147h-37z" />
    <glyph glyph-name="Uacute" unicode="&#xda;" horiz-adv-x="626" 
d="M571 278q0 -68 -16 -123.5t-48 -95t-81 -61.5t-114 -22q-64 0 -112.5 22t-80.5 61.5t-48 95t-16 123.5v468h50v-497q0 -57 17.5 -100t46 -71t66 -42.5t77.5 -14.5q41 0 79 14.5t66.5 42.5t46 71t17.5 100v497h50v-468zM442 954l-121 -147h-37l92 147h66z" />
    <glyph glyph-name="Ucircumflex" unicode="&#xdb;" horiz-adv-x="626" 
d="M571 278q0 -68 -16 -123.5t-48 -95t-81 -61.5t-114 -22q-64 0 -112.5 22t-80.5 61.5t-48 95t-16 123.5v468h50v-497q0 -57 17.5 -100t46 -71t66 -42.5t77.5 -14.5q41 0 79 14.5t66.5 42.5t46 71t17.5 100v497h50v-468zM403 807l-90 110l-90 -110h-37l94 147h66l94 -147
h-37z" />
    <glyph glyph-name="Udieresis" unicode="&#xdc;" horiz-adv-x="626" 
d="M571 278q0 -68 -16 -123.5t-48 -95t-81 -61.5t-114 -22q-64 0 -112.5 22t-80.5 61.5t-48 95t-16 123.5v468h50v-497q0 -57 17.5 -100t46 -71t66 -42.5t77.5 -14.5q41 0 79 14.5t66.5 42.5t46 71t17.5 100v497h50v-468zM443 873v-66h-64v66h64zM247 873v-66h-64v66h64z
" />
    <glyph glyph-name="Yacute" unicode="&#xdd;" horiz-adv-x="558" 
d="M303 0h-50v258l-251 488h55l223 -429l222 429h54l-253 -488v-258zM408 954l-121 -147h-37l92 147h66z" />
    <glyph glyph-name="Thorn" unicode="&#xde;" horiz-adv-x="445" 
d="M201 583h-96v-327h96q78 0 128 49t50 122q0 30 -8.5 58t-28 50t-54 35t-87.5 13zM192 213h-87v-213h-50v746h50v-120h96q63 0 107 -16t71 -43.5t39 -63.5t12 -76q0 -93 -64 -153.5t-174 -60.5z" />
    <glyph glyph-name="germandbls" unicode="&#xdf;" horiz-adv-x="509" 
d="M261 -148v53q87 60 129 126t42 129q0 72 -47 124t-119 73l101 175h-265v-532h-47v617q0 52 14 84.5t36 49.5t50 23t57 6v-43q-18 0 -37.5 -3.5t-35.5 -16t-26.5 -36.5t-10.5 -65v-71l24 29h314l1 -2l-113 -193q72 -32 111.5 -91t39.5 -128q0 -96 -59 -170t-159 -138z" />
    <glyph glyph-name="agrave" unicode="&#xe0;" horiz-adv-x="491" 
d="M230 24q69 0 116.5 43t47.5 103t-45.5 103t-118.5 43q-68 0 -109.5 -43t-41.5 -103t41.5 -103t109.5 -43zM392 0v60q-28 -33 -70.5 -56t-93.5 -23q-42 0 -78.5 15t-63 40.5t-42 60t-15.5 73.5t15.5 73.5t42 60t63 40.5t78.5 15q53 0 94.5 -20t69.5 -51v80
q0 104 -41 141.5t-100 37.5q-29 0 -55.5 -3t-81.5 -13l-7 41q54 10 82 13.5t62 3.5q98 0 143 -54.5t45 -147.5v-387h-47zM121 798h66l92 -147h-37z" />
    <glyph glyph-name="aacute" unicode="&#xe1;" horiz-adv-x="491" 
d="M230 24q69 0 116.5 43t47.5 103t-45.5 103t-118.5 43q-68 0 -109.5 -43t-41.5 -103t41.5 -103t109.5 -43zM392 0v60q-28 -33 -70.5 -56t-93.5 -23q-42 0 -78.5 15t-63 40.5t-42 60t-15.5 73.5t15.5 73.5t42 60t63 40.5t78.5 15q53 0 94.5 -20t69.5 -51v80
q0 104 -41 141.5t-100 37.5q-29 0 -55.5 -3t-81.5 -13l-7 41q54 10 82 13.5t62 3.5q98 0 143 -54.5t45 -147.5v-387h-47zM380 798l-121 -147h-37l92 147h66z" />
    <glyph glyph-name="acircumflex" unicode="&#xe2;" horiz-adv-x="491" 
d="M230 24q69 0 116.5 43t47.5 103t-45.5 103t-118.5 43q-68 0 -109.5 -43t-41.5 -103t41.5 -103t109.5 -43zM392 0v60q-28 -33 -70.5 -56t-93.5 -23q-42 0 -78.5 15t-63 40.5t-42 60t-15.5 73.5t15.5 73.5t42 60t63 40.5t78.5 15q53 0 94.5 -20t69.5 -51v80
q0 104 -41 141.5t-100 37.5q-29 0 -55.5 -3t-81.5 -13l-7 41q54 10 82 13.5t62 3.5q98 0 143 -54.5t45 -147.5v-387h-47zM341 651l-90 110l-90 -110h-37l94 147h66l94 -147h-37z" />
    <glyph glyph-name="atilde" unicode="&#xe3;" horiz-adv-x="491" 
d="M230 24q69 0 116.5 43t47.5 103t-45.5 103t-118.5 43q-68 0 -109.5 -43t-41.5 -103t41.5 -103t109.5 -43zM392 0v60q-28 -33 -70.5 -56t-93.5 -23q-42 0 -78.5 15t-63 40.5t-42 60t-15.5 73.5t15.5 73.5t42 60t63 40.5t78.5 15q53 0 94.5 -20t69.5 -51v80
q0 104 -41 141.5t-100 37.5q-29 0 -55.5 -3t-81.5 -13l-7 41q54 10 82 13.5t62 3.5q98 0 143 -54.5t45 -147.5v-387h-47zM111 651h-40q-4 36 2.5 60.5t19 39.5t29.5 21t33 6q22 0 48.5 -14t52 -30.5t49.5 -30.5t41 -14q18 0 32.5 17t11.5 72h40q4 -36 -2.5 -60.5t-19 -39.5
t-29.5 -21t-33 -6q-22 0 -48.5 14t-52 30.5t-49.5 30.5t-41 14q-18 0 -32.5 -17t-11.5 -72z" />
    <glyph glyph-name="adieresis" unicode="&#xe4;" horiz-adv-x="491" 
d="M230 24q69 0 116.5 43t47.5 103t-45.5 103t-118.5 43q-68 0 -109.5 -43t-41.5 -103t41.5 -103t109.5 -43zM392 0v60q-28 -33 -70.5 -56t-93.5 -23q-42 0 -78.5 15t-63 40.5t-42 60t-15.5 73.5t15.5 73.5t42 60t63 40.5t78.5 15q53 0 94.5 -20t69.5 -51v80
q0 104 -41 141.5t-100 37.5q-29 0 -55.5 -3t-81.5 -13l-7 41q54 10 82 13.5t62 3.5q98 0 143 -54.5t45 -147.5v-387h-47zM381 717v-66h-64v66h64zM185 717v-66h-64v66h64z" />
    <glyph glyph-name="aring" unicode="&#xe5;" horiz-adv-x="491" 
d="M230 24q69 0 116.5 43t47.5 103t-45.5 103t-118.5 43q-68 0 -109.5 -43t-41.5 -103t41.5 -103t109.5 -43zM392 0v60q-28 -33 -70.5 -56t-93.5 -23q-42 0 -78.5 15t-63 40.5t-42 60t-15.5 73.5t15.5 73.5t42 60t63 40.5t78.5 15q53 0 94.5 -20t69.5 -51v80
q0 104 -41 141.5t-100 37.5q-29 0 -55.5 -3t-81.5 -13l-7 41q54 10 82 13.5t62 3.5q98 0 143 -54.5t45 -147.5v-387h-47zM251 846q42 0 71.5 -30t29.5 -70t-29.5 -70t-71.5 -30t-71.5 30t-29.5 70t29.5 70t71.5 30zM251 814q-28 0 -47.5 -20t-19.5 -48t19.5 -48t47.5 -20
t47.5 20t19.5 48t-19.5 48t-47.5 20z" />
    <glyph glyph-name="ae" unicode="&#xe6;" horiz-adv-x="1004" 
d="M682 560q-45 0 -86.5 -16.5t-74 -45t-55.5 -68.5t-32 -86h492q-7 44 -29.5 83.5t-55.5 69t-74 46.5t-85 17zM692 -29q-86 0 -154 41t-108 106q-16 -66 -71.5 -106.5t-130.5 -40.5q-85 0 -142 55t-57 139t57 139t142 55q49 0 87.5 -17t66.5 -44v70q0 104 -38.5 141.5
t-92.5 37.5q-29 0 -55.5 -3t-81.5 -13l-7 41q54 10 82 13.5t62 3.5q76 0 118.5 -37.5t54.5 -103.5q37 67 104 111t154 44q59 0 113 -24t94.5 -64t65 -94t24.5 -114v-5h-550v-6.5v-7.5q0 -58 21.5 -108t57.5 -87t83.5 -58t100.5 -21q69 0 130 30.5t108 77.5l30 -36
q-40 -47 -110.5 -81t-157.5 -34zM230 14q69 0 116.5 43t47.5 108t-46.5 108t-117.5 43q-68 0 -109.5 -43.5t-41.5 -107.5t41.5 -107.5t109.5 -43.5z" />
    <glyph glyph-name="ccedilla" unicode="&#xe7;" horiz-adv-x="529" 
d="M480 58v-48q-39 -16 -75.5 -21.5t-62.5 -5.5q-65 0 -122.5 24.5t-99.5 66t-66.5 97t-24.5 116.5t24.5 116.5t66.5 97t99.5 66t122.5 24.5q25 0 61 -7t77 -26v-49h-2q-42 24 -79.5 31.5t-56.5 7.5q-54 0 -102 -21t-83.5 -56.5t-56.5 -83t-21 -100.5t21 -100.5t56.5 -83
t83.5 -56.5t102 -21q21 0 52.5 5t83.5 27h2zM305 -201q-8 0 -26.5 3t-34.5 9v38h1q17 -7 34.5 -10t25.5 -3q26 0 41 12t15 28q0 14 -16.5 23t-48.5 9h-19l-3 4l32 81h45l-24 -52q37 -4 57 -21.5t20 -45.5q0 -31 -26.5 -53t-72.5 -22z" />
    <glyph glyph-name="egrave" unicode="&#xe8;" horiz-adv-x="654" 
d="M332 560q-45 0 -86.5 -16.5t-74 -45t-55.5 -68.5t-32 -86h492q-7 44 -29.5 83.5t-55.5 69t-74 46.5t-85 17zM610 86q-40 -47 -110.5 -81t-157.5 -34q-68 0 -125.5 25.5t-99 69t-65 101t-23.5 120.5q0 61 22 118t61.5 101t95.5 70.5t124 26.5q59 0 113 -24t94.5 -64
t65 -94t24.5 -114v-5h-550v-6.5v-7.5q0 -58 21.5 -108t57.5 -87t83.5 -58t100.5 -21q69 0 130 30.5t108 77.5zM202 798h66l92 -147h-37z" />
    <glyph glyph-name="eacute" unicode="&#xe9;" horiz-adv-x="654" 
d="M332 560q-45 0 -86.5 -16.5t-74 -45t-55.5 -68.5t-32 -86h492q-7 44 -29.5 83.5t-55.5 69t-74 46.5t-85 17zM610 86q-40 -47 -110.5 -81t-157.5 -34q-68 0 -125.5 25.5t-99 69t-65 101t-23.5 120.5q0 61 22 118t61.5 101t95.5 70.5t124 26.5q59 0 113 -24t94.5 -64
t65 -94t24.5 -114v-5h-550v-6.5v-7.5q0 -58 21.5 -108t57.5 -87t83.5 -58t100.5 -21q69 0 130 30.5t108 77.5zM461 798l-121 -147h-37l92 147h66z" />
    <glyph glyph-name="ecircumflex" unicode="&#xea;" horiz-adv-x="654" 
d="M332 560q-45 0 -86.5 -16.5t-74 -45t-55.5 -68.5t-32 -86h492q-7 44 -29.5 83.5t-55.5 69t-74 46.5t-85 17zM610 86q-40 -47 -110.5 -81t-157.5 -34q-68 0 -125.5 25.5t-99 69t-65 101t-23.5 120.5q0 61 22 118t61.5 101t95.5 70.5t124 26.5q59 0 113 -24t94.5 -64
t65 -94t24.5 -114v-5h-550v-6.5v-7.5q0 -58 21.5 -108t57.5 -87t83.5 -58t100.5 -21q69 0 130 30.5t108 77.5zM422 651l-90 110l-90 -110h-37l94 147h66l94 -147h-37z" />
    <glyph glyph-name="edieresis" unicode="&#xeb;" horiz-adv-x="654" 
d="M332 560q-45 0 -86.5 -16.5t-74 -45t-55.5 -68.5t-32 -86h492q-7 44 -29.5 83.5t-55.5 69t-74 46.5t-85 17zM610 86q-40 -47 -110.5 -81t-157.5 -34q-68 0 -125.5 25.5t-99 69t-65 101t-23.5 120.5q0 61 22 118t61.5 101t95.5 70.5t124 26.5q59 0 113 -24t94.5 -64
t65 -94t24.5 -114v-5h-550v-6.5v-7.5q0 -58 21.5 -108t57.5 -87t83.5 -58t100.5 -21q69 0 130 30.5t108 77.5zM462 717v-66h-64v66h64zM266 717v-66h-64v66h64z" />
    <glyph glyph-name="igrave" unicode="&#xec;" horiz-adv-x="157" 
d="M102 574v-574h-47v574h47zM-51 798h66l92 -147h-37z" />
    <glyph glyph-name="iacute" unicode="&#xed;" horiz-adv-x="157" 
d="M102 574v-574h-47v574h47zM208 798l-121 -147h-37l92 147h66z" />
    <glyph glyph-name="icircumflex" unicode="&#xee;" horiz-adv-x="157" 
d="M102 574v-574h-47v574h47zM169 651l-90 110l-90 -110h-37l94 147h66l94 -147h-37z" />
    <glyph glyph-name="idieresis" unicode="&#xef;" horiz-adv-x="157" 
d="M102 574v-574h-47v574h47zM209 717v-66h-64v66h64zM13 717v-66h-64v66h64z" />
    <glyph glyph-name="eth" unicode="&#xf0;" horiz-adv-x="684" 
d="M342 -29q-68 0 -125.5 26t-99 69.5t-65 101t-23.5 119.5t23.5 119.5t65 101t99 69.5t125.5 26q57 0 106 -20.5t87 -54.5q-25 36 -57.5 72t-72.5 72l-143 -46l-17 35l125 41q-24 19 -50.5 39t-55.5 39h62q23 -16 45.5 -32t41.5 -32l126 41l16 -36l-107 -35
q106 -95 156.5 -197t50.5 -202v-1v0v-1.5v-0.5q-1 -62 -24.5 -118.5t-65 -99.5t-99 -69t-124.5 -26zM342 560q-57 0 -105.5 -22.5t-83.5 -60t-54.5 -87.5t-19.5 -103t19.5 -103t54.5 -87.5t83.5 -60t105.5 -22.5t105.5 22.5t83.5 60t54.5 87.5t19.5 103t-19.5 103
t-54.5 87.5t-83.5 60t-105.5 22.5z" />
    <glyph glyph-name="ntilde" unicode="&#xf1;" horiz-adv-x="544" 
d="M99 369v-369h-47v574h47v-79q27 39 77.5 66t110.5 27q98 0 152.5 -58t54.5 -158v-372h-47v359q0 53 -14.5 89t-38.5 57.5t-55.5 30.5t-63.5 9q-27 0 -58 -10.5t-57 -32.5t-43.5 -55t-17.5 -78zM134 651h-40q-4 36 2.5 60.5t19 39.5t29.5 21t33 6q22 0 48.5 -14t52 -30.5
t49.5 -30.5t41 -14q18 0 32.5 17t11.5 72h40q4 -36 -2.5 -60.5t-19 -39.5t-29.5 -21t-33 -6q-22 0 -48.5 14t-52 30.5t-49.5 30.5t-41 14q-18 0 -32.5 -17t-11.5 -72z" />
    <glyph glyph-name="ograve" unicode="&#xf2;" horiz-adv-x="684" 
d="M342 603q68 0 125.5 -26t99 -69.5t65 -101t23.5 -119.5t-23.5 -119.5t-65 -101t-99 -69.5t-125.5 -26t-125.5 26t-99 69.5t-65 101t-23.5 119.5t23.5 119.5t65 101t99 69.5t125.5 26zM342 560q-57 0 -105.5 -22.5t-83.5 -60t-54.5 -87.5t-19.5 -103t19.5 -103t54.5 -87.5
t83.5 -60t105.5 -22.5t105.5 22.5t83.5 60t54.5 87.5t19.5 103t-19.5 103t-54.5 87.5t-83.5 60t-105.5 22.5zM212 798h66l92 -147h-37z" />
    <glyph glyph-name="oacute" unicode="&#xf3;" horiz-adv-x="684" 
d="M342 603q68 0 125.5 -26t99 -69.5t65 -101t23.5 -119.5t-23.5 -119.5t-65 -101t-99 -69.5t-125.5 -26t-125.5 26t-99 69.5t-65 101t-23.5 119.5t23.5 119.5t65 101t99 69.5t125.5 26zM342 560q-57 0 -105.5 -22.5t-83.5 -60t-54.5 -87.5t-19.5 -103t19.5 -103t54.5 -87.5
t83.5 -60t105.5 -22.5t105.5 22.5t83.5 60t54.5 87.5t19.5 103t-19.5 103t-54.5 87.5t-83.5 60t-105.5 22.5zM471 798l-121 -147h-37l92 147h66z" />
    <glyph glyph-name="ocircumflex" unicode="&#xf4;" horiz-adv-x="684" 
d="M342 603q68 0 125.5 -26t99 -69.5t65 -101t23.5 -119.5t-23.5 -119.5t-65 -101t-99 -69.5t-125.5 -26t-125.5 26t-99 69.5t-65 101t-23.5 119.5t23.5 119.5t65 101t99 69.5t125.5 26zM342 560q-57 0 -105.5 -22.5t-83.5 -60t-54.5 -87.5t-19.5 -103t19.5 -103t54.5 -87.5
t83.5 -60t105.5 -22.5t105.5 22.5t83.5 60t54.5 87.5t19.5 103t-19.5 103t-54.5 87.5t-83.5 60t-105.5 22.5zM432 651l-90 110l-90 -110h-37l94 147h66l94 -147h-37z" />
    <glyph glyph-name="otilde" unicode="&#xf5;" horiz-adv-x="684" 
d="M342 603q68 0 125.5 -26t99 -69.5t65 -101t23.5 -119.5t-23.5 -119.5t-65 -101t-99 -69.5t-125.5 -26t-125.5 26t-99 69.5t-65 101t-23.5 119.5t23.5 119.5t65 101t99 69.5t125.5 26zM342 560q-57 0 -105.5 -22.5t-83.5 -60t-54.5 -87.5t-19.5 -103t19.5 -103t54.5 -87.5
t83.5 -60t105.5 -22.5t105.5 22.5t83.5 60t54.5 87.5t19.5 103t-19.5 103t-54.5 87.5t-83.5 60t-105.5 22.5zM202 651h-40q-4 36 2.5 60.5t19 39.5t29.5 21t33 6q22 0 48.5 -14t52 -30.5t49.5 -30.5t41 -14q18 0 32.5 17t11.5 72h40q4 -36 -2.5 -60.5t-19 -39.5t-29.5 -21
t-33 -6q-22 0 -48.5 14t-52 30.5t-49.5 30.5t-41 14q-18 0 -32.5 -17t-11.5 -72z" />
    <glyph glyph-name="odieresis" unicode="&#xf6;" horiz-adv-x="684" 
d="M342 603q68 0 125.5 -26t99 -69.5t65 -101t23.5 -119.5t-23.5 -119.5t-65 -101t-99 -69.5t-125.5 -26t-125.5 26t-99 69.5t-65 101t-23.5 119.5t23.5 119.5t65 101t99 69.5t125.5 26zM342 560q-57 0 -105.5 -22.5t-83.5 -60t-54.5 -87.5t-19.5 -103t19.5 -103t54.5 -87.5
t83.5 -60t105.5 -22.5t105.5 22.5t83.5 60t54.5 87.5t19.5 103t-19.5 103t-54.5 87.5t-83.5 60t-105.5 22.5zM472 717v-66h-64v66h64zM276 717v-66h-64v66h64z" />
    <glyph glyph-name="divide" unicode="&#xf7;" horiz-adv-x="594" 
d="M268 491v86h60v-86h-60zM554 371v-43h-514v43h514zM268 122v86h60v-86h-60z" />
    <glyph glyph-name="oslash" unicode="&#xf8;" horiz-adv-x="684" 
d="M79 287q0 -62 26 -118t72 -95l295 451q-28 16 -61 25.5t-69 9.5q-57 0 -105.5 -22.5t-83.5 -60t-54.5 -87.5t-19.5 -103zM342 14q57 0 105.5 22.5t83.5 60t54.5 87.5t19.5 103q0 62 -26 118t-72 95l-295 -451q28 -16 61 -25.5t69 -9.5zM342 -29q-43 0 -81.5 11t-72.5 30
l-39 -60h-52l55 84q-57 44 -90 110.5t-33 140.5q0 62 23.5 119.5t65 101t99 69.5t125.5 26q43 0 81.5 -11t72.5 -30l39 60h52l-55 -84q57 -44 90 -110.5t33 -140.5q0 -62 -23.5 -119.5t-65 -101t-99 -69.5t-125.5 -26z" />
    <glyph glyph-name="ugrave" unicode="&#xf9;" horiz-adv-x="545" 
d="M446 0v79q-27 -39 -77.5 -66t-110.5 -27q-99 0 -153.5 58t-54.5 158v372h47v-359q0 -53 14.5 -89t39 -57.5t55.5 -30.5t64 -9q27 0 58 10.5t57 32.5t43.5 55t17.5 78v369h47v-574h-47zM142 798h66l92 -147h-37z" />
    <glyph glyph-name="uacute" unicode="&#xfa;" horiz-adv-x="545" 
d="M446 0v79q-27 -39 -77.5 -66t-110.5 -27q-99 0 -153.5 58t-54.5 158v372h47v-359q0 -53 14.5 -89t39 -57.5t55.5 -30.5t64 -9q27 0 58 10.5t57 32.5t43.5 55t17.5 78v369h47v-574h-47zM401 798l-121 -147h-37l92 147h66z" />
    <glyph glyph-name="ucircumflex" unicode="&#xfb;" horiz-adv-x="545" 
d="M446 0v79q-27 -39 -77.5 -66t-110.5 -27q-99 0 -153.5 58t-54.5 158v372h47v-359q0 -53 14.5 -89t39 -57.5t55.5 -30.5t64 -9q27 0 58 10.5t57 32.5t43.5 55t17.5 78v369h47v-574h-47zM362 651l-90 110l-90 -110h-37l94 147h66l94 -147h-37z" />
    <glyph glyph-name="udieresis" unicode="&#xfc;" horiz-adv-x="545" 
d="M446 0v79q-27 -39 -77.5 -66t-110.5 -27q-99 0 -153.5 58t-54.5 158v372h47v-359q0 -53 14.5 -89t39 -57.5t55.5 -30.5t64 -9q27 0 58 10.5t57 32.5t43.5 55t17.5 78v369h47v-574h-47zM402 717v-66h-64v66h64zM206 717v-66h-64v66h64z" />
    <glyph glyph-name="yacute" unicode="&#xfd;" horiz-adv-x="535" 
d="M231 -220h-46l79 207l-265 587h52l235 -530l202 530h48zM397 798l-121 -147h-37l92 147h66z" />
    <glyph glyph-name="thorn" unicode="&#xfe;" horiz-adv-x="699" 
d="M98 287q0 -53 19.5 -103t54 -87.5t83 -60t104.5 -22.5t104.5 22.5t83 60t54 87.5t19.5 103t-19.5 103t-54 87.5t-83 60t-104.5 22.5t-104.5 -22.5t-83 -60t-54 -87.5t-19.5 -103zM359 -29q-83 0 -151.5 43t-108.5 112v-346h-47v1000h47v-331q40 67 109 110.5t151 43.5
q67 0 124 -26t98.5 -69.5t65 -101t23.5 -119.5t-23.5 -119.5t-65 -101t-98.5 -69.5t-124 -26z" />
    <glyph glyph-name="ydieresis" unicode="&#xff;" horiz-adv-x="535" 
d="M231 -220h-46l79 207l-265 587h52l235 -530l202 530h48zM398 717v-66h-64v66h64zM202 717v-66h-64v66h64z" />
    <glyph glyph-name="Amacron" unicode="&#x100;" horiz-adv-x="679" 
d="M532 223l-193 472l-195 -472h388zM623 0l-74 180h-423l-74 -180h-50l312 746h51l312 -746h-54zM462 850v-43h-246v43h246z" />
    <glyph glyph-name="amacron" unicode="&#x101;" horiz-adv-x="491" 
d="M230 24q69 0 116.5 43t47.5 103t-45.5 103t-118.5 43q-68 0 -109.5 -43t-41.5 -103t41.5 -103t109.5 -43zM392 0v60q-28 -33 -70.5 -56t-93.5 -23q-42 0 -78.5 15t-63 40.5t-42 60t-15.5 73.5t15.5 73.5t42 60t63 40.5t78.5 15q53 0 94.5 -20t69.5 -51v80
q0 104 -41 141.5t-100 37.5q-29 0 -55.5 -3t-81.5 -13l-7 41q54 10 82 13.5t62 3.5q98 0 143 -54.5t45 -147.5v-387h-47zM374 694v-43h-246v43h246z" />
    <glyph glyph-name="Abreve" unicode="&#x102;" horiz-adv-x="679" 
d="M532 223l-193 472l-195 -472h388zM623 0l-74 180h-423l-74 -180h-50l312 746h51l312 -746h-54zM475 938q-19 -62 -52.5 -99t-83.5 -37t-83.5 37t-52.5 99l40 3q18 -49 44.5 -73t51.5 -24t51.5 24t44.5 73z" />
    <glyph glyph-name="abreve" unicode="&#x103;" horiz-adv-x="491" 
d="M230 24q69 0 116.5 43t47.5 103t-45.5 103t-118.5 43q-68 0 -109.5 -43t-41.5 -103t41.5 -103t109.5 -43zM392 0v60q-28 -33 -70.5 -56t-93.5 -23q-42 0 -78.5 15t-63 40.5t-42 60t-15.5 73.5t15.5 73.5t42 60t63 40.5t78.5 15q53 0 94.5 -20t69.5 -51v80
q0 104 -41 141.5t-100 37.5q-29 0 -55.5 -3t-81.5 -13l-7 41q54 10 82 13.5t62 3.5q98 0 143 -54.5t45 -147.5v-387h-47zM387 782q-19 -62 -52.5 -99t-83.5 -37t-83.5 37t-52.5 99l40 3q18 -49 44.5 -73t51.5 -24t51.5 24t44.5 73z" />
    <glyph glyph-name="Aogonek" unicode="&#x104;" horiz-adv-x="679" 
d="M623 -174q-37 0 -55 21t-18 42q0 27 16 45.5t35 38.5l23 25l-74 182h-424l-74 -180h-50l312 746h51l312 -746l-31 -34q-19 -20 -34 -34t-15 -34q0 -9 9 -19t24 -10q12 0 21.5 4.5t17.5 11.5l25 -31q-9 -9 -29 -18.5t-42 -9.5zM532 223l-193 472l-195 -472h388z" />
    <glyph glyph-name="aogonek" unicode="&#x105;" horiz-adv-x="491" 
d="M230 24q69 0 116.5 43t47.5 103t-45.5 103t-118.5 43q-68 0 -109.5 -43t-41.5 -103t41.5 -103t109.5 -43zM456 -146q-9 -9 -29 -18.5t-42 -9.5q-37 0 -55 21t-18 42q0 27 16 45.5t35 38.5l29 31v56q-28 -33 -70.5 -56t-93.5 -23q-42 0 -78.5 15t-63 40.5t-42 60
t-15.5 73.5t15.5 73.5t42 60t63 40.5t78.5 15q53 0 94.5 -20t69.5 -51v80q0 104 -41 141.5t-100 37.5q-29 0 -55.5 -3t-81.5 -13l-7 41q54 10 82 13.5t62 3.5q98 0 143 -54.5t45 -147.5v-387l-31 -34q-19 -20 -34 -34t-15 -34q0 -9 9 -19t24 -10q12 0 21.5 4.5t17.5 11.5z
" />
    <glyph glyph-name="Cacute" unicode="&#x106;" horiz-adv-x="654" 
d="M621 726v-54q-40 25 -86 39t-95 14q-73 0 -138 -29t-113.5 -77.5t-77 -112t-28.5 -131.5q0 -70 28.5 -134.5t77 -113t113.5 -77.5t138 -29q49 0 95 14.5t86 38.5v-54q-41 -20 -86.5 -32t-94.5 -12q-84 0 -159 31.5t-130 85t-87 126.5t-32 155t32 154.5t87 126t130 84.5
t159 31q49 0 94 -12t87 -32zM549 954l-121 -147h-37l92 147h66z" />
    <glyph glyph-name="cacute" unicode="&#x107;" horiz-adv-x="529" 
d="M480 58v-48q-39 -16 -75.5 -21.5t-62.5 -5.5q-65 0 -122.5 24.5t-99.5 66t-66.5 97t-24.5 116.5t24.5 116.5t66.5 97t99.5 66t122.5 24.5q25 0 61 -7t77 -26v-49h-2q-42 24 -79.5 31.5t-56.5 7.5q-54 0 -102 -21t-83.5 -56.5t-56.5 -83t-21 -100.5t21 -100.5t56.5 -83
t83.5 -56.5t102 -21q21 0 52.5 5t83.5 27h2zM451 798l-121 -147h-37l92 147h66z" />
    <glyph glyph-name="Ccircumflex" unicode="&#x108;" horiz-adv-x="654" 
d="M621 726v-54q-40 25 -86 39t-95 14q-73 0 -138 -29t-113.5 -77.5t-77 -112t-28.5 -131.5q0 -70 28.5 -134.5t77 -113t113.5 -77.5t138 -29q49 0 95 14.5t86 38.5v-54q-41 -20 -86.5 -32t-94.5 -12q-84 0 -159 31.5t-130 85t-87 126.5t-32 155t32 154.5t87 126t130 84.5
t159 31q49 0 94 -12t87 -32zM510 807l-90 110l-90 -110h-37l94 147h66l94 -147h-37z" />
    <glyph glyph-name="ccircumflex" unicode="&#x109;" horiz-adv-x="529" 
d="M480 58v-48q-39 -16 -75.5 -21.5t-62.5 -5.5q-65 0 -122.5 24.5t-99.5 66t-66.5 97t-24.5 116.5t24.5 116.5t66.5 97t99.5 66t122.5 24.5q25 0 61 -7t77 -26v-49h-2q-42 24 -79.5 31.5t-56.5 7.5q-54 0 -102 -21t-83.5 -56.5t-56.5 -83t-21 -100.5t21 -100.5t56.5 -83
t83.5 -56.5t102 -21q21 0 52.5 5t83.5 27h2zM412 651l-90 110l-90 -110h-37l94 147h66l94 -147h-37z" />
    <glyph glyph-name="Cdotaccent" unicode="&#x10a;" horiz-adv-x="654" 
d="M621 726v-54q-40 25 -86 39t-95 14q-73 0 -138 -29t-113.5 -77.5t-77 -112t-28.5 -131.5q0 -70 28.5 -134.5t77 -113t113.5 -77.5t138 -29q49 0 95 14.5t86 38.5v-54q-41 -20 -86.5 -32t-94.5 -12q-84 0 -159 31.5t-130 85t-87 126.5t-32 155t32 154.5t87 126t130 84.5
t159 31q49 0 94 -12t87 -32zM446 911v-104h-51v104h51z" />
    <glyph glyph-name="cdotaccent" unicode="&#x10b;" horiz-adv-x="529" 
d="M480 58v-48q-39 -16 -75.5 -21.5t-62.5 -5.5q-65 0 -122.5 24.5t-99.5 66t-66.5 97t-24.5 116.5t24.5 116.5t66.5 97t99.5 66t122.5 24.5q25 0 61 -7t77 -26v-49h-2q-42 24 -79.5 31.5t-56.5 7.5q-54 0 -102 -21t-83.5 -56.5t-56.5 -83t-21 -100.5t21 -100.5t56.5 -83
t83.5 -56.5t102 -21q21 0 52.5 5t83.5 27h2zM348 780v-104h-51v104h51z" />
    <glyph glyph-name="Ccaron" unicode="&#x10c;" horiz-adv-x="654" 
d="M621 726v-54q-40 25 -86 39t-95 14q-73 0 -138 -29t-113.5 -77.5t-77 -112t-28.5 -131.5q0 -70 28.5 -134.5t77 -113t113.5 -77.5t138 -29q49 0 95 14.5t86 38.5v-54q-41 -20 -86.5 -32t-94.5 -12q-84 0 -159 31.5t-130 85t-87 126.5t-32 155t32 154.5t87 126t130 84.5
t159 31q49 0 94 -12t87 -32zM453 807h-66l-94 147h37l90 -110l90 110h37z" />
    <glyph glyph-name="ccaron" unicode="&#x10d;" horiz-adv-x="529" 
d="M480 58v-48q-39 -16 -75.5 -21.5t-62.5 -5.5q-65 0 -122.5 24.5t-99.5 66t-66.5 97t-24.5 116.5t24.5 116.5t66.5 97t99.5 66t122.5 24.5q25 0 61 -7t77 -26v-49h-2q-42 24 -79.5 31.5t-56.5 7.5q-54 0 -102 -21t-83.5 -56.5t-56.5 -83t-21 -100.5t21 -100.5t56.5 -83
t83.5 -56.5t102 -21q21 0 52.5 5t83.5 27h2zM355 651h-66l-94 147h37l90 -110l90 110h37z" />
    <glyph glyph-name="Dcaron" unicode="&#x10e;" horiz-adv-x="613" 
d="M55 0v746h161q70 0 136 -27t116 -75.5t80.5 -117.5t30.5 -152q0 -84 -30.5 -153.5t-80.5 -118t-115.5 -75.5t-136.5 -27h-161zM105 703v-660h103q62 0 120 21.5t102 63.5t71 104t27 142q0 79 -27 140.5t-71 103.5t-102 63.5t-120 21.5h-103zM306 807h-66l-94 147h37
l90 -110l90 110h37z" />
    <glyph glyph-name="dcaron" unicode="&#x10f;" horiz-adv-x="699" 
d="M601 287q0 53 -19.5 103t-54 87.5t-83 60t-104.5 22.5t-104.5 -22.5t-83 -60t-54 -87.5t-19.5 -103t19.5 -103t54 -87.5t83 -60t104.5 -22.5t104.5 22.5t83 60t54 87.5t19.5 103zM600 0v125q-40 -67 -109 -110.5t-151 -43.5q-67 0 -124 26t-98.5 69.5t-65 101
t-23.5 119.5t23.5 119.5t65 101t98.5 69.5t124 26q83 0 151.5 -43t108.5 -112v332h47v-780h-47zM752 780l-34 -147h-32l15 147h51z" />
    <glyph glyph-name="Dcroat" unicode="&#x110;" horiz-adv-x="620" 
d="M223 0h-161v361h-55v43h55v342h161q70 0 136 -27t116 -75.5t80.5 -117.5t30.5 -152q0 -84 -30.5 -153.5t-80.5 -118t-115.5 -75.5t-136.5 -27zM112 43h103q62 0 120 21.5t102 63.5t71 104t27 142q0 79 -27 140.5t-71 103.5t-102 63.5t-120 21.5h-103v-299h161v-43h-161
v-318z" />
    <glyph glyph-name="dcroat" unicode="&#x111;" horiz-adv-x="699" 
d="M601 287q0 53 -19.5 103t-54 87.5t-83 60t-104.5 22.5t-104.5 -22.5t-83 -60t-54 -87.5t-19.5 -103t19.5 -103t54 -87.5t83 -60t104.5 -22.5t104.5 22.5t83 60t54 87.5t19.5 103zM600 0v125q-40 -67 -109 -110.5t-151 -43.5q-67 0 -124 26t-98.5 69.5t-65 101
t-23.5 119.5t23.5 119.5t65 101t98.5 69.5t124 26q83 0 151.5 -43t108.5 -112v179h-92v43h92v110h47v-110h47v-43h-47v-627h-47z" />
    <glyph glyph-name="Emacron" unicode="&#x112;" horiz-adv-x="449" 
d="M55 0v746h346v-43h-296v-277h277v-43h-277v-340h304v-43h-354zM360 850v-43h-246v43h246z" />
    <glyph glyph-name="emacron" unicode="&#x113;" horiz-adv-x="654" 
d="M332 560q-45 0 -86.5 -16.5t-74 -45t-55.5 -68.5t-32 -86h492q-7 44 -29.5 83.5t-55.5 69t-74 46.5t-85 17zM610 86q-40 -47 -110.5 -81t-157.5 -34q-68 0 -125.5 25.5t-99 69t-65 101t-23.5 120.5q0 61 22 118t61.5 101t95.5 70.5t124 26.5q59 0 113 -24t94.5 -64
t65 -94t24.5 -114v-5h-550v-6.5v-7.5q0 -58 21.5 -108t57.5 -87t83.5 -58t100.5 -21q69 0 130 30.5t108 77.5zM455 694v-43h-246v43h246z" />
    <glyph glyph-name="Ebreve" unicode="&#x114;" horiz-adv-x="449" 
d="M55 0v746h346v-43h-296v-277h277v-43h-277v-340h304v-43h-354zM373 938q-19 -62 -52.5 -99t-83.5 -37t-83.5 37t-52.5 99l40 3q18 -49 44.5 -73t51.5 -24t51.5 24t44.5 73z" />
    <glyph glyph-name="ebreve" unicode="&#x115;" horiz-adv-x="654" 
d="M332 560q-45 0 -86.5 -16.5t-74 -45t-55.5 -68.5t-32 -86h492q-7 44 -29.5 83.5t-55.5 69t-74 46.5t-85 17zM610 86q-40 -47 -110.5 -81t-157.5 -34q-68 0 -125.5 25.5t-99 69t-65 101t-23.5 120.5q0 61 22 118t61.5 101t95.5 70.5t124 26.5q59 0 113 -24t94.5 -64
t65 -94t24.5 -114v-5h-550v-6.5v-7.5q0 -58 21.5 -108t57.5 -87t83.5 -58t100.5 -21q69 0 130 30.5t108 77.5zM468 782q-19 -62 -52.5 -99t-83.5 -37t-83.5 37t-52.5 99l40 3q18 -49 44.5 -73t51.5 -24t51.5 24t44.5 73z" />
    <glyph glyph-name="Edotaccent" unicode="&#x116;" horiz-adv-x="449" 
d="M55 0v746h346v-43h-296v-277h277v-43h-277v-340h304v-43h-354zM263 911v-104h-51v104h51z" />
    <glyph glyph-name="edotaccent" unicode="&#x117;" horiz-adv-x="654" 
d="M332 560q-45 0 -86.5 -16.5t-74 -45t-55.5 -68.5t-32 -86h492q-7 44 -29.5 83.5t-55.5 69t-74 46.5t-85 17zM610 86q-40 -47 -110.5 -81t-157.5 -34q-68 0 -125.5 25.5t-99 69t-65 101t-23.5 120.5q0 61 22 118t61.5 101t95.5 70.5t124 26.5q59 0 113 -24t94.5 -64
t65 -94t24.5 -114v-5h-550v-6.5v-7.5q0 -58 21.5 -108t57.5 -87t83.5 -58t100.5 -21q69 0 130 30.5t108 77.5zM358 780v-104h-51v104h51z" />
    <glyph glyph-name="Eogonek" unicode="&#x118;" horiz-adv-x="449" 
d="M426 -146q-9 -9 -29 -18.5t-42 -9.5q-37 0 -55 21t-18 42q0 27 16 45.5t35 38.5l25 27h-303v746h346v-43h-296v-277h277v-43h-277v-340h304v-43l-31 -34q-19 -20 -34 -34t-15 -34q0 -9 9 -19t24 -10q12 0 21.5 4.5t17.5 11.5z" />
    <glyph glyph-name="eogonek" unicode="&#x119;" horiz-adv-x="654" 
d="M332 560q-45 0 -86.5 -16.5t-74 -45t-55.5 -68.5t-32 -86h492q-7 44 -29.5 83.5t-55.5 69t-74 46.5t-85 17zM627 -146q-9 -9 -29 -18.5t-42 -9.5q-37 0 -55 22t-18 53q0 29 14.5 59t33.5 61q-39 -22 -87 -36t-102 -14q-68 0 -125.5 25.5t-99 69t-65 101t-23.5 120.5
q0 61 22 118t61.5 101t95.5 70.5t124 26.5q59 0 113 -24t94.5 -64t65 -94t24.5 -114v-5h-550v-6.5v-7.5q0 -58 21.5 -108t57.5 -87t83.5 -58t100.5 -21q69 0 130 30.5t108 77.5l30 -36l-43 -80q-16 -30 -26.5 -53t-10.5 -43q0 -19 9 -30t24 -11q12 0 21.5 4.5t17.5 11.5z
" />
    <glyph glyph-name="Ecaron" unicode="&#x11a;" horiz-adv-x="449" 
d="M55 0v746h346v-43h-296v-277h277v-43h-277v-340h304v-43h-354zM270 807h-66l-94 147h37l90 -110l90 110h37z" />
    <glyph glyph-name="ecaron" unicode="&#x11b;" horiz-adv-x="654" 
d="M332 560q-45 0 -86.5 -16.5t-74 -45t-55.5 -68.5t-32 -86h492q-7 44 -29.5 83.5t-55.5 69t-74 46.5t-85 17zM610 86q-40 -47 -110.5 -81t-157.5 -34q-68 0 -125.5 25.5t-99 69t-65 101t-23.5 120.5q0 61 22 118t61.5 101t95.5 70.5t124 26.5q59 0 113 -24t94.5 -64
t65 -94t24.5 -114v-5h-550v-6.5v-7.5q0 -58 21.5 -108t57.5 -87t83.5 -58t100.5 -21q69 0 130 30.5t108 77.5zM365 651h-66l-94 147h37l90 -110l90 110h37z" />
    <glyph glyph-name="Gcircumflex" unicode="&#x11c;" horiz-adv-x="848" 
d="M818 374q0 -82 -30 -155t-81 -126.5t-120 -85t-147 -31.5q-84 0 -159 31.5t-130 85t-87 126.5t-32 155t32 154.5t87 126t130 84.5t159 31q78 0 149.5 -26.5t122.5 -70.5l-33 -37q-50 40 -110 64.5t-129 24.5q-73 0 -138 -29t-113.5 -77.5t-77 -112t-28.5 -131.5
q0 -70 28.5 -134.5t77 -113t113.5 -77.5t138 -29q64 0 122 27t102 72.5t71.5 106.5t30.5 129l-285 -2l23 53h314v-33zM530 807l-90 110l-90 -110h-37l94 147h66l94 -147h-37z" />
    <glyph glyph-name="gcircumflex" unicode="&#x11d;" horiz-adv-x="666" 
d="M326 74q50 0 94.5 19t77 52t51.5 77.5t19 94.5t-19 94.5t-51.5 77.5t-77 52t-94.5 19t-95 -19t-78 -52t-52.5 -77.5t-19.5 -94.5t19.5 -94.5t52.5 -77.5t78 -52t95 -19zM614 88q0 -91 -24.5 -150t-64.5 -92.5t-92 -46.5t-105 -13q-36 0 -83.5 4.5t-108.5 17.5v41
q73 -13 118.5 -18t73.5 -4q45 0 88.5 11.5t76.5 41t53.5 80t20.5 128.5v70q-22 -32 -52 -56t-61.5 -39.5t-62.5 -23.5t-57 -8q-60 0 -114.5 20t-96 57.5t-66 90.5t-24.5 118t24.5 117.5t65.5 90t96 58t115 20.5q26 0 58 -7.5t63 -23t60.5 -39.5t51.5 -57v98h47v-486z
M424 651l-90 110l-90 -110h-37l94 147h66l94 -147h-37z" />
    <glyph glyph-name="Gbreve" unicode="&#x11e;" horiz-adv-x="848" 
d="M818 374q0 -82 -30 -155t-81 -126.5t-120 -85t-147 -31.5q-84 0 -159 31.5t-130 85t-87 126.5t-32 155t32 154.5t87 126t130 84.5t159 31q78 0 149.5 -26.5t122.5 -70.5l-33 -37q-50 40 -110 64.5t-129 24.5q-73 0 -138 -29t-113.5 -77.5t-77 -112t-28.5 -131.5
q0 -70 28.5 -134.5t77 -113t113.5 -77.5t138 -29q64 0 122 27t102 72.5t71.5 106.5t30.5 129l-285 -2l23 53h314v-33zM576 938q-19 -62 -52.5 -99t-83.5 -37t-83.5 37t-52.5 99l40 3q18 -49 44.5 -73t51.5 -24t51.5 24t44.5 73z" />
    <glyph glyph-name="gbreve" unicode="&#x11f;" horiz-adv-x="666" 
d="M326 74q50 0 94.5 19t77 52t51.5 77.5t19 94.5t-19 94.5t-51.5 77.5t-77 52t-94.5 19t-95 -19t-78 -52t-52.5 -77.5t-19.5 -94.5t19.5 -94.5t52.5 -77.5t78 -52t95 -19zM614 88q0 -91 -24.5 -150t-64.5 -92.5t-92 -46.5t-105 -13q-36 0 -83.5 4.5t-108.5 17.5v41
q73 -13 118.5 -18t73.5 -4q45 0 88.5 11.5t76.5 41t53.5 80t20.5 128.5v70q-22 -32 -52 -56t-61.5 -39.5t-62.5 -23.5t-57 -8q-60 0 -114.5 20t-96 57.5t-66 90.5t-24.5 118t24.5 117.5t65.5 90t96 58t115 20.5q26 0 58 -7.5t63 -23t60.5 -39.5t51.5 -57v98h47v-486z
M470 782q-19 -62 -52.5 -99t-83.5 -37t-83.5 37t-52.5 99l40 3q18 -49 44.5 -73t51.5 -24t51.5 24t44.5 73z" />
    <glyph glyph-name="Gdotaccent" unicode="&#x120;" horiz-adv-x="848" 
d="M818 374q0 -82 -30 -155t-81 -126.5t-120 -85t-147 -31.5q-84 0 -159 31.5t-130 85t-87 126.5t-32 155t32 154.5t87 126t130 84.5t159 31q78 0 149.5 -26.5t122.5 -70.5l-33 -37q-50 40 -110 64.5t-129 24.5q-73 0 -138 -29t-113.5 -77.5t-77 -112t-28.5 -131.5
q0 -70 28.5 -134.5t77 -113t113.5 -77.5t138 -29q64 0 122 27t102 72.5t71.5 106.5t30.5 129l-285 -2l23 53h314v-33zM466 911v-104h-51v104h51z" />
    <glyph glyph-name="gdotaccent" unicode="&#x121;" horiz-adv-x="666" 
d="M326 74q50 0 94.5 19t77 52t51.5 77.5t19 94.5t-19 94.5t-51.5 77.5t-77 52t-94.5 19t-95 -19t-78 -52t-52.5 -77.5t-19.5 -94.5t19.5 -94.5t52.5 -77.5t78 -52t95 -19zM614 88q0 -91 -24.5 -150t-64.5 -92.5t-92 -46.5t-105 -13q-36 0 -83.5 4.5t-108.5 17.5v41
q73 -13 118.5 -18t73.5 -4q45 0 88.5 11.5t76.5 41t53.5 80t20.5 128.5v70q-22 -32 -52 -56t-61.5 -39.5t-62.5 -23.5t-57 -8q-60 0 -114.5 20t-96 57.5t-66 90.5t-24.5 118t24.5 117.5t65.5 90t96 58t115 20.5q26 0 58 -7.5t63 -23t60.5 -39.5t51.5 -57v98h47v-486z
M360 780v-104h-51v104h51z" />
    <glyph glyph-name="Gcommaaccent" unicode="&#x122;" horiz-adv-x="848" 
d="M818 374q0 -82 -30 -155t-81 -126.5t-120 -85t-147 -31.5q-84 0 -159 31.5t-130 85t-87 126.5t-32 155t32 154.5t87 126t130 84.5t159 31q78 0 149.5 -26.5t122.5 -70.5l-33 -37q-50 40 -110 64.5t-129 24.5q-73 0 -138 -29t-113.5 -77.5t-77 -112t-28.5 -131.5
q0 -70 28.5 -134.5t77 -113t113.5 -77.5t138 -29q64 0 122 27t102 72.5t71.5 106.5t30.5 129l-285 -2l23 53h314v-33zM455 -60l-41 -147h-32l12 147h61z" />
    <glyph glyph-name="gcommaaccent" unicode="&#x123;" horiz-adv-x="666" 
d="M326 74q50 0 94.5 19t77 52t51.5 77.5t19 94.5t-19 94.5t-51.5 77.5t-77 52t-94.5 19t-95 -19t-78 -52t-52.5 -77.5t-19.5 -94.5t19.5 -94.5t52.5 -77.5t78 -52t95 -19zM614 88q0 -91 -24.5 -150t-64.5 -92.5t-92 -46.5t-105 -13q-36 0 -83.5 4.5t-108.5 17.5v41
q73 -13 118.5 -18t73.5 -4q45 0 88.5 11.5t76.5 41t53.5 80t20.5 128.5v70q-22 -32 -52 -56t-61.5 -39.5t-62.5 -23.5t-57 -8q-60 0 -114.5 20t-96 57.5t-66 90.5t-24.5 118t24.5 117.5t65.5 90t96 58t115 20.5q26 0 58 -7.5t63 -23t60.5 -39.5t51.5 -57v98h47v-486z" />
    <glyph glyph-name="Hcircumflex" unicode="&#x124;" horiz-adv-x="656" 
d="M55 0v746h50v-327h446v327h50v-746h-50v376h-446v-376h-50zM418 807l-90 110l-90 -110h-37l94 147h66l94 -147h-37z" />
    <glyph glyph-name="hcircumflex" unicode="&#x125;" horiz-adv-x="545" 
d="M99 369v-369h-47v780h47v-285q27 39 77.5 66t110.5 27q99 0 153.5 -58t54.5 -158v-372h-47v359q0 53 -14.5 89t-39 57.5t-55.5 30.5t-64 9q-27 0 -58 -10.5t-57 -32.5t-43.5 -55t-17.5 -78zM166 840l-90 110l-90 -110h-37l94 147h66l94 -147h-37z" />
    <glyph glyph-name="Hbar" unicode="&#x126;" horiz-adv-x="656" 
d="M105 419h446v132h-446v-132zM105 376v-376h-50v551h-45v43h45v152h50v-152h446v152h50v-152h45v-43h-45v-551h-50v376h-446z" />
    <glyph glyph-name="hbar" unicode="&#x127;" horiz-adv-x="545" 
d="M99 369v-369h-47v627h-47v43h47v110h47v-110h92v-43h-92v-132q27 39 77.5 66t110.5 27q99 0 153.5 -58t54.5 -158v-372h-47v359q0 53 -14.5 89t-39 57.5t-55.5 30.5t-64 9q-27 0 -58 -10.5t-57 -32.5t-43.5 -55t-17.5 -78z" />
    <glyph glyph-name="Itilde" unicode="&#x128;" horiz-adv-x="166" 
d="M58 0v746h50v-746h-50zM-57 807h-40q-4 36 2.5 60.5t19 39.5t29.5 21t33 6q22 0 48.5 -14t52 -30.5t49.5 -30.5t41 -14q18 0 32.5 17t11.5 72h40q4 -36 -2.5 -60.5t-19 -39.5t-29.5 -21t-33 -6q-22 0 -48.5 14t-52 30.5t-49.5 30.5t-41 14q-18 0 -32.5 -17t-11.5 -72z
" />
    <glyph glyph-name="itilde" unicode="&#x129;" horiz-adv-x="157" 
d="M102 574v-574h-47v574h47zM-61 651h-40q-4 36 2.5 60.5t19 39.5t29.5 21t33 6q22 0 48.5 -14t52 -30.5t49.5 -30.5t41 -14q18 0 32.5 17t11.5 72h40q4 -36 -2.5 -60.5t-19 -39.5t-29.5 -21t-33 -6q-22 0 -48.5 14t-52 30.5t-49.5 30.5t-41 14q-18 0 -32.5 -17t-11.5 -72z
" />
    <glyph glyph-name="Imacron" unicode="&#x12a;" horiz-adv-x="166" 
d="M58 0v746h50v-746h-50zM206 850v-43h-246v43h246z" />
    <glyph glyph-name="imacron" unicode="&#x12b;" horiz-adv-x="157" 
d="M102 574v-574h-47v574h47zM202 694v-43h-246v43h246z" />
    <glyph glyph-name="Ibreve" unicode="&#x12c;" horiz-adv-x="166" 
d="M58 0v746h50v-746h-50zM219 938q-19 -62 -52.5 -99t-83.5 -37t-83.5 37t-52.5 99l40 3q18 -49 44.5 -73t51.5 -24t51.5 24t44.5 73z" />
    <glyph glyph-name="ibreve" unicode="&#x12d;" horiz-adv-x="157" 
d="M102 574v-574h-47v574h47zM215 782q-19 -62 -52.5 -99t-83.5 -37t-83.5 37t-52.5 99l40 3q18 -49 44.5 -73t51.5 -24t51.5 24t44.5 73z" />
    <glyph glyph-name="Iogonek" unicode="&#x12e;" horiz-adv-x="166" 
d="M125 -146q-9 -9 -29 -18.5t-42 -9.5q-37 0 -55 21t-18 42q0 27 16 45.5t35 38.5l26 28v745h50v-746l-31 -34q-19 -20 -34 -34t-15 -34q0 -9 9 -19t24 -10q12 0 21.5 4.5t17.5 11.5z" />
    <glyph glyph-name="iogonek" unicode="&#x12f;" horiz-adv-x="157" 
d="M104 780v-104h-51v104h51zM119 -146q-9 -9 -29 -18.5t-42 -9.5q-37 0 -55 21t-18 42q0 27 16 45.5t35 38.5l29 31v570h47v-574l-31 -34q-19 -20 -34 -34t-15 -34q0 -9 9 -19t24 -10q12 0 21.5 4.5t17.5 11.5z" />
    <glyph glyph-name="Idotaccent" unicode="&#x130;" horiz-adv-x="166" 
d="M58 0v746h50v-746h-50zM109 911v-104h-51v104h51z" />
    <glyph glyph-name="dotlessi" unicode="&#x131;" horiz-adv-x="157" 
d="M102 574v-574h-47v574h47z" />
    <glyph glyph-name="IJ" unicode="&#x132;" horiz-adv-x="428" 
d="M58 0v746h50v-746h-50zM166 0v45q13 -4 27 -7.5t32 -3.5t36 4t31.5 19.5t22 47.5t8.5 88v553h50v-548q0 -62 -8.5 -102.5t-26 -64t-45.5 -33t-68 -9.5q-18 0 -32 3.5t-27 7.5z" />
    <glyph glyph-name="ij" unicode="&#x133;" horiz-adv-x="314" 
d="M104 780v-104h-51v104h51zM102 574v-574h-47v574h47zM261 780v-104h-51v104h51zM94 -177h5q55 1 84 45t29 126v580h47v-580q0 -104 -41 -158.5t-107 -55.5h-17v43z" />
    <glyph glyph-name="Jcircumflex" unicode="&#x134;" horiz-adv-x="262" 
d="M0 0v45q13 -4 27 -7.5t32 -3.5t36 4t31.5 19.5t22 47.5t8.5 88v553h50v-548q0 -62 -8.5 -102.5t-26 -64t-45.5 -33t-68 -9.5q-18 0 -32 3.5t-27 7.5zM274 807l-90 110l-90 -110h-37l94 147h66l94 -147h-37z" />
    <glyph glyph-name="jcircumflex" unicode="&#x135;" horiz-adv-x="151" 
d="M-66 -173h5q55 1 84 44t29 123v580h47v-580q0 -104 -41 -158.5t-107 -55.5h-17v47zM166 651l-90 110l-90 -110h-37l94 147h66l94 -147h-37z" />
    <glyph glyph-name="Kcommaaccent" unicode="&#x136;" horiz-adv-x="565" 
d="M466 0l-361 369v-369h-50v746h50v-359l342 359h63l-348 -367l372 -379h-68zM299 -60l-41 -147h-32l12 147h61z" />
    <glyph glyph-name="kcommaaccent" unicode="&#x137;" horiz-adv-x="494" 
d="M433 0l-269 313l-65 -54v-259h-47v780h47v-464l308 258h67l-275 -231l296 -343h-62zM304 -60l-41 -147h-32l12 147h61z" />
    <glyph glyph-name="kgreenlandic" unicode="&#x138;" horiz-adv-x="494" 
d="M433 0l-269 313l-65 -54v-259h-47v574h47v-258l308 258h67l-275 -231l296 -343h-62z" />
    <glyph glyph-name="Lacute" unicode="&#x139;" horiz-adv-x="403" 
d="M55 746h50v-703h289v-43h-339v746zM210 954l-121 -147h-37l92 147h66z" />
    <glyph glyph-name="lacute" unicode="&#x13a;" horiz-adv-x="157" 
d="M102 780v-780h-47v780h47zM208 987l-121 -147h-37l92 147h66z" />
    <glyph glyph-name="Lcommaaccent" unicode="&#x13b;" horiz-adv-x="403" 
d="M55 746h50v-703h289v-43h-339v746zM267 -60l-41 -147h-32l12 147h61z" />
    <glyph glyph-name="lcommaaccent" unicode="&#x13c;" horiz-adv-x="157" 
d="M102 780v-780h-47v780h47zM109 -70l-41 -147h-32l12 147h61z" />
    <glyph glyph-name="Lcaron" unicode="&#x13d;" horiz-adv-x="403" 
d="M55 746h50v-703h289v-43h-339v746zM305 780l-34 -147h-32l15 147h51z" />
    <glyph glyph-name="lcaron" unicode="&#x13e;" horiz-adv-x="157" 
d="M102 780v-780h-47v780h47zM207 780l-34 -147h-32l15 147h51z" />
    <glyph glyph-name="Ldot" unicode="&#x13f;" horiz-adv-x="403" 
d="M55 746h50v-703h289v-43h-339v746zM289 477v-104h-51v104h51z" />
    <glyph glyph-name="ldot" unicode="&#x140;" horiz-adv-x="154" 
d="M102 780v-780h-47v780h47zM181 464v-104h-51v104h51z" />
    <glyph glyph-name="Lslash" unicode="&#x141;" horiz-adv-x="403" 
d="M394 0h-339v330l-50 -27v46l50 27v370h50v-342l175 96v-46l-175 -96v-315h289v-43z" />
    <glyph glyph-name="lslash" unicode="&#x142;" horiz-adv-x="157" 
d="M102 0h-47v399l-50 -27v44l50 27v337h47v-311l54 30v-44l-54 -30v-425z" />
    <glyph glyph-name="Nacute" unicode="&#x143;" horiz-adv-x="686" 
d="M581 0l-476 673v-673h-50v746h62l464 -654v654h50v-746h-50zM472 954l-121 -147h-37l92 147h66z" />
    <glyph glyph-name="nacute" unicode="&#x144;" horiz-adv-x="544" 
d="M99 369v-369h-47v574h47v-79q27 39 77.5 66t110.5 27q98 0 152.5 -58t54.5 -158v-372h-47v359q0 53 -14.5 89t-38.5 57.5t-55.5 30.5t-63.5 9q-27 0 -58 -10.5t-57 -32.5t-43.5 -55t-17.5 -78zM403 798l-121 -147h-37l92 147h66z" />
    <glyph glyph-name="Ncommaaccent" unicode="&#x145;" horiz-adv-x="686" 
d="M581 0l-476 673v-673h-50v746h62l464 -654v654h50v-746h-50zM373 -60l-41 -147h-32l12 147h61z" />
    <glyph glyph-name="ncommaaccent" unicode="&#x146;" horiz-adv-x="544" 
d="M99 369v-369h-47v574h47v-79q27 39 77.5 66t110.5 27q98 0 152.5 -58t54.5 -158v-372h-47v359q0 53 -14.5 89t-38.5 57.5t-55.5 30.5t-63.5 9q-27 0 -58 -10.5t-57 -32.5t-43.5 -55t-17.5 -78zM304 -60l-41 -147h-32l12 147h61z" />
    <glyph glyph-name="Ncaron" unicode="&#x147;" horiz-adv-x="686" 
d="M581 0l-476 673v-673h-50v746h62l464 -654v654h50v-746h-50zM376 807h-66l-94 147h37l90 -110l90 110h37z" />
    <glyph glyph-name="ncaron" unicode="&#x148;" horiz-adv-x="544" 
d="M99 369v-369h-47v574h47v-79q27 39 77.5 66t110.5 27q98 0 152.5 -58t54.5 -158v-372h-47v359q0 53 -14.5 89t-38.5 57.5t-55.5 30.5t-63.5 9q-27 0 -58 -10.5t-57 -32.5t-43.5 -55t-17.5 -78zM307 651h-66l-94 147h37l90 -110l90 110h37z" />
    <glyph glyph-name="Eng" unicode="&#x14a;" horiz-adv-x="686" 
d="M474 -220h-11v47h11q52 0 79.5 43.5t27.5 123.5v6l-476 673v-673h-50v746h62l464 -654v654h50v-752q0 -115 -44 -164.5t-113 -49.5z" />
    <glyph glyph-name="eng" unicode="&#x14b;" horiz-adv-x="544" 
d="M346 -220h-17v47h5q55 1 84 44t29 123v365q0 53 -14.5 89t-38.5 57.5t-55.5 30.5t-63.5 9q-27 0 -58 -10.5t-57 -32.5t-43.5 -55t-17.5 -78v-369h-47v574h47v-79q27 39 77.5 66t110.5 27q98 0 152.5 -58t54.5 -158v-378q0 -104 -41 -158.5t-107 -55.5z" />
    <glyph glyph-name="Omacron" unicode="&#x14c;" horiz-adv-x="879" 
d="M440 770q84 0 158 -31t129.5 -84.5t87.5 -126t32 -154.5t-32 -155t-87.5 -126.5t-129.5 -85t-158 -31.5t-159 31.5t-130 85t-87 126.5t-32 155t32 154.5t87 126t130 84.5t159 31zM440 725q-73 0 -138 -29t-113.5 -77.5t-77 -112t-28.5 -131.5q0 -70 28.5 -134.5t77 -113
t113.5 -77.5t138 -29q72 0 137 29t113.5 77.5t77 112.5t28.5 135q0 68 -28.5 131.5t-77 112t-113.5 77.5t-137 29zM563 850v-43h-246v43h246z" />
    <glyph glyph-name="omacron" unicode="&#x14d;" horiz-adv-x="684" 
d="M342 603q68 0 125.5 -26t99 -69.5t65 -101t23.5 -119.5t-23.5 -119.5t-65 -101t-99 -69.5t-125.5 -26t-125.5 26t-99 69.5t-65 101t-23.5 119.5t23.5 119.5t65 101t99 69.5t125.5 26zM342 560q-57 0 -105.5 -22.5t-83.5 -60t-54.5 -87.5t-19.5 -103t19.5 -103t54.5 -87.5
t83.5 -60t105.5 -22.5t105.5 22.5t83.5 60t54.5 87.5t19.5 103t-19.5 103t-54.5 87.5t-83.5 60t-105.5 22.5zM465 694v-43h-246v43h246z" />
    <glyph glyph-name="Obreve" unicode="&#x14e;" horiz-adv-x="879" 
d="M440 770q84 0 158 -31t129.5 -84.5t87.5 -126t32 -154.5t-32 -155t-87.5 -126.5t-129.5 -85t-158 -31.5t-159 31.5t-130 85t-87 126.5t-32 155t32 154.5t87 126t130 84.5t159 31zM440 725q-73 0 -138 -29t-113.5 -77.5t-77 -112t-28.5 -131.5q0 -70 28.5 -134.5t77 -113
t113.5 -77.5t138 -29q72 0 137 29t113.5 77.5t77 112.5t28.5 135q0 68 -28.5 131.5t-77 112t-113.5 77.5t-137 29zM576 938q-19 -62 -52.5 -99t-83.5 -37t-83.5 37t-52.5 99l40 3q18 -49 44.5 -73t51.5 -24t51.5 24t44.5 73z" />
    <glyph glyph-name="obreve" unicode="&#x14f;" horiz-adv-x="684" 
d="M342 603q68 0 125.5 -26t99 -69.5t65 -101t23.5 -119.5t-23.5 -119.5t-65 -101t-99 -69.5t-125.5 -26t-125.5 26t-99 69.5t-65 101t-23.5 119.5t23.5 119.5t65 101t99 69.5t125.5 26zM342 560q-57 0 -105.5 -22.5t-83.5 -60t-54.5 -87.5t-19.5 -103t19.5 -103t54.5 -87.5
t83.5 -60t105.5 -22.5t105.5 22.5t83.5 60t54.5 87.5t19.5 103t-19.5 103t-54.5 87.5t-83.5 60t-105.5 22.5zM478 782q-19 -62 -52.5 -99t-83.5 -37t-83.5 37t-52.5 99l40 3q18 -49 44.5 -73t51.5 -24t51.5 24t44.5 73z" />
    <glyph glyph-name="Ohungarumlaut" unicode="&#x150;" horiz-adv-x="879" 
d="M440 770q84 0 158 -31t129.5 -84.5t87.5 -126t32 -154.5t-32 -155t-87.5 -126.5t-129.5 -85t-158 -31.5t-159 31.5t-130 85t-87 126.5t-32 155t32 154.5t87 126t130 84.5t159 31zM440 725q-73 0 -138 -29t-113.5 -77.5t-77 -112t-28.5 -131.5q0 -70 28.5 -134.5t77 -113
t113.5 -77.5t138 -29q72 0 137 29t113.5 77.5t77 112.5t28.5 135q0 68 -28.5 131.5t-77 112t-113.5 77.5t-137 29zM590 954h66l-131 -147h-37zM450 954h66l-131 -147h-37z" />
    <glyph glyph-name="ohungarumlaut" unicode="&#x151;" horiz-adv-x="684" 
d="M342 603q68 0 125.5 -26t99 -69.5t65 -101t23.5 -119.5t-23.5 -119.5t-65 -101t-99 -69.5t-125.5 -26t-125.5 26t-99 69.5t-65 101t-23.5 119.5t23.5 119.5t65 101t99 69.5t125.5 26zM342 560q-57 0 -105.5 -22.5t-83.5 -60t-54.5 -87.5t-19.5 -103t19.5 -103t54.5 -87.5
t83.5 -60t105.5 -22.5t105.5 22.5t83.5 60t54.5 87.5t19.5 103t-19.5 103t-54.5 87.5t-83.5 60t-105.5 22.5zM492 798h66l-131 -147h-37zM352 798h66l-131 -147h-37z" />
    <glyph glyph-name="OE" unicode="&#x152;" horiz-adv-x="915" 
d="M443 43h78v660h-78q-70 0 -135 -21.5t-115 -63.5t-80 -103.5t-30 -140.5q0 -80 30 -142t80 -104t115 -63.5t135 -21.5zM435 0q-78 0 -151.5 27t-129 75.5t-89 118t-33.5 153.5q0 83 33.5 152t89.5 117.5t129 75.5t151 27h432v-43h-296v-277h302v-43h-302v-340h304v-43
h-440z" />
    <glyph glyph-name="oe" unicode="&#x153;" horiz-adv-x="1226" 
d="M904 560q-45 0 -86.5 -16.5t-74 -45t-55.5 -68.5t-32 -86h492q-7 44 -29.5 83.5t-55.5 69t-74 46.5t-85 17zM342 560q-57 0 -105.5 -22.5t-83.5 -60t-54.5 -87.5t-19.5 -103t19.5 -103t54.5 -87.5t83.5 -60t105.5 -22.5t105.5 22.5t83.5 60t54.5 87.5t19.5 103t-19.5 103
t-54.5 87.5t-83.5 60t-105.5 22.5zM1182 86q-40 -47 -110.5 -81t-157.5 -34q-101 0 -176 55t-109 139q-34 -83 -110.5 -138.5t-176.5 -55.5q-68 0 -125.5 26t-99 69.5t-65 101t-23.5 119.5t23.5 119.5t65 101t99 69.5t125.5 26q100 0 176.5 -55.5t110.5 -138.5
q16 41 42 76.5t61 61.5t78.5 41t93.5 15q59 0 113 -24t94.5 -64t65 -94t24.5 -114v-5h-550v-6.5v-7.5q0 -58 21.5 -108t57.5 -87t83.5 -58t100.5 -21q69 0 130 30.5t108 77.5z" />
    <glyph glyph-name="Racute" unicode="&#x154;" horiz-adv-x="503" 
d="M196 703h-91v-337h86q43 0 79.5 14t63 38.5t41 57.5t14.5 71q0 26 -10 54t-32.5 50.5t-59.5 37t-91 14.5zM420 0l-315 321v-321h-50v746h141q68 0 115 -17.5t75.5 -45.5t41 -64t12.5 -72q0 -48 -18 -89.5t-51.5 -71t-81.5 -46.5t-107 -17h-12l317 -323h-67zM355 954
l-121 -147h-37l92 147h66z" />
    <glyph glyph-name="racute" unicode="&#x155;" horiz-adv-x="312" 
d="M99 330v-330h-47v574h47v-109q10 17 25 36t35 35.5t45 27t53 10.5h19v-53q-3 1 -8 2t-8 1q-37 0 -67 -19.5t-50.5 -48t-32 -63t-11.5 -63.5zM293 798l-121 -147h-37l92 147h66z" />
    <glyph glyph-name="Rcommaaccent" unicode="&#x156;" horiz-adv-x="503" 
d="M196 703h-91v-337h86q43 0 79.5 14t63 38.5t41 57.5t14.5 71q0 26 -10 54t-32.5 50.5t-59.5 37t-91 14.5zM420 0l-315 321v-321h-50v746h141q68 0 115 -17.5t75.5 -45.5t41 -64t12.5 -72q0 -48 -18 -89.5t-51.5 -71t-81.5 -46.5t-107 -17h-12l317 -323h-67zM265 -60
l-41 -147h-32l12 147h61z" />
    <glyph glyph-name="rcommaaccent" unicode="&#x157;" horiz-adv-x="312" 
d="M99 330v-330h-47v574h47v-109q10 17 25 36t35 35.5t45 27t53 10.5h19v-53q-3 1 -8 2t-8 1q-37 0 -67 -19.5t-50.5 -48t-32 -63t-11.5 -63.5zM105 -60l-41 -147h-32l12 147h61z" />
    <glyph glyph-name="Rcaron" unicode="&#x158;" horiz-adv-x="503" 
d="M196 703h-91v-337h86q43 0 79.5 14t63 38.5t41 57.5t14.5 71q0 26 -10 54t-32.5 50.5t-59.5 37t-91 14.5zM420 0l-315 321v-321h-50v746h141q68 0 115 -17.5t75.5 -45.5t41 -64t12.5 -72q0 -48 -18 -89.5t-51.5 -71t-81.5 -46.5t-107 -17h-12l317 -323h-67zM259 807h-66
l-94 147h37l90 -110l90 110h37z" />
    <glyph glyph-name="rcaron" unicode="&#x159;" horiz-adv-x="312" 
d="M99 330v-330h-47v574h47v-109q10 17 25 36t35 35.5t45 27t53 10.5h19v-53q-3 1 -8 2t-8 1q-37 0 -67 -19.5t-50.5 -48t-32 -63t-11.5 -63.5zM197 651h-66l-94 147h37l90 -110l90 110h37z" />
    <glyph glyph-name="Sacute" unicode="&#x15a;" horiz-adv-x="507" 
d="M410 724l-3 -57q-31 20 -71 34.5t-84 14.5q-43 0 -70.5 -12.5t-43.5 -30t-22.5 -37t-6.5 -34.5q0 -44 32.5 -84.5t120.5 -86.5q110 -58 158.5 -113t48.5 -121q0 -52 -19 -91.5t-51.5 -65.5t-76 -39t-91.5 -13q-24 0 -50.5 3.5t-52 10t-49 16.5t-39.5 23l3 59
q49 -34 92 -50.5t100 -16.5q48 0 82.5 14.5t57 37.5t33 51.5t10.5 56.5q0 51 -39.5 98t-138.5 98q-100 52 -141 102t-41 107q0 31 12 60t35.5 52t59.5 37t84 14q36 0 80.5 -8.5t80.5 -28.5zM388 954l-121 -147h-37l92 147h66z" />
    <glyph glyph-name="sacute" unicode="&#x15b;" horiz-adv-x="406" 
d="M196 588q31 0 60.5 -8.5t52.5 -21.5v-52q-25 18 -53 28.5t-60 10.5q-51 0 -83 -23.5t-32 -62.5q0 -31 29 -57t101 -71q100 -61 135.5 -102.5t35.5 -92.5q0 -71 -53 -109.5t-132 -39.5q-40 0 -85.5 13.5t-76.5 31.5v54q38 -24 83 -40t79 -16q67 1 101 31.5t34 72.5
q0 11 -3.5 25t-17.5 32.5t-42.5 42t-78.5 53.5q-44 27 -74.5 47.5t-49 39.5t-27 40t-8.5 50q0 19 9.5 40.5t29.5 40t51.5 31t74.5 12.5zM327 798l-121 -147h-37l92 147h66z" />
    <glyph glyph-name="Scircumflex" unicode="&#x15c;" horiz-adv-x="507" 
d="M410 724l-3 -57q-31 20 -71 34.5t-84 14.5q-43 0 -70.5 -12.5t-43.5 -30t-22.5 -37t-6.5 -34.5q0 -44 32.5 -84.5t120.5 -86.5q110 -58 158.5 -113t48.5 -121q0 -52 -19 -91.5t-51.5 -65.5t-76 -39t-91.5 -13q-24 0 -50.5 3.5t-52 10t-49 16.5t-39.5 23l3 59
q49 -34 92 -50.5t100 -16.5q48 0 82.5 14.5t57 37.5t33 51.5t10.5 56.5q0 51 -39.5 98t-138.5 98q-100 52 -141 102t-41 107q0 31 12 60t35.5 52t59.5 37t84 14q36 0 80.5 -8.5t80.5 -28.5zM349 807l-90 110l-90 -110h-37l94 147h66l94 -147h-37z" />
    <glyph glyph-name="scircumflex" unicode="&#x15d;" horiz-adv-x="406" 
d="M196 588q31 0 60.5 -8.5t52.5 -21.5v-52q-25 18 -53 28.5t-60 10.5q-51 0 -83 -23.5t-32 -62.5q0 -31 29 -57t101 -71q100 -61 135.5 -102.5t35.5 -92.5q0 -71 -53 -109.5t-132 -39.5q-40 0 -85.5 13.5t-76.5 31.5v54q38 -24 83 -40t79 -16q67 1 101 31.5t34 72.5
q0 11 -3.5 25t-17.5 32.5t-42.5 42t-78.5 53.5q-44 27 -74.5 47.5t-49 39.5t-27 40t-8.5 50q0 19 9.5 40.5t29.5 40t51.5 31t74.5 12.5zM288 651l-90 110l-90 -110h-37l94 147h66l94 -147h-37z" />
    <glyph glyph-name="Scedilla" unicode="&#x15e;" horiz-adv-x="507" 
d="M410 724l-3 -57q-31 20 -71 34.5t-84 14.5q-43 0 -70.5 -12.5t-43.5 -30t-22.5 -37t-6.5 -34.5q0 -44 32.5 -84.5t120.5 -86.5q110 -58 158.5 -113t48.5 -121q0 -52 -19 -91.5t-51.5 -65.5t-76 -39t-91.5 -13q-24 0 -50.5 3.5t-52 10t-49 16.5t-39.5 23l3 59
q49 -34 92 -50.5t100 -16.5q48 0 82.5 14.5t57 37.5t33 51.5t10.5 56.5q0 51 -39.5 98t-138.5 98q-100 52 -141 102t-41 107q0 31 12 60t35.5 52t59.5 37t84 14q36 0 80.5 -8.5t80.5 -28.5zM214 -196q-8 0 -26.5 3t-34.5 9v38h1q17 -7 34.5 -10t25.5 -3q26 0 41 12t15 28
q0 14 -16.5 23t-48.5 9h-19l-3 4l32 81h45l-24 -52q37 -4 57 -21.5t20 -45.5q0 -31 -26.5 -53t-72.5 -22z" />
    <glyph glyph-name="scedilla" unicode="&#x15f;" horiz-adv-x="406" 
d="M196 588q31 0 60.5 -8.5t52.5 -21.5v-52q-25 18 -53 28.5t-60 10.5q-51 0 -83 -23.5t-32 -62.5q0 -31 29 -57t101 -71q100 -61 135.5 -102.5t35.5 -92.5q0 -71 -53 -109.5t-132 -39.5q-40 0 -85.5 13.5t-76.5 31.5v54q38 -24 83 -40t79 -16q67 1 101 31.5t34 72.5
q0 11 -3.5 25t-17.5 32.5t-42.5 42t-78.5 53.5q-44 27 -74.5 47.5t-49 39.5t-27 40t-8.5 50q0 19 9.5 40.5t29.5 40t51.5 31t74.5 12.5zM180 -197q-8 0 -26.5 3t-34.5 9v38h1q17 -7 34.5 -10t25.5 -3q26 0 41 12t15 28q0 14 -16.5 23t-48.5 9h-19l-3 4l32 81h45l-24 -52
q37 -4 57 -21.5t20 -45.5q0 -31 -26.5 -53t-72.5 -22z" />
    <glyph glyph-name="Scaron" unicode="&#x160;" horiz-adv-x="507" 
d="M410 724l-3 -57q-31 20 -71 34.5t-84 14.5q-43 0 -70.5 -12.5t-43.5 -30t-22.5 -37t-6.5 -34.5q0 -44 32.5 -84.5t120.5 -86.5q110 -58 158.5 -113t48.5 -121q0 -52 -19 -91.5t-51.5 -65.5t-76 -39t-91.5 -13q-24 0 -50.5 3.5t-52 10t-49 16.5t-39.5 23l3 59
q49 -34 92 -50.5t100 -16.5q48 0 82.5 14.5t57 37.5t33 51.5t10.5 56.5q0 51 -39.5 98t-138.5 98q-100 52 -141 102t-41 107q0 31 12 60t35.5 52t59.5 37t84 14q36 0 80.5 -8.5t80.5 -28.5zM292 807h-66l-94 147h37l90 -110l90 110h37z" />
    <glyph glyph-name="scaron" unicode="&#x161;" horiz-adv-x="406" 
d="M196 588q31 0 60.5 -8.5t52.5 -21.5v-52q-25 18 -53 28.5t-60 10.5q-51 0 -83 -23.5t-32 -62.5q0 -31 29 -57t101 -71q100 -61 135.5 -102.5t35.5 -92.5q0 -71 -53 -109.5t-132 -39.5q-40 0 -85.5 13.5t-76.5 31.5v54q38 -24 83 -40t79 -16q67 1 101 31.5t34 72.5
q0 11 -3.5 25t-17.5 32.5t-42.5 42t-78.5 53.5q-44 27 -74.5 47.5t-49 39.5t-27 40t-8.5 50q0 19 9.5 40.5t29.5 40t51.5 31t74.5 12.5zM231 651h-66l-94 147h37l90 -110l90 110h37z" />
    <glyph glyph-name="Tcaron" unicode="&#x164;" horiz-adv-x="374" 
d="M162 0v703h-153v43h356v-43h-153v-703h-50zM220 807h-66l-94 147h37l90 -110l90 110h37z" />
    <glyph glyph-name="tcaron" unicode="&#x165;" horiz-adv-x="245" 
d="M231 532h-85v-532h-47v532h-85v42h85v139l47 30v-169h85v-42zM261 840l-34 -147h-32l15 147h51z" />
    <glyph glyph-name="Tbar" unicode="&#x166;" horiz-adv-x="374" 
d="M295 351h-83v-351h-50v351h-83v43h83v309h-153v43h356v-43h-153v-309h83v-43z" />
    <glyph glyph-name="tbar" unicode="&#x167;" horiz-adv-x="245" 
d="M228 341h-82v-341h-47v341h-88v42h88v149h-85v42h85v139l47 30v-169h85v-42h-85v-149h82v-42z" />
    <glyph glyph-name="Utilde" unicode="&#x168;" horiz-adv-x="626" 
d="M571 278q0 -68 -16 -123.5t-48 -95t-81 -61.5t-114 -22q-64 0 -112.5 22t-80.5 61.5t-48 95t-16 123.5v468h50v-497q0 -57 17.5 -100t46 -71t66 -42.5t77.5 -14.5q41 0 79 14.5t66.5 42.5t46 71t17.5 100v497h50v-468zM173 807h-40q-4 36 2.5 60.5t19 39.5t29.5 21t33 6
q22 0 48.5 -14t52 -30.5t49.5 -30.5t41 -14q18 0 32.5 17t11.5 72h40q4 -36 -2.5 -60.5t-19 -39.5t-29.5 -21t-33 -6q-22 0 -48.5 14t-52 30.5t-49.5 30.5t-41 14q-18 0 -32.5 -17t-11.5 -72z" />
    <glyph glyph-name="utilde" unicode="&#x169;" horiz-adv-x="545" 
d="M446 0v79q-27 -39 -77.5 -66t-110.5 -27q-99 0 -153.5 58t-54.5 158v372h47v-359q0 -53 14.5 -89t39 -57.5t55.5 -30.5t64 -9q27 0 58 10.5t57 32.5t43.5 55t17.5 78v369h47v-574h-47zM132 651h-40q-4 36 2.5 60.5t19 39.5t29.5 21t33 6q22 0 48.5 -14t52 -30.5
t49.5 -30.5t41 -14q18 0 32.5 17t11.5 72h40q4 -36 -2.5 -60.5t-19 -39.5t-29.5 -21t-33 -6q-22 0 -48.5 14t-52 30.5t-49.5 30.5t-41 14q-18 0 -32.5 -17t-11.5 -72z" />
    <glyph glyph-name="Umacron" unicode="&#x16a;" horiz-adv-x="626" 
d="M571 278q0 -68 -16 -123.5t-48 -95t-81 -61.5t-114 -22q-64 0 -112.5 22t-80.5 61.5t-48 95t-16 123.5v468h50v-497q0 -57 17.5 -100t46 -71t66 -42.5t77.5 -14.5q41 0 79 14.5t66.5 42.5t46 71t17.5 100v497h50v-468zM436 850v-43h-246v43h246z" />
    <glyph glyph-name="umacron" unicode="&#x16b;" horiz-adv-x="545" 
d="M446 0v79q-27 -39 -77.5 -66t-110.5 -27q-99 0 -153.5 58t-54.5 158v372h47v-359q0 -53 14.5 -89t39 -57.5t55.5 -30.5t64 -9q27 0 58 10.5t57 32.5t43.5 55t17.5 78v369h47v-574h-47zM395 694v-43h-246v43h246z" />
    <glyph glyph-name="Ubreve" unicode="&#x16c;" horiz-adv-x="626" 
d="M571 278q0 -68 -16 -123.5t-48 -95t-81 -61.5t-114 -22q-64 0 -112.5 22t-80.5 61.5t-48 95t-16 123.5v468h50v-497q0 -57 17.5 -100t46 -71t66 -42.5t77.5 -14.5q41 0 79 14.5t66.5 42.5t46 71t17.5 100v497h50v-468zM449 938q-19 -62 -52.5 -99t-83.5 -37t-83.5 37
t-52.5 99l40 3q18 -49 44.5 -73t51.5 -24t51.5 24t44.5 73z" />
    <glyph glyph-name="ubreve" unicode="&#x16d;" horiz-adv-x="545" 
d="M446 0v79q-27 -39 -77.5 -66t-110.5 -27q-99 0 -153.5 58t-54.5 158v372h47v-359q0 -53 14.5 -89t39 -57.5t55.5 -30.5t64 -9q27 0 58 10.5t57 32.5t43.5 55t17.5 78v369h47v-574h-47zM408 782q-19 -62 -52.5 -99t-83.5 -37t-83.5 37t-52.5 99l40 3q18 -49 44.5 -73
t51.5 -24t51.5 24t44.5 73z" />
    <glyph glyph-name="Uring" unicode="&#x16e;" horiz-adv-x="626" 
d="M571 278q0 -68 -16 -123.5t-48 -95t-81 -61.5t-114 -22q-64 0 -112.5 22t-80.5 61.5t-48 95t-16 123.5v468h50v-497q0 -57 17.5 -100t46 -71t66 -42.5t77.5 -14.5q41 0 79 14.5t66.5 42.5t46 71t17.5 100v497h50v-468zM313 1002q42 0 71.5 -30t29.5 -70t-29.5 -70
t-71.5 -30t-71.5 30t-29.5 70t29.5 70t71.5 30zM313 970q-28 0 -47.5 -20t-19.5 -48t19.5 -48t47.5 -20t47.5 20t19.5 48t-19.5 48t-47.5 20z" />
    <glyph glyph-name="uring" unicode="&#x16f;" horiz-adv-x="545" 
d="M446 0v79q-27 -39 -77.5 -66t-110.5 -27q-99 0 -153.5 58t-54.5 158v372h47v-359q0 -53 14.5 -89t39 -57.5t55.5 -30.5t64 -9q27 0 58 10.5t57 32.5t43.5 55t17.5 78v369h47v-574h-47zM272 846q42 0 71.5 -30t29.5 -70t-29.5 -70t-71.5 -30t-71.5 30t-29.5 70t29.5 70
t71.5 30zM272 814q-28 0 -47.5 -20t-19.5 -48t19.5 -48t47.5 -20t47.5 20t19.5 48t-19.5 48t-47.5 20z" />
    <glyph glyph-name="Uhungarumlaut" unicode="&#x170;" horiz-adv-x="626" 
d="M571 278q0 -68 -16 -123.5t-48 -95t-81 -61.5t-114 -22q-64 0 -112.5 22t-80.5 61.5t-48 95t-16 123.5v468h50v-497q0 -57 17.5 -100t46 -71t66 -42.5t77.5 -14.5q41 0 79 14.5t66.5 42.5t46 71t17.5 100v497h50v-468zM463 954h66l-131 -147h-37zM323 954h66l-131 -147
h-37z" />
    <glyph glyph-name="uhungarumlaut" unicode="&#x171;" horiz-adv-x="545" 
d="M446 0v79q-27 -39 -77.5 -66t-110.5 -27q-99 0 -153.5 58t-54.5 158v372h47v-359q0 -53 14.5 -89t39 -57.5t55.5 -30.5t64 -9q27 0 58 10.5t57 32.5t43.5 55t17.5 78v369h47v-574h-47zM422 798h66l-131 -147h-37zM282 798h66l-131 -147h-37z" />
    <glyph glyph-name="Uogonek" unicode="&#x172;" horiz-adv-x="626" 
d="M382 -174q-37 0 -55 23t-18 45q0 27 12.5 48t34.5 37q-10 -1 -21.5 -2t-22.5 -1q-64 0 -112.5 22t-80.5 61.5t-48 95t-16 123.5v468h50v-497q0 -57 17.5 -100t46 -71t66 -42.5t77.5 -14.5q41 0 79 14.5t66.5 42.5t46 71t17.5 100v497h50v-468q0 -94 -31.5 -165
t-94.5 -106l-34 -28q-24 -19 -39.5 -36t-15.5 -39q0 -13 9 -24t24 -11q12 0 21.5 4.5t17.5 11.5l25 -31q-9 -9 -29 -18.5t-42 -9.5z" />
    <glyph glyph-name="uogonek" unicode="&#x173;" horiz-adv-x="545" 
d="M510 -146q-9 -9 -29 -18.5t-42 -9.5q-37 0 -55 21t-18 42q0 27 16 45.5t35 38.5l29 31v75q-27 -39 -77.5 -66t-110.5 -27q-99 0 -153.5 58t-54.5 158v372h47v-359q0 -53 14.5 -89t39 -57.5t55.5 -30.5t64 -9q27 0 58 10.5t57 32.5t43.5 55t17.5 78v369h47v-574l-31 -34
q-19 -20 -34 -34t-15 -34q0 -9 9 -19t24 -10q12 0 21.5 4.5t17.5 11.5z" />
    <glyph glyph-name="Wcircumflex" unicode="&#x174;" horiz-adv-x="979" 
d="M686 0l-196 655l-197 -655h-51l-238 746h52l211 -664l198 664h50l198 -665l210 665h52l-238 -746h-51zM580 807l-90 110l-90 -110h-37l94 147h66l94 -147h-37z" />
    <glyph glyph-name="wcircumflex" unicode="&#x175;" horiz-adv-x="831" 
d="M584 0l-168 508l-167 -508h-47l-203 574h50l176 -509l164 509h56l162 -508l177 508h48l-203 -574h-45zM506 651l-90 110l-90 -110h-37l94 147h66l94 -147h-37z" />
    <glyph glyph-name="Ycircumflex" unicode="&#x176;" horiz-adv-x="558" 
d="M303 0h-50v258l-251 488h55l223 -429l222 429h54l-253 -488v-258zM369 807l-90 110l-90 -110h-37l94 147h66l94 -147h-37z" />
    <glyph glyph-name="ycircumflex" unicode="&#x177;" horiz-adv-x="535" 
d="M231 -220h-46l79 207l-265 587h52l235 -530l202 530h48zM358 651l-90 110l-90 -110h-37l94 147h66l94 -147h-37z" />
    <glyph glyph-name="Ydieresis" unicode="&#x178;" horiz-adv-x="558" 
d="M303 0h-50v258l-251 488h55l223 -429l222 429h54l-253 -488v-258zM409 873v-66h-64v66h64zM213 873v-66h-64v66h64z" />
    <glyph glyph-name="Zacute" unicode="&#x179;" horiz-adv-x="570" 
d="M537 0h-522l-1 2l430 701h-385l20 43h448l1 -2l-432 -701h461zM420 954l-121 -147h-37l92 147h66z" />
    <glyph glyph-name="zacute" unicode="&#x17a;" horiz-adv-x="547" 
d="M504 0h-489v2l434 530h-356l20 42h426v-2l-435 -530h420zM427 798l-121 -147h-37l92 147h66z" />
    <glyph glyph-name="Zdotaccent" unicode="&#x17b;" horiz-adv-x="570" 
d="M537 0h-522l-1 2l430 701h-385l20 43h448l1 -2l-432 -701h461zM317 911v-104h-51v104h51z" />
    <glyph glyph-name="zdotaccent" unicode="&#x17c;" horiz-adv-x="547" 
d="M504 0h-489v2l434 530h-356l20 42h426v-2l-435 -530h420zM324 780v-104h-51v104h51z" />
    <glyph glyph-name="Zcaron" unicode="&#x17d;" horiz-adv-x="570" 
d="M537 0h-522l-1 2l430 701h-385l20 43h448l1 -2l-432 -701h461zM324 807h-66l-94 147h37l90 -110l90 110h37z" />
    <glyph glyph-name="zcaron" unicode="&#x17e;" horiz-adv-x="547" 
d="M504 0h-489v2l434 530h-356l20 42h426v-2l-435 -530h420zM331 651h-66l-94 147h37l90 -110l90 110h37z" />
    <glyph glyph-name="florin" unicode="&#x192;" horiz-adv-x="427" 
d="M191 -57q-7 -51 -22.5 -83t-38 -50t-50 -24t-58.5 -6v43q18 0 37 3.5t35.5 16t29 36.5t18.5 65q3 22 10.5 75.5t17 122t20.5 145.5t20 145h-92v42h98q4 32 8 60l7 49q7 51 22.5 83t38 50t50 24t58.5 6v-43q-18 0 -37 -3.5t-35.5 -16t-29 -36.5t-18.5 -65q-3 -21 -7 -48.5
t-8 -59.5h91v-42h-97q-9 -68 -20 -145t-20.5 -146t-17 -122.5t-10.5 -75.5z" />
    <glyph glyph-name="Aringacute" unicode="&#x1fa;" horiz-adv-x="679" 
d="M532 223l-193 472l-195 -472h388zM623 0l-74 180h-423l-74 -180h-50l312 746h51l312 -746h-54zM339 915q42 0 71.5 -30t29.5 -70t-29.5 -70t-71.5 -30t-71.5 30t-29.5 70t29.5 70t71.5 30zM339 883q-28 0 -47.5 -20t-19.5 -48t19.5 -48t47.5 -20t47.5 20t19.5 48
t-19.5 48t-47.5 20zM468 1085l-121 -147h-37l92 147h66z" />
    <glyph glyph-name="aringacute" unicode="&#x1fb;" horiz-adv-x="491" 
d="M230 24q69 0 116.5 43t47.5 103t-45.5 103t-118.5 43q-68 0 -109.5 -43t-41.5 -103t41.5 -103t109.5 -43zM392 0v60q-28 -33 -70.5 -56t-93.5 -23q-42 0 -78.5 15t-63 40.5t-42 60t-15.5 73.5t15.5 73.5t42 60t63 40.5t78.5 15q53 0 94.5 -20t69.5 -51v80
q0 104 -41 141.5t-100 37.5q-29 0 -55.5 -3t-81.5 -13l-7 41q54 10 82 13.5t62 3.5q98 0 143 -54.5t45 -147.5v-387h-47zM251 846q42 0 71.5 -30t29.5 -70t-29.5 -70t-71.5 -30t-71.5 30t-29.5 70t29.5 70t71.5 30zM251 814q-28 0 -47.5 -20t-19.5 -48t19.5 -48t47.5 -20
t47.5 20t19.5 48t-19.5 48t-47.5 20zM380 1016l-121 -147h-37l92 147h66z" />
    <glyph glyph-name="AEacute" unicode="&#x1fc;" horiz-adv-x="936" 
d="M500 223l-183 480l-179 -480h362zM585 0l-69 180h-395l-67 -180h-52l292 746h382v-43h-314l108 -277h317v-43h-300l133 -340h314v-43h-349zM477 954l-121 -147h-37l92 147h66z" />
    <glyph glyph-name="aeacute" unicode="&#x1fd;" horiz-adv-x="1004" 
d="M682 560q-45 0 -86.5 -16.5t-74 -45t-55.5 -68.5t-32 -86h492q-7 44 -29.5 83.5t-55.5 69t-74 46.5t-85 17zM692 -29q-86 0 -154 41t-108 106q-16 -66 -71.5 -106.5t-130.5 -40.5q-85 0 -142 55t-57 139t57 139t142 55q49 0 87.5 -17t66.5 -44v70q0 104 -38.5 141.5
t-92.5 37.5q-29 0 -55.5 -3t-81.5 -13l-7 41q54 10 82 13.5t62 3.5q76 0 118.5 -37.5t54.5 -103.5q37 67 104 111t154 44q59 0 113 -24t94.5 -64t65 -94t24.5 -114v-5h-550v-6.5v-7.5q0 -58 21.5 -108t57.5 -87t83.5 -58t100.5 -21q69 0 130 30.5t108 77.5l30 -36
q-40 -47 -110.5 -81t-157.5 -34zM230 14q69 0 116.5 43t47.5 108t-46.5 108t-117.5 43q-68 0 -109.5 -43.5t-41.5 -107.5t41.5 -107.5t109.5 -43.5zM608 798l-121 -147h-37l92 147h66z" />
    <glyph glyph-name="Oslashacute" unicode="&#x1fe;" horiz-adv-x="879" 
d="M83 375q0 -81 37.5 -154t100.5 -122l402 573q-40 25 -87 39t-96 14q-73 0 -138 -29t-113.5 -77.5t-77 -112t-28.5 -131.5zM440 21q72 0 137 29t113.5 77.5t77 112.5t28.5 135q0 79 -37.5 151t-100.5 121l-402 -573q40 -25 87 -39t97 -14zM440 -24q-58 0 -112 15t-100 43
l-57 -82h-53l74 106q-72 54 -116 137t-44 179q0 82 32 154.5t87 126t130 84.5t159 31q57 0 111 -15t100 -42l57 81h53l-74 -105q72 -54 116 -136.5t44 -178.5q0 -82 -32 -155t-87.5 -126.5t-129.5 -85t-158 -31.5zM569 954l-121 -147h-37l92 147h66z" />
    <glyph glyph-name="oslashacute" unicode="&#x1ff;" horiz-adv-x="684" 
d="M79 287q0 -62 26 -118t72 -95l295 451q-28 16 -61 25.5t-69 9.5q-57 0 -105.5 -22.5t-83.5 -60t-54.5 -87.5t-19.5 -103zM342 14q57 0 105.5 22.5t83.5 60t54.5 87.5t19.5 103q0 62 -26 118t-72 95l-295 -451q28 -16 61 -25.5t69 -9.5zM342 -29q-43 0 -81.5 11t-72.5 30
l-39 -60h-52l55 84q-57 44 -90 110.5t-33 140.5q0 62 23.5 119.5t65 101t99 69.5t125.5 26q43 0 81.5 -11t72.5 -30l39 60h52l-55 -84q57 -44 90 -110.5t33 -140.5q0 -62 -23.5 -119.5t-65 -101t-99 -69.5t-125.5 -26zM471 798l-121 -147h-37l92 147h66z" />
    <glyph glyph-name="Scommaaccent" unicode="&#x218;" horiz-adv-x="507" 
d="M410 724l-3 -57q-31 20 -71 34.5t-84 14.5q-43 0 -70.5 -12.5t-43.5 -30t-22.5 -37t-6.5 -34.5q0 -44 32.5 -84.5t120.5 -86.5q110 -58 158.5 -113t48.5 -121q0 -52 -19 -91.5t-51.5 -65.5t-76 -39t-91.5 -13q-24 0 -50.5 3.5t-52 10t-49 16.5t-39.5 23l3 59
q49 -34 92 -50.5t100 -16.5q48 0 82.5 14.5t57 37.5t33 51.5t10.5 56.5q0 51 -39.5 98t-138.5 98q-100 52 -141 102t-41 107q0 31 12 60t35.5 52t59.5 37t84 14q36 0 80.5 -8.5t80.5 -28.5zM261 -72l-41 -147h-32l12 147h61z" />
    <glyph glyph-name="scommaaccent" unicode="&#x219;" horiz-adv-x="406" 
d="M196 588q31 0 60.5 -8.5t52.5 -21.5v-52q-25 18 -53 28.5t-60 10.5q-51 0 -83 -23.5t-32 -62.5q0 -31 29 -57t101 -71q100 -61 135.5 -102.5t35.5 -92.5q0 -71 -53 -109.5t-132 -39.5q-40 0 -85.5 13.5t-76.5 31.5v54q38 -24 83 -40t79 -16q67 1 101 31.5t34 72.5
q0 11 -3.5 25t-17.5 32.5t-42.5 42t-78.5 53.5q-44 27 -74.5 47.5t-49 39.5t-27 40t-8.5 50q0 19 9.5 40.5t29.5 40t51.5 31t74.5 12.5zM227 -60l-41 -147h-32l12 147h61z" />
    <glyph glyph-name="Tcommaaccent" unicode="&#x21a;" horiz-adv-x="374" 
d="M162 0v703h-153v43h356v-43h-153v-703h-50zM217 -60l-41 -147h-32l12 147h61z" />
    <glyph glyph-name="tcommaaccent" unicode="&#x21b;" horiz-adv-x="245" 
d="M231 532h-85v-532h-47v532h-85v42h85v139l47 30v-169h85v-42zM152 -60l-41 -147h-32l12 147h61z" />
    <glyph glyph-name="dotlessj" unicode="&#x237;" horiz-adv-x="151" 
d="M-66 -173h5q55 1 84 44t29 123v580h47v-580q0 -104 -41 -158.5t-107 -55.5h-17v47z" />
    <glyph glyph-name="schwa" unicode="&#x259;" horiz-adv-x="654" 
d="M322 -29q-59 0 -113 24t-94.5 64t-65 94t-24.5 114v5h550v6.5v7.5q0 58 -21.5 108t-57.5 87t-83.5 58t-100.5 21q-69 0 -130 -30.5t-108 -77.5l-30 36q40 47 110.5 81t157.5 34q68 0 125.5 -25.5t99 -69t65 -101t23.5 -120.5q0 -61 -22 -118t-61.5 -101t-95.5 -70.5
t-124 -26.5zM322 14q45 0 86.5 16.5t74 45t55.5 68.5t32 86h-492q7 -44 29.5 -83.5t55.5 -69t74 -46.5t85 -17z" />
    <glyph glyph-name="circumflex" unicode="&#x2c6;" horiz-adv-x="500" 
d="M340 643l-90 110l-90 -110h-37l94 147h66l94 -147h-37z" />
    <glyph glyph-name="caron" unicode="&#x2c7;" horiz-adv-x="500" 
d="M283 643h-66l-94 147h37l90 -110l90 110h37z" />
    <glyph glyph-name="breve" unicode="&#x2d8;" horiz-adv-x="500" 
d="M386 779q-19 -62 -52.5 -99t-83.5 -37t-83.5 37t-52.5 99l40 3q18 -49 44.5 -73t51.5 -24t51.5 24t44.5 73z" />
    <glyph glyph-name="dotaccent" unicode="&#x2d9;" horiz-adv-x="500" 
d="M276 755v-104h-51v104h51z" />
    <glyph glyph-name="ring" unicode="&#x2da;" horiz-adv-x="500" 
d="M250 849q42 0 71.5 -30t29.5 -70t-29.5 -70t-71.5 -30t-71.5 30t-29.5 70t29.5 70t71.5 30zM250 817q-28 0 -47.5 -20t-19.5 -48t19.5 -48t47.5 -20t47.5 20t19.5 48t-19.5 48t-47.5 20z" />
    <glyph glyph-name="ogonek" unicode="&#x2db;" horiz-adv-x="500" 
d="M219 -28q-19 -20 -34 -34t-15 -34q0 -9 9 -19t24 -10q12 0 21.5 4.5t17.5 11.5l25 -31q-9 -9 -29 -18.5t-42 -9.5q-37 0 -55 21t-18 42q0 27 16 45.5t35 38.5l37 40l39 -13z" />
    <glyph glyph-name="tilde" unicode="&#x2dc;" horiz-adv-x="500" 
d="M110 643h-40q-4 36 2.5 60.5t19 39.5t29.5 21t33 6q22 0 48.5 -14t52 -30.5t49.5 -30.5t41 -14q18 0 32.5 17t11.5 72h40q4 -36 -2.5 -60.5t-19 -39.5t-29.5 -21t-33 -6q-22 0 -48.5 14t-52 30.5t-49.5 30.5t-41 14q-18 0 -32.5 -17t-11.5 -72z" />
    <glyph glyph-name="hungarumlaut" unicode="&#x2dd;" horiz-adv-x="500" 
d="M400 790h66l-131 -147h-37zM260 790h66l-131 -147h-37z" />
    <glyph glyph-name="acute.cmb" unicode="&#x301;" 
d="M89 790l-121 -147h-37l92 147h66z" />
    <glyph glyph-name="mu" unicode="&#x3bc;" horiz-adv-x="547" 
d="M99 -190l-47 -30v794h47v-369q0 -45 17.5 -78t43.5 -55t56.5 -32.5t56.5 -10.5t57 10.5t57 32.5t43.5 55t17.5 78v369h47v-574h-47v75q-26 -41 -73.5 -65t-101.5 -24t-101 24t-73 65v-265z" />
    <glyph glyph-name="Wgrave" unicode="&#x1e80;" horiz-adv-x="979" 
d="M686 0l-196 655l-197 -655h-51l-238 746h52l211 -664l198 664h50l198 -665l210 665h52l-238 -746h-51zM360 954h66l92 -147h-37z" />
    <glyph glyph-name="wgrave" unicode="&#x1e81;" horiz-adv-x="831" 
d="M584 0l-168 508l-167 -508h-47l-203 574h50l176 -509l164 509h56l162 -508l177 508h48l-203 -574h-45zM286 798h66l92 -147h-37z" />
    <glyph glyph-name="Wacute" unicode="&#x1e82;" horiz-adv-x="979" 
d="M686 0l-196 655l-197 -655h-51l-238 746h52l211 -664l198 664h50l198 -665l210 665h52l-238 -746h-51zM619 954l-121 -147h-37l92 147h66z" />
    <glyph glyph-name="wacute" unicode="&#x1e83;" horiz-adv-x="831" 
d="M584 0l-168 508l-167 -508h-47l-203 574h50l176 -509l164 509h56l162 -508l177 508h48l-203 -574h-45zM545 798l-121 -147h-37l92 147h66z" />
    <glyph glyph-name="Wdieresis" unicode="&#x1e84;" horiz-adv-x="979" 
d="M686 0l-196 655l-197 -655h-51l-238 746h52l211 -664l198 664h50l198 -665l210 665h52l-238 -746h-51zM620 873v-66h-64v66h64zM424 873v-66h-64v66h64z" />
    <glyph glyph-name="wdieresis" unicode="&#x1e85;" horiz-adv-x="831" 
d="M584 0l-168 508l-167 -508h-47l-203 574h50l176 -509l164 509h56l162 -508l177 508h48l-203 -574h-45zM546 717v-66h-64v66h64zM350 717v-66h-64v66h64z" />
    <glyph glyph-name="Ygrave" unicode="&#x1ef2;" horiz-adv-x="558" 
d="M303 0h-50v258l-251 488h55l223 -429l222 429h54l-253 -488v-258zM149 954h66l92 -147h-37z" />
    <glyph glyph-name="ygrave" unicode="&#x1ef3;" horiz-adv-x="535" 
d="M231 -220h-46l79 207l-265 587h52l235 -530l202 530h48zM138 798h66l92 -147h-37z" />
    <glyph glyph-name="uni2000" unicode="&#x2000;" horiz-adv-x="500" 
 />
    <glyph glyph-name="uni2001" unicode="&#x2001;" horiz-adv-x="1000" 
 />
    <glyph glyph-name="uni2002" unicode="&#x2002;" horiz-adv-x="500" 
 />
    <glyph glyph-name="uni2003" unicode="&#x2003;" horiz-adv-x="1000" 
 />
    <glyph glyph-name="uni2004" unicode="&#x2004;" horiz-adv-x="333" 
 />
    <glyph glyph-name="uni2005" unicode="&#x2005;" horiz-adv-x="250" 
 />
    <glyph glyph-name="uni2009" unicode="&#x2009;" horiz-adv-x="166" 
 />
    <glyph glyph-name="uni200A" unicode="&#x200a;" horiz-adv-x="100" 
 />
    <glyph glyph-name="uni200B" unicode="&#x200b;" 
 />
    <glyph glyph-name="endash" unicode="&#x2013;" horiz-adv-x="524" 
d="M494 338v-41h-464v41h464z" />
    <glyph glyph-name="emdash" unicode="&#x2014;" horiz-adv-x="724" 
d="M694 338v-41h-664v41h664z" />
    <glyph glyph-name="emdash.salt_em" unicode="&#x2015;" horiz-adv-x="1000" 
d="M1000 338v-41h-1000v41h1000z" />
    <glyph glyph-name="quoteleft" unicode="&#x2018;" horiz-adv-x="221" 
d="M163 746l-46 -256h-60l76 256h30z" />
    <glyph glyph-name="quoteright" unicode="&#x2019;" horiz-adv-x="216" 
d="M62 490l46 256h60l-76 -256h-30z" />
    <glyph glyph-name="quotesinglbase" unicode="&#x201a;" horiz-adv-x="216" 
d="M37 -256l46 256h60l-76 -256h-30z" />
    <glyph glyph-name="quotedblleft" unicode="&#x201c;" horiz-adv-x="336" 
d="M163 746l-46 -256h-60l76 256h30zM278 746l-46 -256h-60l76 256h30z" />
    <glyph glyph-name="quotedblright" unicode="&#x201d;" horiz-adv-x="331" 
d="M62 490l46 256h60l-76 -256h-30zM177 490l46 256h60l-76 -256h-30z" />
    <glyph glyph-name="quotedblbase" unicode="&#x201e;" horiz-adv-x="331" 
d="M37 -256l46 256h60l-76 -256h-30zM152 -256l46 256h60l-76 -256h-30z" />
    <glyph glyph-name="dagger" unicode="&#x2020;" horiz-adv-x="501" 
d="M449 521h-175v-631l-47 30v601h-175v42h175v183h47v-183h175v-42z" />
    <glyph glyph-name="daggerdbl" unicode="&#x2021;" horiz-adv-x="511" 
d="M454 270h-175v-380l-47 30v350h-175v42h175v209h-175v42h175v183h47v-183h175v-42h-175v-209h175v-42z" />
    <glyph glyph-name="bullet" unicode="&#x2022;" horiz-adv-x="220" 
d="M70 370h80v-104h-80v104z" />
    <glyph glyph-name="ellipsis" unicode="&#x2026;" horiz-adv-x="611" 
d="M68 98h69v-98h-69v98zM271 98h69v-98h-69v98zM474 98h69v-98h-69v98z" />
    <glyph glyph-name="perthousand" unicode="&#x2030;" horiz-adv-x="927" 
d="M552 746l-434 -746h-44l434 746h44zM143 746q52 0 87 -47.5t35 -140.5v-26q0 -93 -35 -140.5t-87 -47.5q-51 0 -86 47.5t-35 140.5v26q0 93 35 140.5t86 47.5zM224 532v26q0 77 -22.5 114t-58.5 37q-34 0 -57 -37t-23 -114v-26q0 -77 23 -114t57 -37q36 0 58.5 37
t22.5 114zM482 402q52 0 87 -47.5t35 -140.5v-26q0 -93 -35 -140.5t-87 -47.5q-51 0 -86 47.5t-35 140.5v26q0 93 35 140.5t86 47.5zM783 402q52 0 87 -47.5t35 -140.5v-26q0 -93 -35 -140.5t-87 -47.5q-51 0 -86 47.5t-35 140.5v26q0 93 35 140.5t86 47.5zM563 188v26
q0 77 -22.5 114t-58.5 37q-34 0 -57 -37t-23 -114v-26q0 -77 23 -114t57 -37q36 0 58.5 37t22.5 114zM864 188v26q0 77 -22.5 114t-58.5 37q-34 0 -57 -37t-23 -114v-26q0 -77 23 -114t57 -37q36 0 58.5 37t22.5 114z" />
    <glyph glyph-name="minute" unicode="&#x2032;" horiz-adv-x="175" 
d="M40 440l55 306h40l-56 -306h-39z" />
    <glyph glyph-name="second" unicode="&#x2033;" horiz-adv-x="310" 
d="M40 440l55 306h40l-56 -306h-39zM175 440l55 306h40l-56 -306h-39z" />
    <glyph glyph-name="guilsinglleft" unicode="&#x2039;" horiz-adv-x="339" 
d="M281 0h-46l-185 285v4l185 285h48l-186 -288z" />
    <glyph glyph-name="guilsinglright" unicode="&#x203a;" horiz-adv-x="339" 
d="M104 0h-48l186 288l-184 286h46l185 -285v-4z" />
    <glyph glyph-name="fraction" unicode="&#x2044;" horiz-adv-x="222" 
d="M306 746h44l-434 -746h-44z" />
    <glyph glyph-name="zero.sups" unicode="&#x2070;" horiz-adv-x="386" 
d="M193 761q66 0 109.5 -58.5t43.5 -174.5v-32q0 -114 -43.5 -173t-109.5 -59q-65 0 -109 59t-44 173v32q0 116 44 174.5t109 58.5zM305 496v32q0 100 -31.5 148t-80.5 48q-48 0 -80 -48t-32 -148v-32q0 -99 32 -147t80 -48q49 0 80.5 48t31.5 147z" />
    <glyph glyph-name="four.sups" unicode="&#x2074;" horiz-adv-x="422" 
d="M288 418v259l-192 -259h192zM377 382h-46v-103h-43v103h-259l-1 4l266 360h37v-328h59z" />
    <glyph glyph-name="five.sups" unicode="&#x2075;" horiz-adv-x="370" 
d="M136 264q-23 0 -51.5 8t-55.5 21v40q25 -14 54.5 -23.5t52.5 -9.5q62 0 103 38.5t41 97.5q0 49 -35.5 82.5t-89.5 33.5q-28 0 -50.5 -5.5t-44.5 -14.5l55 214h225l-12 -36h-183l-33 -127q11 2 24 3.5t26 1.5q70 0 115 -43t45 -109q0 -75 -52.5 -123.5t-133.5 -48.5z" />
    <glyph glyph-name="six.sups" unicode="&#x2076;" horiz-adv-x="384" 
d="M194 264q-31 0 -60 10.5t-51.5 30.5t-35.5 48.5t-13 64.5t16 76t41 82t56 85t62 85h50q-46 -60 -84.5 -112t-63.5 -96q18 13 40.5 20.5t47.5 7.5q64 0 109.5 -44t45.5 -106q0 -63 -47 -107.5t-113 -44.5zM194 531q-49 0 -84 -34t-35 -81t35 -81.5t84 -34.5t83.5 34.5
t34.5 81.5t-34.5 81t-83.5 34z" />
    <glyph glyph-name="seven.sups" unicode="&#x2077;" horiz-adv-x="350" 
d="M130 279h-45l182 431h-242l16 36h286z" />
    <glyph glyph-name="eight.sups" unicode="&#x2078;" horiz-adv-x="387" 
d="M193 264q-68 0 -114.5 44t-46.5 107q0 45 26 80t68 52q-28 15 -45.5 41t-17.5 57q0 48 38 82t92 34q55 0 92.5 -34t37.5 -82q0 -31 -17 -57t-45 -42q42 -16 68 -51.5t26 -79.5q0 -63 -47 -107t-115 -44zM193 561q35 0 61.5 24.5t26.5 58.5t-26 57.5t-62 23.5t-61.5 -23.5
t-25.5 -57.5t25.5 -58.5t61.5 -24.5zM193 300q50 0 84.5 34t34.5 82q0 47 -34.5 79t-84.5 32q-48 0 -83 -32t-35 -79q0 -48 35 -82t83 -34z" />
    <glyph glyph-name="nine.sups" unicode="&#x2079;" horiz-adv-x="384" 
d="M174 279h-50q46 60 84 111.5t63 96.5q-17 -13 -39.5 -20.5t-47.5 -7.5q-63 0 -108.5 43.5t-45.5 106.5q0 62 46.5 107t113.5 45q31 0 60 -10.5t51 -30.5t35.5 -48.5t13.5 -64.5t-16 -76t-41 -82t-56.5 -85t-62.5 -85zM190 494q48 0 83 34t35 81t-35 81t-83 34
q-50 0 -84.5 -34t-34.5 -81t34.5 -81t84.5 -34z" />
    <glyph glyph-name="zero.sinf" unicode="&#x2080;" horiz-adv-x="346" 
d="M173 282q66 0 109.5 -58.5t43.5 -174.5v-32q0 -114 -43.5 -173t-109.5 -59q-65 0 -109 59t-44 173v32q0 116 44 174.5t109 58.5zM285 17v32q0 100 -31.5 148t-80.5 48q-48 0 -80 -48t-32 -148v-32q0 -99 32 -147t80 -48q49 0 80.5 48t31.5 147z" />
    <glyph glyph-name="one.sinf" unicode="&#x2081;" horiz-adv-x="193" 
d="M153 -200h-41v400l-95 -103v56l104 114h32v-467z" />
    <glyph glyph-name="two.sinf" unicode="&#x2082;" horiz-adv-x="328" 
d="M303 -200h-297l-1 3l36 42t65.5 76t66.5 77.5t38 45.5q25 31 38.5 53t13.5 55q0 36 -29 64.5t-74 29.5q-28 0 -55.5 -10.5t-56.5 -36.5v47q25 18 54 27t61 9q61 -1 101.5 -39.5t40.5 -89.5q0 -46 -17 -72t-45 -59q-7 -9 -26 -30.5t-42.5 -48.5t-49 -55.5t-47.5 -51.5h241
z" />
    <glyph glyph-name="three.sinf" unicode="&#x2083;" horiz-adv-x="289" 
d="M106 -215q-18 0 -48.5 5.5t-49.5 17.5v37q16 -13 47 -18t46 -5q59 -1 97 32.5t38 82.5t-36.5 79t-90.5 30h-36l1 35h35q43 0 70.5 27t27.5 61q0 32 -25.5 54t-64.5 22q-19 0 -37 -3t-39 -13l6 41q13 5 33 8.5t40 3.5q53 1 91 -31.5t38 -79.5q-1 -31 -20 -59.5t-47 -43.5
q42 -14 68.5 -48.5t26.5 -82.5q0 -65 -48 -109t-123 -43z" />
    <glyph glyph-name="four.sinf" unicode="&#x2084;" horiz-adv-x="382" 
d="M268 -61v259l-192 -259h192zM357 -97h-46v-103h-43v103h-259l-1 4l266 360h37v-328h59z" />
    <glyph glyph-name="five.sinf" unicode="&#x2085;" horiz-adv-x="330" 
d="M116 -215q-23 0 -51.5 8t-55.5 21v40q25 -14 54.5 -23.5t52.5 -9.5q62 0 103 38.5t41 97.5q0 49 -35.5 82.5t-89.5 33.5q-28 0 -50.5 -5.5t-44.5 -14.5l55 214h225l-12 -36h-183l-33 -127q11 2 24 3.5t26 1.5q70 0 115 -43t45 -109q0 -75 -52.5 -123.5t-133.5 -48.5z" />
    <glyph glyph-name="six.sinf" unicode="&#x2086;" horiz-adv-x="344" 
d="M174 -215q-31 0 -60 10.5t-51.5 30.5t-35.5 48.5t-13 64.5t16 76t41 82t56 85t62 85h50q-46 -60 -84.5 -112t-63.5 -96q18 13 40.5 20.5t47.5 7.5q64 0 109.5 -44t45.5 -106q0 -63 -47 -107.5t-113 -44.5zM174 52q-49 0 -84 -34t-35 -81t35 -81.5t84 -34.5t83.5 34.5
t34.5 81.5t-34.5 81t-83.5 34z" />
    <glyph glyph-name="seven.sinf" unicode="&#x2087;" horiz-adv-x="310" 
d="M110 -200h-45l182 431h-242l16 36h286z" />
    <glyph glyph-name="eight.sinf" unicode="&#x2088;" horiz-adv-x="347" 
d="M173 -215q-68 0 -114.5 44t-46.5 107q0 45 26 80t68 52q-28 15 -45.5 41t-17.5 57q0 48 38 82t92 34q55 0 92.5 -34t37.5 -82q0 -31 -17 -57t-45 -42q42 -16 68 -51.5t26 -79.5q0 -63 -47 -107t-115 -44zM173 82q35 0 61.5 24.5t26.5 58.5t-26 57.5t-62 23.5t-61.5 -23.5
t-25.5 -57.5t25.5 -58.5t61.5 -24.5zM173 -179q50 0 84.5 34t34.5 82q0 47 -34.5 79t-84.5 32q-48 0 -83 -32t-35 -79q0 -48 35 -82t83 -34z" />
    <glyph glyph-name="nine.sinf" unicode="&#x2089;" horiz-adv-x="344" 
d="M154 -200h-50q46 60 84 111.5t63 96.5q-17 -13 -39.5 -20.5t-47.5 -7.5q-63 0 -108.5 43.5t-45.5 106.5q0 62 46.5 107t113.5 45q31 0 60 -10.5t51 -30.5t35.5 -48.5t13.5 -64.5t-16 -76t-41 -82t-56.5 -85t-62.5 -85zM170 15q48 0 83 34t35 81t-35 81t-83 34
q-50 0 -84.5 -34t-34.5 -81t34.5 -81t84.5 -34z" />
    <glyph glyph-name="Euro" unicode="&#x20ac;" horiz-adv-x="651" 
d="M618 16q-36 -18 -73 -29t-78 -11q-63 0 -118 22t-98.5 60.5t-74 92t-45.5 116.5h-124l10 39h107q-2 16 -3.5 33.5t-1.5 34.5q0 13 1 26.5t2 26.5h-115l10 39h111q13 65 43 121t74 96.5t100.5 63.5t121.5 23q41 0 77.5 -10.5t73.5 -29.5v-52q-35 20 -72 33.5t-79 13.5
q-54 0 -101 -20.5t-84 -55t-63.5 -82t-39.5 -101.5h357l-10 -39h-354l-2 -26t-1 -26q0 -17 1.5 -35t4.5 -34h331l-10 -39h-313q14 -52 40.5 -97t63 -78t82.5 -52t98 -19q42 0 79.5 13.5t71.5 33.5v-52z" />
    <glyph glyph-name="copyrightsound" unicode="&#x2117;" horiz-adv-x="879" 
d="M440 756q83 0 154.5 -30t123.5 -82t81.5 -122t29.5 -149t-29.5 -149t-81.5 -122t-123.5 -82t-154.5 -30t-155 30t-124 82t-81.5 122t-29.5 149t29.5 149t81.5 122t124 82t155 30zM440 720q-72 0 -135.5 -27.5t-110.5 -74t-74.5 -110t-27.5 -135.5q0 -71 27.5 -134.5
t74.5 -110.5t110.5 -74.5t135.5 -27.5q71 0 134.5 27.5t110.5 74.5t74.5 110.5t27.5 134.5q0 72 -27.5 135.5t-74.5 110t-110.5 74t-134.5 27.5zM448 342h-46v-183h-42v433h93q72 0 106 -33t34 -87q0 -60 -41 -95t-104 -35zM454 554h-52v-174h52q43 0 70 25.5t27 64.5
q0 34 -20 59t-77 25z" />
    <glyph glyph-name="trademark" unicode="&#x2122;" horiz-adv-x="602" 
d="M95 442v270h-65v34h167v-34h-64v-270h-38zM403 488l-106 184v-230h-38v304h39l109 -191l106 191h39v-304h-39v229l-102 -183h-8z" />
    <glyph glyph-name="arrowleft" unicode="&#x2190;" horiz-adv-x="750" 
d="M388 93v-1h-71l-309 310v2l309 310h71v-1l-285 -285h643v-50h-643z" />
    <glyph glyph-name="arrowup" unicode="&#x2191;" horiz-adv-x="750" 
d="M685 358l-285 285v-643h-50v643l-285 -285h-1v71l310 309h2l310 -309v-71h-1z" />
    <glyph glyph-name="arrowright" unicode="&#x2192;" horiz-adv-x="750" 
d="M433 87h-71v1l285 285h-643v50h643l-285 285v1h71l309 -310v-2z" />
    <glyph glyph-name="arrowdown" unicode="&#x2193;" horiz-adv-x="750" 
d="M376 8h-2l-310 309v71h1l285 -285v643h50v-643l285 285h1v-71z" />
    <glyph glyph-name="uni2196" unicode="&#x2196;" horiz-adv-x="750" 
d="M650 123l-36 -36l-454 455v-403l-1 -1l-50 51l1 437l1 2h438l50 -50h-404z" />
    <glyph glyph-name="uni2197" unicode="&#x2197;" horiz-adv-x="750" 
d="M591 142v404l-455 -455l-36 36l455 454h-403l-1 1l51 50l437 -1l2 -1v-438z" />
    <glyph glyph-name="uni2198" unicode="&#x2198;" horiz-adv-x="750" 
d="M639 101h-438l-50 50h404l-455 455l36 36l454 -455v403l1 1l50 -51l-1 -437z" />
    <glyph glyph-name="uni2199" unicode="&#x2199;" horiz-adv-x="750" 
d="M548 97l-437 1l-2 1v438l50 50v-404l455 455l36 -36l-455 -454h403l1 -1z" />
    <glyph glyph-name="minus" unicode="&#x2212;" horiz-adv-x="584" 
d="M544 371v-43h-504v43h504z" />
    <glyph glyph-name="radical" unicode="&#x221a;" horiz-adv-x="651" 
d="M346 0h-50l-148 412h-93v43h124l143 -399l275 690h47z" />
    <glyph glyph-name="infinity" unicode="&#x221e;" horiz-adv-x="664" 
d="M494 183q-60 0 -96 38.5t-64 84.5q-14 -23 -29.5 -45t-35 -39.5t-44 -28t-55.5 -10.5q-34 0 -63 13t-50 34.5t-33 50.5t-12 60t12 60t32.5 50.5t50 34.5t63.5 13q61 0 96 -34.5t66 -85.5q32 62 71.5 91t90.5 29q34 0 63.5 -13t50 -34.5t32.5 -50.5t12 -60t-12 -60
t-33 -50.5t-50 -34.5t-63 -13zM170 219q30 0 52 12t38.5 30.5t28.5 40t22 40.5q-33 54 -60 87.5t-81 33.5q-51 0 -83.5 -37t-32.5 -85t32.5 -85t83.5 -37zM494 219q51 0 83.5 37t32.5 85t-32.5 85t-83.5 37q-53 0 -82 -32t-59 -88l1 -2q13 -23 26.5 -45t29.5 -39t36 -27.5
t48 -10.5z" />
    <glyph glyph-name="approxequal" unicode="&#x2248;" horiz-adv-x="524" 
d="M84 391l-44 4q0 28 9.5 46.5t24 29.5t32.5 16t34 5q29 0 62.5 -13t66 -28.5t62 -28.5t52.5 -13q21 0 39 10.5t18 49.5l44 -4q0 -28 -9.5 -47t-24 -30t-32.5 -15.5t-35 -4.5q-29 0 -62.5 13t-66 28.5t-62 28.5t-52.5 13q-20 0 -38 -11t-18 -49zM84 215l-44 4
q0 28 9.5 46.5t24 29.5t32.5 16t34 5q29 0 62.5 -13t66 -28.5t62 -28.5t52.5 -13q21 0 39 10.5t18 49.5l44 -4q0 -28 -9.5 -47t-24 -30t-32.5 -15.5t-35 -4.5q-29 0 -62.5 13t-66 28.5t-62 28.5t-52.5 13q-20 0 -38 -11t-18 -49z" />
    <glyph glyph-name="notequal" unicode="&#x2260;" horiz-adv-x="524" 
d="M484 218h-243l-77 -169h-49l77 169h-152v43h172l72 157h-244v43h264l77 169h49l-77 -169h131v-43h-151l-72 -157h223v-43z" />
    <glyph glyph-name="lessequal" unicode="&#x2264;" horiz-adv-x="560" 
d="M527 140l-494 211v29l494 214v-50l-417 -178l417 -174v-52zM33 83h494v-43h-494v43z" />
    <glyph glyph-name="greaterequal" unicode="&#x2265;" horiz-adv-x="560" 
d="M33 140v52l417 174l-417 178v50l494 -214v-29zM527 83v-43h-494v43h494z" />
    <glyph glyph-name="lozenge" unicode="&#x25ca;" horiz-adv-x="565" 
d="M525 373l-214 -373h-57l-214 373l213 373h59zM284 39l189 332l-191 337l-190 -334z" />
    <glyph glyph-name="commaaccent" unicode="&#xf6c3;" horiz-adv-x="500" 
d="M280 -30l-41 -147h-32l12 147h61z" />
    <glyph glyph-name="apple" unicode="&#xf8ff;" horiz-adv-x="596" 
d="M10 -101v761h576v-761h-576zM107 560v-560h170q47 0 91 20t77.5 57t53.5 89t20 115q0 62 -20.5 114t-54 88.5t-77 56.5t-90.5 20h-170zM271 17h-156v525h156q43 0 83.5 -17t72 -49.5t50.5 -81.5t19 -113q0 -65 -19 -114.5t-50.5 -82.5t-72 -50t-83.5 -17zM271 535h-149
v-510h149q41 0 80.5 16.5t69.5 49t48.5 80.5t18.5 110t-18.5 109.5t-48.5 79.5t-69.5 48.5t-80.5 16.5zM145 32v495h126q40 0 78 -16t67.5 -47t47 -77.5t17.5 -105.5q0 -60 -17.5 -106.5t-47 -78t-67.5 -48t-78 -16.5h-126z" />
    <glyph glyph-name="uniFEFF" unicode="&#xfeff;" 
 />
    <glyph glyph-name="Jacute" horiz-adv-x="262" 
d="M0 0v45q13 -4 27 -7.5t32 -3.5t36 4t31.5 19.5t22 47.5t8.5 88v553h50v-548q0 -62 -8.5 -102.5t-26 -64t-45.5 -33t-68 -9.5q-18 0 -32 3.5t-27 7.5zM313 954l-121 -147h-37l92 147h66z" />
    <glyph glyph-name="jacute" horiz-adv-x="151" 
d="M-66 -173h5q55 1 84 44t29 123v580h47v-580q0 -104 -41 -158.5t-107 -55.5h-17v47zM205 798l-121 -147h-37l92 147h66z" />
    <glyph glyph-name="I_Jacute" horiz-adv-x="428" 
d="M58 0v746h50v-746h-50zM212 954l-121 -147h-37l92 147h66zM166 0v45q13 -4 27 -7.5t32 -3.5t36 4t31.5 19.5t22 47.5t8.5 88v553h50v-548q0 -62 -8.5 -102.5t-26 -64t-45.5 -33t-68 -9.5q-18 0 -32 3.5t-27 7.5zM479 954l-121 -147h-37l92 147h66z" />
    <glyph glyph-name="c_h" horiz-adv-x="1041" 
d="M480 58v-48q-39 -16 -75.5 -21.5t-62.5 -5.5q-65 0 -122.5 24.5t-99.5 66t-66.5 97t-24.5 116.5t24.5 116.5t66.5 97t99.5 66t122.5 24.5q25 0 61 -7t77 -26v-49h-2q-42 24 -79.5 31.5t-56.5 7.5q-54 0 -102 -21t-83.5 -56.5t-56.5 -83t-21 -100.5t21 -100.5t56.5 -83
t83.5 -56.5t102 -21q21 0 52.5 5t83.5 27h2zM595 369v-369h-47v780h47v-285q27 39 77.5 66t110.5 27q99 0 153.5 -58t54.5 -158v-372h-47v359q0 53 -14.5 89t-39 57.5t-55.5 30.5t-64 9q-27 0 -58 -10.5t-57 -32.5t-43.5 -55t-17.5 -78z" />
    <glyph glyph-name="c_k" horiz-adv-x="990" 
d="M480 58v-48q-39 -16 -75.5 -21.5t-62.5 -5.5q-65 0 -122.5 24.5t-99.5 66t-66.5 97t-24.5 116.5t24.5 116.5t66.5 97t99.5 66t122.5 24.5q25 0 61 -7t77 -26v-49h-2q-42 24 -79.5 31.5t-56.5 7.5q-54 0 -102 -21t-83.5 -56.5t-56.5 -83t-21 -100.5t21 -100.5t56.5 -83
t83.5 -56.5t102 -21q21 0 52.5 5t83.5 27h2zM929 0l-269 313l-65 -54v-259h-47v780h47v-464l308 258h67l-275 -231l296 -343h-62z" />
    <glyph glyph-name="i_jacute" horiz-adv-x="308" 
d="M102 574v-574h-47v574h47zM208 798l-121 -147h-37l92 147h66zM91 -173h5q55 1 84 44t29 123v580h47v-580q0 -104 -41 -158.5t-107 -55.5h-17v47zM362 798l-121 -147h-37l92 147h66z" />
    <glyph glyph-name="caron.vertical" orientation="v" 
d="M23 -30l-34 -147h-32l15 147h51z" />
    <glyph glyph-name="endash.salt_en" horiz-adv-x="500" 
d="M500 338v-41h-500v41h500z" />
    <glyph glyph-name="emdash.uc_salt_em" horiz-adv-x="1000" 
d="M1000 394v-41h-1000v41h1000z" />
    <glyph glyph-name="endash.uc_salt_en" horiz-adv-x="500" 
d="M500 394v-41h-500v41h500z" />
    <glyph glyph-name="registered.salt_big" horiz-adv-x="879" 
d="M440 756q83 0 154.5 -30t123.5 -82t81.5 -122t29.5 -149t-29.5 -149t-81.5 -122t-123.5 -82t-154.5 -30t-155 30t-124 82t-81.5 122t-29.5 149t29.5 149t81.5 122t124 82t155 30zM440 720q-72 0 -135.5 -27.5t-110.5 -74t-74.5 -110t-27.5 -135.5q0 -71 27.5 -134.5
t74.5 -110.5t110.5 -74.5t135.5 -27.5q71 0 134.5 27.5t110.5 74.5t74.5 110.5t27.5 134.5q0 72 -27.5 135.5t-74.5 110t-110.5 74t-134.5 27.5zM429 555h-52v-171h50q45 0 73.5 26t28.5 64q-1 28 -23.5 54.5t-76.5 26.5zM559 159l-182 186v-186h-42v433h94q74 0 108 -34.5
t34 -83.5q0 -54 -40 -90t-100 -38l177 -182l-4 -5h-45z" />
    <glyph glyph-name="acute.lc" 
d="M89 790l-121 -147h-37l92 147h66z" />
    <glyph glyph-name="grave.lc" 
d="M-90 790h66l92 -147h-37z" />
    <glyph glyph-name="hungarumlaut.lc" 
d="M150 790h66l-131 -147h-37zM10 790h66l-131 -147h-37z" />
    <glyph glyph-name="circumflex.lc" 
d="M90 643l-90 110l-90 -110h-37l94 147h66l94 -147h-37z" />
    <glyph glyph-name="caron.lc" 
d="M33 643h-66l-94 147h37l90 -110l90 110h37z" />
    <glyph glyph-name="breve.lc" 
d="M136 779q-19 -62 -52.5 -99t-83.5 -37t-83.5 37t-52.5 99l40 3q18 -49 44.5 -73t51.5 -24t51.5 24t44.5 73z" />
    <glyph glyph-name="tilde.lc" 
d="M-140 643h-40q-4 36 2.5 60.5t19 39.5t29.5 21t33 6q22 0 48.5 -14t52 -30.5t49.5 -30.5t41 -14q18 0 32.5 17t11.5 72h40q4 -36 -2.5 -60.5t-19 -39.5t-29.5 -21t-33 -6q-22 0 -48.5 14t-52 30.5t-49.5 30.5t-41 14q-18 0 -32.5 -17t-11.5 -72z" />
    <glyph glyph-name="macron.lc" 
d="M123 706v-43h-246v43h246z" />
    <glyph glyph-name="dieresis.lc" 
d="M130 741v-66h-64v66h64zM-66 741v-66h-64v66h64z" />
    <glyph glyph-name="dotaccent.lc" 
d="M26 755v-104h-51v104h51z" />
    <glyph glyph-name="ring.lc" 
d="M0 849q42 0 71.5 -30t29.5 -70t-29.5 -70t-71.5 -30t-71.5 30t-29.5 70t29.5 70t71.5 30zM0 817q-28 0 -47.5 -20t-19.5 -48t19.5 -48t47.5 -20t47.5 20t19.5 48t-19.5 48t-47.5 20z" />
    <glyph glyph-name="cedilla.lc" 
d="M-27 -184q-8 0 -26.5 3t-34.5 9v38h1q17 -7 34.5 -10t25.5 -3q26 0 41 12t15 28q0 14 -16.5 23t-48.5 9h-19l-3 4l32 81h45l-24 -52q37 -4 57 -21.5t20 -45.5q0 -31 -26.5 -53t-72.5 -22z" />
    <glyph glyph-name="ogonek.lc" 
d="M-31 -28q-19 -20 -34 -34t-15 -34q0 -9 9 -19t24 -10q12 0 21.5 4.5t17.5 11.5l25 -31q-9 -9 -29 -18.5t-42 -9.5q-37 0 -55 21t-18 42q0 27 16 45.5t35 38.5l37 40l39 -13z" />
    <glyph glyph-name="commaaccent.lc" 
d="M30 -30l-41 -147h-32l12 147h61z" />
    <glyph glyph-name="grave.cmb" 
d="M-90 790h66l92 -147h-37z" />
    <glyph glyph-name="hungarumlaut.cmb" 
d="M150 790h66l-131 -147h-37zM10 790h66l-131 -147h-37z" />
    <glyph glyph-name="circumflex.cmb" 
d="M90 643l-90 110l-90 -110h-37l94 147h66l94 -147h-37z" />
    <glyph glyph-name="caron.cmb" 
d="M33 643h-66l-94 147h37l90 -110l90 110h37z" />
    <glyph glyph-name="breve.cmb" 
d="M136 779q-19 -62 -52.5 -99t-83.5 -37t-83.5 37t-52.5 99l40 3q18 -49 44.5 -73t51.5 -24t51.5 24t44.5 73z" />
    <glyph glyph-name="tilde.cmb" 
d="M-140 643h-40q-4 36 2.5 60.5t19 39.5t29.5 21t33 6q22 0 48.5 -14t52 -30.5t49.5 -30.5t41 -14q18 0 32.5 17t11.5 72h40q4 -36 -2.5 -60.5t-19 -39.5t-29.5 -21t-33 -6q-22 0 -48.5 14t-52 30.5t-49.5 30.5t-41 14q-18 0 -32.5 -17t-11.5 -72z" />
    <glyph glyph-name="macron.cmb" 
d="M123 706v-43h-246v43h246z" />
    <glyph glyph-name="dieresis.cmb" 
d="M130 741v-66h-64v66h64zM-66 741v-66h-64v66h64z" />
    <glyph glyph-name="dotaccent.cmb" 
d="M26 755v-104h-51v104h51z" />
    <glyph glyph-name="ring.cmb" 
d="M0 849q42 0 71.5 -30t29.5 -70t-29.5 -70t-71.5 -30t-71.5 30t-29.5 70t29.5 70t71.5 30zM0 817q-28 0 -47.5 -20t-19.5 -48t19.5 -48t47.5 -20t47.5 20t19.5 48t-19.5 48t-47.5 20z" />
    <glyph glyph-name="cedilla.cmb" 
d="M-27 -184q-8 0 -26.5 3t-34.5 9v38h1q17 -7 34.5 -10t25.5 -3q26 0 41 12t15 28q0 14 -16.5 23t-48.5 9h-19l-3 4l32 81h45l-24 -52q37 -4 57 -21.5t20 -45.5q0 -31 -26.5 -53t-72.5 -22z" />
    <glyph glyph-name="ogonek.cmb" 
d="M-31 -28q-19 -20 -34 -34t-15 -34q0 -9 9 -19t24 -10q12 0 21.5 4.5t17.5 11.5l25 -31q-9 -9 -29 -18.5t-42 -9.5q-37 0 -55 21t-18 42q0 27 16 45.5t35 38.5l37 40l39 -13z" />
    <glyph glyph-name="commaaccent.cmb" 
d="M30 -30l-41 -147h-32l12 147h61z" />
    <glyph glyph-name="hyphen.uc" horiz-adv-x="404" 
d="M364 400v-53h-324v53h324z" />
    <glyph glyph-name="endash.uc" horiz-adv-x="524" 
d="M494 394v-41h-464v41h464z" />
    <glyph glyph-name="emdash.uc" horiz-adv-x="724" 
d="M694 394v-41h-664v41h664z" />
    <glyph glyph-name="parenleft.uc" horiz-adv-x="399" 
d="M295 831l29 -39q-29 -26 -60 -68.5t-56.5 -97.5t-42 -121.5t-16.5 -141.5v-13q0 -74 16 -141t41.5 -122t56.5 -97t61 -67l-28 -39q-32 26 -67 70t-63.5 102.5t-47 133t-18.5 160.5v13q0 86 18.5 159.5t47 132t63 103t66.5 73.5z" />
    <glyph glyph-name="parenright.uc" horiz-adv-x="399" 
d="M104 831q32 -29 66.5 -73.5t63 -103t47 -132t18.5 -159.5v-13q0 -86 -18.5 -160.5t-47 -133t-63.5 -102.5t-67 -70l-28 39q30 25 61 67t56.5 97t41.5 122t16 141v13q0 75 -16.5 141.5t-42 121.5t-56.5 97.5t-60 68.5z" />
    <glyph glyph-name="bracketleft.uc" horiz-adv-x="354" 
d="M125 -122v960h176v-38h-127v-884h135v-38h-184z" />
    <glyph glyph-name="bracketright.uc" horiz-adv-x="354" 
d="M229 -122h-184v38h135v884h-127v38h176v-960z" />
    <glyph glyph-name="braceleft.uc" horiz-adv-x="369" 
d="M301 -122h-60q-49 0 -72.5 28.5t-23.5 109.5v219q0 47 -15.5 66t-40.5 26h-4v60h4q25 7 40.5 26t15.5 65v222q0 81 23.5 109.5t72.5 28.5h60v-38h-42q-33 0 -49 -19t-16 -82v-223q0 -46 -14.5 -74t-47.5 -40v-10q33 -12 47.5 -40.5t14.5 -74.5v-220q0 -63 16 -82t49 -19
h42v-38z" />
    <glyph glyph-name="braceright.uc" horiz-adv-x="369" 
d="M128 -122h-60v38h42q33 0 49 19t16 82v220q0 46 14.5 74.5t47.5 40.5v10q-33 12 -47.5 40t-14.5 74v223q0 63 -16 82t-49 19h-42v38h60q49 0 72.5 -28.5t23.5 -109.5v-222q0 -46 15.5 -65t40.5 -26h4v-60h-4q-25 -7 -40.5 -26t-15.5 -66v-219q0 -81 -23.5 -109.5
t-72.5 -28.5z" />
    <glyph glyph-name="guilsinglleft.uc" horiz-adv-x="339" 
d="M281 46h-46l-185 285v4l185 285h48l-186 -288z" />
    <glyph glyph-name="guilsinglright.uc" horiz-adv-x="339" 
d="M104 46h-48l186 288l-184 286h46l185 -285v-4z" />
    <glyph glyph-name="guillemotleft.uc" horiz-adv-x="499" 
d="M441 46h-46l-185 285v4l185 285h48l-186 -288zM281 46h-46l-185 285v4l185 285h48l-186 -288z" />
    <glyph glyph-name="guillemotright.uc" horiz-adv-x="499" 
d="M264 46h-48l186 288l-184 286h46l185 -285v-4zM104 46h-48l186 288l-184 286h46l185 -285v-4z" />
    <glyph glyph-name="colon.uc" horiz-adv-x="212" 
d="M71 620h70v-110h-70v110zM71 210h70v-110h-70v110z" />
    <glyph glyph-name="semicolon.uc" horiz-adv-x="212" 
d="M71 620h70v-110h-70v110zM76 198h67l-63 -240h-32z" />
    <glyph glyph-name="plus.uc" horiz-adv-x="604" 
d="M564 353h-237v-258h-50v258h-237v43h237v235h50v-235h237v-43z" />
    <glyph glyph-name="minus.uc" horiz-adv-x="584" 
d="M544 396v-43h-504v43h504z" />
    <glyph glyph-name="divide.uc" horiz-adv-x="594" 
d="M268 516v86h60v-86h-60zM554 396v-43h-514v43h514zM268 147v86h60v-86h-60z" />
    <glyph glyph-name="multiply.uc" horiz-adv-x="505" 
d="M445 134l-198 198l-187 -187l-30 31l187 186l-179 179l30 30l179 -179l167 167l30 -30l-167 -167l198 -198z" />
    <glyph glyph-name="equal.uc" horiz-adv-x="524" 
d="M484 486v-43h-444v43h444zM484 286v-43h-444v43h444z" />
    <glyph glyph-name="zero.dnom" horiz-adv-x="346" 
d="M173 482q66 0 109.5 -58.5t43.5 -174.5v-32q0 -114 -43.5 -173t-109.5 -59q-65 0 -109 59t-44 173v32q0 116 44 174.5t109 58.5zM285 217v32q0 100 -31.5 148t-80.5 48q-48 0 -80 -48t-32 -148v-32q0 -99 32 -147t80 -48q49 0 80.5 48t31.5 147z" />
    <glyph glyph-name="one.dnom" horiz-adv-x="193" 
d="M153 0h-41v400l-95 -103v56l104 114h32v-467z" />
    <glyph glyph-name="two.dnom" horiz-adv-x="328" 
d="M303 0h-297l-1 3l36 42t65.5 76t66.5 77.5t38 45.5q25 31 38.5 53t13.5 55q0 36 -29 64.5t-74 29.5q-28 0 -55.5 -10.5t-56.5 -36.5v47q25 18 54 27t61 9q61 -1 101.5 -39.5t40.5 -89.5q0 -46 -17 -72t-45 -59q-7 -9 -26 -30.5t-42.5 -48.5t-49 -55.5t-47.5 -51.5h241z
" />
    <glyph glyph-name="three.dnom" horiz-adv-x="289" 
d="M106 -15q-18 0 -48.5 5.5t-49.5 17.5v37q16 -13 47 -18t46 -5q59 -1 97 32.5t38 82.5t-36.5 79t-90.5 30h-36l1 35h35q43 0 70.5 27t27.5 61q0 32 -25.5 54t-64.5 22q-19 0 -37 -3t-39 -13l6 41q13 5 33 8.5t40 3.5q53 1 91 -31.5t38 -79.5q-1 -31 -20 -59.5t-47 -43.5
q42 -14 68.5 -48.5t26.5 -82.5q0 -65 -48 -109t-123 -43z" />
    <glyph glyph-name="four.dnom" horiz-adv-x="382" 
d="M268 139v259l-192 -259h192zM357 103h-46v-103h-43v103h-259l-1 4l266 360h37v-328h59z" />
    <glyph glyph-name="five.dnom" horiz-adv-x="330" 
d="M116 -15q-23 0 -51.5 8t-55.5 21v40q25 -14 54.5 -23.5t52.5 -9.5q62 0 103 38.5t41 97.5q0 49 -35.5 82.5t-89.5 33.5q-28 0 -50.5 -5.5t-44.5 -14.5l55 214h225l-12 -36h-183l-33 -127q11 2 24 3.5t26 1.5q70 0 115 -43t45 -109q0 -75 -52.5 -123.5t-133.5 -48.5z" />
    <glyph glyph-name="six.dnom" horiz-adv-x="344" 
d="M174 -15q-31 0 -60 10.5t-51.5 30.5t-35.5 48.5t-13 64.5t16 76t41 82t56 85t62 85h50q-46 -60 -84.5 -112t-63.5 -96q18 13 40.5 20.5t47.5 7.5q64 0 109.5 -44t45.5 -106q0 -63 -47 -107.5t-113 -44.5zM174 252q-49 0 -84 -34t-35 -81t35 -81.5t84 -34.5t83.5 34.5
t34.5 81.5t-34.5 81t-83.5 34z" />
    <glyph glyph-name="seven.dnom" horiz-adv-x="310" 
d="M110 0h-45l182 431h-242l16 36h286z" />
    <glyph glyph-name="eight.dnom" horiz-adv-x="347" 
d="M173 -15q-68 0 -114.5 44t-46.5 107q0 45 26 80t68 52q-28 15 -45.5 41t-17.5 57q0 48 38 82t92 34q55 0 92.5 -34t37.5 -82q0 -31 -17 -57t-45 -42q42 -16 68 -51.5t26 -79.5q0 -63 -47 -107t-115 -44zM173 282q35 0 61.5 24.5t26.5 58.5t-26 57.5t-62 23.5t-61.5 -23.5
t-25.5 -57.5t25.5 -58.5t61.5 -24.5zM173 21q50 0 84.5 34t34.5 82q0 47 -34.5 79t-84.5 32q-48 0 -83 -32t-35 -79q0 -48 35 -82t83 -34z" />
    <glyph glyph-name="nine.dnom" horiz-adv-x="344" 
d="M154 0h-50q46 60 84 111.5t63 96.5q-17 -13 -39.5 -20.5t-47.5 -7.5q-63 0 -108.5 43.5t-45.5 106.5q0 62 46.5 107t113.5 45q31 0 60 -10.5t51 -30.5t35.5 -48.5t13.5 -64.5t-16 -76t-41 -82t-56.5 -85t-62.5 -85zM170 215q48 0 83 34t35 81t-35 81t-83 34
q-50 0 -84.5 -34t-34.5 -81t34.5 -81t84.5 -34z" />
    <glyph glyph-name="zero.numr" horiz-adv-x="346" 
d="M173 761q66 0 109.5 -58.5t43.5 -174.5v-32q0 -114 -43.5 -173t-109.5 -59q-65 0 -109 59t-44 173v32q0 116 44 174.5t109 58.5zM285 496v32q0 100 -31.5 148t-80.5 48q-48 0 -80 -48t-32 -148v-32q0 -99 32 -147t80 -48q49 0 80.5 48t31.5 147z" />
    <glyph glyph-name="one.numr" horiz-adv-x="193" 
d="M153 279h-41v400l-95 -103v56l104 114h32v-467z" />
    <glyph glyph-name="two.numr" horiz-adv-x="328" 
d="M303 279h-297l-1 3l36 42t65.5 76t66.5 77.5t38 45.5q25 31 38.5 53t13.5 55q0 36 -29 64.5t-74 29.5q-28 0 -55.5 -10.5t-56.5 -36.5v47q25 18 54 27t61 9q61 -1 101.5 -39.5t40.5 -89.5q0 -46 -17 -72t-45 -59q-7 -9 -26 -30.5t-42.5 -48.5t-49 -55.5t-47.5 -51.5h241z
" />
    <glyph glyph-name="three.numr" horiz-adv-x="289" 
d="M106 264q-18 0 -48.5 5.5t-49.5 17.5v37q16 -13 47 -18t46 -5q59 -1 97 32.5t38 82.5t-36.5 79t-90.5 30h-36l1 35h35q43 0 70.5 27t27.5 61q0 32 -25.5 54t-64.5 22q-19 0 -37 -3t-39 -13l6 41q13 5 33 8.5t40 3.5q53 1 91 -31.5t38 -79.5q-1 -31 -20 -59.5t-47 -43.5
q42 -14 68.5 -48.5t26.5 -82.5q0 -65 -48 -109t-123 -43z" />
    <glyph glyph-name="four.numr" horiz-adv-x="382" 
d="M268 418v259l-192 -259h192zM357 382h-46v-103h-43v103h-259l-1 4l266 360h37v-328h59z" />
    <glyph glyph-name="five.numr" horiz-adv-x="330" 
d="M116 264q-23 0 -51.5 8t-55.5 21v40q25 -14 54.5 -23.5t52.5 -9.5q62 0 103 38.5t41 97.5q0 49 -35.5 82.5t-89.5 33.5q-28 0 -50.5 -5.5t-44.5 -14.5l55 214h225l-12 -36h-183l-33 -127q11 2 24 3.5t26 1.5q70 0 115 -43t45 -109q0 -75 -52.5 -123.5t-133.5 -48.5z" />
    <glyph glyph-name="six.numr" horiz-adv-x="344" 
d="M174 264q-31 0 -60 10.5t-51.5 30.5t-35.5 48.5t-13 64.5t16 76t41 82t56 85t62 85h50q-46 -60 -84.5 -112t-63.5 -96q18 13 40.5 20.5t47.5 7.5q64 0 109.5 -44t45.5 -106q0 -63 -47 -107.5t-113 -44.5zM174 531q-49 0 -84 -34t-35 -81t35 -81.5t84 -34.5t83.5 34.5
t34.5 81.5t-34.5 81t-83.5 34z" />
    <glyph glyph-name="seven.numr" horiz-adv-x="310" 
d="M110 279h-45l182 431h-242l16 36h286z" />
    <glyph glyph-name="eight.numr" horiz-adv-x="347" 
d="M173 264q-68 0 -114.5 44t-46.5 107q0 45 26 80t68 52q-28 15 -45.5 41t-17.5 57q0 48 38 82t92 34q55 0 92.5 -34t37.5 -82q0 -31 -17 -57t-45 -42q42 -16 68 -51.5t26 -79.5q0 -63 -47 -107t-115 -44zM173 561q35 0 61.5 24.5t26.5 58.5t-26 57.5t-62 23.5t-61.5 -23.5
t-25.5 -57.5t25.5 -58.5t61.5 -24.5zM173 300q50 0 84.5 34t34.5 82q0 47 -34.5 79t-84.5 32q-48 0 -83 -32t-35 -79q0 -48 35 -82t83 -34z" />
    <glyph glyph-name="nine.numr" horiz-adv-x="344" 
d="M154 279h-50q46 60 84 111.5t63 96.5q-17 -13 -39.5 -20.5t-47.5 -7.5q-63 0 -108.5 43.5t-45.5 106.5q0 62 46.5 107t113.5 45q31 0 60 -10.5t51 -30.5t35.5 -48.5t13.5 -64.5t-16 -76t-41 -82t-56.5 -85t-62.5 -85zM170 494q48 0 83 34t35 81t-35 81t-83 34
q-50 0 -84.5 -34t-34.5 -81t34.5 -81t84.5 -34z" />
    <glyph glyph-name="zero.salt_slash" horiz-adv-x="552" 
d="M276 770q50 0 93.5 -23.5t74.5 -70t48.5 -116.5t17.5 -162v-52q0 -91 -17.5 -160.5t-48.5 -116t-74.5 -70t-93.5 -23.5t-93 23.5t-74 70t-49 116t-18 160.5v52q0 92 18 162t49 116.5t74 70t93 23.5zM276 727q-28 0 -54 -10t-47 -30l234 -591q25 40 39.5 102.5t14.5 147.5
v52q0 167 -52 248t-135 81zM276 19q29 0 54.5 10t47.5 29l-235 589q-25 -40 -39.5 -102.5t-14.5 -146.5v-52q0 -166 53.5 -246.5t133.5 -80.5z" />
    <glyph glyph-name="C.salt_low" horiz-adv-x="725" 
d="M670 703l-25 -42q-44 28 -95.5 46t-109.5 18q-77 0 -142.5 -29t-113 -77.5t-74.5 -112t-27 -131.5q0 -70 27 -134.5t74.5 -113t113 -77.5t142.5 -29q50 0 99.5 16t106.5 47l24 -41q-58 -36 -113.5 -51.5t-116.5 -15.5q-89 0 -164 31.5t-129 85t-84.5 126.5t-30.5 155
t30.5 154.5t84.5 126t129.5 84.5t163.5 31q61 0 115.5 -15t114.5 -52z" />
    <glyph glyph-name="Ccedilla.salt_low" horiz-adv-x="725" 
d="M670 703l-25 -42q-44 28 -95.5 46t-109.5 18q-77 0 -142.5 -29t-113 -77.5t-74.5 -112t-27 -131.5q0 -70 27 -134.5t74.5 -113t113 -77.5t142.5 -29q50 0 99.5 16t106.5 47l24 -41q-58 -36 -113.5 -51.5t-116.5 -15.5q-89 0 -164 31.5t-129 85t-84.5 126.5t-30.5 155
t30.5 154.5t84.5 126t129.5 84.5t163.5 31q61 0 115.5 -15t114.5 -52zM408 -208q-8 0 -26.5 3t-34.5 9v38h1q17 -7 34.5 -10t25.5 -3q26 0 41 12t15 28q0 14 -16.5 23t-48.5 9h-19l-3 4l32 81h45l-24 -52q37 -4 57 -21.5t20 -45.5q0 -31 -26.5 -53t-72.5 -22z" />
    <glyph glyph-name="Cacute.salt_low" horiz-adv-x="725" 
d="M670 703l-25 -42q-44 28 -95.5 46t-109.5 18q-77 0 -142.5 -29t-113 -77.5t-74.5 -112t-27 -131.5q0 -70 27 -134.5t74.5 -113t113 -77.5t142.5 -29q50 0 99.5 16t106.5 47l24 -41q-58 -36 -113.5 -51.5t-116.5 -15.5q-89 0 -164 31.5t-129 85t-84.5 126.5t-30.5 155
t30.5 154.5t84.5 126t129.5 84.5t163.5 31q61 0 115.5 -15t114.5 -52zM549 954l-121 -147h-37l92 147h66z" />
    <glyph glyph-name="Ccircumflex.salt_low" horiz-adv-x="725" 
d="M670 703l-25 -42q-44 28 -95.5 46t-109.5 18q-77 0 -142.5 -29t-113 -77.5t-74.5 -112t-27 -131.5q0 -70 27 -134.5t74.5 -113t113 -77.5t142.5 -29q50 0 99.5 16t106.5 47l24 -41q-58 -36 -113.5 -51.5t-116.5 -15.5q-89 0 -164 31.5t-129 85t-84.5 126.5t-30.5 155
t30.5 154.5t84.5 126t129.5 84.5t163.5 31q61 0 115.5 -15t114.5 -52zM510 807l-90 110l-90 -110h-37l94 147h66l94 -147h-37z" />
    <glyph glyph-name="Cdotaccent.salt_low" horiz-adv-x="725" 
d="M670 703l-25 -42q-44 28 -95.5 46t-109.5 18q-77 0 -142.5 -29t-113 -77.5t-74.5 -112t-27 -131.5q0 -70 27 -134.5t74.5 -113t113 -77.5t142.5 -29q50 0 99.5 16t106.5 47l24 -41q-58 -36 -113.5 -51.5t-116.5 -15.5q-89 0 -164 31.5t-129 85t-84.5 126.5t-30.5 155
t30.5 154.5t84.5 126t129.5 84.5t163.5 31q61 0 115.5 -15t114.5 -52zM446 911v-104h-51v104h51z" />
    <glyph glyph-name="Ccaron.salt_low" horiz-adv-x="725" 
d="M670 703l-25 -42q-44 28 -95.5 46t-109.5 18q-77 0 -142.5 -29t-113 -77.5t-74.5 -112t-27 -131.5q0 -70 27 -134.5t74.5 -113t113 -77.5t142.5 -29q50 0 99.5 16t106.5 47l24 -41q-58 -36 -113.5 -51.5t-116.5 -15.5q-89 0 -164 31.5t-129 85t-84.5 126.5t-30.5 155
t30.5 154.5t84.5 126t129.5 84.5t163.5 31q61 0 115.5 -15t114.5 -52zM453 807h-66l-94 147h37l90 -110l90 110h37z" />
    <glyph glyph-name="S.salt_low" horiz-adv-x="485" 
d="M407 706l-29 -41q-28 19 -62.5 35t-73.5 16t-65 -11.5t-40.5 -28.5t-20.5 -36t-6 -33q0 -46 31 -86t109 -91q104 -67 150.5 -120.5t46.5 -114.5q0 -51 -18 -90t-47 -65t-68 -39t-81 -13q-51 0 -104.5 18.5t-98.5 48.5l28 43q36 -25 81 -45t94 -20q43 0 73.5 14t50.5 36.5
t29.5 50.5t9.5 56q0 49 -37.5 94t-130.5 104q-90 58 -129.5 107.5t-39.5 106.5q0 30 11 58.5t33.5 51t56.5 36t79 13.5q43 0 87 -15t81 -40z" />
    <glyph glyph-name="Sacute.salt_low" horiz-adv-x="485" 
d="M407 706l-29 -41q-28 19 -62.5 35t-73.5 16t-65 -11.5t-40.5 -28.5t-20.5 -36t-6 -33q0 -46 31 -86t109 -91q104 -67 150.5 -120.5t46.5 -114.5q0 -51 -18 -90t-47 -65t-68 -39t-81 -13q-51 0 -104.5 18.5t-98.5 48.5l28 43q36 -25 81 -45t94 -20q43 0 73.5 14t50.5 36.5
t29.5 50.5t9.5 56q0 49 -37.5 94t-130.5 104q-90 58 -129.5 107.5t-39.5 106.5q0 30 11 58.5t33.5 51t56.5 36t79 13.5q43 0 87 -15t81 -40zM378 954l-121 -147h-37l92 147h66z" />
    <glyph glyph-name="Scircumflex.salt_low" horiz-adv-x="485" 
d="M407 706l-29 -41q-28 19 -62.5 35t-73.5 16t-65 -11.5t-40.5 -28.5t-20.5 -36t-6 -33q0 -46 31 -86t109 -91q104 -67 150.5 -120.5t46.5 -114.5q0 -51 -18 -90t-47 -65t-68 -39t-81 -13q-51 0 -104.5 18.5t-98.5 48.5l28 43q36 -25 81 -45t94 -20q43 0 73.5 14t50.5 36.5
t29.5 50.5t9.5 56q0 49 -37.5 94t-130.5 104q-90 58 -129.5 107.5t-39.5 106.5q0 30 11 58.5t33.5 51t56.5 36t79 13.5q43 0 87 -15t81 -40zM339 807l-90 110l-90 -110h-37l94 147h66l94 -147h-37z" />
    <glyph glyph-name="Scedilla.salt_low" horiz-adv-x="485" 
d="M407 706l-29 -41q-28 19 -62.5 35t-73.5 16t-65 -11.5t-40.5 -28.5t-20.5 -36t-6 -33q0 -46 31 -86t109 -91q104 -67 150.5 -120.5t46.5 -114.5q0 -51 -18 -90t-47 -65t-68 -39t-81 -13q-51 0 -104.5 18.5t-98.5 48.5l28 43q36 -25 81 -45t94 -20q43 0 73.5 14t50.5 36.5
t29.5 50.5t9.5 56q0 49 -37.5 94t-130.5 104q-90 58 -129.5 107.5t-39.5 106.5q0 30 11 58.5t33.5 51t56.5 36t79 13.5q43 0 87 -15t81 -40zM212 -196q-8 0 -26.5 3t-34.5 9v38h1q17 -7 34.5 -10t25.5 -3q26 0 41 12t15 28q0 14 -16.5 23t-48.5 9h-19l-3 4l32 81h45l-24 -52
q37 -4 57 -21.5t20 -45.5q0 -31 -26.5 -53t-72.5 -22z" />
    <glyph glyph-name="Scaron.salt_low" horiz-adv-x="485" 
d="M407 706l-29 -41q-28 19 -62.5 35t-73.5 16t-65 -11.5t-40.5 -28.5t-20.5 -36t-6 -33q0 -46 31 -86t109 -91q104 -67 150.5 -120.5t46.5 -114.5q0 -51 -18 -90t-47 -65t-68 -39t-81 -13q-51 0 -104.5 18.5t-98.5 48.5l28 43q36 -25 81 -45t94 -20q43 0 73.5 14t50.5 36.5
t29.5 50.5t9.5 56q0 49 -37.5 94t-130.5 104q-90 58 -129.5 107.5t-39.5 106.5q0 30 11 58.5t33.5 51t56.5 36t79 13.5q43 0 87 -15t81 -40zM282 807h-66l-94 147h37l90 -110l90 110h37z" />
    <glyph glyph-name="Scommaaccent.salt_low" horiz-adv-x="485" 
d="M407 706l-29 -41q-28 19 -62.5 35t-73.5 16t-65 -11.5t-40.5 -28.5t-20.5 -36t-6 -33q0 -46 31 -86t109 -91q104 -67 150.5 -120.5t46.5 -114.5q0 -51 -18 -90t-47 -65t-68 -39t-81 -13q-51 0 -104.5 18.5t-98.5 48.5l28 43q36 -25 81 -45t94 -20q43 0 73.5 14t50.5 36.5
t29.5 50.5t9.5 56q0 49 -37.5 94t-130.5 104q-90 58 -129.5 107.5t-39.5 106.5q0 30 11 58.5t33.5 51t56.5 36t79 13.5q43 0 87 -15t81 -40zM259 -60l-41 -147h-32l12 147h61z" />
    <glyph glyph-name="a.salt_low" horiz-adv-x="491" 
d="M230 24q69 0 116.5 43t47.5 103t-45.5 103t-118.5 43q-68 0 -109.5 -43t-41.5 -103t41.5 -103t109.5 -43zM392 0v60q-28 -33 -70.5 -56t-93.5 -23q-42 0 -78.5 15t-63 40.5t-42 60t-15.5 73.5t15.5 73.5t42 60t63 40.5t78.5 15q53 0 94.5 -20t69.5 -51v80
q0 104 -41 141.5t-100 37.5q-29 0 -55 -3t-80 -13l-10 41q54 10 82.5 13.5t62.5 3.5q98 0 143 -54.5t45 -147.5v-387h-47z" />
    <glyph glyph-name="agrave.salt_low" horiz-adv-x="491" 
d="M230 24q69 0 116.5 43t47.5 103t-45.5 103t-118.5 43q-68 0 -109.5 -43t-41.5 -103t41.5 -103t109.5 -43zM392 0v60q-28 -33 -70.5 -56t-93.5 -23q-42 0 -78.5 15t-63 40.5t-42 60t-15.5 73.5t15.5 73.5t42 60t63 40.5t78.5 15q53 0 94.5 -20t69.5 -51v80
q0 104 -41 141.5t-100 37.5q-29 0 -55 -3t-80 -13l-10 41q54 10 82.5 13.5t62.5 3.5q98 0 143 -54.5t45 -147.5v-387h-47zM121 798h66l92 -147h-37z" />
    <glyph glyph-name="aacute.salt_low" horiz-adv-x="491" 
d="M230 24q69 0 116.5 43t47.5 103t-45.5 103t-118.5 43q-68 0 -109.5 -43t-41.5 -103t41.5 -103t109.5 -43zM392 0v60q-28 -33 -70.5 -56t-93.5 -23q-42 0 -78.5 15t-63 40.5t-42 60t-15.5 73.5t15.5 73.5t42 60t63 40.5t78.5 15q53 0 94.5 -20t69.5 -51v80
q0 104 -41 141.5t-100 37.5q-29 0 -55 -3t-80 -13l-10 41q54 10 82.5 13.5t62.5 3.5q98 0 143 -54.5t45 -147.5v-387h-47zM380 798l-121 -147h-37l92 147h66z" />
    <glyph glyph-name="acircumflex.salt_low" horiz-adv-x="491" 
d="M230 24q69 0 116.5 43t47.5 103t-45.5 103t-118.5 43q-68 0 -109.5 -43t-41.5 -103t41.5 -103t109.5 -43zM392 0v60q-28 -33 -70.5 -56t-93.5 -23q-42 0 -78.5 15t-63 40.5t-42 60t-15.5 73.5t15.5 73.5t42 60t63 40.5t78.5 15q53 0 94.5 -20t69.5 -51v80
q0 104 -41 141.5t-100 37.5q-29 0 -55 -3t-80 -13l-10 41q54 10 82.5 13.5t62.5 3.5q98 0 143 -54.5t45 -147.5v-387h-47zM341 651l-90 110l-90 -110h-37l94 147h66l94 -147h-37z" />
    <glyph glyph-name="atilde.salt_low" horiz-adv-x="491" 
d="M230 24q69 0 116.5 43t47.5 103t-45.5 103t-118.5 43q-68 0 -109.5 -43t-41.5 -103t41.5 -103t109.5 -43zM392 0v60q-28 -33 -70.5 -56t-93.5 -23q-42 0 -78.5 15t-63 40.5t-42 60t-15.5 73.5t15.5 73.5t42 60t63 40.5t78.5 15q53 0 94.5 -20t69.5 -51v80
q0 104 -41 141.5t-100 37.5q-29 0 -55 -3t-80 -13l-10 41q54 10 82.5 13.5t62.5 3.5q98 0 143 -54.5t45 -147.5v-387h-47zM111 651h-40q-4 36 2.5 60.5t19 39.5t29.5 21t33 6q22 0 48.5 -14t52 -30.5t49.5 -30.5t41 -14q18 0 32.5 17t11.5 72h40q4 -36 -2.5 -60.5t-19 -39.5
t-29.5 -21t-33 -6q-22 0 -48.5 14t-52 30.5t-49.5 30.5t-41 14q-18 0 -32.5 -17t-11.5 -72z" />
    <glyph glyph-name="adieresis.salt_low" horiz-adv-x="491" 
d="M230 24q69 0 116.5 43t47.5 103t-45.5 103t-118.5 43q-68 0 -109.5 -43t-41.5 -103t41.5 -103t109.5 -43zM392 0v60q-28 -33 -70.5 -56t-93.5 -23q-42 0 -78.5 15t-63 40.5t-42 60t-15.5 73.5t15.5 73.5t42 60t63 40.5t78.5 15q53 0 94.5 -20t69.5 -51v80
q0 104 -41 141.5t-100 37.5q-29 0 -55 -3t-80 -13l-10 41q54 10 82.5 13.5t62.5 3.5q98 0 143 -54.5t45 -147.5v-387h-47zM381 717v-66h-64v66h64zM185 717v-66h-64v66h64z" />
    <glyph glyph-name="aring.salt_low" horiz-adv-x="491" 
d="M230 24q69 0 116.5 43t47.5 103t-45.5 103t-118.5 43q-68 0 -109.5 -43t-41.5 -103t41.5 -103t109.5 -43zM392 0v60q-28 -33 -70.5 -56t-93.5 -23q-42 0 -78.5 15t-63 40.5t-42 60t-15.5 73.5t15.5 73.5t42 60t63 40.5t78.5 15q53 0 94.5 -20t69.5 -51v80
q0 104 -41 141.5t-100 37.5q-29 0 -55 -3t-80 -13l-10 41q54 10 82.5 13.5t62.5 3.5q98 0 143 -54.5t45 -147.5v-387h-47zM251 846q42 0 71.5 -30t29.5 -70t-29.5 -70t-71.5 -30t-71.5 30t-29.5 70t29.5 70t71.5 30zM251 814q-28 0 -47.5 -20t-19.5 -48t19.5 -48t47.5 -20
t47.5 20t19.5 48t-19.5 48t-47.5 20z" />
    <glyph glyph-name="amacron.salt_low" horiz-adv-x="491" 
d="M230 24q69 0 116.5 43t47.5 103t-45.5 103t-118.5 43q-68 0 -109.5 -43t-41.5 -103t41.5 -103t109.5 -43zM392 0v60q-28 -33 -70.5 -56t-93.5 -23q-42 0 -78.5 15t-63 40.5t-42 60t-15.5 73.5t15.5 73.5t42 60t63 40.5t78.5 15q53 0 94.5 -20t69.5 -51v80
q0 104 -41 141.5t-100 37.5q-29 0 -55 -3t-80 -13l-10 41q54 10 82.5 13.5t62.5 3.5q98 0 143 -54.5t45 -147.5v-387h-47zM374 694v-43h-246v43h246z" />
    <glyph glyph-name="abreve.salt_low" horiz-adv-x="491" 
d="M230 24q69 0 116.5 43t47.5 103t-45.5 103t-118.5 43q-68 0 -109.5 -43t-41.5 -103t41.5 -103t109.5 -43zM392 0v60q-28 -33 -70.5 -56t-93.5 -23q-42 0 -78.5 15t-63 40.5t-42 60t-15.5 73.5t15.5 73.5t42 60t63 40.5t78.5 15q53 0 94.5 -20t69.5 -51v80
q0 104 -41 141.5t-100 37.5q-29 0 -55 -3t-80 -13l-10 41q54 10 82.5 13.5t62.5 3.5q98 0 143 -54.5t45 -147.5v-387h-47zM387 782q-19 -62 -52.5 -99t-83.5 -37t-83.5 37t-52.5 99l40 3q18 -49 44.5 -73t51.5 -24t51.5 24t44.5 73z" />
    <glyph glyph-name="aogonek.salt_low" horiz-adv-x="491" 
d="M230 24q69 0 116.5 43t47.5 103t-45.5 103t-118.5 43q-68 0 -109.5 -43t-41.5 -103t41.5 -103t109.5 -43zM456 -146q-9 -9 -29 -18.5t-42 -9.5q-37 0 -55 21t-18 42q0 27 16 45.5t35 38.5l29 31v56q-28 -33 -70.5 -56t-93.5 -23q-42 0 -78.5 15t-63 40.5t-42 60
t-15.5 73.5t15.5 73.5t42 60t63 40.5t78.5 15q53 0 94.5 -20t69.5 -51v80q0 104 -41 141.5t-100 37.5q-29 0 -55 -3t-80 -13l-10 41q54 10 82.5 13.5t62.5 3.5q98 0 143 -54.5t45 -147.5v-387l-31 -34q-19 -20 -34 -34t-15 -34q0 -9 9 -19t24 -10q12 0 21.5 4.5t17.5 11.5z
" />
    <glyph glyph-name="aringacute.salt_low" horiz-adv-x="491" 
d="M230 24q69 0 116.5 43t47.5 103t-45.5 103t-118.5 43q-68 0 -109.5 -43t-41.5 -103t41.5 -103t109.5 -43zM392 0v60q-28 -33 -70.5 -56t-93.5 -23q-42 0 -78.5 15t-63 40.5t-42 60t-15.5 73.5t15.5 73.5t42 60t63 40.5t78.5 15q53 0 94.5 -20t69.5 -51v80
q0 104 -41 141.5t-100 37.5q-29 0 -55 -3t-80 -13l-10 41q54 10 82.5 13.5t62.5 3.5q98 0 143 -54.5t45 -147.5v-387h-47zM251 846q42 0 71.5 -30t29.5 -70t-29.5 -70t-71.5 -30t-71.5 30t-29.5 70t29.5 70t71.5 30zM251 814q-28 0 -47.5 -20t-19.5 -48t19.5 -48t47.5 -20
t47.5 20t19.5 48t-19.5 48t-47.5 20zM380 1016l-121 -147h-37l92 147h66z" />
    <glyph glyph-name="c.salt_low" horiz-adv-x="529" 
d="M475 65l22 -39q-43 -24 -84 -33.5t-71 -9.5q-65 0 -122.5 24.5t-99.5 66t-66.5 97t-24.5 116.5t24.5 116.5t66.5 97t99.5 66t122.5 24.5q30 0 71 -9.5t84 -33.5l-22 -39h-2q-40 23 -76 31t-55 8q-54 0 -102 -21t-83.5 -56.5t-56.5 -83t-21 -100.5t21 -100.5t56.5 -83
t83.5 -56.5t102 -21q19 0 55 8t76 31h2z" />
    <glyph glyph-name="ccedilla.salt_low" horiz-adv-x="529" 
d="M475 65l22 -39q-43 -24 -84 -33.5t-71 -9.5q-65 0 -122.5 24.5t-99.5 66t-66.5 97t-24.5 116.5t24.5 116.5t66.5 97t99.5 66t122.5 24.5q30 0 71 -9.5t84 -33.5l-22 -39h-2q-40 23 -76 31t-55 8q-54 0 -102 -21t-83.5 -56.5t-56.5 -83t-21 -100.5t21 -100.5t56.5 -83
t83.5 -56.5t102 -21q19 0 55 8t76 31h2zM305 -201q-8 0 -26.5 3t-34.5 9v38h1q17 -7 34.5 -10t25.5 -3q26 0 41 12t15 28q0 14 -16.5 23t-48.5 9h-19l-3 4l32 81h45l-24 -52q37 -4 57 -21.5t20 -45.5q0 -31 -26.5 -53t-72.5 -22z" />
    <glyph glyph-name="cacute.salt_low" horiz-adv-x="529" 
d="M475 65l22 -39q-43 -24 -84 -33.5t-71 -9.5q-65 0 -122.5 24.5t-99.5 66t-66.5 97t-24.5 116.5t24.5 116.5t66.5 97t99.5 66t122.5 24.5q30 0 71 -9.5t84 -33.5l-22 -39h-2q-40 23 -76 31t-55 8q-54 0 -102 -21t-83.5 -56.5t-56.5 -83t-21 -100.5t21 -100.5t56.5 -83
t83.5 -56.5t102 -21q19 0 55 8t76 31h2zM451 798l-121 -147h-37l92 147h66z" />
    <glyph glyph-name="ccircumflex.salt_low" horiz-adv-x="529" 
d="M475 65l22 -39q-43 -24 -84 -33.5t-71 -9.5q-65 0 -122.5 24.5t-99.5 66t-66.5 97t-24.5 116.5t24.5 116.5t66.5 97t99.5 66t122.5 24.5q30 0 71 -9.5t84 -33.5l-22 -39h-2q-40 23 -76 31t-55 8q-54 0 -102 -21t-83.5 -56.5t-56.5 -83t-21 -100.5t21 -100.5t56.5 -83
t83.5 -56.5t102 -21q19 0 55 8t76 31h2zM412 651l-90 110l-90 -110h-37l94 147h66l94 -147h-37z" />
    <glyph glyph-name="cdotaccent.salt_low" horiz-adv-x="529" 
d="M475 65l22 -39q-43 -24 -84 -33.5t-71 -9.5q-65 0 -122.5 24.5t-99.5 66t-66.5 97t-24.5 116.5t24.5 116.5t66.5 97t99.5 66t122.5 24.5q30 0 71 -9.5t84 -33.5l-22 -39h-2q-40 23 -76 31t-55 8q-54 0 -102 -21t-83.5 -56.5t-56.5 -83t-21 -100.5t21 -100.5t56.5 -83
t83.5 -56.5t102 -21q19 0 55 8t76 31h2zM348 780v-104h-51v104h51z" />
    <glyph glyph-name="ccaron.salt_low" horiz-adv-x="529" 
d="M475 65l22 -39q-43 -24 -84 -33.5t-71 -9.5q-65 0 -122.5 24.5t-99.5 66t-66.5 97t-24.5 116.5t24.5 116.5t66.5 97t99.5 66t122.5 24.5q30 0 71 -9.5t84 -33.5l-22 -39h-2q-40 23 -76 31t-55 8q-54 0 -102 -21t-83.5 -56.5t-56.5 -83t-21 -100.5t21 -100.5t56.5 -83
t83.5 -56.5t102 -21q19 0 55 8t76 31h2zM355 651h-66l-94 147h37l90 -110l90 110h37z" />
    <glyph glyph-name="s.salt_low" horiz-adv-x="406" 
d="M198 588q40 0 76.5 -14t60.5 -30l-24 -38q-25 18 -53 28.5t-60 10.5q-51 0 -83 -23.5t-32 -62.5q0 -31 29 -57t101 -71q100 -61 135.5 -102.5t35.5 -92.5q0 -36 -14.5 -64t-39 -46.5t-58.5 -28.5t-73 -10t-86 16t-88 42l22 41q43 -28 82 -42t70 -14q69 0 102 31t33 73
q0 11 -3.5 25t-17.5 32.5t-42.5 42t-78.5 53.5q-44 27 -74.5 47t-49 39t-27 40t-8.5 49q0 19 9.5 41t29.5 41t51.5 31.5t74.5 12.5z" />
    <glyph glyph-name="sacute.salt_low" horiz-adv-x="406" 
d="M198 588q40 0 76.5 -14t60.5 -30l-24 -38q-25 18 -53 28.5t-60 10.5q-51 0 -83 -23.5t-32 -62.5q0 -31 29 -57t101 -71q100 -61 135.5 -102.5t35.5 -92.5q0 -36 -14.5 -64t-39 -46.5t-58.5 -28.5t-73 -10t-86 16t-88 42l22 41q43 -28 82 -42t70 -14q69 0 102 31t33 73
q0 11 -3.5 25t-17.5 32.5t-42.5 42t-78.5 53.5q-44 27 -74.5 47t-49 39t-27 40t-8.5 49q0 19 9.5 41t29.5 41t51.5 31.5t74.5 12.5zM329 798l-121 -147h-37l92 147h66z" />
    <glyph glyph-name="scircumflex.salt_low" horiz-adv-x="406" 
d="M198 588q40 0 76.5 -14t60.5 -30l-24 -38q-25 18 -53 28.5t-60 10.5q-51 0 -83 -23.5t-32 -62.5q0 -31 29 -57t101 -71q100 -61 135.5 -102.5t35.5 -92.5q0 -36 -14.5 -64t-39 -46.5t-58.5 -28.5t-73 -10t-86 16t-88 42l22 41q43 -28 82 -42t70 -14q69 0 102 31t33 73
q0 11 -3.5 25t-17.5 32.5t-42.5 42t-78.5 53.5q-44 27 -74.5 47t-49 39t-27 40t-8.5 49q0 19 9.5 41t29.5 41t51.5 31.5t74.5 12.5zM290 651l-90 110l-90 -110h-37l94 147h66l94 -147h-37z" />
    <glyph glyph-name="scedilla.salt_low" horiz-adv-x="406" 
d="M198 588q40 0 76.5 -14t60.5 -30l-24 -38q-25 18 -53 28.5t-60 10.5q-51 0 -83 -23.5t-32 -62.5q0 -31 29 -57t101 -71q100 -61 135.5 -102.5t35.5 -92.5q0 -36 -14.5 -64t-39 -46.5t-58.5 -28.5t-73 -10t-86 16t-88 42l22 41q43 -28 82 -42t70 -14q69 0 102 31t33 73
q0 11 -3.5 25t-17.5 32.5t-42.5 42t-78.5 53.5q-44 27 -74.5 47t-49 39t-27 40t-8.5 49q0 19 9.5 41t29.5 41t51.5 31.5t74.5 12.5zM182 -197q-8 0 -26.5 3t-34.5 9v38h1q17 -7 34.5 -10t25.5 -3q26 0 41 12t15 28q0 14 -16.5 23t-48.5 9h-19l-3 4l32 81h45l-24 -52
q37 -4 57 -21.5t20 -45.5q0 -31 -26.5 -53t-72.5 -22z" />
    <glyph glyph-name="scaron.salt_low" horiz-adv-x="406" 
d="M198 588q40 0 76.5 -14t60.5 -30l-24 -38q-25 18 -53 28.5t-60 10.5q-51 0 -83 -23.5t-32 -62.5q0 -31 29 -57t101 -71q100 -61 135.5 -102.5t35.5 -92.5q0 -36 -14.5 -64t-39 -46.5t-58.5 -28.5t-73 -10t-86 16t-88 42l22 41q43 -28 82 -42t70 -14q69 0 102 31t33 73
q0 11 -3.5 25t-17.5 32.5t-42.5 42t-78.5 53.5q-44 27 -74.5 47t-49 39t-27 40t-8.5 49q0 19 9.5 41t29.5 41t51.5 31.5t74.5 12.5zM233 651h-66l-94 147h37l90 -110l90 110h37z" />
    <glyph glyph-name="scommaaccent.salt_low" horiz-adv-x="406" 
d="M198 588q40 0 76.5 -14t60.5 -30l-24 -38q-25 18 -53 28.5t-60 10.5q-51 0 -83 -23.5t-32 -62.5q0 -31 29 -57t101 -71q100 -61 135.5 -102.5t35.5 -92.5q0 -36 -14.5 -64t-39 -46.5t-58.5 -28.5t-73 -10t-86 16t-88 42l22 41q43 -28 82 -42t70 -14q69 0 102 31t33 73
q0 11 -3.5 25t-17.5 32.5t-42.5 42t-78.5 53.5q-44 27 -74.5 47t-49 39t-27 40t-8.5 49q0 19 9.5 41t29.5 41t51.5 31.5t74.5 12.5zM229 -60l-41 -147h-32l12 147h61z" />
    <glyph glyph-name="ae.salt_low" horiz-adv-x="1004" 
d="M682 560q-45 0 -86.5 -16.5t-74 -45t-55.5 -68.5t-32 -86h492q-7 44 -29.5 83.5t-55.5 69t-74 46.5t-85 17zM692 -29q-86 0 -154 41t-108 106q-16 -66 -71.5 -106.5t-130.5 -40.5q-85 0 -142 55t-57 139t57 139t142 55q49 0 87.5 -17t66.5 -44v70q0 104 -38.5 141.5
t-92.5 37.5q-29 0 -55.5 -3t-81.5 -13l-7 41q54 10 82 13.5t62 3.5q76 0 118.5 -37.5t54.5 -103.5q37 67 104 111t154 44q59 0 113 -24t94.5 -64t65 -94t24.5 -114v-5h-550v-6.5v-7.5q0 -58 21.5 -108t57.5 -87t83.5 -58t100.5 -21q69 0 130 30.5t108 77.5l30 -36
q-40 -47 -110.5 -81t-157.5 -34zM230 14q69 0 116.5 43t47.5 108t-46.5 108t-117.5 43q-68 0 -109.5 -43.5t-41.5 -107.5t41.5 -107.5t109.5 -43.5z" />
    <glyph glyph-name="aeacute.salt_low" horiz-adv-x="1004" 
d="M682 560q-45 0 -86.5 -16.5t-74 -45t-55.5 -68.5t-32 -86h492q-7 44 -29.5 83.5t-55.5 69t-74 46.5t-85 17zM692 -29q-86 0 -154 41t-108 106q-16 -66 -71.5 -106.5t-130.5 -40.5q-85 0 -142 55t-57 139t57 139t142 55q49 0 87.5 -17t66.5 -44v70q0 104 -38.5 141.5
t-92.5 37.5q-29 0 -55.5 -3t-81.5 -13l-7 41q54 10 82 13.5t62 3.5q76 0 118.5 -37.5t54.5 -103.5q37 67 104 111t154 44q59 0 113 -24t94.5 -64t65 -94t24.5 -114v-5h-550v-6.5v-7.5q0 -58 21.5 -108t57.5 -87t83.5 -58t100.5 -21q69 0 130 30.5t108 77.5l30 -36
q-40 -47 -110.5 -81t-157.5 -34zM230 14q69 0 116.5 43t47.5 108t-46.5 108t-117.5 43q-68 0 -109.5 -43.5t-41.5 -107.5t41.5 -107.5t109.5 -43.5zM608 798l-121 -147h-37l92 147h66z" />
    <glyph glyph-name="K.salt_tall" horiz-adv-x="565" 
d="M495 0l-345 382l-45 -49v-333h-50v746h50v-342l315 342h63l-301 -329l381 -417h-68z" />
    <glyph glyph-name="Kcommaaccent.salt_tall" horiz-adv-x="565" 
d="M495 0l-345 382l-45 -49v-333h-50v746h50v-342l315 342h63l-301 -329l381 -417h-68zM299 -60l-41 -147h-32l12 147h61z" />
    <glyph glyph-name="P.salt_tall" horiz-adv-x="459" 
d="M192 333h-87v-333h-50v746h146q63 0 107 -16t71 -43.5t39 -63.5t12 -76q0 -93 -64 -153.5t-174 -60.5zM201 703h-96v-327h96q78 0 128 49t50 122q0 30 -8.5 58t-28 50t-54 35t-87.5 13z" />
    <glyph glyph-name="R.salt_tall" horiz-adv-x="526" 
d="M196 703h-91v-313h86q82 0 135 47.5t53 115.5q0 25 -10 51.5t-31 48.5t-56 36t-86 14zM444 0l-339 345v-345h-50v746h141q65 0 110 -17t72.5 -44t39.5 -62t12 -70q0 -44 -17.5 -82t-49.5 -65.5t-78 -43t-103 -15.5h-12l340 -347h-66z" />
    <glyph glyph-name="Racute.salt_tall" horiz-adv-x="526" 
d="M196 703h-91v-313h86q82 0 135 47.5t53 115.5q0 25 -10 51.5t-31 48.5t-56 36t-86 14zM444 0l-339 345v-345h-50v746h141q65 0 110 -17t72.5 -44t39.5 -62t12 -70q0 -44 -17.5 -82t-49.5 -65.5t-78 -43t-103 -15.5h-12l340 -347h-66zM350 954l-121 -147h-37l92 147h66z
" />
    <glyph glyph-name="Rcommaaccent.salt_tall" horiz-adv-x="526" 
d="M196 703h-91v-313h86q82 0 135 47.5t53 115.5q0 25 -10 51.5t-31 48.5t-56 36t-86 14zM444 0l-339 345v-345h-50v746h141q65 0 110 -17t72.5 -44t39.5 -62t12 -70q0 -44 -17.5 -82t-49.5 -65.5t-78 -43t-103 -15.5h-12l340 -347h-66zM265 -60l-41 -147h-32l12 147h61z
" />
    <glyph glyph-name="Rcaron.salt_tall" horiz-adv-x="526" 
d="M196 703h-91v-313h86q82 0 135 47.5t53 115.5q0 25 -10 51.5t-31 48.5t-56 36t-86 14zM444 0l-339 345v-345h-50v746h141q65 0 110 -17t72.5 -44t39.5 -62t12 -70q0 -44 -17.5 -82t-49.5 -65.5t-78 -43t-103 -15.5h-12l340 -347h-66zM254 807h-66l-94 147h37l90 -110
l90 110h37z" />
    <glyph glyph-name="S.salt_tall" horiz-adv-x="485" 
d="M391 724l-3 -57q-29 19 -66.5 34t-79.5 15q-39 0 -65 -11.5t-40.5 -28.5t-20.5 -36t-6 -33q0 -46 31 -86t109 -91q104 -67 150.5 -120t46.5 -113q0 -52 -18.5 -91.5t-49.5 -65.5t-72.5 -39t-87.5 -13q-42 0 -91.5 14.5t-87.5 38.5l3 59q49 -35 95 -51t85 -16q45 0 78 14
t54 36.5t31 50.5t10 56q0 49 -37.5 94t-130.5 104q-90 58 -129.5 107.5t-39.5 106.5q0 30 11 58.5t33.5 51t56.5 36t79 13.5q34 0 76 -9t76 -28z" />
    <glyph glyph-name="Sacute.salt_tall" horiz-adv-x="485" 
d="M391 724l-3 -57q-29 19 -66.5 34t-79.5 15q-39 0 -65 -11.5t-40.5 -28.5t-20.5 -36t-6 -33q0 -46 31 -86t109 -91q104 -67 150.5 -120t46.5 -113q0 -52 -18.5 -91.5t-49.5 -65.5t-72.5 -39t-87.5 -13q-42 0 -91.5 14.5t-87.5 38.5l3 59q49 -35 95 -51t85 -16q45 0 78 14
t54 36.5t31 50.5t10 56q0 49 -37.5 94t-130.5 104q-90 58 -129.5 107.5t-39.5 106.5q0 30 11 58.5t33.5 51t56.5 36t79 13.5q34 0 76 -9t76 -28zM378 954l-121 -147h-37l92 147h66z" />
    <glyph glyph-name="Scircumflex.salt_tall" horiz-adv-x="485" 
d="M391 724l-3 -57q-29 19 -66.5 34t-79.5 15q-39 0 -65 -11.5t-40.5 -28.5t-20.5 -36t-6 -33q0 -46 31 -86t109 -91q104 -67 150.5 -120t46.5 -113q0 -52 -18.5 -91.5t-49.5 -65.5t-72.5 -39t-87.5 -13q-42 0 -91.5 14.5t-87.5 38.5l3 59q49 -35 95 -51t85 -16q45 0 78 14
t54 36.5t31 50.5t10 56q0 49 -37.5 94t-130.5 104q-90 58 -129.5 107.5t-39.5 106.5q0 30 11 58.5t33.5 51t56.5 36t79 13.5q34 0 76 -9t76 -28zM339 807l-90 110l-90 -110h-37l94 147h66l94 -147h-37z" />
    <glyph glyph-name="Scedilla.salt_tall" horiz-adv-x="485" 
d="M391 724l-3 -57q-29 19 -66.5 34t-79.5 15q-39 0 -65 -11.5t-40.5 -28.5t-20.5 -36t-6 -33q0 -46 31 -86t109 -91q104 -67 150.5 -120t46.5 -113q0 -52 -18.5 -91.5t-49.5 -65.5t-72.5 -39t-87.5 -13q-42 0 -91.5 14.5t-87.5 38.5l3 59q49 -35 95 -51t85 -16q45 0 78 14
t54 36.5t31 50.5t10 56q0 49 -37.5 94t-130.5 104q-90 58 -129.5 107.5t-39.5 106.5q0 30 11 58.5t33.5 51t56.5 36t79 13.5q34 0 76 -9t76 -28zM212 -196q-8 0 -26.5 3t-34.5 9v38h1q17 -7 34.5 -10t25.5 -3q26 0 41 12t15 28q0 14 -16.5 23t-48.5 9h-19l-3 4l32 81h45
l-24 -52q37 -4 57 -21.5t20 -45.5q0 -31 -26.5 -53t-72.5 -22z" />
    <glyph glyph-name="Scaron.salt_tall" horiz-adv-x="485" 
d="M391 724l-3 -57q-29 19 -66.5 34t-79.5 15q-39 0 -65 -11.5t-40.5 -28.5t-20.5 -36t-6 -33q0 -46 31 -86t109 -91q104 -67 150.5 -120t46.5 -113q0 -52 -18.5 -91.5t-49.5 -65.5t-72.5 -39t-87.5 -13q-42 0 -91.5 14.5t-87.5 38.5l3 59q49 -35 95 -51t85 -16q45 0 78 14
t54 36.5t31 50.5t10 56q0 49 -37.5 94t-130.5 104q-90 58 -129.5 107.5t-39.5 106.5q0 30 11 58.5t33.5 51t56.5 36t79 13.5q34 0 76 -9t76 -28zM282 807h-66l-94 147h37l90 -110l90 110h37z" />
    <glyph glyph-name="Scommaaccent.salt_tall" horiz-adv-x="485" 
d="M391 724l-3 -57q-29 19 -66.5 34t-79.5 15q-39 0 -65 -11.5t-40.5 -28.5t-20.5 -36t-6 -33q0 -46 31 -86t109 -91q104 -67 150.5 -120t46.5 -113q0 -52 -18.5 -91.5t-49.5 -65.5t-72.5 -39t-87.5 -13q-42 0 -91.5 14.5t-87.5 38.5l3 59q49 -35 95 -51t85 -16q45 0 78 14
t54 36.5t31 50.5t10 56q0 49 -37.5 94t-130.5 104q-90 58 -129.5 107.5t-39.5 106.5q0 30 11 58.5t33.5 51t56.5 36t79 13.5q34 0 76 -9t76 -28zM259 -60l-41 -147h-32l12 147h61z" />
    <glyph glyph-name="T.salt_tall" horiz-adv-x="338" 
d="M144 0v703h-133v43h316v-43h-133v-703h-50z" />
    <glyph glyph-name="Tcaron.salt_tall" horiz-adv-x="338" 
d="M144 0v703h-133v43h316v-43h-133v-703h-50zM202 807h-66l-94 147h37l90 -110l90 110h37z" />
    <glyph glyph-name="Tcommaaccent.salt_tall" horiz-adv-x="338" 
d="M144 0v703h-133v43h316v-43h-133v-703h-50zM199 -60l-41 -147h-32l12 147h61z" />
    <glyph glyph-name="Tbar.salt_tall" horiz-adv-x="338" 
d="M275 351h-81v-351h-50v351h-85v43h85v309h-133v43h316v-43h-133v-309h81v-43z" />
    <glyph glyph-name="a.salt_ss" horiz-adv-x="699" 
d="M601 287q0 53 -19.5 103t-54 87.5t-83 60t-104.5 22.5t-104.5 -22.5t-83 -60t-54 -87.5t-19.5 -103t19.5 -103t54 -87.5t83 -60t104.5 -22.5t104.5 22.5t83 60t54 87.5t19.5 103zM600 0v126q-40 -69 -108.5 -112t-151.5 -43q-67 0 -124 26t-98.5 69.5t-65 101
t-23.5 119.5t23.5 119.5t65 101t98.5 69.5t124 26q82 0 151 -43.5t109 -110.5v125h47v-574h-47z" />
    <glyph glyph-name="agrave.salt_ss" horiz-adv-x="699" 
d="M601 287q0 53 -19.5 103t-54 87.5t-83 60t-104.5 22.5t-104.5 -22.5t-83 -60t-54 -87.5t-19.5 -103t19.5 -103t54 -87.5t83 -60t104.5 -22.5t104.5 22.5t83 60t54 87.5t19.5 103zM600 0v126q-40 -69 -108.5 -112t-151.5 -43q-67 0 -124 26t-98.5 69.5t-65 101
t-23.5 119.5t23.5 119.5t65 101t98.5 69.5t124 26q82 0 151 -43.5t109 -110.5v125h47v-574h-47zM215 798h66l92 -147h-37z" />
    <glyph glyph-name="aacute.salt_ss" horiz-adv-x="699" 
d="M601 287q0 53 -19.5 103t-54 87.5t-83 60t-104.5 22.5t-104.5 -22.5t-83 -60t-54 -87.5t-19.5 -103t19.5 -103t54 -87.5t83 -60t104.5 -22.5t104.5 22.5t83 60t54 87.5t19.5 103zM600 0v126q-40 -69 -108.5 -112t-151.5 -43q-67 0 -124 26t-98.5 69.5t-65 101
t-23.5 119.5t23.5 119.5t65 101t98.5 69.5t124 26q82 0 151 -43.5t109 -110.5v125h47v-574h-47zM474 798l-121 -147h-37l92 147h66z" />
    <glyph glyph-name="acircumflex.salt_ss" horiz-adv-x="699" 
d="M601 287q0 53 -19.5 103t-54 87.5t-83 60t-104.5 22.5t-104.5 -22.5t-83 -60t-54 -87.5t-19.5 -103t19.5 -103t54 -87.5t83 -60t104.5 -22.5t104.5 22.5t83 60t54 87.5t19.5 103zM600 0v126q-40 -69 -108.5 -112t-151.5 -43q-67 0 -124 26t-98.5 69.5t-65 101
t-23.5 119.5t23.5 119.5t65 101t98.5 69.5t124 26q82 0 151 -43.5t109 -110.5v125h47v-574h-47zM435 651l-90 110l-90 -110h-37l94 147h66l94 -147h-37z" />
    <glyph glyph-name="atilde.salt_ss" horiz-adv-x="699" 
d="M601 287q0 53 -19.5 103t-54 87.5t-83 60t-104.5 22.5t-104.5 -22.5t-83 -60t-54 -87.5t-19.5 -103t19.5 -103t54 -87.5t83 -60t104.5 -22.5t104.5 22.5t83 60t54 87.5t19.5 103zM600 0v126q-40 -69 -108.5 -112t-151.5 -43q-67 0 -124 26t-98.5 69.5t-65 101
t-23.5 119.5t23.5 119.5t65 101t98.5 69.5t124 26q82 0 151 -43.5t109 -110.5v125h47v-574h-47zM205 651h-40q-4 36 2.5 60.5t19 39.5t29.5 21t33 6q22 0 48.5 -14t52 -30.5t49.5 -30.5t41 -14q18 0 32.5 17t11.5 72h40q4 -36 -2.5 -60.5t-19 -39.5t-29.5 -21t-33 -6
q-22 0 -48.5 14t-52 30.5t-49.5 30.5t-41 14q-18 0 -32.5 -17t-11.5 -72z" />
    <glyph glyph-name="adieresis.salt_ss" horiz-adv-x="699" 
d="M601 287q0 53 -19.5 103t-54 87.5t-83 60t-104.5 22.5t-104.5 -22.5t-83 -60t-54 -87.5t-19.5 -103t19.5 -103t54 -87.5t83 -60t104.5 -22.5t104.5 22.5t83 60t54 87.5t19.5 103zM600 0v126q-40 -69 -108.5 -112t-151.5 -43q-67 0 -124 26t-98.5 69.5t-65 101
t-23.5 119.5t23.5 119.5t65 101t98.5 69.5t124 26q82 0 151 -43.5t109 -110.5v125h47v-574h-47zM475 717v-66h-64v66h64zM279 717v-66h-64v66h64z" />
    <glyph glyph-name="aring.salt_ss" horiz-adv-x="699" 
d="M601 287q0 53 -19.5 103t-54 87.5t-83 60t-104.5 22.5t-104.5 -22.5t-83 -60t-54 -87.5t-19.5 -103t19.5 -103t54 -87.5t83 -60t104.5 -22.5t104.5 22.5t83 60t54 87.5t19.5 103zM600 0v126q-40 -69 -108.5 -112t-151.5 -43q-67 0 -124 26t-98.5 69.5t-65 101
t-23.5 119.5t23.5 119.5t65 101t98.5 69.5t124 26q82 0 151 -43.5t109 -110.5v125h47v-574h-47zM346 846q42 0 71.5 -30t29.5 -70t-29.5 -70t-71.5 -30t-71.5 30t-29.5 70t29.5 70t71.5 30zM346 814q-28 0 -47.5 -20t-19.5 -48t19.5 -48t47.5 -20t47.5 20t19.5 48t-19.5 48
t-47.5 20z" />
    <glyph glyph-name="amacron.salt_ss" horiz-adv-x="699" 
d="M601 287q0 53 -19.5 103t-54 87.5t-83 60t-104.5 22.5t-104.5 -22.5t-83 -60t-54 -87.5t-19.5 -103t19.5 -103t54 -87.5t83 -60t104.5 -22.5t104.5 22.5t83 60t54 87.5t19.5 103zM600 0v126q-40 -69 -108.5 -112t-151.5 -43q-67 0 -124 26t-98.5 69.5t-65 101
t-23.5 119.5t23.5 119.5t65 101t98.5 69.5t124 26q82 0 151 -43.5t109 -110.5v125h47v-574h-47zM468 694v-43h-246v43h246z" />
    <glyph glyph-name="abreve.salt_ss" horiz-adv-x="699" 
d="M601 287q0 53 -19.5 103t-54 87.5t-83 60t-104.5 22.5t-104.5 -22.5t-83 -60t-54 -87.5t-19.5 -103t19.5 -103t54 -87.5t83 -60t104.5 -22.5t104.5 22.5t83 60t54 87.5t19.5 103zM600 0v126q-40 -69 -108.5 -112t-151.5 -43q-67 0 -124 26t-98.5 69.5t-65 101
t-23.5 119.5t23.5 119.5t65 101t98.5 69.5t124 26q82 0 151 -43.5t109 -110.5v125h47v-574h-47zM481 782q-19 -62 -52.5 -99t-83.5 -37t-83.5 37t-52.5 99l40 3q18 -49 44.5 -73t51.5 -24t51.5 24t44.5 73z" />
    <glyph glyph-name="aogonek.salt_ss" horiz-adv-x="699" 
d="M593 -174q-37 0 -55 21t-18 42q0 27 16 45.5t35 38.5l29 31v122q-40 -69 -108.5 -112t-151.5 -43q-67 0 -124 26t-98.5 69.5t-65 101t-23.5 119.5t23.5 119.5t65 101t98.5 69.5t124 26q82 0 151 -43.5t109 -110.5v125h47v-574l-31 -34q-19 -20 -34 -34t-15 -34
q0 -9 9 -19t24 -10q12 0 21.5 4.5t17.5 11.5l25 -31q-9 -9 -29 -18.5t-42 -9.5zM601 287q0 53 -19.5 103t-54 87.5t-83 60t-104.5 22.5t-104.5 -22.5t-83 -60t-54 -87.5t-19.5 -103t19.5 -103t54 -87.5t83 -60t104.5 -22.5t104.5 22.5t83 60t54 87.5t19.5 103z" />
    <glyph glyph-name="aringacute.salt_ss" horiz-adv-x="699" 
d="M601 287q0 53 -19.5 103t-54 87.5t-83 60t-104.5 22.5t-104.5 -22.5t-83 -60t-54 -87.5t-19.5 -103t19.5 -103t54 -87.5t83 -60t104.5 -22.5t104.5 22.5t83 60t54 87.5t19.5 103zM600 0v126q-40 -69 -108.5 -112t-151.5 -43q-67 0 -124 26t-98.5 69.5t-65 101
t-23.5 119.5t23.5 119.5t65 101t98.5 69.5t124 26q82 0 151 -43.5t109 -110.5v125h47v-574h-47zM345 846q42 0 71.5 -30t29.5 -70t-29.5 -70t-71.5 -30t-71.5 30t-29.5 70t29.5 70t71.5 30zM345 814q-28 0 -47.5 -20t-19.5 -48t19.5 -48t47.5 -20t47.5 20t19.5 48t-19.5 48
t-47.5 20zM474 1016l-121 -147h-37l92 147h66z" />
    <glyph glyph-name="Adieresis.salt" horiz-adv-x="679" 
d="M504 746v-66h-64v66h64zM239 746v-66h-64v66h64zM532 223l-193 472l-195 -472h388zM623 0l-74 180h-423l-74 -180h-50l312 746h51l312 -746h-54z" />
    <glyph glyph-name="Odieresis.salt" horiz-adv-x="879" 
d="M440 770q84 0 158 -31t129.5 -84.5t87.5 -126t32 -154.5t-32 -155t-87.5 -126.5t-129.5 -85t-158 -31.5t-159 31.5t-130 85t-87 126.5t-32 155t32 154.5t87 126t130 84.5t159 31zM835 746v-66h-64v66h64zM108 746v-66h-64v66h64zM440 725q-73 0 -138 -29t-113.5 -77.5
t-77 -112t-28.5 -131.5q0 -70 28.5 -134.5t77 -113t113.5 -77.5t138 -29q72 0 137 29t113.5 77.5t77 112.5t28.5 135q0 68 -28.5 131.5t-77 112t-113.5 77.5t-137 29z" />
    <glyph glyph-name="Udieresis.salt" horiz-adv-x="626" 
d="M571 278q0 -68 -16 -123.5t-48 -95t-81 -61.5t-114 -22q-64 0 -112.5 22t-80.5 61.5t-48 95t-16 123.5v468h50v-497q0 -57 17.5 -100t46 -71t66 -42.5t77.5 -14.5q41 0 79 14.5t66.5 42.5t46 71t17.5 100v497h50v-468zM433 746v-66h-64v66h64zM257 746v-66h-64v66h64z
" />
    <glyph glyph-name="asterisk.salt1" horiz-adv-x="354" 
d="M318 510l-121 40l-34 -117l-20 2l1 128l-122 -4l-4 19l121 40l-41 114l17 10l75 -103l96 74l15 -13l-76 -103l101 -69z" />
    <glyph glyph-name="space.em" horiz-adv-x="1000" 
 />
    <glyph glyph-name="space.en" horiz-adv-x="500" 
 />
    <glyph glyph-name="space.frac" horiz-adv-x="85" 
 />
    <glyph glyph-name="space.thin" horiz-adv-x="150" 
 />
    </font>
</defs>
</svg>
