<?xml version="1.0" standalone="no"?>
<!DOCTYPE svg PUBLIC "-//W3C//DTD SVG 1.1//EN" "http://www.w3.org/Graphics/SVG/1.1/DTD/svg11.dtd" >
<svg>
<metadata>
Created by FontForge 20120731 at Wed Aug 28 00:01:04 2019
 By www
Copyright (c) 2015 CJ Type. All rights reserved.
</metadata>
<defs>
<font id="DunbarLow-Regular" horiz-adv-x="0" >
  <font-face 
    font-family="DunbarLow"
    font-weight="400"
    font-stretch="normal"
    units-per-em="1000"
    panose-1="0 0 0 0 0 0 0 2 0 0"
    ascent="780"
    descent="-220"
    x-height="358"
    cap-height="746"
    bbox="-209.333 -283 1112 1098"
    underline-thickness="0"
    underline-position="0"
    unicode-range="U+0020-FEFF"
  />
<missing-glyph 
 />
    <glyph glyph-name="f_f" unicode="ff" horiz-adv-x="440" 
d="M166 0h-105v270h-41v88h41v217q0 47 16 79.5t41.5 53t57.5 29.5t64 9v-92q-30 0 -52 -20t-22 -63v-213h104v252q0 47 14.5 79.5t38 53t53 29.5t58.5 9v-92q-24 0 -42 -20t-18 -63v-248h42v-88h-42v-270h-104v270h-104v-270z" />
    <glyph glyph-name="f_i" unicode="fi" horiz-adv-x="404" 
d="M214 270h-48v-270h-104v270h-42v88h42v252q0 47 14.5 79.5t38 53t53 29.5t58.5 9v-92q-24 0 -42 -20t-18 -63v-248h48v-88zM365 525v-100h-109v100h109zM363 358v-358h-105v358h105z" />
    <glyph glyph-name="f_l" unicode="fl" horiz-adv-x="404" 
d="M214 270h-48v-270h-104v270h-42v88h42v252q0 47 14.5 79.5t38 53t53 29.5t58.5 9v-92q-24 0 -42 -20t-18 -63v-248h48v-88zM363 780v-780h-105v780h105z" />
    <glyph glyph-name="f_f_i" unicode="ffi" horiz-adv-x="609" 
d="M573 525v-100h-109v100h109zM571 358v-358h-105v358h105zM166 0h-105v270h-41v88h41v217q0 47 16 79.5t41.5 53t57.5 29.5t64 9v-92q-30 0 -52 -20t-22 -63v-213h104v252q0 47 14.5 79.5t38 53t53 29.5t58.5 9v-92q-24 0 -42 -20t-18 -63v-248h48v-88h-48v-270h-104v270
h-104v-270z" />
    <glyph glyph-name="f_f_l" unicode="ffl" horiz-adv-x="609" 
d="M571 780v-780h-105v780h105zM166 0h-105v270h-41v88h41v217q0 47 16 79.5t41.5 53t57.5 29.5t64 9v-92q-30 0 -52 -20t-22 -63v-213h104v252q0 47 14.5 79.5t38 53t53 29.5t58.5 9v-92q-24 0 -42 -20t-18 -63v-248h48v-88h-48v-270h-104v270h-104v-270z" />
    <glyph glyph-name=".notdef" 
 />
    <glyph glyph-name=".null" 
 />
    <glyph glyph-name="nonmarkingreturn" horiz-adv-x="333" 
 />
    <glyph glyph-name="space" unicode=" " horiz-adv-x="170" 
 />
    <glyph glyph-name="exclam" unicode="!" horiz-adv-x="295" 
d="M195 190h-95l-21 556h137zM83 0v119h129v-119h-129z" />
    <glyph glyph-name="quotedbl" unicode="&#x22;" horiz-adv-x="458" 
d="M55 463l58 283h125l-101 -283h-82zM233 463l58 283h125l-101 -283h-82z" />
    <glyph glyph-name="numbersign" unicode="#" horiz-adv-x="768" 
d="M454 293l31 160h-161l-31 -160h161zM395 0l41 203h-161l-41 -203h-94l41 203h-136v90h154l31 160h-146v90h164l41 203h94l-41 -203h161l41 203h95l-41 -203h124v-90h-142l-32 -160h134v-90h-152l-41 -203h-94z" />
    <glyph glyph-name="dollar" unicode="$" horiz-adv-x="524" 
d="M302 -116h-77v114q-50 1 -101.5 13t-85.5 35v105q49 -32 94 -45t102 -13q73 0 109 31t36 67t-38.5 70t-118.5 88q-99 65 -139.5 113.5t-40.5 108.5q0 56 46.5 104t136.5 60v113h77v-111q35 -2 74.5 -11t70.5 -25v-102q-31 20 -72.5 32t-87.5 12q-72 0 -99 -25t-27 -45
q0 -37 34 -69.5t107 -80.5q49 -34 85.5 -61t60 -52.5t35.5 -53.5t12 -63q0 -43 -15 -76t-41 -56.5t-61.5 -38t-75.5 -20.5v-118z" />
    <glyph glyph-name="percent" unicode="%" horiz-adv-x="777" 
d="M685 746l-502 -746h-90l500 746h92zM179 746q67 0 111 -47.5t44 -140.5v-27q0 -92 -44.5 -139.5t-110.5 -47.5q-65 0 -109.5 47.5t-44.5 139.5v27q0 93 44.5 140.5t109.5 47.5zM249 533v23q0 65 -19.5 96.5t-50.5 31.5q-30 0 -49.5 -31.5t-19.5 -96.5v-23q0 -65 19.5 -96
t49.5 -31q31 0 50.5 31t19.5 96zM597 402q66 0 110.5 -47.5t44.5 -140.5v-27q0 -92 -44.5 -139.5t-110.5 -47.5q-65 0 -109.5 47.5t-44.5 139.5v27q0 93 44.5 140.5t109.5 47.5zM666 189v23q0 65 -19 96.5t-50 31.5t-50.5 -31.5t-19.5 -96.5v-23q0 -65 19.5 -96t50.5 -31
t50 31t19 96z" />
    <glyph glyph-name="ampersand" unicode="&#x26;" horiz-adv-x="722" 
d="M231 596q0 -33 19.5 -60t56.5 -67l4 3q54 34 82.5 64t28.5 68q0 29 -23.5 55.5t-72.5 26.5q-43 0 -69 -26.5t-26 -63.5zM285 63q47 0 89 24.5t79 62.5q-46 51 -92.5 104.5t-79.5 90.5q-56 -37 -88 -72.5t-32 -86.5q0 -49 38.5 -86t85.5 -37zM589 0q-6 5 -25 26t-46 51
q-48 -45 -107 -73.5t-138 -27.5q-52 0 -96 15t-75.5 41t-49.5 63.5t-18 82.5q0 83 50.5 133.5t133.5 102.5q-48 53 -76.5 93.5t-28.5 89.5q0 35 15 66.5t43 55t67 37.5t87 14q98 0 155.5 -48t57.5 -118q0 -60 -42.5 -103t-106.5 -86q-5 -3 -10 -6.5t-10 -6.5q31 -34 71 -80
t81 -93q21 28 41.5 56.5t41.5 56.5l73 -73q-23 -29 -45.5 -58.5t-45.5 -57.5q48 -55 83 -96t42 -48l-5 -9h-117z" />
    <glyph glyph-name="quotesingle" unicode="'" horiz-adv-x="280" 
d="M55 463l58 283h125l-101 -283h-82z" />
    <glyph glyph-name="parenleft" unicode="(" horiz-adv-x="412" 
d="M289 778l63 -67q-26 -25 -54.5 -65.5t-51.5 -92.5t-38 -115t-15 -134v-13q0 -70 15 -133.5t38 -116t51.5 -92.5t54.5 -64l-62 -68q-34 27 -70.5 71.5t-66.5 104t-49.5 134.5t-19.5 162v16q0 88 19.5 162.5t49.5 133.5t66.5 103.5t69.5 73.5z" />
    <glyph glyph-name="parenright" unicode=")" horiz-adv-x="412" 
d="M122 778q33 -29 69.5 -73.5t66.5 -103.5t49.5 -133.5t19.5 -162.5v-16q0 -87 -19.5 -162t-49.5 -134.5t-66.5 -104t-70.5 -71.5l-61 68q26 24 54.5 64t51 92.5t37.5 116t15 133.5v13q0 71 -15 134t-38 115t-51 92.5t-54 65.5z" />
    <glyph glyph-name="asterisk" unicode="*" horiz-adv-x="372" 
d="M259 414l-72 134l-72 -136l-68 48l105 105l-132 22l25 80l121 -61l-21 140h82l-20 -139l119 61l26 -80l-130 -21l104 -106z" />
    <glyph glyph-name="plus" unicode="+" horiz-adv-x="617" 
d="M578 306h-218v-239h-103v239h-219v90h219v220h103v-220h218v-90z" />
    <glyph glyph-name="comma" unicode="," horiz-adv-x="264" 
d="M83 125h131l-96 -276h-84z" />
    <glyph glyph-name="hyphen" unicode="-" horiz-adv-x="306" 
d="M266 249v-104h-226v104h226z" />
    <glyph glyph-name="period" unicode="." horiz-adv-x="246" 
d="M57 132h132v-132h-132v132z" />
    <glyph glyph-name="slash" unicode="/" horiz-adv-x="539" 
d="M524 780l-491 -1000h-109l489 1000h111z" />
    <glyph glyph-name="zero" unicode="0" horiz-adv-x="618" 
d="M309 770q58 0 107.5 -23.5t85 -70t55.5 -116.5t20 -162v-52q0 -91 -20 -160.5t-55.5 -116t-85 -70t-107.5 -23.5q-57 0 -106 23.5t-85 70t-56.5 116t-20.5 160.5v52q0 92 20.5 162t56.5 116.5t85 70t106 23.5zM467 345v52q0 141 -44 209.5t-114 68.5q-68 0 -113 -68.5
t-45 -209.5v-52q0 -140 45 -207.5t113 -67.5q69 0 113.5 67.5t44.5 207.5z" />
    <glyph glyph-name="one" unicode="1" horiz-adv-x="358" 
d="M290 0h-110v580l-144 -148v143l168 171h86v-746z" />
    <glyph glyph-name="two" unicode="2" horiz-adv-x="577" 
d="M507 0h-480l-6 13q12 15 53.5 63.5t88.5 103.5t89 104t55 65q51 63 73 104t22 87q0 26 -10.5 50t-29.5 43t-46.5 30.5t-59.5 11.5q-42 0 -84 -15t-87 -54l1 114q40 25 86.5 37.5t94.5 12.5q55 0 101 -18t79 -48.5t51 -71.5t18 -87q1 -67 -30.5 -121t-92.5 -127
q-10 -12 -30.5 -35t-45.5 -51t-53.5 -59t-53.5 -59h336z" />
    <glyph glyph-name="three" unicode="3" horiz-adv-x="508" 
d="M194 -24q-17 0 -40 2t-47 6.5t-47 11.5t-40 17v93q14 -10 34.5 -17t41.5 -11.5t41 -6.5t32 -2q88 -1 144 42.5t56 109.5t-53 105.5t-134 39.5h-54l3 90h51q63 0 104 35.5t41 82.5q0 46 -38 74.5t-96 28.5q-30 0 -61.5 -5.5t-64.5 -21.5l10 100q24 9 57.5 14.5t75.5 5.5
q47 0 89 -14t72.5 -38.5t48 -58t17.5 -72.5q-1 -50 -29.5 -95.5t-74.5 -70.5q64 -25 105 -78t41 -125q0 -52 -21 -96.5t-58.5 -77t-90 -50.5t-115.5 -18z" />
    <glyph glyph-name="four" unicode="4" horiz-adv-x="626" 
d="M395 240v330l-221 -330h221zM575 148h-69v-148h-111v148h-368l-7 18l393 580h93v-506h96z" />
    <glyph glyph-name="five" unicode="5" horiz-adv-x="580" 
d="M209 -24q-40 0 -89.5 11.5t-92.5 33.5v99q41 -23 88.5 -37t93.5 -14q87 0 144 50.5t57 129.5q0 66 -52.5 110.5t-138.5 44.5q-43 0 -78.5 -7.5t-69.5 -20.5l91 370h389l-30 -94h-282l-43 -161q13 1 27 2t27 1q63 0 114 -18t86.5 -50.5t54.5 -77.5t19 -99
q0 -59 -22.5 -109.5t-63.5 -86.5t-99.5 -56.5t-129.5 -20.5z" />
    <glyph glyph-name="six" unicode="6" horiz-adv-x="593" 
d="M299 -24q-56 0 -106 17.5t-87 50.5t-58.5 81t-21.5 107q0 60 25 124t64.5 129t90 131.5t100.5 129.5h135q-69 -83 -130.5 -160.5t-105.5 -146.5h1q26 16 57.5 25t65.5 9q50 0 94.5 -19t77.5 -51.5t52 -77t19 -94.5q0 -52 -20.5 -98.5t-57 -81.5t-86.5 -55t-109 -20z
M299 387q-33 0 -63 -12.5t-52.5 -34t-35.5 -50.5t-13 -62q0 -32 13 -61t35.5 -50.5t52.5 -34.5t63 -13q34 0 64 13t52 34.5t34.5 50.5t12.5 61q0 66 -47.5 112.5t-115.5 46.5z" />
    <glyph glyph-name="seven" unicode="7" horiz-adv-x="554" 
d="M227 0h-121l279 650h-363l34 96h488z" />
    <glyph glyph-name="eight" unicode="8" horiz-adv-x="587" 
d="M293 -24q-61 0 -111.5 18.5t-86.5 50t-56 74.5t-20 93q0 66 36.5 119t99.5 81q-44 26 -69.5 67t-25.5 89q0 41 17 78t47.5 64.5t74 43.5t94.5 16q53 0 96 -16t73.5 -43.5t47.5 -64.5t17 -78q0 -49 -25 -90t-70 -66q63 -28 100 -81t37 -119q0 -50 -20.5 -93t-56.5 -74.5
t-87 -50t-112 -18.5zM293 445q51 0 88.5 33.5t37.5 82.5q0 50 -37.5 83.5t-88.5 33.5t-88.5 -33.5t-37.5 -83.5q0 -48 37.5 -82t88.5 -34zM293 67q69 0 117.5 44t48.5 107t-48.5 106t-117.5 43q-33 0 -63 -11.5t-52.5 -31t-35.5 -47t-13 -59.5t13 -59.5t35.5 -48t52.5 -32
t63 -11.5z" />
    <glyph glyph-name="nine" unicode="9" horiz-adv-x="593" 
d="M288 0h-136q69 83 131 160.5t106 146.5h-2q-26 -16 -57 -25t-66 -9q-50 0 -94.5 19t-77.5 51.5t-52 77t-19 94.5q0 52 20.5 98.5t57 81.5t86.5 55t109 20q56 0 106 -17.5t87 -50.5t59 -81t22 -107q0 -60 -25 -124t-65 -129t-90 -131.5t-100 -129.5zM294 359q33 0 63 12.5
t52.5 34t35.5 50.5t13 62q0 32 -13 61t-35.5 50.5t-52.5 34.5t-63 13q-34 0 -64 -13t-52 -34.5t-34.5 -50.5t-12.5 -61q0 -66 47.5 -112.5t115.5 -46.5z" />
    <glyph glyph-name="colon" unicode=":" horiz-adv-x="246" 
d="M59 344h127v-140h-127v140zM59 139h127v-139h-127v139z" />
    <glyph glyph-name="semicolon" unicode=";" horiz-adv-x="262" 
d="M75 344h126v-140h-126v140zM74 106h127l-72 -231h-87z" />
    <glyph glyph-name="less" unicode="&#x3c;" horiz-adv-x="560" 
d="M533 23l-506 246v87l506 249v-100l-403 -191l403 -187v-104z" />
    <glyph glyph-name="equal" unicode="=" horiz-adv-x="546" 
d="M508 488v-84h-470v84h470zM508 275v-84h-470v84h470z" />
    <glyph glyph-name="greater" unicode="&#x3e;" horiz-adv-x="560" 
d="M27 23v104l403 187l-403 191v100l506 -249v-87z" />
    <glyph glyph-name="question" unicode="?" horiz-adv-x="542" 
d="M290 181h-105v212h30q31 0 60.5 9t51.5 27t35.5 45t13.5 63q0 51 -40.5 90.5t-112.5 39.5q-41 0 -81.5 -14t-83.5 -49l-4 103q43 27 91.5 40.5t99.5 13.5q107 0 174.5 -61t67.5 -160q0 -50 -16 -90.5t-43 -69t-62.5 -46.5t-75.5 -24v-129zM184 0v111h107v-111h-107z" />
    <glyph glyph-name="at" unicode="@" horiz-adv-x="1000" 
d="M534 -190q-110 0 -200.5 36.5t-154 99.5t-98.5 149t-35 185q0 91 33.5 174t95.5 145.5t150 100t195 37.5q100 0 181.5 -32.5t138.5 -88t88 -129t31 -155.5q0 -76 -21 -129.5t-53 -85.5t-70 -46.5t-72 -14.5q-57 0 -93 25.5t-47 66.5q-23 -31 -59 -48.5t-82 -17.5
q-73 0 -123 54.5t-50 134.5q0 40 13.5 75t36.5 60.5t54.5 40.5t68.5 15q41 0 75.5 -16.5t57.5 -44.5v50h104v-282q0 -32 19.5 -41t39.5 -9q17 0 40.5 10t45 34t37 65.5t15.5 104.5q0 70 -26.5 133.5t-75 111t-118.5 75.5t-156 28q-94 0 -170.5 -34t-130 -89.5t-82.5 -128
t-29 -148.5q0 -84 29.5 -159.5t84 -132t134 -90t178.5 -33.5q40 0 83.5 5.5t84 16t76.5 26.5t62 36l32 -49q-28 -21 -68 -38t-85 -29t-93 -18t-92 -6zM496 175q42 0 71 29t29 68q0 42 -29 71t-71 29q-43 0 -71 -28.5t-28 -69.5q0 -40 28 -69.5t71 -29.5z" />
    <glyph glyph-name="A" unicode="A" horiz-adv-x="716" 
d="M497 238l-140 366l-141 -366h281zM588 0l-54 142h-355l-55 -142h-122l297 746h118l297 -746h-126z" />
    <glyph glyph-name="B" unicode="B" horiz-adv-x="546" 
d="M279 0h-229v746h208q64 0 108.5 -15t71 -40.5t38.5 -60t12 -72.5q0 -49 -24.5 -93t-70.5 -73q58 -27 90.5 -78t32.5 -113q0 -38 -13.5 -74t-42 -64t-73.5 -45.5t-108 -17.5zM236 649h-68v-221h64q68 0 107.5 33.5t39.5 82.5q0 43 -31 74t-112 31zM248 338h-80v-241h83
q83 0 114.5 36t31.5 80q0 57 -40 91t-109 34z" />
    <glyph glyph-name="C" unicode="C" horiz-adv-x="696" 
d="M664 701l-53 -90q-38 24 -82.5 37.5t-93.5 13.5q-65 0 -118.5 -23.5t-91.5 -63t-59 -91.5t-21 -109q0 -58 21 -111t59 -93t91.5 -63.5t118.5 -23.5q46 0 89.5 13t86.5 38l53 -90q-59 -37 -115 -53t-117 -16q-90 0 -165 31.5t-128.5 85t-83 126.5t-29.5 155t29.5 154.5
t83 126t128.5 84.5t165 31q61 0 116.5 -16t115.5 -53z" />
    <glyph glyph-name="D" unicode="D" horiz-adv-x="657" 
d="M50 0v746h196q74 0 143 -24t121.5 -71t84.5 -116.5t32 -160.5q0 -92 -31.5 -162t-84 -117t-121.5 -71t-143 -24h-197zM168 640v-534h79q51 0 98.5 17t83.5 51t57.5 84t21.5 116q0 65 -21.5 115t-57.5 83.5t-83.5 50.5t-98.5 17h-79z" />
    <glyph glyph-name="E" unicode="E" horiz-adv-x="490" 
d="M50 0v746h391v-103h-273v-203h251v-99h-251v-238h281v-103h-399z" />
    <glyph glyph-name="F" unicode="F" horiz-adv-x="499" 
d="M50 0v746h418v-103h-300v-220h269v-103h-269v-320h-118z" />
    <glyph glyph-name="G" unicode="G" horiz-adv-x="839" 
d="M814 373q0 -82 -29.5 -154.5t-80.5 -126.5t-120 -85t-148 -31q-86 0 -161 31.5t-130 85t-87 126.5t-32 155t32 154.5t87 126t130 84.5t161 31q81 0 154.5 -28.5t124.5 -75.5l-78 -83q-42 38 -93 58.5t-108 20.5q-60 0 -113.5 -23.5t-92.5 -62.5t-62 -91.5t-23 -109.5
q0 -59 23 -112t62 -92.5t92.5 -63t113.5 -23.5q49 0 92.5 18t77 49t56.5 73t30 89h-235l44 102h313v-42z" />
    <glyph glyph-name="H" unicode="H" horiz-adv-x="671" 
d="M50 0v746h118v-296h335v296h118v-746h-118v345h-335v-345h-118z" />
    <glyph glyph-name="I" unicode="I" horiz-adv-x="222" 
d="M52 0v746h118v-746h-118z" />
    <glyph glyph-name="J" unicode="J" horiz-adv-x="332" 
d="M6 0v109q16 -7 33.5 -11.5t35.5 -4.5t34.5 6t28 22t18.5 46t7 78v501h118v-534q0 -118 -44.5 -172.5t-148.5 -54.5q-23 0 -43 3.5t-39 11.5z" />
    <glyph glyph-name="K" unicode="K" horiz-adv-x="645" 
d="M492 0l-266 337l-58 -67v-270h-118v746h118v-313l272 313h145l-281 -322l335 -424h-147z" />
    <glyph glyph-name="L" unicode="L" horiz-adv-x="449" 
d="M50 746h118v-640h269v-106h-387v746z" />
    <glyph glyph-name="M" unicode="M" horiz-adv-x="849" 
d="M417 132l-249 405v-537h-118v746h124l256 -421l247 421h122v-746h-118v534l-242 -402h-22z" />
    <glyph glyph-name="N" unicode="N" horiz-adv-x="727" 
d="M563 0l-395 552v-552h-118v746h120l389 -545v545h118v-746h-114z" />
    <glyph glyph-name="O" unicode="O" horiz-adv-x="870" 
d="M436 770q85 0 160 -31t130 -84.5t87 -126t32 -154.5t-32 -155t-87 -126.5t-130 -85t-160 -31.5q-86 0 -161 31.5t-130 85t-87 126.5t-32 155t32 154.5t87 126t130 84.5t161 31zM436 662q-60 0 -113.5 -23.5t-92.5 -62.5t-62 -91.5t-23 -110.5q0 -59 23 -111.5t62 -92
t92.5 -63t113.5 -23.5t113 23.5t92 63t62 92t23 111.5q0 58 -23 110.5t-62 91.5t-92 62.5t-113 23.5z" />
    <glyph glyph-name="P" unicode="P" horiz-adv-x="530" 
d="M234 281h-66v-281h-118v746h189q121 0 194.5 -53.5t74.5 -177.5q0 -58 -23 -102t-61 -73.5t-87.5 -44t-102.5 -14.5zM247 640h-79v-252h79q63 0 103 35t40 92q-1 53 -33 89t-110 36z" />
    <glyph glyph-name="Q" unicode="Q" horiz-adv-x="870" 
d="M436 662q-60 0 -113.5 -23.5t-92.5 -62.5t-62 -91.5t-23 -110.5q0 -59 23 -111.5t62 -92t92.5 -63t113.5 -23.5t113 23.5t92 63t62 92t23 111.5q0 58 -23 110.5t-62 91.5t-92 62.5t-113 23.5zM833 -23h-370q-7 -1 -13.5 -1h-13.5q-86 0 -161 31.5t-130 85t-87 126.5
t-32 155t32 154.5t87 126t130 84.5t161 31q85 0 160 -31t130 -84.5t87 -125.5t32 -153q0 -96 -51 -179t-132 -132l191 15z" />
    <glyph glyph-name="R" unicode="R" horiz-adv-x="580" 
d="M231 640h-63v-250h62q65 0 105 35.5t40 92.5q0 50 -35.5 86t-108.5 36zM423 0l-247 291h-8v-291h-118v746h180q118 0 190.5 -57.5t72.5 -169.5q0 -84 -52.5 -139.5t-127.5 -76.5l254 -303h-144z" />
    <glyph glyph-name="S" unicode="S" horiz-adv-x="487" 
d="M434 711l-47 -94q-26 18 -58.5 31.5t-65.5 13.5q-56 0 -78.5 -25t-22.5 -51q0 -36 29.5 -68t93.5 -82q94 -75 133.5 -130.5t39.5 -112.5q0 -48 -18.5 -86.5t-50.5 -64.5t-76 -40t-94 -14q-48 0 -104.5 15.5t-99.5 42.5l47 95q35 -21 75 -37.5t85 -16.5q58 0 87 32t29 69
q0 38 -30.5 74t-100.5 90q-44 35 -75.5 64t-51.5 55.5t-29 53.5t-9 59q0 34 13 66t40 56.5t69.5 39.5t99.5 15q43 0 88 -14t82 -36z" />
    <glyph glyph-name="T" unicode="T" horiz-adv-x="404" 
d="M143 0v641h-133v105h384v-105h-133v-641h-118z" />
    <glyph glyph-name="U" unicode="U" horiz-adv-x="669" 
d="M619 300q0 -150 -72.5 -237t-212.5 -87q-137 0 -210.5 87t-73.5 237v446h118v-476q0 -46 14 -81t37 -58.5t53 -35.5t62 -12q33 0 63 12t53 35.5t36.5 58.5t13.5 81v476h119v-446z" />
    <glyph glyph-name="V" unicode="V" horiz-adv-x="700" 
d="M413 0h-126l-285 746h126l225 -598l223 598h122z" />
    <glyph glyph-name="W" unicode="W" horiz-adv-x="991" 
d="M653 0l-156 561l-159 -561h-118l-217 746h123l160 -574l156 574h114l155 -574l160 574h118l-218 -746h-118z" />
    <glyph glyph-name="X" unicode="X" horiz-adv-x="644" 
d="M508 0l-187 312l-184 -312h-130l235 393l-215 353h133l161 -268l164 268h128l-215 -351l240 -395h-130z" />
    <glyph glyph-name="Y" unicode="Y" horiz-adv-x="633" 
d="M375 0h-118v242l-255 504h129l187 -391l192 391h121l-256 -505v-241z" />
    <glyph glyph-name="Z" unicode="Z" horiz-adv-x="611" 
d="M555 0h-539l-2 12l378 633h-332l46 101h470l2 -12l-379 -633h401z" />
    <glyph glyph-name="bracketleft" unicode="[" horiz-adv-x="398" 
d="M115 -214v960h236v-72h-127v-816h135v-72h-244z" />
    <glyph glyph-name="backslash" unicode="\" horiz-adv-x="542" 
d="M15 780h113l490 -1000h-111z" />
    <glyph glyph-name="bracketright" unicode="]" horiz-adv-x="398" 
d="M283 -214h-245v72h135v816h-127v72h237v-960z" />
    <glyph glyph-name="asciicircum" unicode="^" horiz-adv-x="627" 
d="M477 369l-164 281l-165 -281h-105l223 377h92l226 -377h-107z" />
    <glyph glyph-name="underscore" unicode="_" horiz-adv-x="500" 
d="M500 -55v-86h-500v86h500z" />
    <glyph glyph-name="grave" unicode="`" horiz-adv-x="500" 
d="M122 790h134l84 -147h-89z" />
    <glyph glyph-name="a" unicode="a" horiz-adv-x="433" 
d="M211 49q34 0 57 17t23 44t-22 44t-58 17t-56 -17.5t-20 -43.5t20 -43.5t56 -17.5zM297 0v21q-17 -15 -47.5 -26t-71.5 -11q-66 0 -109.5 33t-43.5 91q0 54 43 89.5t114 35.5q35 0 62 -8t46 -21v1q0 40 -27 59t-77 19q-16 0 -35 -2.5t-46 -9.5l-19 82q38 9 65.5 12.5
t61.5 3.5q90 0 136 -43t46 -104v-222h-98z" />
    <glyph glyph-name="b" unicode="b" horiz-adv-x="477" 
d="M278 -12q-45 0 -80.5 17.5t-59.5 46.5v-52h-99v780h105v-471q24 28 58.5 44.5t75.5 16.5q37 0 69 -15t55.5 -41t37 -61t13.5 -75q0 -81 -50.5 -135.5t-124.5 -54.5zM143 178q0 -42 29 -70.5t72 -28.5t71 29t28 71q0 43 -28 71.5t-71 28.5t-72 -29t-29 -72z" />
    <glyph glyph-name="c" unicode="c" horiz-adv-x="363" 
d="M313 98l39 -74q-22 -16 -53.5 -26t-66.5 -10q-45 0 -83.5 14.5t-66.5 40t-44 60.5t-16 76t16 76t44 60.5t66.5 40t83.5 14.5q35 0 66.5 -9.5t53.5 -25.5l-39 -75h-4q-15 11 -34 15.5t-38 4.5q-45 0 -74.5 -29t-29.5 -72t29.5 -72t74.5 -29q19 0 38 4.5t34 15.5h4z" />
    <glyph glyph-name="d" unicode="d" horiz-adv-x="477" 
d="M334 178q0 43 -29 72t-72 29t-71 -28.5t-28 -71.5q0 -42 28 -71t71 -29t72 28.5t29 70.5zM339 0v52q-24 -29 -59.5 -46.5t-80.5 -17.5q-74 0 -124.5 54.5t-50.5 135.5q0 40 13.5 75t37 61t55.5 41t69 15q41 0 75.5 -16.5t58.5 -44.5v471h105v-780h-99z" />
    <glyph glyph-name="e" unicode="e" horiz-adv-x="443" 
d="M224 289q-34 0 -56 -18.5t-30 -51.5h172q-8 33 -30 51.5t-56 18.5zM418 45q-31 -26 -77.5 -44t-100.5 -18q-102 0 -160 55.5t-58 140.5t56.5 140.5t146.5 55.5q42 0 78.5 -15t63 -41t42 -62t15.5 -78v-30h-289q7 -40 34 -61t73 -21q37 0 67.5 12t55.5 31z" />
    <glyph glyph-name="f" unicode="f" horiz-adv-x="231" 
d="M208 270h-42v-270h-104v270h-42v88h42v252q0 47 14.5 79.5t38 53t53 29.5t58.5 9v-92q-24 0 -42 -20t-18 -63v-248h42v-88z" />
    <glyph glyph-name="g" unicode="g" horiz-adv-x="475" 
d="M236 79q40 0 70 29t30 71q0 43 -30 71.5t-70 28.5q-44 0 -73 -28.5t-29 -71.5t29 -71.5t73 -28.5zM229 -200q-29 0 -59.5 3t-62.5 9v94q35 -7 63.5 -10.5t55.5 -3.5q46 0 75.5 20.5t29.5 78.5v51q-23 -25 -54.5 -39.5t-68.5 -14.5q-35 0 -68.5 13.5t-59 38t-41 59.5
t-15.5 79t15.5 79.5t40.5 60.5t58.5 38.5t69.5 13.5q37 0 69.5 -15.5t56.5 -40.5v44h102v-364q0 -102 -51.5 -148t-155.5 -46z" />
    <glyph glyph-name="h" unicode="h" horiz-adv-x="421" 
d="M144 208v-208h-105v780h105v-462q16 19 44.5 34t67.5 15q54 0 91 -35.5t37 -96.5v-235h-105v202q0 39 -19.5 55.5t-47.5 16.5q-24 0 -46 -17.5t-22 -48.5z" />
    <glyph glyph-name="i" unicode="i" horiz-adv-x="187" 
d="M148 525v-100h-109v100h109zM146 358v-358h-105v358h105z" />
    <glyph glyph-name="j" unicode="j" horiz-adv-x="187" 
d="M148 525v-100h-109v100h109zM-25 -107h13q22 0 37.5 15t15.5 42v408h105v-405q0 -81 -36 -117t-125 -36h-10v93z" />
    <glyph glyph-name="k" unicode="k" horiz-adv-x="409" 
d="M270 0l-91 148l-35 -38v-110h-105v780h105v-541l112 119h134l-135 -141l143 -217h-128z" />
    <glyph glyph-name="l" unicode="l" horiz-adv-x="187" 
d="M146 780v-780h-105v780h105z" />
    <glyph glyph-name="m" unicode="m" horiz-adv-x="618" 
d="M144 209v-209h-105v358h101v-51q12 20 38 40t66 20q37 0 64.5 -18t41.5 -50q10 21 37.5 44.5t73.5 23.5q53 0 86.5 -35.5t33.5 -96.5v-235h-105v202q0 40 -15 56t-42 16q-22 0 -39.5 -16.5t-17.5 -53.5v-204h-105v202q0 40 -15.5 56t-40.5 16t-41 -17t-16 -48z" />
    <glyph glyph-name="n" unicode="n" horiz-adv-x="421" 
d="M144 209v-209h-105v358h99v-45q16 19 46 36.5t72 17.5q54 0 91 -35.5t37 -96.5v-235h-105v202q0 39 -19.5 55.5t-47.5 16.5q-24 0 -46 -17t-22 -48z" />
    <glyph glyph-name="o" unicode="o" horiz-adv-x="465" 
d="M232 375q45 0 84 -15t67 -41.5t44 -62.5t16 -77t-16 -77t-44 -62.5t-67 -41.5t-84 -15t-83.5 15t-66.5 41.5t-44 62.5t-16 77t16 77t44 62.5t66.5 41.5t83.5 15zM232 285q-43 0 -72 -31t-29 -75q0 -45 29 -75.5t72 -30.5t72.5 31t29.5 75t-29.5 75t-72.5 31z" />
    <glyph glyph-name="p" unicode="p" horiz-adv-x="477" 
d="M143 180q0 -43 29 -72t72 -29t71 28.5t28 71.5q0 42 -28 71t-71 29t-72 -28.5t-29 -70.5zM278 -12q-41 0 -75.5 16.5t-58.5 44.5v-248h-105v557h99v-52q24 29 59.5 46.5t80.5 17.5q74 0 124.5 -54.5t50.5 -135.5q0 -40 -13.5 -75t-37 -61t-55.5 -41t-69 -15z" />
    <glyph glyph-name="q" unicode="q" horiz-adv-x="475" 
d="M436 -199h-104v249q-23 -28 -58 -45t-77 -17q-37 0 -68.5 15t-54.5 41t-36.5 61t-13.5 75q0 81 50 135.5t123 54.5q45 0 81 -17.5t60 -46.5v52h98v-557zM334 180q0 42 -29 70.5t-72 28.5t-71 -29t-28 -71q0 -43 28 -71.5t71 -28.5t72 29t29 72z" />
    <glyph glyph-name="r" unicode="r" horiz-adv-x="282" 
d="M144 180v-180h-105v358h100v-78q4 10 13.5 24t22.5 26.5t30 21t37 8.5h12v-120q-3 1 -9 2t-11 1q-41 0 -65.5 -21.5t-24.5 -41.5z" />
    <glyph glyph-name="s" unicode="s" horiz-adv-x="320" 
d="M168 370q32 0 58.5 -7.5t47.5 -15.5l-32 -78q-19 9 -36 13t-26 4q-16 0 -26 -6t-10 -16t12 -19.5t37 -25.5q57 -39 77 -64t20 -58q0 -45 -37 -76.5t-104 -32.5q-36 0 -69 8.5t-58 22.5l30 80q26 -13 44 -19.5t35 -6.5q24 1 35 8.5t11 17.5q0 7 -11 18t-48 36
q-53 34 -69 58.5t-16 55.5q0 37 31.5 70.5t103.5 32.5z" />
    <glyph glyph-name="t" unicode="t" horiz-adv-x="228" 
d="M208 270h-42v-270h-104v270h-42v88h42v199l104 49v-248h42v-88z" />
    <glyph glyph-name="u" unicode="u" horiz-adv-x="421" 
d="M283 0v45q-16 -19 -46 -36.5t-72 -17.5q-54 0 -91 35.5t-37 96.5v235h105v-202q0 -39 19.5 -55.5t47.5 -16.5q24 0 46 17t22 48v209h105v-358h-99z" />
    <glyph glyph-name="v" unicode="v" horiz-adv-x="413" 
d="M271 0h-127l-143 358h117l91 -250l94 250h109z" />
    <glyph glyph-name="w" unicode="w" horiz-adv-x="583" 
d="M362 0l-69 211l-68 -211h-99l-123 358h111l63 -221l69 221h95l69 -222l63 222h106l-120 -358h-97z" />
    <glyph glyph-name="x" unicode="x" horiz-adv-x="427" 
d="M292 0l-83 120l-79 -120h-110l127 186l-123 172h117l76 -115l76 115h111l-125 -176l127 -182h-114z" />
    <glyph glyph-name="y" unicode="y" horiz-adv-x="415" 
d="M204 -199h-108l70 188l-165 369h119l97 -246l87 246h110z" />
    <glyph glyph-name="z" unicode="z" horiz-adv-x="386" 
d="M327 0h-303l-5 10l176 259h-146l36 89h272l6 -10l-175 -259h175z" />
    <glyph glyph-name="braceleft" unicode="{" horiz-adv-x="414" 
d="M348 -214h-80q-59 0 -92 28.5t-33 109.5v205q0 46 -15.5 67.5t-40.5 28.5q-1 0 -3.5 0.5t-3.5 1.5v76q1 1 3.5 1.5t3.5 0.5q25 7 40.5 28.5t15.5 66.5v208q0 81 33 109.5t92 28.5h80v-72h-36q-30 0 -45 -16.5t-15 -72.5v-183q0 -48 -18 -80t-58 -49v-16q40 -16 58 -47
t18 -79v-190q0 -56 15 -69.5t45 -13.5h36v-72z" />
    <glyph glyph-name="bar" unicode="|" horiz-adv-x="192" 
d="M58 746h76v-906h-76v906z" />
    <glyph glyph-name="braceright" unicode="}" horiz-adv-x="414" 
d="M146 -214h-81v66h37q29 0 44 14t15 70v195q0 48 18 79t58 47v16q-40 17 -58 49t-18 80v189q0 56 -15 72.5t-44 16.5h-37v66h81q58 0 91.5 -28.5t33.5 -109.5v-208q0 -45 15.5 -66.5t40.5 -28.5q1 0 3.5 -0.5t3.5 -1.5v-76q-1 -1 -4 -1.5l-3 -0.5q-25 -7 -40.5 -28.5
t-15.5 -67.5v-205q0 -81 -33.5 -109.5t-91.5 -28.5z" />
    <glyph glyph-name="asciitilde" unicode="~" horiz-adv-x="665" 
d="M152 230l-98 8q0 96 42.5 136.5t101.5 40.5q31 0 66 -17t70 -36.5t67 -36.5t57 -17q22 0 38.5 14.5t16.5 67.5l98 -7q0 -87 -38.5 -130.5t-99.5 -43.5q-32 0 -68 16.5t-71.5 36.5t-68.5 36.5t-58 16.5q-20 0 -37.5 -15.5t-17.5 -69.5z" />
    <glyph glyph-name="exclamdown" unicode="&#xa1;" horiz-adv-x="295" 
d="M83 746h129v-119h-129v119zM195 556l21 -556h-137l21 556h95z" />
    <glyph glyph-name="cent" unicode="&#xa2;" horiz-adv-x="512" 
d="M486 0q-28 -12 -59 -17.5t-57 -6.5v-93h-78v98q-57 9 -106.5 36t-85 67t-56 92t-20.5 111t20.5 111t56 92t85 67t106.5 36v102h78v-97q25 -1 55.5 -7.5t60.5 -20.5v-102h-3q-32 21 -66.5 29t-59.5 8q-45 0 -85 -17.5t-69 -47t-46.5 -69.5t-17.5 -84q0 -45 17.5 -85
t46.5 -69t69 -46.5t85 -17.5q26 0 56.5 6.5t69.5 25.5h3v-101z" />
    <glyph glyph-name="sterling" unicode="&#xa3;" horiz-adv-x="590" 
d="M554 89v-89h-512v89h25q45 0 67 30t22 90v141h-87v74h87v144q0 46 19.5 82t52.5 60.5t76 37.5t90 13q31 0 62 -4t62 -17v-98q-27 14 -54 20t-54 6q-26 0 -52 -7.5t-45.5 -21.5t-32 -34.5t-12.5 -45.5v-135h187v-74h-187v-141q0 -42 -10 -72t-28 -48h324z" />
    <glyph glyph-name="currency" unicode="&#xa4;" horiz-adv-x="572" 
d="M478 150l-92 91q-22 -13 -47.5 -21t-53.5 -8t-53 8t-46 21l-92 -91l-61 62l93 92q-13 21 -19.5 44.5t-6.5 48.5t6.5 48.5t18.5 44.5l-92 92l61 62l92 -91q21 13 46 21t53 8t53.5 -8t47.5 -21l92 91l60 -61l-93 -92q13 -21 19.5 -45t6.5 -49t-6.5 -48.5t-18.5 -44.5
l92 -91zM285 508q-46 0 -77 -33.5t-31 -77.5t31 -77.5t77 -33.5q47 0 78.5 33.5t31.5 77.5t-31.5 77.5t-78.5 33.5z" />
    <glyph glyph-name="yen" unicode="&#xa5;" horiz-adv-x="634" 
d="M584 167h-208v-167h-118v167h-201v71h201v35l-27 52h-174v72h137l-181 349h129l176 -361l181 361h122l-181 -349h144v-72h-182l-26 -51v-36h208v-71z" />
    <glyph glyph-name="brokenbar" unicode="&#xa6;" horiz-adv-x="192" 
d="M58 746h76v-400h-76v400zM58 240h76v-400h-76v400z" />
    <glyph glyph-name="section" unicode="&#xa7;" horiz-adv-x="514" 
d="M264 183q19 -10 36 -19.5t31 -19.5q28 12 44.5 36.5t16.5 54.5q0 12 -4 27.5t-18 34t-40.5 39.5t-70.5 45q-10 5 -19 10t-18 9q-41 -3 -67 -26t-26 -57q0 -31 27 -62t108 -72zM220 -221q-43 0 -85.5 12t-75.5 30l3 103q40 -23 79 -37.5t79 -14.5q53 1 85.5 26t32.5 64
q0 15 -5 30t-20 32t-44 37.5t-76 45.5q-81 39 -120.5 82.5t-39.5 104.5q0 46 29 91t83 67q-36 31 -50.5 63t-14.5 70q0 32 13 64.5t37.5 58.5t61.5 42.5t84 16.5q32 0 62 -7.5t64 -24.5l-3 -96q-29 17 -59 26t-64 9q-38 0 -67 -21.5t-29 -55.5q0 -31 31 -59t96 -65
q107 -57 144.5 -111.5t37.5 -112.5q0 -60 -27.5 -100t-68.5 -60q25 -29 36 -59.5t11 -61.5q0 -49 -18.5 -84.5t-49.5 -58.5t-70.5 -34.5t-81.5 -11.5z" />
    <glyph glyph-name="dieresis" unicode="&#xa8;" horiz-adv-x="500" 
d="M415 770v-95h-111v95h111zM196 770v-95h-111v95h111z" />
    <glyph glyph-name="copyright" unicode="&#xa9;" horiz-adv-x="875" 
d="M438 756q83 0 154.5 -30t123.5 -82t81.5 -122t29.5 -149t-29.5 -149t-81.5 -122t-123.5 -82t-154.5 -30t-155 30t-124 82t-81.5 122t-29.5 149t29.5 149t81.5 122t124 82t155 30zM438 714q-71 0 -133.5 -27t-108.5 -73t-73 -108.5t-27 -132.5q0 -71 27 -133t73 -108
t108.5 -73t133.5 -27q70 0 132 27t108.5 73t73.5 108t27 133q0 70 -27 132.5t-73.5 108.5t-108.5 73t-132 27zM602 555l-44 -65q-25 17 -49.5 26.5t-52.5 9.5q-64 0 -109 -45t-45 -105t45 -105.5t109 -45.5q28 0 52.5 9.5t49.5 26.5l44 -65q-34 -28 -72.5 -42t-78.5 -14
q-51 0 -95.5 18.5t-77 50.5t-51 75t-18.5 92t18.5 92t51 74.5t77 50t95.5 18.5q40 0 79 -14t72 -42z" />
    <glyph glyph-name="ordfeminine" unicode="&#xaa;" horiz-adv-x="362" 
d="M173 502q24 0 41 12.5t17 29.5t-16.5 29.5t-41.5 12.5q-26 0 -40 -12.5t-14 -29.5q0 -16 14 -29t40 -13zM236 458v27q-14 -15 -40 -28t-62 -13q-48 0 -81.5 26t-33.5 70q0 46 35.5 74.5t92.5 28.5q26 0 47 -5.5t36 -14.5q-1 25 -21.5 39.5t-61.5 14.5q-15 0 -33 -1.5
t-43 -8.5l-2 79q28 6 50.5 8t50.5 2q78 0 117 -35t39 -84v-179h-90z" />
    <glyph glyph-name="guillemotleft" unicode="&#xab;" horiz-adv-x="435" 
d="M233 0h-93l-115 177v3l115 178h95l-115 -179zM399 0h-93l-115 177v3l115 178h95l-115 -179z" />
    <glyph glyph-name="logicalnot" unicode="&#xac;" horiz-adv-x="653" 
d="M613 128h-111v211h-472v95h583v-306z" />
    <glyph glyph-name="registered" unicode="&#xae;" horiz-adv-x="527" 
d="M264 756q50 0 92.5 -18t73.5 -49t49 -73t18 -89t-18 -89.5t-49 -73.5t-73.5 -49t-92.5 -18t-93 18t-74 49t-49 73.5t-18 89.5t18 89t49 73t74 49t93 18zM264 731q-42 0 -79.5 -16t-65.5 -43.5t-44.5 -65t-16.5 -79.5t16.5 -79.5t44.5 -65.5t65.5 -44t79.5 -16t79 16
t65 44t44 65.5t16 79.5t-16 79.5t-44 65t-65 43.5t-79 16zM262 610h-18v-76h18q19 0 30 10.5t11 27.5t-10.5 27.5t-30.5 10.5zM316 399l-69 89h-3v-89h-55v260h71q38 0 68 -19.5t30 -65.5q0 -28 -15 -47t-37 -29l72 -94l-3 -5h-59z" />
    <glyph glyph-name="macron" unicode="&#xaf;" horiz-adv-x="500" 
d="M390 749v-83h-280v83h280z" />
    <glyph glyph-name="degree" unicode="&#xb0;" horiz-adv-x="374" 
d="M187 765q35 0 65 -13t52 -35t34.5 -51t12.5 -61t-12.5 -61.5t-34.5 -51.5t-52 -35t-65 -13t-65 13t-52 35t-34.5 51.5t-12.5 61.5t12.5 61t34.5 51t52 35t65 13zM187 707q-43 0 -71 -31t-28 -71q0 -41 28 -71.5t71 -30.5t71 31t28 71t-28 71t-71 31z" />
    <glyph glyph-name="plusminus" unicode="&#xb1;" horiz-adv-x="607" 
d="M567 322h-211v-181h-103v181h-213v90h213v208h103v-208h211v-90zM568 102v-81h-530v81h530z" />
    <glyph glyph-name="two.sups" unicode="&#xb2;" horiz-adv-x="400" 
d="M341 279h-309l-6 11q10 12 37.5 45.5t58 71t57.5 70.5t36 45q21 26 31.5 44.5t10.5 45.5q0 28 -23 50.5t-61 23.5q-25 0 -50.5 -9.5t-53.5 -32.5v88q27 15 56.5 22t58.5 7q74 -1 119.5 -42t45.5 -100q-1 -48 -21.5 -76.5t-45.5 -59.5q-13 -18 -47 -57t-66 -74h203z" />
    <glyph glyph-name="three.sups" unicode="&#xb3;" horiz-adv-x="363" 
d="M147 264q-23 0 -58.5 5t-57.5 18v73q17 -13 47 -18t45 -5q53 -1 86 22t33 60q0 35 -31 56t-79 21h-32l3 71h29q37 0 61 19t24 46q0 25 -22 40.5t-57 15.5q-17 0 -38.5 -3.5t-41.5 -12.5l6 77q16 5 38 8.5t52 3.5q64 1 107.5 -33t43.5 -84q-1 -31 -17.5 -59.5t-44.5 -45.5
q38 -16 62.5 -48t24.5 -75q0 -66 -51 -109.5t-132 -42.5z" />
    <glyph glyph-name="acute" unicode="&#xb4;" horiz-adv-x="500" 
d="M380 790l-129 -147h-87l84 147h132z" />
    <glyph glyph-name="paragraph" unicode="&#xb6;" horiz-adv-x="601" 
d="M389 -207h-72v479h-17q-59 0 -108.5 18.5t-85 50.5t-55 75t-19.5 91q0 47 19.5 90t54.5 76t84 53t108 20h249v-953h-71v875h-87v-875z" />
    <glyph glyph-name="periodcentered" unicode="&#xb7;" horiz-adv-x="246" 
d="M57 412h132v-132h-132v132z" />
    <glyph glyph-name="cedilla" unicode="&#xb8;" horiz-adv-x="500" 
d="M222 -199q-13 0 -34 3.5t-39 9.5v54h1q19 -6 37.5 -9t28.5 -3q25 0 40 9.5t15 24.5q0 14 -18.5 23t-47.5 9h-20l-3 8l29 80h61l-19 -42q40 -7 63 -28.5t23 -52.5q0 -36 -33 -61t-84 -25z" />
    <glyph glyph-name="one.sups" unicode="&#xb9;" horiz-adv-x="274" 
d="M217 279h-88v339l-88 -88v114l107 102h69v-467z" />
    <glyph glyph-name="ordmasculine" unicode="&#xba;" horiz-adv-x="394" 
d="M197 760q75 0 123.5 -46t48.5 -112q0 -67 -48.5 -113t-123.5 -46q-74 0 -123 46t-49 113q0 66 49 112t123 46zM197 678q-32 0 -52.5 -22t-20.5 -54q0 -33 20.5 -54.5t52.5 -21.5t52.5 22t20.5 54t-20.5 54t-52.5 22z" />
    <glyph glyph-name="guillemotright" unicode="&#xbb;" horiz-adv-x="431" 
d="M130 0h-95l115 181l-114 177h94l114 -178v-3zM292 0h-95l115 181l-114 177h94l114 -178v-3z" />
    <glyph glyph-name="onequarter" unicode="&#xbc;" horiz-adv-x="802" 
d="M197 279h-88v339l-88 -88v114l107 102h69v-467zM546 746h98l-446 -746h-98zM649 159v178l-124 -178h124zM775 86h-37v-86h-89v86h-232l-8 15l254 366h75v-308h58z" />
    <glyph glyph-name="onehalf" unicode="&#xbd;" horiz-adv-x="852" 
d="M197 279h-88v339l-88 -88v114l107 102h69v-467zM546 746h98l-446 -746h-98zM812 0h-309l-6 11q10 12 37.5 45.5t58 71t57.5 70.5t36 45q21 26 31.5 44.5t10.5 45.5q0 28 -23 50.5t-61 23.5q-25 0 -50.5 -9.5t-53.5 -32.5v88q27 15 56.5 22t58.5 7q74 -1 119.5 -42
t45.5 -100q-1 -48 -21.5 -76.5t-45.5 -59.5q-13 -18 -47 -57t-66 -74h203z" />
    <glyph glyph-name="threequarters" unicode="&#xbe;" horiz-adv-x="880" 
d="M127 264q-23 0 -58.5 5t-57.5 18v73q17 -13 47 -18t45 -5q53 -1 86 22t33 60q0 35 -31 56t-79 21h-32l3 71h29q37 0 61 19t24 46q0 25 -22 40.5t-57 15.5q-17 0 -38.5 -3.5t-41.5 -12.5l6 77q16 5 38 8.5t52 3.5q64 1 107.5 -33t43.5 -84q-1 -31 -17.5 -59.5t-44.5 -45.5
q38 -16 62.5 -48t24.5 -75q0 -66 -51 -109.5t-132 -42.5zM624 746h98l-446 -746h-98zM727 159v178l-124 -178h124zM853 86h-37v-86h-89v86h-232l-8 15l254 366h75v-308h58z" />
    <glyph glyph-name="questiondown" unicode="&#xbf;" horiz-adv-x="576" 
d="M375 746v-111h-108v111h108zM314 -15q-107 0 -174.5 59.5t-67.5 158.5q0 52 16 91.5t43 66.5t63 43t76 21v141h102v-201h-29q-32 0 -61 -9.5t-51 -28.5t-35.5 -46.5t-13.5 -63.5q0 -57 40.5 -97.5t113.5 -40.5q40 0 81 14t84 49l3 -103q-43 -26 -91 -40t-99 -14z" />
    <glyph glyph-name="Agrave" unicode="&#xc0;" horiz-adv-x="716" 
d="M497 238l-140 366l-141 -366h281zM588 0l-54 142h-355l-55 -142h-122l297 746h118l297 -746h-126zM184 954h134l84 -147h-89z" />
    <glyph glyph-name="Aacute" unicode="&#xc1;" horiz-adv-x="716" 
d="M497 238l-140 366l-141 -366h281zM588 0l-54 142h-355l-55 -142h-122l297 746h118l297 -746h-126zM526 954l-129 -147h-87l84 147h132z" />
    <glyph glyph-name="Acircumflex" unicode="&#xc2;" horiz-adv-x="716" 
d="M497 238l-140 366l-141 -366h281zM588 0l-54 142h-355l-55 -142h-122l297 746h118l297 -746h-126zM431 807l-75 91l-74 -91h-95l111 147h117l111 -147h-95z" />
    <glyph glyph-name="Atilde" unicode="&#xc3;" horiz-adv-x="716" 
d="M497 238l-140 366l-141 -366h281zM588 0l-54 142h-355l-55 -142h-122l297 746h118l297 -746h-126zM235 807l-86 2q-4 42 4 71t24 46t37.5 24.5t44.5 7.5t48.5 -10t49 -22t45 -22t36.5 -10q16 0 29 12.5t12 50.5l86 -2q7 -76 -25.5 -111t-83.5 -35q-24 0 -49.5 10
t-49 21.5t-45 21.5t-36.5 10q-16 0 -29.5 -12.5t-11.5 -52.5z" />
    <glyph glyph-name="Adieresis" unicode="&#xc4;" horiz-adv-x="716" 
d="M497 238l-140 366l-141 -366h281zM588 0l-54 142h-355l-55 -142h-122l297 746h118l297 -746h-126zM522 902v-95h-111v95h111zM303 902v-95h-111v95h111z" />
    <glyph glyph-name="Aring" unicode="&#xc5;" horiz-adv-x="716" 
d="M497 238l-140 366l-141 -366h281zM588 0l-54 142h-355l-55 -142h-122l297 746h118l297 -746h-126zM357 928q50 0 85 -35.5t35 -81.5q0 -47 -35 -82t-85 -35t-85 35.5t-35 81.5t35 81.5t85 35.5zM357 875q-26 0 -44.5 -18.5t-18.5 -45.5q0 -26 18.5 -45t44.5 -19t44.5 19
t18.5 45q0 27 -18.5 45.5t-44.5 18.5z" />
    <glyph glyph-name="AE" unicode="&#xc6;" horiz-adv-x="947" 
d="M481 238l-136 387l-136 -387h272zM565 0l-50 142h-340l-50 -142h-123l286 746h441v-103h-285l78 -203h296v-99h-259l91 -238h295v-103h-380z" />
    <glyph glyph-name="Ccedilla" unicode="&#xc7;" horiz-adv-x="696" 
d="M664 701l-53 -90q-38 24 -82.5 37.5t-93.5 13.5q-65 0 -118.5 -23.5t-91.5 -63t-59 -91.5t-21 -109q0 -58 21 -111t59 -93t91.5 -63.5t118.5 -23.5q46 0 89.5 13t86.5 38l53 -90q-59 -37 -115 -53t-117 -16q-90 0 -165 31.5t-128.5 85t-83 126.5t-29.5 155t29.5 154.5
t83 126t128.5 84.5t165 31q61 0 116.5 -16t115.5 -53zM398 -223q-13 0 -34 3.5t-39 9.5v54h1q19 -6 37.5 -9t28.5 -3q25 0 40 9.5t15 24.5q0 14 -18.5 23t-47.5 9h-20l-3 8l29 80h61l-19 -42q40 -7 63 -28.5t23 -52.5q0 -36 -33 -61t-84 -25z" />
    <glyph glyph-name="Egrave" unicode="&#xc8;" horiz-adv-x="490" 
d="M50 0v746h391v-103h-273v-203h251v-99h-251v-238h281v-103h-399zM82 954h134l84 -147h-89z" />
    <glyph glyph-name="Eacute" unicode="&#xc9;" horiz-adv-x="490" 
d="M50 0v746h391v-103h-273v-203h251v-99h-251v-238h281v-103h-399zM424 954l-129 -147h-87l84 147h132z" />
    <glyph glyph-name="Ecircumflex" unicode="&#xca;" horiz-adv-x="490" 
d="M50 0v746h391v-103h-273v-203h251v-99h-251v-238h281v-103h-399zM329 807l-75 91l-74 -91h-95l111 147h117l111 -147h-95z" />
    <glyph glyph-name="Edieresis" unicode="&#xcb;" horiz-adv-x="490" 
d="M50 0v746h391v-103h-273v-203h251v-99h-251v-238h281v-103h-399zM420 902v-95h-111v95h111zM201 902v-95h-111v95h111z" />
    <glyph glyph-name="Igrave" unicode="&#xcc;" horiz-adv-x="222" 
d="M52 0v746h118v-746h-118zM-62 954h134l84 -147h-89z" />
    <glyph glyph-name="Iacute" unicode="&#xcd;" horiz-adv-x="222" 
d="M52 0v746h118v-746h-118zM280 954l-129 -147h-87l84 147h132z" />
    <glyph glyph-name="Icircumflex" unicode="&#xce;" horiz-adv-x="222" 
d="M52 0v746h118v-746h-118zM185 807l-75 91l-74 -91h-95l111 147h117l111 -147h-95z" />
    <glyph glyph-name="Idieresis" unicode="&#xcf;" horiz-adv-x="222" 
d="M52 0v746h118v-746h-118zM276 902v-95h-111v95h111zM57 902v-95h-111v95h111z" />
    <glyph glyph-name="Eth" unicode="&#xd0;" horiz-adv-x="663" 
d="M253 0h-196v334h-50v93h50v319h196q74 0 143 -24t121.5 -71t84.5 -116.5t32 -160.5q0 -92 -31.5 -162t-84 -117t-122 -71t-143.5 -24zM175 106h79q51 0 98.5 17t83.5 51t57.5 84t21.5 116q0 65 -21.5 115t-57.5 83.5t-83.5 50.5t-98.5 17h-79v-213h133v-93h-133v-228z
" />
    <glyph glyph-name="Ntilde" unicode="&#xd1;" horiz-adv-x="727" 
d="M563 0l-395 552v-552h-118v746h120l389 -545v545h118v-746h-114zM234 807l-86 2q-4 42 4 71t24 46t37.5 24.5t44.5 7.5t48.5 -10t49 -22t45 -22t36.5 -10q16 0 29 12.5t12 50.5l86 -2q7 -76 -25.5 -111t-83.5 -35q-24 0 -49.5 10t-49 21.5t-45 21.5t-36.5 10
q-16 0 -29.5 -12.5t-11.5 -52.5z" />
    <glyph glyph-name="Ograve" unicode="&#xd2;" horiz-adv-x="870" 
d="M436 770q85 0 160 -31t130 -84.5t87 -126t32 -154.5t-32 -155t-87 -126.5t-130 -85t-160 -31.5q-86 0 -161 31.5t-130 85t-87 126.5t-32 155t32 154.5t87 126t130 84.5t161 31zM436 662q-60 0 -113.5 -23.5t-92.5 -62.5t-62 -91.5t-23 -110.5q0 -59 23 -111.5t62 -92
t92.5 -63t113.5 -23.5t113 23.5t92 63t62 92t23 111.5q0 58 -23 110.5t-62 91.5t-92 62.5t-113 23.5zM263 954h134l84 -147h-89z" />
    <glyph glyph-name="Oacute" unicode="&#xd3;" horiz-adv-x="870" 
d="M436 770q85 0 160 -31t130 -84.5t87 -126t32 -154.5t-32 -155t-87 -126.5t-130 -85t-160 -31.5q-86 0 -161 31.5t-130 85t-87 126.5t-32 155t32 154.5t87 126t130 84.5t161 31zM436 662q-60 0 -113.5 -23.5t-92.5 -62.5t-62 -91.5t-23 -110.5q0 -59 23 -111.5t62 -92
t92.5 -63t113.5 -23.5t113 23.5t92 63t62 92t23 111.5q0 58 -23 110.5t-62 91.5t-92 62.5t-113 23.5zM604 954l-129 -147h-87l84 147h132z" />
    <glyph glyph-name="Ocircumflex" unicode="&#xd4;" horiz-adv-x="870" 
d="M436 770q85 0 160 -31t130 -84.5t87 -126t32 -154.5t-32 -155t-87 -126.5t-130 -85t-160 -31.5q-86 0 -161 31.5t-130 85t-87 126.5t-32 155t32 154.5t87 126t130 84.5t161 31zM436 662q-60 0 -113.5 -23.5t-92.5 -62.5t-62 -91.5t-23 -110.5q0 -59 23 -111.5t62 -92
t92.5 -63t113.5 -23.5t113 23.5t92 63t62 92t23 111.5q0 58 -23 110.5t-62 91.5t-92 62.5t-113 23.5zM510 807l-75 91l-74 -91h-95l111 147h117l111 -147h-95z" />
    <glyph glyph-name="Otilde" unicode="&#xd5;" horiz-adv-x="870" 
d="M436 770q85 0 160 -31t130 -84.5t87 -126t32 -154.5t-32 -155t-87 -126.5t-130 -85t-160 -31.5q-86 0 -161 31.5t-130 85t-87 126.5t-32 155t32 154.5t87 126t130 84.5t161 31zM436 662q-60 0 -113.5 -23.5t-92.5 -62.5t-62 -91.5t-23 -110.5q0 -59 23 -111.5t62 -92
t92.5 -63t113.5 -23.5t113 23.5t92 63t62 92t23 111.5q0 58 -23 110.5t-62 91.5t-92 62.5t-113 23.5zM314 807l-86 2q-4 42 4 71t24 46t37.5 24.5t44.5 7.5t48.5 -10t49 -22t45 -22t36.5 -10q16 0 29 12.5t12 50.5l86 -2q7 -76 -25.5 -111t-83.5 -35q-24 0 -49.5 10
t-49 21.5t-45 21.5t-36.5 10q-16 0 -29.5 -12.5t-11.5 -52.5z" />
    <glyph glyph-name="Odieresis" unicode="&#xd6;" horiz-adv-x="870" 
d="M436 770q85 0 160 -31t130 -84.5t87 -126t32 -154.5t-32 -155t-87 -126.5t-130 -85t-160 -31.5q-86 0 -161 31.5t-130 85t-87 126.5t-32 155t32 154.5t87 126t130 84.5t161 31zM436 662q-60 0 -113.5 -23.5t-92.5 -62.5t-62 -91.5t-23 -110.5q0 -59 23 -111.5t62 -92
t92.5 -63t113.5 -23.5t113 23.5t92 63t62 92t23 111.5q0 58 -23 110.5t-62 91.5t-92 62.5t-113 23.5zM601 902v-95h-111v95h111zM382 902v-95h-111v95h111z" />
    <glyph glyph-name="multiply" unicode="&#xd7;" horiz-adv-x="539" 
d="M446 98l-181 181l-174 -173l-61 62l173 173l-169 169l64 62l168 -168l159 159l62 -62l-159 -159l181 -181z" />
    <glyph glyph-name="Oslash" unicode="&#xd8;" horiz-adv-x="881" 
d="M145 374q0 -61 24.5 -116t67.5 -95l325 470q-28 13 -60 21t-66 8q-60 0 -113.5 -23.5t-92.5 -62.5t-62 -91.5t-23 -110.5zM436 84q60 0 113 23.5t92 63t62 92t23 111.5q0 60 -24.5 114.5t-67.5 94.5l-326 -469q29 -14 61.5 -22t66.5 -8zM436 -24q-52 0 -100.5 11.5
t-91.5 33.5l-48 -69h-106l81 117q-66 54 -105.5 133.5t-39.5 171.5q0 82 32 154.5t87 126t130 84.5t161 31q51 0 99.5 -11.5t90.5 -33.5l48 69h107l-81 -117q66 -54 105.5 -133t39.5 -170q0 -82 -32 -155t-87 -126.5t-130 -85t-160 -31.5z" />
    <glyph glyph-name="Ugrave" unicode="&#xd9;" horiz-adv-x="669" 
d="M619 300q0 -150 -72.5 -237t-212.5 -87q-137 0 -210.5 87t-73.5 237v446h118v-476q0 -46 14 -81t37 -58.5t53 -35.5t62 -12q33 0 63 12t53 35.5t36.5 58.5t13.5 81v476h119v-446zM161 954h134l84 -147h-89z" />
    <glyph glyph-name="Uacute" unicode="&#xda;" horiz-adv-x="669" 
d="M619 300q0 -150 -72.5 -237t-212.5 -87q-137 0 -210.5 87t-73.5 237v446h118v-476q0 -46 14 -81t37 -58.5t53 -35.5t62 -12q33 0 63 12t53 35.5t36.5 58.5t13.5 81v476h119v-446zM503 954l-129 -147h-87l84 147h132z" />
    <glyph glyph-name="Ucircumflex" unicode="&#xdb;" horiz-adv-x="669" 
d="M619 300q0 -150 -72.5 -237t-212.5 -87q-137 0 -210.5 87t-73.5 237v446h118v-476q0 -46 14 -81t37 -58.5t53 -35.5t62 -12q33 0 63 12t53 35.5t36.5 58.5t13.5 81v476h119v-446zM409 807l-75 91l-74 -91h-95l111 147h117l111 -147h-95z" />
    <glyph glyph-name="Udieresis" unicode="&#xdc;" horiz-adv-x="669" 
d="M619 300q0 -150 -72.5 -237t-212.5 -87q-137 0 -210.5 87t-73.5 237v446h118v-476q0 -46 14 -81t37 -58.5t53 -35.5t62 -12q33 0 63 12t53 35.5t36.5 58.5t13.5 81v476h119v-446zM499 902v-95h-111v95h111zM280 902v-95h-111v95h111z" />
    <glyph glyph-name="Yacute" unicode="&#xdd;" horiz-adv-x="633" 
d="M375 0h-118v242l-255 504h129l187 -391l192 391h121l-256 -505v-241zM486 954l-129 -147h-87l84 147h132z" />
    <glyph glyph-name="Thorn" unicode="&#xde;" horiz-adv-x="520" 
d="M247 532h-79v-252h79q63 0 103 35t40 92q-1 54 -33 89.5t-110 35.5zM233 174h-65v-174h-118v746h118v-108h71q121 0 195 -53t74 -178q0 -58 -23 -102t-60.5 -73t-87.5 -43.5t-104 -14.5z" />
    <glyph glyph-name="germandbls" unicode="&#xdf;" horiz-adv-x="455" 
d="M212 -198v105q56 34 79.5 71t23.5 74q0 40 -26.5 65.5t-70.5 36.5l61 114h-133v-268h-107v618q0 50 16.5 83t42 52t58.5 27t65 8v-93q-31 0 -53 -20t-22 -66v-302l33 51h246l3 -5l-88 -162q40 -22 60.5 -58t20.5 -81q0 -84 -58 -147t-151 -103z" />
    <glyph glyph-name="agrave" unicode="&#xe0;" horiz-adv-x="433" 
d="M211 49q34 0 57 17t23 44t-22 44t-58 17t-56 -17.5t-20 -43.5t20 -43.5t56 -17.5zM297 0v21q-17 -15 -47.5 -26t-71.5 -11q-66 0 -109.5 33t-43.5 91q0 54 43 89.5t114 35.5q35 0 62 -8t46 -21v1q0 40 -27 59t-77 19q-16 0 -35 -2.5t-46 -9.5l-19 82q38 9 65.5 12.5
t61.5 3.5q90 0 136 -43t46 -104v-222h-98zM51 570h134l84 -147h-89z" />
    <glyph glyph-name="aacute" unicode="&#xe1;" horiz-adv-x="433" 
d="M211 49q34 0 57 17t23 44t-22 44t-58 17t-56 -17.5t-20 -43.5t20 -43.5t56 -17.5zM297 0v21q-17 -15 -47.5 -26t-71.5 -11q-66 0 -109.5 33t-43.5 91q0 54 43 89.5t114 35.5q35 0 62 -8t46 -21v1q0 40 -27 59t-77 19q-16 0 -35 -2.5t-46 -9.5l-19 82q38 9 65.5 12.5
t61.5 3.5q90 0 136 -43t46 -104v-222h-98zM393 570l-129 -147h-87l84 147h132z" />
    <glyph glyph-name="acircumflex" unicode="&#xe2;" horiz-adv-x="433" 
d="M211 49q34 0 57 17t23 44t-22 44t-58 17t-56 -17.5t-20 -43.5t20 -43.5t56 -17.5zM297 0v21q-17 -15 -47.5 -26t-71.5 -11q-66 0 -109.5 33t-43.5 91q0 54 43 89.5t114 35.5q35 0 62 -8t46 -21v1q0 40 -27 59t-77 19q-16 0 -35 -2.5t-46 -9.5l-19 82q38 9 65.5 12.5
t61.5 3.5q90 0 136 -43t46 -104v-222h-98zM299 423l-75 91l-74 -91h-95l111 147h117l111 -147h-95z" />
    <glyph glyph-name="atilde" unicode="&#xe3;" horiz-adv-x="433" 
d="M211 49q34 0 57 17t23 44t-22 44t-58 17t-56 -17.5t-20 -43.5t20 -43.5t56 -17.5zM297 0v21q-17 -15 -47.5 -26t-71.5 -11q-66 0 -109.5 33t-43.5 91q0 54 43 89.5t114 35.5q35 0 62 -8t46 -21v1q0 40 -27 59t-77 19q-16 0 -35 -2.5t-46 -9.5l-19 82q38 9 65.5 12.5
t61.5 3.5q90 0 136 -43t46 -104v-222h-98zM140 422l-79 3q-3 72 23 100.5t66 28.5q18 0 36 -7.5t35 -16l32 -16t25 -7.5q13 0 22 8.5t9 36.5l78 -2q3 -62 -20 -93t-66 -31q-18 0 -36.5 7t-36 15.5t-32.5 15.5t-26 7q-12 0 -21.5 -9.5t-8.5 -39.5z" />
    <glyph glyph-name="adieresis" unicode="&#xe4;" horiz-adv-x="433" 
d="M211 49q34 0 57 17t23 44t-22 44t-58 17t-56 -17.5t-20 -43.5t20 -43.5t56 -17.5zM297 0v21q-17 -15 -47.5 -26t-71.5 -11q-66 0 -109.5 33t-43.5 91q0 54 43 89.5t114 35.5q35 0 62 -8t46 -21v1q0 40 -27 59t-77 19q-16 0 -35 -2.5t-46 -9.5l-19 82q38 9 65.5 12.5
t61.5 3.5q90 0 136 -43t46 -104v-222h-98zM367 518v-95h-101v95h101zM196 518v-95h-101v95h101z" />
    <glyph glyph-name="aring" unicode="&#xe5;" horiz-adv-x="433" 
d="M211 49q34 0 57 17t23 44t-22 44t-58 17t-56 -17.5t-20 -43.5t20 -43.5t56 -17.5zM297 0v21q-17 -15 -47.5 -26t-71.5 -11q-66 0 -109.5 33t-43.5 91q0 54 43 89.5t114 35.5q35 0 62 -8t46 -21v1q0 40 -27 59t-77 19q-16 0 -35 -2.5t-46 -9.5l-19 82q38 9 65.5 12.5
t61.5 3.5q90 0 136 -43t46 -104v-222h-98zM224 652q50 0 85 -35.5t35 -81.5q0 -47 -35 -82t-85 -35t-85 35.5t-35 81.5t35 81.5t85 35.5zM224 599q-26 0 -44.5 -18.5t-18.5 -45.5q0 -26 18.5 -45t44.5 -19t44.5 19t18.5 45q0 27 -18.5 45.5t-44.5 18.5z" />
    <glyph glyph-name="ae" unicode="&#xe6;" horiz-adv-x="700" 
d="M482 289q-34 0 -56.5 -18.5t-30.5 -51.5h173q-8 33 -30 51.5t-56 18.5zM211 48q34 0 57 18t23 43t-22 43t-58 18t-56 -18t-20 -43t20 -43t56 -18zM675 45q-31 -26 -77 -44t-100 -18q-52 0 -93 16.5t-68 45.5q-16 -22 -53.5 -42t-95.5 -20q-74 0 -118.5 33.5t-44.5 88.5
t43 91.5t114 36.5q33 0 58.5 -7.5t44.5 -18.5q-1 39 -26 57.5t-73 18.5q-16 0 -35 -2.5t-46 -9.5l-18 82q37 9 64.5 12.5t61.5 3.5q45 0 78 -12.5t55 -33.5q25 25 60 38.5t77 13.5q84 0 141 -56t57 -140v-30h-289q7 -40 34.5 -61t73.5 -21q37 0 67.5 12t54.5 31z" />
    <glyph glyph-name="ccedilla" unicode="&#xe7;" horiz-adv-x="363" 
d="M313 98l39 -74q-22 -16 -53.5 -26t-66.5 -10q-45 0 -83.5 14.5t-66.5 40t-44 60.5t-16 76t16 76t44 60.5t66.5 40t83.5 14.5q35 0 66.5 -9.5t53.5 -25.5l-39 -75h-4q-15 11 -34 15.5t-38 4.5q-45 0 -74.5 -29t-29.5 -72t29.5 -72t74.5 -29q19 0 38 4.5t34 15.5h4z
M197 -181q-13 0 -31.5 3t-34.5 8v53h1q16 -5 32 -7.5t25 -2.5q20 0 32 7t12 19t-15 19.5t-40 7.5h-16l-1 5l24 69l53 -3l-13 -27q35 -6 55.5 -25t20.5 -47q0 -35 -28 -57t-76 -22z" />
    <glyph glyph-name="egrave" unicode="&#xe8;" horiz-adv-x="443" 
d="M224 289q-34 0 -56 -18.5t-30 -51.5h172q-8 33 -30 51.5t-56 18.5zM418 45q-31 -26 -77.5 -44t-100.5 -18q-102 0 -160 55.5t-58 140.5t56.5 140.5t146.5 55.5q42 0 78.5 -15t63 -41t42 -62t15.5 -78v-30h-289q7 -40 34 -61t73 -21q37 0 67.5 12t55.5 31zM52 570h134
l84 -147h-89z" />
    <glyph glyph-name="eacute" unicode="&#xe9;" horiz-adv-x="443" 
d="M224 289q-34 0 -56 -18.5t-30 -51.5h172q-8 33 -30 51.5t-56 18.5zM418 45q-31 -26 -77.5 -44t-100.5 -18q-102 0 -160 55.5t-58 140.5t56.5 140.5t146.5 55.5q42 0 78.5 -15t63 -41t42 -62t15.5 -78v-30h-289q7 -40 34 -61t73 -21q37 0 67.5 12t55.5 31zM394 570
l-129 -147h-87l84 147h132z" />
    <glyph glyph-name="ecircumflex" unicode="&#xea;" horiz-adv-x="443" 
d="M224 289q-34 0 -56 -18.5t-30 -51.5h172q-8 33 -30 51.5t-56 18.5zM418 45q-31 -26 -77.5 -44t-100.5 -18q-102 0 -160 55.5t-58 140.5t56.5 140.5t146.5 55.5q42 0 78.5 -15t63 -41t42 -62t15.5 -78v-30h-289q7 -40 34 -61t73 -21q37 0 67.5 12t55.5 31zM300 423l-75 91
l-74 -91h-95l111 147h117l111 -147h-95z" />
    <glyph glyph-name="edieresis" unicode="&#xeb;" horiz-adv-x="443" 
d="M224 289q-34 0 -56 -18.5t-30 -51.5h172q-8 33 -30 51.5t-56 18.5zM418 45q-31 -26 -77.5 -44t-100.5 -18q-102 0 -160 55.5t-58 140.5t56.5 140.5t146.5 55.5q42 0 78.5 -15t63 -41t42 -62t15.5 -78v-30h-289q7 -40 34 -61t73 -21q37 0 67.5 12t55.5 31zM361 518v-95
h-101v95h101zM190 518v-95h-101v95h101z" />
    <glyph glyph-name="igrave" unicode="&#xec;" horiz-adv-x="187" 
d="M146 358v-358h-105v358h105zM-79 570h134l84 -147h-89z" />
    <glyph glyph-name="iacute" unicode="&#xed;" horiz-adv-x="187" 
d="M146 358v-358h-105v358h105zM263 570l-129 -147h-87l84 147h132z" />
    <glyph glyph-name="icircumflex" unicode="&#xee;" horiz-adv-x="187" 
d="M146 358v-358h-105v358h105zM168 423l-75 91l-74 -91h-95l111 147h117l111 -147h-95z" />
    <glyph glyph-name="idieresis" unicode="&#xef;" horiz-adv-x="187" 
d="M146 358v-358h-105v358h105zM230 518v-95h-101v95h101zM59 518v-95h-101v95h101z" />
    <glyph glyph-name="eth" unicode="&#xf0;" horiz-adv-x="459" 
d="M218 -16q-41 0 -76.5 15t-62 41.5t-42 62t-15.5 76.5t15 76.5t41 61.5t61 41t75 15q37 0 69 -13.5t55 -37.5q-11 58 -33 116.5t-56 114.5l-144 -59l-30 56l138 57q-33 46 -74.5 89.5t-92.5 83.5h120q36 -31 68.5 -66t60.5 -74l128 53l26 -58l-119 -49q51 -84 79 -178
t28 -187v-1v0q0 -53 -17 -97t-46 -74.5t-69.5 -47.5t-86.5 -17zM230 282q-42 0 -71.5 -30t-29.5 -73t29.5 -73t71.5 -30q41 0 70.5 30t29.5 73t-29.5 73t-70.5 30z" />
    <glyph glyph-name="ntilde" unicode="&#xf1;" horiz-adv-x="421" 
d="M144 209v-209h-105v358h99v-45q16 19 46 36.5t72 17.5q54 0 91 -35.5t37 -96.5v-235h-105v202q0 39 -19.5 55.5t-47.5 16.5q-24 0 -46 -17t-22 -48zM125 422l-79 3q-3 72 23 100.5t66 28.5q18 0 36 -7.5t35 -16l32 -16t25 -7.5q13 0 22 8.5t9 36.5l78 -2q3 -62 -20 -93
t-66 -31q-18 0 -36.5 7t-36 15.5t-32.5 15.5t-26 7q-12 0 -21.5 -9.5t-8.5 -39.5z" />
    <glyph glyph-name="ograve" unicode="&#xf2;" horiz-adv-x="465" 
d="M232 375q45 0 84 -15t67 -41.5t44 -62.5t16 -77t-16 -77t-44 -62.5t-67 -41.5t-84 -15t-83.5 15t-66.5 41.5t-44 62.5t-16 77t16 77t44 62.5t66.5 41.5t83.5 15zM232 285q-43 0 -72 -31t-29 -75q0 -45 29 -75.5t72 -30.5t72.5 31t29.5 75t-29.5 75t-72.5 31zM60 570h134
l84 -147h-89z" />
    <glyph glyph-name="oacute" unicode="&#xf3;" horiz-adv-x="465" 
d="M232 375q45 0 84 -15t67 -41.5t44 -62.5t16 -77t-16 -77t-44 -62.5t-67 -41.5t-84 -15t-83.5 15t-66.5 41.5t-44 62.5t-16 77t16 77t44 62.5t66.5 41.5t83.5 15zM232 285q-43 0 -72 -31t-29 -75q0 -45 29 -75.5t72 -30.5t72.5 31t29.5 75t-29.5 75t-72.5 31zM401 570
l-129 -147h-87l84 147h132z" />
    <glyph glyph-name="ocircumflex" unicode="&#xf4;" horiz-adv-x="465" 
d="M232 375q45 0 84 -15t67 -41.5t44 -62.5t16 -77t-16 -77t-44 -62.5t-67 -41.5t-84 -15t-83.5 15t-66.5 41.5t-44 62.5t-16 77t16 77t44 62.5t66.5 41.5t83.5 15zM232 285q-43 0 -72 -31t-29 -75q0 -45 29 -75.5t72 -30.5t72.5 31t29.5 75t-29.5 75t-72.5 31zM307 423
l-75 91l-74 -91h-95l111 147h117l111 -147h-95z" />
    <glyph glyph-name="otilde" unicode="&#xf5;" horiz-adv-x="465" 
d="M232 375q45 0 84 -15t67 -41.5t44 -62.5t16 -77t-16 -77t-44 -62.5t-67 -41.5t-84 -15t-83.5 15t-66.5 41.5t-44 62.5t-16 77t16 77t44 62.5t66.5 41.5t83.5 15zM232 285q-43 0 -72 -31t-29 -75q0 -45 29 -75.5t72 -30.5t72.5 31t29.5 75t-29.5 75t-72.5 31zM148 422
l-79 3q-3 72 23 100.5t66 28.5q18 0 36 -7.5t35 -16l32 -16t25 -7.5q13 0 22 8.5t9 36.5l78 -2q3 -62 -20 -93t-66 -31q-18 0 -36.5 7t-36 15.5t-32.5 15.5t-26 7q-12 0 -21.5 -9.5t-8.5 -39.5z" />
    <glyph glyph-name="odieresis" unicode="&#xf6;" horiz-adv-x="465" 
d="M232 375q45 0 84 -15t67 -41.5t44 -62.5t16 -77t-16 -77t-44 -62.5t-67 -41.5t-84 -15t-83.5 15t-66.5 41.5t-44 62.5t-16 77t16 77t44 62.5t66.5 41.5t83.5 15zM232 285q-43 0 -72 -31t-29 -75q0 -45 29 -75.5t72 -30.5t72.5 31t29.5 75t-29.5 75t-72.5 31zM368 518v-95
h-101v95h101zM197 518v-95h-101v95h101z" />
    <glyph glyph-name="divide" unicode="&#xf7;" horiz-adv-x="597" 
d="M245 491v118h108v-118h-108zM560 395v-91h-523v91h523zM245 90v118h108v-118h-108z" />
    <glyph glyph-name="oslash" unicode="&#xf8;" horiz-adv-x="479" 
d="M131 179q0 -19 5 -35.5t15 -29.5l118 164q-8 4 -17.5 5.5t-19.5 1.5q-43 0 -72 -31t-29 -75zM232 73q43 0 72.5 31t29.5 75q0 15 -3.5 28.5t-10.5 25.5l-113 -157l12 -2t13 -1zM232 -17q-22 0 -42.5 4t-39.5 11l-33 -46h-84l58 80q-32 27 -50.5 65t-18.5 82q0 41 16 77
t44 62.5t66.5 41.5t83.5 15q25 0 49 -5t45 -14l36 50h84l-63 -88q28 -26 44 -62t16 -77t-16 -77t-44 -62.5t-67 -41.5t-84 -15z" />
    <glyph glyph-name="ugrave" unicode="&#xf9;" horiz-adv-x="421" 
d="M283 0v45q-16 -19 -46 -36.5t-72 -17.5q-54 0 -91 35.5t-37 96.5v235h105v-202q0 -39 19.5 -55.5t47.5 -16.5q24 0 46 17t22 48v209h105v-358h-99zM36 570h134l84 -147h-89z" />
    <glyph glyph-name="uacute" unicode="&#xfa;" horiz-adv-x="421" 
d="M283 0v45q-16 -19 -46 -36.5t-72 -17.5q-54 0 -91 35.5t-37 96.5v235h105v-202q0 -39 19.5 -55.5t47.5 -16.5q24 0 46 17t22 48v209h105v-358h-99zM378 570l-129 -147h-87l84 147h132z" />
    <glyph glyph-name="ucircumflex" unicode="&#xfb;" horiz-adv-x="421" 
d="M283 0v45q-16 -19 -46 -36.5t-72 -17.5q-54 0 -91 35.5t-37 96.5v235h105v-202q0 -39 19.5 -55.5t47.5 -16.5q24 0 46 17t22 48v209h105v-358h-99zM283 423l-75 91l-74 -91h-95l111 147h117l111 -147h-95z" />
    <glyph glyph-name="udieresis" unicode="&#xfc;" horiz-adv-x="421" 
d="M283 0v45q-16 -19 -46 -36.5t-72 -17.5q-54 0 -91 35.5t-37 96.5v235h105v-202q0 -39 19.5 -55.5t47.5 -16.5q24 0 46 17t22 48v209h105v-358h-99zM345 518v-95h-101v95h101zM174 518v-95h-101v95h101z" />
    <glyph glyph-name="yacute" unicode="&#xfd;" horiz-adv-x="415" 
d="M204 -199h-108l70 188l-165 369h119l97 -246l87 246h110zM386 570l-129 -147h-87l84 147h132z" />
    <glyph glyph-name="thorn" unicode="&#xfe;" horiz-adv-x="477" 
d="M143 180q0 -42 29 -71.5t72 -29.5t71 29.5t28 70.5q0 40 -28 70t-71 30t-72 -29.5t-29 -69.5zM278 -12q-41 0 -76 16.5t-58 44.5v-248h-105v979h105v-467q24 26 58 41.5t76 15.5q74 0 124.5 -54.5t50.5 -135.5q0 -40 -13.5 -75t-37 -61t-55.5 -41t-69 -15z" />
    <glyph glyph-name="ydieresis" unicode="&#xff;" horiz-adv-x="415" 
d="M204 -199h-108l70 188l-165 369h119l97 -246l87 246h110zM353 518v-95h-101v95h101zM182 518v-95h-101v95h101z" />
    <glyph glyph-name="Amacron" unicode="&#x100;" horiz-adv-x="716" 
d="M497 238l-140 366l-141 -366h281zM588 0l-54 142h-355l-55 -142h-122l297 746h118l297 -746h-126zM497 890v-83h-280v83h280z" />
    <glyph glyph-name="amacron" unicode="&#x101;" horiz-adv-x="433" 
d="M211 49q34 0 57 17t23 44t-22 44t-58 17t-56 -17.5t-20 -43.5t20 -43.5t56 -17.5zM297 0v21q-17 -15 -47.5 -26t-71.5 -11q-66 0 -109.5 33t-43.5 91q0 54 43 89.5t114 35.5q35 0 62 -8t46 -21v1q0 40 -27 59t-77 19q-16 0 -35 -2.5t-46 -9.5l-19 82q38 9 65.5 12.5
t61.5 3.5q90 0 136 -43t46 -104v-222h-98zM354 506v-83h-260v83h260z" />
    <glyph glyph-name="Abreve" unicode="&#x102;" horiz-adv-x="716" 
d="M497 238l-140 366l-141 -366h281zM588 0l-54 142h-355l-55 -142h-122l297 746h118l297 -746h-126zM515 951q-15 -66 -55.5 -107.5t-102.5 -41.5t-102.5 41.5t-55.5 107.5l72 3q15 -40 38.5 -60.5t47.5 -20.5t47.5 20.5t38.5 60.5z" />
    <glyph glyph-name="abreve" unicode="&#x103;" horiz-adv-x="433" 
d="M211 49q34 0 57 17t23 44t-22 44t-58 17t-56 -17.5t-20 -43.5t20 -43.5t56 -17.5zM297 0v21q-17 -15 -47.5 -26t-71.5 -11q-66 0 -109.5 33t-43.5 91q0 54 43 89.5t114 35.5q35 0 62 -8t46 -21v1q0 40 -27 59t-77 19q-16 0 -35 -2.5t-46 -9.5l-19 82q38 9 65.5 12.5
t61.5 3.5q90 0 136 -43t46 -104v-222h-98zM382 567q-15 -66 -55.5 -107.5t-102.5 -41.5t-102.5 41.5t-55.5 107.5l72 3q15 -40 38.5 -60.5t47.5 -20.5t47.5 20.5t38.5 60.5z" />
    <glyph glyph-name="Aogonek" unicode="&#x104;" horiz-adv-x="716" 
d="M629 -180q-49 0 -71.5 24t-22.5 52t16 51t38 42l5 4h-3l-57 149h-355l-55 -142h-122l297 746h118l297 -746l-49 -35q-21 -16 -31 -27t-10 -24q0 -11 8.5 -20t22.5 -9q12 0 21.5 4.5t15.5 10.5l35 -44q-13 -13 -38.5 -24.5t-59.5 -11.5zM497 238l-140 366l-141 -366h281z
" />
    <glyph glyph-name="aogonek" unicode="&#x105;" horiz-adv-x="433" 
d="M316 -158q-44 0 -64 20t-20 45t15.5 44.5t34.5 34.5l15 12v23q-17 -15 -47.5 -26t-71.5 -11q-66 0 -109.5 33t-43.5 91q0 54 43 89.5t114 35.5q35 0 62 -8t46 -21v1q0 40 -27 59t-77 19q-16 0 -35 -2.5t-46 -9.5l-19 82q38 9 65.5 12.5t61.5 3.5q90 0 136 -43t46 -104
v-222l-44 -34q-16 -13 -24.5 -23t-8.5 -22q0 -8 7 -15t20 -7q9 0 17 3.5t14 7.5l31 -38q-13 -11 -37 -20.5t-54 -9.5zM211 48q34 0 57 17t23 44t-22 44t-58 17t-56 -17.5t-20 -43.5t20 -43.5t56 -17.5z" />
    <glyph glyph-name="Cacute" unicode="&#x106;" horiz-adv-x="696" 
d="M664 701l-53 -90q-38 24 -82.5 37.5t-93.5 13.5q-65 0 -118.5 -23.5t-91.5 -63t-59 -91.5t-21 -109q0 -58 21 -111t59 -93t91.5 -63.5t118.5 -23.5q46 0 89.5 13t86.5 38l53 -90q-59 -37 -115 -53t-117 -16q-90 0 -165 31.5t-128.5 85t-83 126.5t-29.5 155t29.5 154.5
t83 126t128.5 84.5t165 31q61 0 116.5 -16t115.5 -53zM582 954l-129 -147h-87l84 147h132z" />
    <glyph glyph-name="cacute" unicode="&#x107;" horiz-adv-x="363" 
d="M313 98l39 -74q-22 -16 -53.5 -26t-66.5 -10q-45 0 -83.5 14.5t-66.5 40t-44 60.5t-16 76t16 76t44 60.5t66.5 40t83.5 14.5q35 0 66.5 -9.5t53.5 -25.5l-39 -75h-4q-15 11 -34 15.5t-38 4.5q-45 0 -74.5 -29t-29.5 -72t29.5 -72t74.5 -29q19 0 38 4.5t34 15.5h4z
M393 570l-129 -147h-87l84 147h132z" />
    <glyph glyph-name="Ccircumflex" unicode="&#x108;" horiz-adv-x="696" 
d="M664 701l-53 -90q-38 24 -82.5 37.5t-93.5 13.5q-65 0 -118.5 -23.5t-91.5 -63t-59 -91.5t-21 -109q0 -58 21 -111t59 -93t91.5 -63.5t118.5 -23.5q46 0 89.5 13t86.5 38l53 -90q-59 -37 -115 -53t-117 -16q-90 0 -165 31.5t-128.5 85t-83 126.5t-29.5 155t29.5 154.5
t83 126t128.5 84.5t165 31q61 0 116.5 -16t115.5 -53zM488 807l-75 91l-74 -91h-95l111 147h117l111 -147h-95z" />
    <glyph glyph-name="ccircumflex" unicode="&#x109;" horiz-adv-x="363" 
d="M313 98l39 -74q-22 -16 -53.5 -26t-66.5 -10q-45 0 -83.5 14.5t-66.5 40t-44 60.5t-16 76t16 76t44 60.5t66.5 40t83.5 14.5q35 0 66.5 -9.5t53.5 -25.5l-39 -75h-4q-15 11 -34 15.5t-38 4.5q-45 0 -74.5 -29t-29.5 -72t29.5 -72t74.5 -29q19 0 38 4.5t34 15.5h4z
M299 423l-75 91l-74 -91h-95l111 147h117l111 -147h-95z" />
    <glyph glyph-name="Cdotaccent" unicode="&#x10a;" horiz-adv-x="696" 
d="M664 701l-53 -90q-38 24 -82.5 37.5t-93.5 13.5q-65 0 -118.5 -23.5t-91.5 -63t-59 -91.5t-21 -109q0 -58 21 -111t59 -93t91.5 -63.5t118.5 -23.5q46 0 89.5 13t86.5 38l53 -90q-59 -37 -115 -53t-117 -16q-90 0 -165 31.5t-128.5 85t-83 126.5t-29.5 155t29.5 154.5
t83 126t128.5 84.5t165 31q61 0 116.5 -16t115.5 -53zM467 906v-99h-108v99h108z" />
    <glyph glyph-name="cdotaccent" unicode="&#x10b;" horiz-adv-x="363" 
d="M313 98l39 -74q-22 -16 -53.5 -26t-66.5 -10q-45 0 -83.5 14.5t-66.5 40t-44 60.5t-16 76t16 76t44 60.5t66.5 40t83.5 14.5q35 0 66.5 -9.5t53.5 -25.5l-39 -75h-4q-15 11 -34 15.5t-38 4.5q-45 0 -74.5 -29t-29.5 -72t29.5 -72t74.5 -29q19 0 38 4.5t34 15.5h4z
M278 525v-100h-108v100h108z" />
    <glyph glyph-name="Ccaron" unicode="&#x10c;" horiz-adv-x="696" 
d="M664 701l-53 -90q-38 24 -82.5 37.5t-93.5 13.5q-65 0 -118.5 -23.5t-91.5 -63t-59 -91.5t-21 -109q0 -58 21 -111t59 -93t91.5 -63.5t118.5 -23.5q46 0 89.5 13t86.5 38l53 -90q-59 -37 -115 -53t-117 -16q-90 0 -165 31.5t-128.5 85t-83 126.5t-29.5 155t29.5 154.5
t83 126t128.5 84.5t165 31q61 0 116.5 -16t115.5 -53zM473 807h-117l-111 147h94l74 -91l75 91h96z" />
    <glyph glyph-name="ccaron" unicode="&#x10d;" horiz-adv-x="363" 
d="M313 98l39 -74q-22 -16 -53.5 -26t-66.5 -10q-45 0 -83.5 14.5t-66.5 40t-44 60.5t-16 76t16 76t44 60.5t66.5 40t83.5 14.5q35 0 66.5 -9.5t53.5 -25.5l-39 -75h-4q-15 11 -34 15.5t-38 4.5q-45 0 -74.5 -29t-29.5 -72t29.5 -72t74.5 -29q19 0 38 4.5t34 15.5h4z
M284 423h-117l-111 147h94l74 -91l75 91h96z" />
    <glyph glyph-name="Dcaron" unicode="&#x10e;" horiz-adv-x="657" 
d="M50 0v746h196q74 0 143 -24t121.5 -71t84.5 -116.5t32 -160.5q0 -92 -31.5 -162t-84 -117t-121.5 -71t-143 -24h-197zM168 640v-534h79q51 0 98.5 17t83.5 51t57.5 84t21.5 116q0 65 -21.5 115t-57.5 83.5t-83.5 50.5t-98.5 17h-79zM357 807h-117l-111 147h94l74 -91
l75 91h96z" />
    <glyph glyph-name="dcaron" unicode="&#x10f;" horiz-adv-x="477" 
d="M334 178q0 43 -29 72t-72 29t-71 -28.5t-28 -71.5q0 -42 28 -71t71 -29t72 28.5t29 70.5zM339 0v52q-24 -29 -59.5 -46.5t-80.5 -17.5q-74 0 -124.5 54.5t-50.5 135.5q0 40 13.5 75t37 61t55.5 41t69 15q41 0 75.5 -16.5t58.5 -44.5v471h105v-780h-99zM579 780l-48 -167
h-62l17 167h93z" />
    <glyph glyph-name="Dcroat" unicode="&#x110;" horiz-adv-x="666" 
d="M255 0h-196v334h-50v93h50v319h196q74 0 143 -24t121.5 -71t84.5 -116.5t32 -160.5q0 -92 -31.5 -162t-84 -117t-122 -71t-143.5 -24zM177 106h79q51 0 98.5 17t83.5 51t57.5 84t21.5 116q0 65 -21.5 115t-57.5 83.5t-83.5 50.5t-98.5 17h-79v-213h133v-93h-133v-228z
" />
    <glyph glyph-name="dcroat" unicode="&#x111;" horiz-adv-x="477" 
d="M334 178q0 42 -29 71.5t-72 29.5t-71 -29.5t-28 -70.5q0 -40 28 -70t71 -30t72 29.5t29 69.5zM339 0v52q-24 -29 -59.5 -46.5t-80.5 -17.5q-74 0 -124.5 54.5t-50.5 135.5q0 40 13.5 75t37 61t55.5 41t69 15q41 0 75.5 -16.5t58.5 -44.5v228h-65v68h65v175h105v-175h56
v-68h-56v-537h-99z" />
    <glyph glyph-name="Emacron" unicode="&#x112;" horiz-adv-x="490" 
d="M50 0v746h391v-103h-273v-203h251v-99h-251v-238h281v-103h-399zM395 890v-83h-280v83h280z" />
    <glyph glyph-name="emacron" unicode="&#x113;" horiz-adv-x="443" 
d="M224 289q-34 0 -56 -18.5t-30 -51.5h172q-8 33 -30 51.5t-56 18.5zM418 45q-31 -26 -77.5 -44t-100.5 -18q-102 0 -160 55.5t-58 140.5t56.5 140.5t146.5 55.5q42 0 78.5 -15t63 -41t42 -62t15.5 -78v-30h-289q7 -40 34 -61t73 -21q37 0 67.5 12t55.5 31zM355 506v-83
h-260v83h260z" />
    <glyph glyph-name="Ebreve" unicode="&#x114;" horiz-adv-x="490" 
d="M50 0v746h391v-103h-273v-203h251v-99h-251v-238h281v-103h-399zM413 951q-15 -66 -55.5 -107.5t-102.5 -41.5t-102.5 41.5t-55.5 107.5l72 3q15 -40 38.5 -60.5t47.5 -20.5t47.5 20.5t38.5 60.5z" />
    <glyph glyph-name="ebreve" unicode="&#x115;" horiz-adv-x="443" 
d="M224 289q-34 0 -56 -18.5t-30 -51.5h172q-8 33 -30 51.5t-56 18.5zM418 45q-31 -26 -77.5 -44t-100.5 -18q-102 0 -160 55.5t-58 140.5t56.5 140.5t146.5 55.5q42 0 78.5 -15t63 -41t42 -62t15.5 -78v-30h-289q7 -40 34 -61t73 -21q37 0 67.5 12t55.5 31zM383 567
q-15 -66 -55.5 -107.5t-102.5 -41.5t-102.5 41.5t-55.5 107.5l72 3q15 -40 38.5 -60.5t47.5 -20.5t47.5 20.5t38.5 60.5z" />
    <glyph glyph-name="Edotaccent" unicode="&#x116;" horiz-adv-x="490" 
d="M50 0v746h391v-103h-273v-203h251v-99h-251v-238h281v-103h-399zM309 906v-99h-108v99h108z" />
    <glyph glyph-name="edotaccent" unicode="&#x117;" horiz-adv-x="443" 
d="M224 289q-34 0 -56 -18.5t-30 -51.5h172q-8 33 -30 51.5t-56 18.5zM418 45q-31 -26 -77.5 -44t-100.5 -18q-102 0 -160 55.5t-58 140.5t56.5 140.5t146.5 55.5q42 0 78.5 -15t63 -41t42 -62t15.5 -78v-30h-289q7 -40 34 -61t73 -21q37 0 67.5 12t55.5 31zM279 525v-100
h-108v100h108z" />
    <glyph glyph-name="Eogonek" unicode="&#x118;" horiz-adv-x="490" 
d="M462 -144q-13 -13 -38.5 -24.5t-59.5 -11.5q-49 0 -71.5 24t-22.5 52t16.5 49t40.5 39l22 16h-299v746h391v-103h-273v-203h251v-99h-251v-238h281v-103l-49 -35q-20 -15 -30.5 -26.5t-10.5 -24.5q0 -11 8.5 -20t22.5 -9q12 0 21.5 4.5t15.5 10.5z" />
    <glyph glyph-name="eogonek" unicode="&#x119;" horiz-adv-x="432" 
d="M224 289q-34 0 -56 -18.5t-30 -51.5h172q-8 33 -30 51.5t-56 18.5zM430 -128q-13 -11 -37 -20.5t-54 -9.5q-44 0 -64.5 20.5t-20.5 45.5q0 24 12.5 43.5t28.5 36.5q-13 -2 -27 -3.5t-28 -1.5q-102 0 -160 55.5t-58 140.5t56.5 140.5t146.5 55.5q42 0 78.5 -15t63 -41
t42 -62t15.5 -78v-30h-289q7 -40 34 -61t73 -21q37 0 67.5 12t55.5 31l53 -65l-41 -48q-17 -21 -27 -39t-10 -32q0 -13 7.5 -20t20.5 -7q8 0 16.5 3.5t14.5 7.5z" />
    <glyph glyph-name="Ecaron" unicode="&#x11a;" horiz-adv-x="490" 
d="M50 0v746h391v-103h-273v-203h251v-99h-251v-238h281v-103h-399zM314 807h-117l-111 147h94l74 -91l75 91h96z" />
    <glyph glyph-name="ecaron" unicode="&#x11b;" horiz-adv-x="443" 
d="M224 289q-34 0 -56 -18.5t-30 -51.5h172q-8 33 -30 51.5t-56 18.5zM418 45q-31 -26 -77.5 -44t-100.5 -18q-102 0 -160 55.5t-58 140.5t56.5 140.5t146.5 55.5q42 0 78.5 -15t63 -41t42 -62t15.5 -78v-30h-289q7 -40 34 -61t73 -21q37 0 67.5 12t55.5 31zM285 423h-117
l-111 147h94l74 -91l75 91h96z" />
    <glyph glyph-name="Gcircumflex" unicode="&#x11c;" horiz-adv-x="839" 
d="M814 373q0 -82 -29.5 -154.5t-80.5 -126.5t-120 -85t-148 -31q-86 0 -161 31.5t-130 85t-87 126.5t-32 155t32 154.5t87 126t130 84.5t161 31q81 0 154.5 -28.5t124.5 -75.5l-78 -83q-42 38 -93 58.5t-108 20.5q-60 0 -113.5 -23.5t-92.5 -62.5t-62 -91.5t-23 -109.5
q0 -59 23 -112t62 -92.5t92.5 -63t113.5 -23.5q49 0 92.5 18t77 49t56.5 73t30 89h-235l44 102h313v-42zM510 807l-75 91l-74 -91h-95l111 147h117l111 -147h-95z" />
    <glyph glyph-name="gcircumflex" unicode="&#x11d;" horiz-adv-x="475" 
d="M236 79q40 0 70 29t30 71q0 43 -30 71.5t-70 28.5q-44 0 -73 -28.5t-29 -71.5t29 -71.5t73 -28.5zM229 -200q-29 0 -59.5 3t-62.5 9v94q35 -7 63.5 -10.5t55.5 -3.5q46 0 75.5 20.5t29.5 78.5v51q-23 -25 -54.5 -39.5t-68.5 -14.5q-35 0 -68.5 13.5t-59 38t-41 59.5
t-15.5 79t15.5 79.5t40.5 60.5t58.5 38.5t69.5 13.5q37 0 69.5 -15.5t56.5 -40.5v44h102v-364q0 -102 -51.5 -148t-155.5 -46zM314 423l-75 91l-74 -91h-95l111 147h117l111 -147h-95z" />
    <glyph glyph-name="Gbreve" unicode="&#x11e;" horiz-adv-x="839" 
d="M814 373q0 -82 -29.5 -154.5t-80.5 -126.5t-120 -85t-148 -31q-86 0 -161 31.5t-130 85t-87 126.5t-32 155t32 154.5t87 126t130 84.5t161 31q81 0 154.5 -28.5t124.5 -75.5l-78 -83q-42 38 -93 58.5t-108 20.5q-60 0 -113.5 -23.5t-92.5 -62.5t-62 -91.5t-23 -109.5
q0 -59 23 -112t62 -92.5t92.5 -63t113.5 -23.5q49 0 92.5 18t77 49t56.5 73t30 89h-235l44 102h313v-42zM594 951q-15 -66 -55.5 -107.5t-102.5 -41.5t-102.5 41.5t-55.5 107.5l72 3q15 -40 38.5 -60.5t47.5 -20.5t47.5 20.5t38.5 60.5z" />
    <glyph glyph-name="gbreve" unicode="&#x11f;" horiz-adv-x="475" 
d="M236 79q40 0 70 29t30 71q0 43 -30 71.5t-70 28.5q-44 0 -73 -28.5t-29 -71.5t29 -71.5t73 -28.5zM229 -200q-29 0 -59.5 3t-62.5 9v94q35 -7 63.5 -10.5t55.5 -3.5q46 0 75.5 20.5t29.5 78.5v51q-23 -25 -54.5 -39.5t-68.5 -14.5q-35 0 -68.5 13.5t-59 38t-41 59.5
t-15.5 79t15.5 79.5t40.5 60.5t58.5 38.5t69.5 13.5q37 0 69.5 -15.5t56.5 -40.5v44h102v-364q0 -102 -51.5 -148t-155.5 -46zM398 567q-15 -66 -55.5 -107.5t-102.5 -41.5t-102.5 41.5t-55.5 107.5l72 3q15 -40 38.5 -60.5t47.5 -20.5t47.5 20.5t38.5 60.5z" />
    <glyph glyph-name="Gdotaccent" unicode="&#x120;" horiz-adv-x="839" 
d="M814 373q0 -82 -29.5 -154.5t-80.5 -126.5t-120 -85t-148 -31q-86 0 -161 31.5t-130 85t-87 126.5t-32 155t32 154.5t87 126t130 84.5t161 31q81 0 154.5 -28.5t124.5 -75.5l-78 -83q-42 38 -93 58.5t-108 20.5q-60 0 -113.5 -23.5t-92.5 -62.5t-62 -91.5t-23 -109.5
q0 -59 23 -112t62 -92.5t92.5 -63t113.5 -23.5q49 0 92.5 18t77 49t56.5 73t30 89h-235l44 102h313v-42zM490 906v-99h-108v99h108z" />
    <glyph glyph-name="gdotaccent" unicode="&#x121;" horiz-adv-x="475" 
d="M236 79q40 0 70 29t30 71q0 43 -30 71.5t-70 28.5q-44 0 -73 -28.5t-29 -71.5t29 -71.5t73 -28.5zM229 -200q-29 0 -59.5 3t-62.5 9v94q35 -7 63.5 -10.5t55.5 -3.5q46 0 75.5 20.5t29.5 78.5v51q-23 -25 -54.5 -39.5t-68.5 -14.5q-35 0 -68.5 13.5t-59 38t-41 59.5
t-15.5 79t15.5 79.5t40.5 60.5t58.5 38.5t69.5 13.5q37 0 69.5 -15.5t56.5 -40.5v44h102v-364q0 -102 -51.5 -148t-155.5 -46zM294 525v-100h-108v100h108z" />
    <glyph glyph-name="Gcommaaccent" unicode="&#x122;" horiz-adv-x="839" 
d="M814 373q0 -82 -29.5 -154.5t-80.5 -126.5t-120 -85t-148 -31q-86 0 -161 31.5t-130 85t-87 126.5t-32 155t32 154.5t87 126t130 84.5t161 31q81 0 154.5 -28.5t124.5 -75.5l-78 -83q-42 38 -93 58.5t-108 20.5q-60 0 -113.5 -23.5t-92.5 -62.5t-62 -91.5t-23 -109.5
q0 -59 23 -112t62 -92.5t92.5 -63t113.5 -23.5q49 0 92.5 18t77 49t56.5 73t30 89h-235l44 102h313v-42zM487 -70l-59 -165h-79l24 165h114z" />
    <glyph glyph-name="gcommaaccent" unicode="&#x123;" horiz-adv-x="475" 
d="M236 79q40 0 70 29t30 71q0 43 -30 71.5t-70 28.5q-44 0 -73 -28.5t-29 -71.5t29 -71.5t73 -28.5zM229 -200q-29 0 -59.5 3t-62.5 9v94q35 -7 63.5 -10.5t55.5 -3.5q46 0 75.5 20.5t29.5 78.5v51q-23 -25 -54.5 -39.5t-68.5 -14.5q-35 0 -68.5 13.5t-59 38t-41 59.5
t-15.5 79t15.5 79.5t40.5 60.5t58.5 38.5t69.5 13.5q37 0 69.5 -15.5t56.5 -40.5v44h102v-364q0 -102 -51.5 -148t-155.5 -46z" />
    <glyph glyph-name="Hcircumflex" unicode="&#x124;" horiz-adv-x="671" 
d="M50 0v746h118v-296h335v296h118v-746h-118v345h-335v-345h-118zM410 807l-75 91l-74 -91h-95l111 147h117l111 -147h-95z" />
    <glyph glyph-name="hcircumflex" unicode="&#x125;" horiz-adv-x="421" 
d="M144 208v-208h-105v780h105v-462q16 19 44.5 34t67.5 15q54 0 91 -35.5t37 -96.5v-235h-105v202q0 39 -19.5 55.5t-47.5 16.5q-24 0 -46 -17.5t-22 -48.5zM166 840l-75 91l-74 -91h-95l111 147h117l111 -147h-95z" />
    <glyph glyph-name="Hbar" unicode="&#x126;" horiz-adv-x="702" 
d="M172 450h358v98h-358v-98zM172 345v-345h-118v548h-47v87h47v111h118v-111h358v111h118v-111h47v-87h-47v-548h-118v345h-358z" />
    <glyph glyph-name="hbar" unicode="&#x127;" horiz-adv-x="421" 
d="M144 208v-208h-105v537h-43v68h43v175h105v-175h78v-68h-78v-219q16 19 44.5 34t67.5 15q54 0 91 -35.5t37 -96.5v-235h-105v202q0 39 -19.5 55.5t-47.5 16.5q-24 0 -46 -17.5t-22 -48.5z" />
    <glyph glyph-name="Itilde" unicode="&#x128;" horiz-adv-x="222" 
d="M52 0v746h118v-746h-118zM-11 807l-86 2q-4 42 4 71t24 46t37.5 24.5t44.5 7.5t48.5 -10t49 -22t45 -22t36.5 -10q16 0 29 12.5t12 50.5l86 -2q7 -76 -25.5 -111t-83.5 -35q-24 0 -49.5 10t-49 21.5t-45 21.5t-36.5 10q-16 0 -29.5 -12.5t-11.5 -52.5z" />
    <glyph glyph-name="itilde" unicode="&#x129;" horiz-adv-x="187" 
d="M146 358v-358h-105v358h105zM10 422l-79 3q-3 72 23 100.5t66 28.5q18 0 36 -7.5t35 -16l32 -16t25 -7.5q13 0 22 8.5t9 36.5l78 -2q3 -62 -20 -93t-66 -31q-18 0 -36.5 7t-36 15.5t-32.5 15.5t-26 7q-12 0 -21.5 -9.5t-8.5 -39.5z" />
    <glyph glyph-name="Imacron" unicode="&#x12a;" horiz-adv-x="222" 
d="M52 0v746h118v-746h-118zM251 890v-83h-280v83h280z" />
    <glyph glyph-name="imacron" unicode="&#x12b;" horiz-adv-x="187" 
d="M146 358v-358h-105v358h105zM224 506v-83h-260v83h260z" />
    <glyph glyph-name="Ibreve" unicode="&#x12c;" horiz-adv-x="222" 
d="M52 0v746h118v-746h-118zM269 951q-15 -66 -55.5 -107.5t-102.5 -41.5t-102.5 41.5t-55.5 107.5l72 3q15 -40 38.5 -60.5t47.5 -20.5t47.5 20.5t38.5 60.5z" />
    <glyph glyph-name="ibreve" unicode="&#x12d;" horiz-adv-x="187" 
d="M146 358v-358h-105v358h105zM252 567q-15 -66 -55.5 -107.5t-102.5 -41.5t-102.5 41.5t-55.5 107.5l72 3q15 -40 38.5 -60.5t47.5 -20.5t47.5 20.5t38.5 60.5z" />
    <glyph glyph-name="Iogonek" unicode="&#x12e;" horiz-adv-x="222" 
d="M85 -180q-49 0 -72 24.5t-23 54.5q0 31 16 52.5t41 40.5l5 4v750h118v-746l-49 -35q-21 -15 -31 -26.5t-10 -24.5q0 -11 8.5 -20t22.5 -9q12 0 21 4.5t16 10.5l35 -44q-13 -13 -38.5 -24.5t-59.5 -11.5z" />
    <glyph glyph-name="iogonek" unicode="&#x12f;" horiz-adv-x="187" 
d="M148 525v-100h-109v100h109zM67 -158q-43 0 -63.5 20t-20.5 45t15.5 47.5t35.5 38.5l7 6v359h105v-358l-43 -34q-16 -13 -25 -23t-9 -22q0 -8 7.5 -15t20.5 -7q8 0 16.5 3.5t14.5 7.5l31 -38q-13 -11 -37 -20.5t-55 -9.5z" />
    <glyph glyph-name="Idotaccent" unicode="&#x130;" horiz-adv-x="222" 
d="M52 0v746h118v-746h-118zM165 906v-99h-108v99h108z" />
    <glyph glyph-name="dotlessi" unicode="&#x131;" horiz-adv-x="187" 
d="M146 358v-358h-105v358h105z" />
    <glyph glyph-name="IJ" unicode="&#x132;" horiz-adv-x="553" 
d="M52 0v746h118v-746h-118zM228 0v109q16 -7 33.5 -11.5t35.5 -4.5t34.5 6t28 22t18.5 46t7 78v501h118v-534q0 -118 -44.5 -172.5t-148.5 -54.5q-23 0 -43 3.5t-39 11.5z" />
    <glyph glyph-name="ij" unicode="&#x133;" horiz-adv-x="395" 
d="M148 525v-100h-109v100h109zM146 358v-358h-105v358h105zM349 525v-100h-109v100h109zM176 -107h13q22 0 37.5 15t15.5 42v408h105v-405q0 -81 -36 -117t-125 -36h-10v93z" />
    <glyph glyph-name="Jcircumflex" unicode="&#x134;" horiz-adv-x="332" 
d="M6 0v109q16 -7 33.5 -11.5t35.5 -4.5t34.5 6t28 22t18.5 46t7 78v501h118v-534q0 -118 -44.5 -172.5t-148.5 -54.5q-23 0 -43 3.5t-39 11.5zM296 807l-75 91l-74 -91h-95l111 147h117l111 -147h-95z" />
    <glyph glyph-name="jcircumflex" unicode="&#x135;" horiz-adv-x="187" 
d="M-25 -107h13q22 0 37.5 15t15.5 42v408h105v-405q0 -81 -36.5 -117t-124.5 -36h-10v93zM175 423l-75 91l-74 -91h-95l111 147h117l111 -147h-95z" />
    <glyph glyph-name="Kcommaaccent" unicode="&#x136;" horiz-adv-x="645" 
d="M492 0l-266 337l-58 -67v-270h-118v746h118v-313l272 313h145l-281 -322l335 -424h-147zM370 -57l-59 -165h-79l24 165h114z" />
    <glyph glyph-name="kcommaaccent" unicode="&#x137;" horiz-adv-x="409" 
d="M270 0l-91 148l-35 -38v-110h-105v780h105v-541l112 119h134l-135 -141l143 -217h-128zM264 -57l-59 -165h-79l24 165h114z" />
    <glyph glyph-name="kgreenlandic" unicode="&#x138;" horiz-adv-x="409" 
d="M270 0l-91 148l-35 -38v-110h-105v358h105v-119l112 119h134l-135 -141l143 -217h-128z" />
    <glyph glyph-name="Lacute" unicode="&#x139;" horiz-adv-x="449" 
d="M50 746h118v-640h269v-106h-387v746zM278 954l-129 -147h-87l84 147h132z" />
    <glyph glyph-name="lacute" unicode="&#x13a;" horiz-adv-x="187" 
d="M146 780v-780h-105v780h105zM263 987l-129 -147h-87l84 147h132z" />
    <glyph glyph-name="Lcommaaccent" unicode="&#x13b;" horiz-adv-x="449" 
d="M50 746h118v-640h269v-106h-387v746zM322 -57l-59 -165h-79l24 165h114z" />
    <glyph glyph-name="lcommaaccent" unicode="&#x13c;" horiz-adv-x="187" 
d="M146 780v-780h-105v780h105zM150 -57l-59 -165h-79l24 165h114z" />
    <glyph glyph-name="Lcaron" unicode="&#x13d;" horiz-adv-x="449" 
d="M50 746h118v-640h269v-106h-387v746zM384 780l-48 -167h-62l17 167h93z" />
    <glyph glyph-name="lcaron" unicode="&#x13e;" horiz-adv-x="187" 
d="M146 780v-780h-105v780h105zM289 780l-48 -167h-62l17 167h93z" />
    <glyph glyph-name="Ldot" unicode="&#x13f;" horiz-adv-x="449" 
d="M50 746h118v-640h269v-106h-387v746zM368 455v-99h-108v99h108z" />
    <glyph glyph-name="ldot" unicode="&#x140;" horiz-adv-x="258" 
d="M146 780v-780h-105v780h105zM277 486v-100h-108v100h108z" />
    <glyph glyph-name="Lslash" unicode="&#x141;" horiz-adv-x="454" 
d="M437 0h-387v301l-46 -23l-1 96l47 24v348h118v-289l173 86v-96l-173 -87v-254h269v-106z" />
    <glyph glyph-name="lslash" unicode="&#x142;" horiz-adv-x="196" 
d="M150 0h-105v356l-41 -22v82l41 22v342h105v-286l60 32v-81l-60 -32v-413z" />
    <glyph glyph-name="Nacute" unicode="&#x143;" horiz-adv-x="727" 
d="M563 0l-395 552v-552h-118v746h120l389 -545v545h118v-746h-114zM525 954l-129 -147h-87l84 147h132z" />
    <glyph glyph-name="nacute" unicode="&#x144;" horiz-adv-x="421" 
d="M144 209v-209h-105v358h99v-45q16 19 46 36.5t72 17.5q54 0 91 -35.5t37 -96.5v-235h-105v202q0 39 -19.5 55.5t-47.5 16.5q-24 0 -46 -17t-22 -48zM378 570l-129 -147h-87l84 147h132z" />
    <glyph glyph-name="Ncommaaccent" unicode="&#x145;" horiz-adv-x="727" 
d="M563 0l-395 552v-552h-118v746h120l389 -545v545h118v-746h-114zM412 -57l-59 -165h-79l24 165h114z" />
    <glyph glyph-name="ncommaaccent" unicode="&#x146;" horiz-adv-x="421" 
d="M144 209v-209h-105v358h99v-45q16 19 46 36.5t72 17.5q54 0 91 -35.5t37 -96.5v-235h-105v202q0 39 -19.5 55.5t-47.5 16.5q-24 0 -46 -17t-22 -48zM269 -57l-59 -165h-79l24 165h114z" />
    <glyph glyph-name="Ncaron" unicode="&#x147;" horiz-adv-x="727" 
d="M563 0l-395 552v-552h-118v746h120l389 -545v545h118v-746h-114zM415 807h-117l-111 147h94l74 -91l75 91h96z" />
    <glyph glyph-name="ncaron" unicode="&#x148;" horiz-adv-x="421" 
d="M144 209v-209h-105v358h99v-45q16 19 46 36.5t72 17.5q54 0 91 -35.5t37 -96.5v-235h-105v202q0 39 -19.5 55.5t-47.5 16.5q-24 0 -46 -17t-22 -48zM268 423h-117l-111 147h94l74 -91l75 91h96z" />
    <glyph glyph-name="Eng" unicode="&#x14a;" horiz-adv-x="727" 
d="M473 -226h-18v97h16q43 0 67.5 34t24.5 94l-395 553v-552h-118v746h120l389 -545v545h118v-747q0 -118 -53.5 -171.5t-150.5 -53.5z" />
    <glyph glyph-name="eng" unicode="&#x14b;" horiz-adv-x="421" 
d="M224 -200h-10v93h12q22 0 37.5 15t15.5 42v252q0 39 -19.5 55.5t-47.5 16.5q-24 0 -46 -17t-22 -48v-209h-105v358h99v-45q16 19 46 36.5t72 17.5q54 0 91 -35.5t37 -96.5v-282q0 -81 -36 -117t-124 -36z" />
    <glyph glyph-name="Omacron" unicode="&#x14c;" horiz-adv-x="870" 
d="M436 770q85 0 160 -31t130 -84.5t87 -126t32 -154.5t-32 -155t-87 -126.5t-130 -85t-160 -31.5q-86 0 -161 31.5t-130 85t-87 126.5t-32 155t32 154.5t87 126t130 84.5t161 31zM436 662q-60 0 -113.5 -23.5t-92.5 -62.5t-62 -91.5t-23 -110.5q0 -59 23 -111.5t62 -92
t92.5 -63t113.5 -23.5t113 23.5t92 63t62 92t23 111.5q0 58 -23 110.5t-62 91.5t-92 62.5t-113 23.5zM576 890v-83h-280v83h280z" />
    <glyph glyph-name="omacron" unicode="&#x14d;" horiz-adv-x="465" 
d="M232 375q45 0 84 -15t67 -41.5t44 -62.5t16 -77t-16 -77t-44 -62.5t-67 -41.5t-84 -15t-83.5 15t-66.5 41.5t-44 62.5t-16 77t16 77t44 62.5t66.5 41.5t83.5 15zM232 285q-43 0 -72 -31t-29 -75q0 -45 29 -75.5t72 -30.5t72.5 31t29.5 75t-29.5 75t-72.5 31zM362 506v-83
h-260v83h260z" />
    <glyph glyph-name="Obreve" unicode="&#x14e;" horiz-adv-x="870" 
d="M436 770q85 0 160 -31t130 -84.5t87 -126t32 -154.5t-32 -155t-87 -126.5t-130 -85t-160 -31.5q-86 0 -161 31.5t-130 85t-87 126.5t-32 155t32 154.5t87 126t130 84.5t161 31zM436 662q-60 0 -113.5 -23.5t-92.5 -62.5t-62 -91.5t-23 -110.5q0 -59 23 -111.5t62 -92
t92.5 -63t113.5 -23.5t113 23.5t92 63t62 92t23 111.5q0 58 -23 110.5t-62 91.5t-92 62.5t-113 23.5zM594 951q-15 -66 -55.5 -107.5t-102.5 -41.5t-102.5 41.5t-55.5 107.5l72 3q15 -40 38.5 -60.5t47.5 -20.5t47.5 20.5t38.5 60.5z" />
    <glyph glyph-name="obreve" unicode="&#x14f;" horiz-adv-x="465" 
d="M232 375q45 0 84 -15t67 -41.5t44 -62.5t16 -77t-16 -77t-44 -62.5t-67 -41.5t-84 -15t-83.5 15t-66.5 41.5t-44 62.5t-16 77t16 77t44 62.5t66.5 41.5t83.5 15zM232 285q-43 0 -72 -31t-29 -75q0 -45 29 -75.5t72 -30.5t72.5 31t29.5 75t-29.5 75t-72.5 31zM390 567
q-15 -66 -55.5 -107.5t-102.5 -41.5t-102.5 41.5t-55.5 107.5l72 3q15 -40 38.5 -60.5t47.5 -20.5t47.5 20.5t38.5 60.5z" />
    <glyph glyph-name="Ohungarumlaut" unicode="&#x150;" horiz-adv-x="870" 
d="M436 770q85 0 160 -31t130 -84.5t87 -126t32 -154.5t-32 -155t-87 -126.5t-130 -85t-160 -31.5q-86 0 -161 31.5t-130 85t-87 126.5t-32 155t32 154.5t87 126t130 84.5t161 31zM436 662q-60 0 -113.5 -23.5t-92.5 -62.5t-62 -91.5t-23 -110.5q0 -59 23 -111.5t62 -92
t92.5 -63t113.5 -23.5t113 23.5t92 63t62 92t23 111.5q0 58 -23 110.5t-62 91.5t-92 62.5t-113 23.5zM573 954h121l-132 -147h-81zM390 954h121l-133 -147h-82z" />
    <glyph glyph-name="ohungarumlaut" unicode="&#x151;" horiz-adv-x="465" 
d="M232 375q45 0 84 -15t67 -41.5t44 -62.5t16 -77t-16 -77t-44 -62.5t-67 -41.5t-84 -15t-83.5 15t-66.5 41.5t-44 62.5t-16 77t16 77t44 62.5t66.5 41.5t83.5 15zM232 285q-43 0 -72 -31t-29 -75q0 -45 29 -75.5t72 -30.5t72.5 31t29.5 75t-29.5 75t-72.5 31zM360 570h122
l-133 -147h-81zM196 570h121l-132 -147h-82z" />
    <glyph glyph-name="OE" unicode="&#x152;" horiz-adv-x="952" 
d="M445 106h65v534h-65q-58 0 -112 -17t-95 -50.5t-65.5 -83.5t-24.5 -115q0 -66 24.5 -116t65.5 -84t95 -51t112 -17zM445 0q-81 0 -156.5 24t-133 71t-92 117t-34.5 162q0 91 35 160.5t92.5 116.5t133 71t156.5 24h453v-103h-273v-203h260v-99h-260v-238h281v-103h-462z
" />
    <glyph glyph-name="oe" unicode="&#x153;" horiz-adv-x="755" 
d="M536 289q-34 0 -56 -18.5t-30 -51.5h172q-8 33 -30 51.5t-56 18.5zM232 285q-43 0 -72 -31t-29 -75q0 -45 29 -75.5t72 -30.5t72.5 31t29.5 75t-29.5 75t-72.5 31zM730 45q-31 -26 -77.5 -44t-100.5 -18t-96 16.5t-70 44.5q-28 -28 -68 -44.5t-86 -16.5q-45 0 -83.5 15
t-66.5 41.5t-44 62.5t-16 77t16 77t44 62.5t66.5 41.5t83.5 15q46 0 86 -16t68 -44q27 28 65.5 44t85.5 16q42 0 78.5 -15t63 -41t42 -62t15.5 -78v-30h-289q7 -40 34 -61t73 -21q37 0 67.5 12t55.5 31z" />
    <glyph glyph-name="Racute" unicode="&#x154;" horiz-adv-x="580" 
d="M231 640h-63v-250h62q65 0 105 35.5t40 92.5q0 50 -35.5 86t-108.5 36zM423 0l-247 291h-8v-291h-118v746h180q118 0 190.5 -57.5t72.5 -169.5q0 -84 -52.5 -139.5t-127.5 -76.5l254 -303h-144zM422 954l-129 -147h-87l84 147h132z" />
    <glyph glyph-name="racute" unicode="&#x155;" horiz-adv-x="282" 
d="M144 180v-180h-105v358h100v-78q4 10 13.5 24t22.5 26.5t30 21t37 8.5h12v-120q-3 1 -9 2t-11 1q-41 0 -65.5 -21.5t-24.5 -41.5zM332 570l-129 -147h-87l84 147h132z" />
    <glyph glyph-name="Rcommaaccent" unicode="&#x156;" horiz-adv-x="580" 
d="M231 640h-63v-250h62q65 0 105 35.5t40 92.5q0 50 -35.5 86t-108.5 36zM423 0l-247 291h-8v-291h-118v746h180q118 0 190.5 -57.5t72.5 -169.5q0 -84 -52.5 -139.5t-127.5 -76.5l254 -303h-144zM334 -57l-59 -165h-79l24 165h114z" />
    <glyph glyph-name="rcommaaccent" unicode="&#x157;" horiz-adv-x="282" 
d="M144 180v-180h-105v358h100v-78q4 10 13.5 24t22.5 26.5t30 21t37 8.5h12v-120q-3 1 -9 2t-11 1q-41 0 -65.5 -21.5t-24.5 -41.5zM147 -57l-59 -165h-79l24 165h114z" />
    <glyph glyph-name="Rcaron" unicode="&#x158;" horiz-adv-x="580" 
d="M231 640h-63v-250h62q65 0 105 35.5t40 92.5q0 50 -35.5 86t-108.5 36zM423 0l-247 291h-8v-291h-118v746h180q118 0 190.5 -57.5t72.5 -169.5q0 -84 -52.5 -139.5t-127.5 -76.5l254 -303h-144zM313 807h-117l-111 147h94l74 -91l75 91h96z" />
    <glyph glyph-name="rcaron" unicode="&#x159;" horiz-adv-x="282" 
d="M144 180v-180h-105v358h100v-78q4 10 13.5 24t22.5 26.5t30 21t37 8.5h12v-120q-3 1 -9 2t-11 1q-41 0 -65.5 -21.5t-24.5 -41.5zM222 423h-117l-111 147h94l74 -91l75 91h96z" />
    <glyph glyph-name="Sacute" unicode="&#x15a;" horiz-adv-x="487" 
d="M434 711l-47 -94q-26 18 -58.5 31.5t-65.5 13.5q-56 0 -78.5 -25t-22.5 -51q0 -36 29.5 -68t93.5 -82q94 -75 133.5 -130.5t39.5 -112.5q0 -48 -18.5 -86.5t-50.5 -64.5t-76 -40t-94 -14q-48 0 -104.5 15.5t-99.5 42.5l47 95q35 -21 75 -37.5t85 -16.5q58 0 87 32t29 69
q0 38 -30.5 74t-100.5 90q-44 35 -75.5 64t-51.5 55.5t-29 53.5t-9 59q0 34 13 66t40 56.5t69.5 39.5t99.5 15q43 0 88 -14t82 -36zM433 954l-129 -147h-87l84 147h132z" />
    <glyph glyph-name="sacute" unicode="&#x15b;" horiz-adv-x="320" 
d="M168 370q32 0 58.5 -7.5t47.5 -15.5l-32 -78q-19 9 -36 13t-26 4q-16 0 -26 -6t-10 -16t12 -19.5t37 -25.5q57 -39 77 -64t20 -58q0 -45 -37 -76.5t-104 -32.5q-36 0 -69 8.5t-58 22.5l30 80q26 -13 44 -19.5t35 -6.5q24 1 35 8.5t11 17.5q0 7 -11 18t-48 36
q-53 34 -69 58.5t-16 55.5q0 37 31.5 70.5t103.5 32.5zM324 570l-129 -147h-87l84 147h132z" />
    <glyph glyph-name="Scircumflex" unicode="&#x15c;" horiz-adv-x="487" 
d="M434 711l-47 -94q-26 18 -58.5 31.5t-65.5 13.5q-56 0 -78.5 -25t-22.5 -51q0 -36 29.5 -68t93.5 -82q94 -75 133.5 -130.5t39.5 -112.5q0 -48 -18.5 -86.5t-50.5 -64.5t-76 -40t-94 -14q-48 0 -104.5 15.5t-99.5 42.5l47 95q35 -21 75 -37.5t85 -16.5q58 0 87 32t29 69
q0 38 -30.5 74t-100.5 90q-44 35 -75.5 64t-51.5 55.5t-29 53.5t-9 59q0 34 13 66t40 56.5t69.5 39.5t99.5 15q43 0 88 -14t82 -36zM339 807l-75 91l-74 -91h-95l111 147h117l111 -147h-95z" />
    <glyph glyph-name="scircumflex" unicode="&#x15d;" horiz-adv-x="320" 
d="M168 370q32 0 58.5 -7.5t47.5 -15.5l-32 -78q-19 9 -36 13t-26 4q-16 0 -26 -6t-10 -16t12 -19.5t37 -25.5q57 -39 77 -64t20 -58q0 -45 -37 -76.5t-104 -32.5q-36 0 -69 8.5t-58 22.5l30 80q26 -13 44 -19.5t35 -6.5q24 1 35 8.5t11 17.5q0 7 -11 18t-48 36
q-53 34 -69 58.5t-16 55.5q0 37 31.5 70.5t103.5 32.5zM230 423l-75 91l-74 -91h-95l111 147h117l111 -147h-95z" />
    <glyph glyph-name="Scedilla" unicode="&#x15e;" horiz-adv-x="487" 
d="M434 711l-47 -94q-26 18 -58.5 31.5t-65.5 13.5q-56 0 -78.5 -25t-22.5 -51q0 -36 29.5 -68t93.5 -82q94 -75 133.5 -130.5t39.5 -112.5q0 -48 -18.5 -86.5t-50.5 -64.5t-76 -40t-94 -14q-48 0 -104.5 15.5t-99.5 42.5l47 95q35 -21 75 -37.5t85 -16.5q58 0 87 32t29 69
q0 38 -30.5 74t-100.5 90q-44 35 -75.5 64t-51.5 55.5t-29 53.5t-9 59q0 34 13 66t40 56.5t69.5 39.5t99.5 15q43 0 88 -14t82 -36zM198 -211q-13 0 -34 3.5t-39 9.5v54h1q19 -6 37.5 -9t28.5 -3q25 0 40 9.5t15 24.5q0 14 -18.5 23t-47.5 9h-20l-3 8l29 80h61l-19 -42
q40 -7 63 -28.5t23 -52.5q0 -36 -33 -61t-84 -25z" />
    <glyph glyph-name="scedilla" unicode="&#x15f;" horiz-adv-x="320" 
d="M168 370q32 0 58.5 -7.5t47.5 -15.5l-32 -78q-19 9 -36 13t-26 4q-16 0 -26 -6t-10 -16t12 -19.5t37 -25.5q57 -39 77 -64t20 -58q0 -45 -37 -76.5t-104 -32.5q-36 0 -69 8.5t-58 22.5l30 80q26 -13 44 -19.5t35 -6.5q24 1 35 8.5t11 17.5q0 7 -11 18t-48 36
q-53 34 -69 58.5t-16 55.5q0 37 31.5 70.5t103.5 32.5zM139 -181q-13 0 -31.5 3t-34.5 8v53h1q16 -5 32 -7.5t25 -2.5q20 0 32 7t12 19t-15 19.5t-40 7.5h-16l-1 5l24 69l53 -3l-13 -27q35 -6 55.5 -25t20.5 -47q0 -35 -28 -57t-76 -22z" />
    <glyph glyph-name="Scaron" unicode="&#x160;" horiz-adv-x="487" 
d="M434 711l-47 -94q-26 18 -58.5 31.5t-65.5 13.5q-56 0 -78.5 -25t-22.5 -51q0 -36 29.5 -68t93.5 -82q94 -75 133.5 -130.5t39.5 -112.5q0 -48 -18.5 -86.5t-50.5 -64.5t-76 -40t-94 -14q-48 0 -104.5 15.5t-99.5 42.5l47 95q35 -21 75 -37.5t85 -16.5q58 0 87 32t29 69
q0 38 -30.5 74t-100.5 90q-44 35 -75.5 64t-51.5 55.5t-29 53.5t-9 59q0 34 13 66t40 56.5t69.5 39.5t99.5 15q43 0 88 -14t82 -36zM324 807h-117l-111 147h94l74 -91l75 91h96z" />
    <glyph glyph-name="scaron" unicode="&#x161;" horiz-adv-x="320" 
d="M168 370q32 0 58.5 -7.5t47.5 -15.5l-32 -78q-19 9 -36 13t-26 4q-16 0 -26 -6t-10 -16t12 -19.5t37 -25.5q57 -39 77 -64t20 -58q0 -45 -37 -76.5t-104 -32.5q-36 0 -69 8.5t-58 22.5l30 80q26 -13 44 -19.5t35 -6.5q24 1 35 8.5t11 17.5q0 7 -11 18t-48 36
q-53 34 -69 58.5t-16 55.5q0 37 31.5 70.5t103.5 32.5zM215 423h-117l-111 147h94l74 -91l75 91h96z" />
    <glyph glyph-name="Tcaron" unicode="&#x164;" horiz-adv-x="404" 
d="M143 0v641h-133v105h384v-105h-133v-641h-118zM262 807h-117l-111 147h94l74 -91l75 91h96z" />
    <glyph glyph-name="tcaron" unicode="&#x165;" horiz-adv-x="228" 
d="M208 270h-42v-270h-104v270h-42v88h42v199l104 49v-248h42v-88zM297 711l-48 -167h-62l17 167h93z" />
    <glyph glyph-name="Tbar" unicode="&#x166;" horiz-adv-x="404" 
d="M338 319h-77v-319h-118v319h-79v88h79v234h-133v105h384v-105h-133v-234h77v-88z" />
    <glyph glyph-name="tbar" unicode="&#x167;" horiz-adv-x="228" 
d="M212 142h-46v-142h-104v142h-41v63h41v65h-42v88h42v199l104 49v-248h42v-88h-42v-65h46v-63z" />
    <glyph glyph-name="Utilde" unicode="&#x168;" horiz-adv-x="669" 
d="M619 300q0 -150 -72.5 -237t-212.5 -87q-137 0 -210.5 87t-73.5 237v446h118v-476q0 -46 14 -81t37 -58.5t53 -35.5t62 -12q33 0 63 12t53 35.5t36.5 58.5t13.5 81v476h119v-446zM212 807l-86 2q-4 42 4 71t24 46t37.5 24.5t44.5 7.5t48.5 -10t49 -22t45 -22t36.5 -10
q16 0 29 12.5t12 50.5l86 -2q7 -76 -25.5 -111t-83.5 -35q-24 0 -49.5 10t-49 21.5t-45 21.5t-36.5 10q-16 0 -29.5 -12.5t-11.5 -52.5z" />
    <glyph glyph-name="utilde" unicode="&#x169;" horiz-adv-x="421" 
d="M283 0v45q-16 -19 -46 -36.5t-72 -17.5q-54 0 -91 35.5t-37 96.5v235h105v-202q0 -39 19.5 -55.5t47.5 -16.5q24 0 46 17t22 48v209h105v-358h-99zM125 422l-79 3q-3 72 23 100.5t66 28.5q18 0 36 -7.5t35 -16l32 -16t25 -7.5q13 0 22 8.5t9 36.5l78 -2q3 -62 -20 -93
t-66 -31q-18 0 -36.5 7t-36 15.5t-32.5 15.5t-26 7q-12 0 -21.5 -9.5t-8.5 -39.5z" />
    <glyph glyph-name="Umacron" unicode="&#x16a;" horiz-adv-x="669" 
d="M619 300q0 -150 -72.5 -237t-212.5 -87q-137 0 -210.5 87t-73.5 237v446h118v-476q0 -46 14 -81t37 -58.5t53 -35.5t62 -12q33 0 63 12t53 35.5t36.5 58.5t13.5 81v476h119v-446zM474 890v-83h-280v83h280z" />
    <glyph glyph-name="umacron" unicode="&#x16b;" horiz-adv-x="421" 
d="M283 0v45q-16 -19 -46 -36.5t-72 -17.5q-54 0 -91 35.5t-37 96.5v235h105v-202q0 -39 19.5 -55.5t47.5 -16.5q24 0 46 17t22 48v209h105v-358h-99zM339 506v-83h-260v83h260z" />
    <glyph glyph-name="Ubreve" unicode="&#x16c;" horiz-adv-x="669" 
d="M619 300q0 -150 -72.5 -237t-212.5 -87q-137 0 -210.5 87t-73.5 237v446h118v-476q0 -46 14 -81t37 -58.5t53 -35.5t62 -12q33 0 63 12t53 35.5t36.5 58.5t13.5 81v476h119v-446zM492 951q-15 -66 -55.5 -107.5t-102.5 -41.5t-102.5 41.5t-55.5 107.5l72 3
q15 -40 38.5 -60.5t47.5 -20.5t47.5 20.5t38.5 60.5z" />
    <glyph glyph-name="ubreve" unicode="&#x16d;" horiz-adv-x="421" 
d="M283 0v45q-16 -19 -46 -36.5t-72 -17.5q-54 0 -91 35.5t-37 96.5v235h105v-202q0 -39 19.5 -55.5t47.5 -16.5q24 0 46 17t22 48v209h105v-358h-99zM367 567q-15 -66 -55.5 -107.5t-102.5 -41.5t-102.5 41.5t-55.5 107.5l72 3q15 -40 38.5 -60.5t47.5 -20.5t47.5 20.5
t38.5 60.5z" />
    <glyph glyph-name="Uring" unicode="&#x16e;" horiz-adv-x="669" 
d="M619 300q0 -150 -72.5 -237t-212.5 -87q-137 0 -210.5 87t-73.5 237v446h118v-476q0 -46 14 -81t37 -58.5t53 -35.5t62 -12q33 0 63 12t53 35.5t36.5 58.5t13.5 81v476h119v-446zM334 1036q50 0 85 -35.5t35 -81.5q0 -47 -35 -82t-85 -35t-85 35.5t-35 81.5t35 81.5
t85 35.5zM334 983q-26 0 -44.5 -18.5t-18.5 -45.5q0 -26 18.5 -45t44.5 -19t44.5 19t18.5 45q0 27 -18.5 45.5t-44.5 18.5z" />
    <glyph glyph-name="uring" unicode="&#x16f;" horiz-adv-x="421" 
d="M283 0v45q-16 -19 -46 -36.5t-72 -17.5q-54 0 -91 35.5t-37 96.5v235h105v-202q0 -39 19.5 -55.5t47.5 -16.5q24 0 46 17t22 48v209h105v-358h-99zM209 652q50 0 85 -35.5t35 -81.5q0 -47 -35 -82t-85 -35t-85 35.5t-35 81.5t35 81.5t85 35.5zM209 599q-26 0 -44.5 -18.5
t-18.5 -45.5q0 -26 18.5 -45t44.5 -19t44.5 19t18.5 45q0 27 -18.5 45.5t-44.5 18.5z" />
    <glyph glyph-name="Uhungarumlaut" unicode="&#x170;" horiz-adv-x="669" 
d="M619 300q0 -150 -72.5 -237t-212.5 -87q-137 0 -210.5 87t-73.5 237v446h118v-476q0 -46 14 -81t37 -58.5t53 -35.5t62 -12q33 0 63 12t53 35.5t36.5 58.5t13.5 81v476h119v-446zM472 954h121l-132 -147h-81zM289 954h121l-133 -147h-82z" />
    <glyph glyph-name="uhungarumlaut" unicode="&#x171;" horiz-adv-x="421" 
d="M283 0v45q-16 -19 -46 -36.5t-72 -17.5q-54 0 -91 35.5t-37 96.5v235h105v-202q0 -39 19.5 -55.5t47.5 -16.5q24 0 46 17t22 48v209h105v-358h-99zM337 570h122l-133 -147h-81zM173 570h121l-132 -147h-82z" />
    <glyph glyph-name="Uogonek" unicode="&#x172;" horiz-adv-x="682" 
d="M401 -180q-49 0 -71.5 26t-22.5 57q0 21 7.5 39.5t20.5 33.5h-1q-137 0 -210.5 87t-73.5 237v446h118v-476q0 -46 14 -81t37 -58.5t53 -35.5t62 -12q33 0 63 12t53 35.5t36.5 58.5t13.5 81v476h119v-446q0 -105 -36 -180.5t-106 -112.5l-40 -24q-24 -14 -32.5 -30
t-8.5 -32q0 -14 8.5 -24.5t23.5 -10.5q12 0 21 4t16 10l34 -44q-13 -13 -38.5 -24.5t-59.5 -11.5z" />
    <glyph glyph-name="uogonek" unicode="&#x173;" horiz-adv-x="421" 
d="M303 -158q-43 0 -63.5 20t-20.5 45t15.5 44.5t35.5 35.5l13 10v48q-16 -19 -46 -36.5t-72 -17.5q-54 0 -91 35.5t-37 96.5v235h105v-202q0 -39 19.5 -55.5t47.5 -16.5q24 0 46 17t22 48v209h105v-358l-43 -34q-16 -13 -25 -23t-9 -22q0 -8 7.5 -15t20.5 -7q8 0 16.5 3.5
t14.5 7.5l30 -38q-12 -11 -36 -20.5t-55 -9.5z" />
    <glyph glyph-name="Wcircumflex" unicode="&#x174;" horiz-adv-x="991" 
d="M653 0l-156 561l-159 -561h-118l-217 746h123l160 -574l156 574h114l155 -574l160 574h118l-218 -746h-118zM571 807l-75 91l-74 -91h-95l111 147h117l111 -147h-95z" />
    <glyph glyph-name="wcircumflex" unicode="&#x175;" horiz-adv-x="578" 
d="M362 0l-69 211l-68 -211h-99l-123 358h111l63 -221l69 221h95l69 -222l63 222h106l-120 -358h-97zM365 423l-75 91l-74 -91h-95l111 147h117l111 -147h-95z" />
    <glyph glyph-name="Ycircumflex" unicode="&#x176;" horiz-adv-x="633" 
d="M375 0h-118v242l-255 504h129l187 -391l192 391h121l-256 -505v-241zM391 807l-75 91l-74 -91h-95l111 147h117l111 -147h-95z" />
    <glyph glyph-name="ycircumflex" unicode="&#x177;" horiz-adv-x="415" 
d="M204 -199h-108l70 188l-165 369h119l97 -246l87 246h110zM291 423l-75 91l-74 -91h-95l111 147h117l111 -147h-95z" />
    <glyph glyph-name="Ydieresis" unicode="&#x178;" horiz-adv-x="633" 
d="M375 0h-118v242l-255 504h129l187 -391l192 391h121l-256 -505v-241zM482 902v-95h-111v95h111zM263 902v-95h-111v95h111z" />
    <glyph glyph-name="Zacute" unicode="&#x179;" horiz-adv-x="611" 
d="M555 0h-539l-2 12l378 633h-332l46 101h470l2 -12l-379 -633h401zM485 954l-129 -147h-87l84 147h132z" />
    <glyph glyph-name="zacute" unicode="&#x17a;" horiz-adv-x="394" 
d="M327 0h-303l-5 10l176 259h-146l36 89h272l6 -10l-175 -259h175zM390 570l-129 -147h-87l84 147h132z" />
    <glyph glyph-name="Zdotaccent" unicode="&#x17b;" horiz-adv-x="611" 
d="M555 0h-539l-2 12l378 633h-332l46 101h470l2 -12l-379 -633h401zM370 906v-99h-108v99h108z" />
    <glyph glyph-name="zdotaccent" unicode="&#x17c;" horiz-adv-x="394" 
d="M327 0h-303l-5 10l176 259h-146l36 89h272l6 -10l-175 -259h175zM275 525v-100h-108v100h108z" />
    <glyph glyph-name="Zcaron" unicode="&#x17d;" horiz-adv-x="611" 
d="M555 0h-539l-2 12l378 633h-332l46 101h470l2 -12l-379 -633h401zM375 807h-117l-111 147h94l74 -91l75 91h96z" />
    <glyph glyph-name="zcaron" unicode="&#x17e;" horiz-adv-x="394" 
d="M327 0h-303l-5 10l176 259h-146l36 89h272l6 -10l-175 -259h175zM280 423h-117l-111 147h94l74 -91l75 91h96z" />
    <glyph glyph-name="florin" unicode="&#x192;" horiz-adv-x="468" 
d="M249 -11q-9 -62 -27 -103t-45.5 -64.5t-66 -32.5t-87.5 -9v97q21 0 40 3t33.5 14.5t25.5 34.5t16 61q2 17 7.5 56.5t13 91.5t16 112t16.5 117h-81v94h94q4 28 7.5 51.5t5.5 41.5q8 60 28.5 98t49.5 58.5t65 28t76 7.5v-97q-34 0 -66.5 -15.5t-41.5 -80.5
q-2 -18 -5.5 -41.5t-7.5 -50.5h81v-94h-94q-8 -57 -16 -117t-15.5 -112t-13 -92t-8.5 -57z" />
    <glyph glyph-name="Aringacute" unicode="&#x1fa;" horiz-adv-x="716" 
d="M497 238l-140 366l-141 -366h281zM588 0l-54 142h-355l-55 -142h-122l297 746h118l297 -746h-126zM357 928q50 0 85 -35.5t35 -81.5q0 -47 -35 -82t-85 -35t-85 35.5t-35 81.5t35 81.5t85 35.5zM357 875q-26 0 -44.5 -18.5t-18.5 -45.5q0 -26 18.5 -45t44.5 -19t44.5 19
t18.5 45q0 27 -18.5 45.5t-44.5 18.5zM526 1098l-129 -147h-87l84 147h132z" />
    <glyph glyph-name="aringacute" unicode="&#x1fb;" horiz-adv-x="433" 
d="M211 49q34 0 57 17t23 44t-22 44t-58 17t-56 -17.5t-20 -43.5t20 -43.5t56 -17.5zM297 0v21q-17 -15 -47.5 -26t-71.5 -11q-66 0 -109.5 33t-43.5 91q0 54 43 89.5t114 35.5q35 0 62 -8t46 -21v1q0 40 -27 59t-77 19q-16 0 -35 -2.5t-46 -9.5l-19 82q38 9 65.5 12.5
t61.5 3.5q90 0 136 -43t46 -104v-222h-98zM224 652q50 0 85 -35.5t35 -81.5q0 -47 -35 -82t-85 -35t-85 35.5t-35 81.5t35 81.5t85 35.5zM224 599q-26 0 -44.5 -18.5t-18.5 -45.5q0 -26 18.5 -45t44.5 -19t44.5 19t18.5 45q0 27 -18.5 45.5t-44.5 18.5zM393 821l-129 -147
h-87l84 147h132z" />
    <glyph glyph-name="AEacute" unicode="&#x1fc;" horiz-adv-x="947" 
d="M481 238l-136 387l-136 -387h272zM565 0l-50 142h-340l-50 -142h-123l286 746h441v-103h-285l78 -203h296v-99h-259l91 -238h295v-103h-380zM532 954l-129 -147h-87l84 147h132z" />
    <glyph glyph-name="aeacute" unicode="&#x1fd;" horiz-adv-x="700" 
d="M482 289q-34 0 -56.5 -18.5t-30.5 -51.5h173q-8 33 -30 51.5t-56 18.5zM211 48q34 0 57 18t23 43t-22 43t-58 18t-56 -18t-20 -43t20 -43t56 -18zM675 45q-31 -26 -77 -44t-100 -18q-52 0 -93 16.5t-68 45.5q-16 -22 -53.5 -42t-95.5 -20q-74 0 -118.5 33.5t-44.5 88.5
t43 91.5t114 36.5q33 0 58.5 -7.5t44.5 -18.5q-1 39 -26 57.5t-73 18.5q-16 0 -35 -2.5t-46 -9.5l-18 82q37 9 64.5 12.5t61.5 3.5q45 0 78 -12.5t55 -33.5q25 25 60 38.5t77 13.5q84 0 141 -56t57 -140v-30h-289q7 -40 34.5 -61t73.5 -21q37 0 67.5 12t54.5 31zM524 570
l-129 -147h-87l84 147h132z" />
    <glyph glyph-name="Oslashacute" unicode="&#x1fe;" horiz-adv-x="881" 
d="M145 374q0 -61 24.5 -116t67.5 -95l325 470q-28 13 -60 21t-66 8q-60 0 -113.5 -23.5t-92.5 -62.5t-62 -91.5t-23 -110.5zM436 84q60 0 113 23.5t92 63t62 92t23 111.5q0 60 -24.5 114.5t-67.5 94.5l-326 -469q29 -14 61.5 -22t66.5 -8zM436 -24q-52 0 -100.5 11.5
t-91.5 33.5l-48 -69h-106l81 117q-66 54 -105.5 133.5t-39.5 171.5q0 82 32 154.5t87 126t130 84.5t161 31q51 0 99.5 -11.5t90.5 -33.5l48 69h107l-81 -117q66 -54 105.5 -133t39.5 -170q0 -82 -32 -155t-87 -126.5t-130 -85t-160 -31.5zM604 954l-129 -147h-87l84 147h132
z" />
    <glyph glyph-name="oslashacute" unicode="&#x1ff;" horiz-adv-x="479" 
d="M131 179q0 -19 5 -35.5t15 -29.5l118 164q-8 4 -17.5 5.5t-19.5 1.5q-43 0 -72 -31t-29 -75zM232 73q43 0 72.5 31t29.5 75q0 15 -3.5 28.5t-10.5 25.5l-113 -157l12 -2t13 -1zM232 -17q-22 0 -42.5 4t-39.5 11l-33 -46h-84l58 80q-32 27 -50.5 65t-18.5 82q0 41 16 77
t44 62.5t66.5 41.5t83.5 15q25 0 49 -5t45 -14l36 50h84l-63 -88q28 -26 44 -62t16 -77t-16 -77t-44 -62.5t-67 -41.5t-84 -15zM406 570l-129 -147h-87l84 147h132z" />
    <glyph glyph-name="Scommaaccent" unicode="&#x218;" horiz-adv-x="487" 
d="M434 711l-47 -94q-26 18 -58.5 31.5t-65.5 13.5q-56 0 -78.5 -25t-22.5 -51q0 -36 29.5 -68t93.5 -82q94 -75 133.5 -130.5t39.5 -112.5q0 -48 -18.5 -86.5t-50.5 -64.5t-76 -40t-94 -14q-48 0 -104.5 15.5t-99.5 42.5l47 95q35 -21 75 -37.5t85 -16.5q58 0 87 32t29 69
q0 38 -30.5 74t-100.5 90q-44 35 -75.5 64t-51.5 55.5t-29 53.5t-9 59q0 34 13 66t40 56.5t69.5 39.5t99.5 15q43 0 88 -14t82 -36zM275 -57l-59 -165h-79l24 165h114z" />
    <glyph glyph-name="scommaaccent" unicode="&#x219;" horiz-adv-x="320" 
d="M168 370q32 0 58.5 -7.5t47.5 -15.5l-32 -78q-19 9 -36 13t-26 4q-16 0 -26 -6t-10 -16t12 -19.5t37 -25.5q57 -39 77 -64t20 -58q0 -45 -37 -76.5t-104 -32.5q-36 0 -69 8.5t-58 22.5l30 80q26 -13 44 -19.5t35 -6.5q24 1 35 8.5t11 17.5q0 7 -11 18t-48 36
q-53 34 -69 58.5t-16 55.5q0 37 31.5 70.5t103.5 32.5zM215 -57l-59 -165h-79l24 165h114z" />
    <glyph glyph-name="Tcommaaccent" unicode="&#x21a;" horiz-adv-x="404" 
d="M143 0v641h-133v105h384v-105h-133v-641h-118zM259 -57l-59 -165h-79l24 165h114z" />
    <glyph glyph-name="tcommaaccent" unicode="&#x21b;" horiz-adv-x="228" 
d="M208 270h-42v-270h-104v270h-42v88h42v199l104 49v-248h42v-88zM171 -57l-59 -165h-79l24 165h114z" />
    <glyph glyph-name="dotlessj" unicode="&#x237;" horiz-adv-x="187" 
d="M-25 -107h13q22 0 37.5 15t15.5 42v408h105v-405q0 -81 -36.5 -117t-124.5 -36h-10v93z" />
    <glyph glyph-name="schwa" unicode="&#x259;" horiz-adv-x="443" 
d="M218 -17q-42 0 -78.5 15t-63 41t-42 62t-15.5 78v30h289q-7 40 -34 61t-73 21q-37 0 -67.5 -12t-55.5 -31l-53 65q31 26 77.5 44t100.5 18q102 0 160 -55.5t58 -140.5t-56.5 -140.5t-146.5 -55.5zM218 69q34 0 56.5 18.5t30.5 51.5h-172q8 -33 29.5 -51.5t55.5 -18.5z
" />
    <glyph glyph-name="circumflex" unicode="&#x2c6;" horiz-adv-x="500" 
d="M323 643l-75 91l-74 -91h-95l111 147h117l111 -147h-95z" />
    <glyph glyph-name="caron" unicode="&#x2c7;" horiz-adv-x="500" 
d="M307 643h-117l-111 147h94l74 -91l75 91h96z" />
    <glyph glyph-name="breve" unicode="&#x2d8;" horiz-adv-x="500" 
d="M408 789q-15 -66 -55.5 -107.5t-102.5 -41.5t-102.5 41.5t-55.5 107.5l72 3q15 -40 38.5 -60.5t47.5 -20.5t47.5 20.5t38.5 60.5z" />
    <glyph glyph-name="dotaccent" unicode="&#x2d9;" horiz-adv-x="500" 
d="M304 733v-99h-108v99h108z" />
    <glyph glyph-name="ring" unicode="&#x2da;" horiz-adv-x="500" 
d="M250 873q50 0 85 -35.5t35 -81.5q0 -47 -35 -82t-85 -35t-85 35.5t-35 81.5t35 81.5t85 35.5zM250 820q-26 0 -44.5 -18.5t-18.5 -45.5q0 -26 18.5 -45t44.5 -19t44.5 19t18.5 45q0 27 -18.5 45.5t-44.5 18.5z" />
    <glyph glyph-name="ogonek" unicode="&#x2db;" horiz-adv-x="500" 
d="M263 -29q-20 -16 -30.5 -27t-10.5 -24q0 -11 8.5 -20t22.5 -9q12 0 21 4.5t16 10.5l35 -44q-13 -13 -38.5 -24.5t-59.5 -11.5q-49 0 -72 24t-23 52t17 49t40 39l38 27l77 -11z" />
    <glyph glyph-name="tilde" unicode="&#x2dc;" horiz-adv-x="500" 
d="M128 643l-86 2q-4 42 4 71t24 46t37.5 24.5t44.5 7.5t48.5 -10t49 -22t45 -22t36.5 -10q16 0 29 12.5t12 50.5l86 -2q7 -76 -25.5 -111t-83.5 -35q-24 0 -49.5 10t-49 21.5t-45 21.5t-36.5 10q-16 0 -29.5 -12.5t-11.5 -52.5z" />
    <glyph glyph-name="hungarumlaut" unicode="&#x2dd;" horiz-adv-x="500" 
d="M380 790h121l-132 -147h-81zM197 790h121l-133 -147h-82z" />
    <glyph glyph-name="acute.cmb" unicode="&#x301;" 
d="M130 790l-129 -147h-87l84 147h132z" />
    <glyph glyph-name="mu" unicode="&#x3bc;" horiz-adv-x="422" 
d="M133 -202l-94 -18v578h105v-206q0 -34 21.5 -51t46.5 -17q24 0 45.5 17t21.5 48v209h105v-358h-94v39q-9 -18 -28.5 -33t-51.5 -15q-29 0 -48 13.5t-29 32.5v-239z" />
    <glyph glyph-name="Wgrave" unicode="&#x1e80;" horiz-adv-x="991" 
d="M653 0l-156 561l-159 -561h-118l-217 746h123l160 -574l156 574h114l155 -574l160 574h118l-218 -746h-118zM324 954h134l84 -147h-89z" />
    <glyph glyph-name="wgrave" unicode="&#x1e81;" horiz-adv-x="578" 
d="M362 0l-69 211l-68 -211h-99l-123 358h111l63 -221l69 221h95l69 -222l63 222h106l-120 -358h-97zM118 570h134l84 -147h-89z" />
    <glyph glyph-name="Wacute" unicode="&#x1e82;" horiz-adv-x="991" 
d="M653 0l-156 561l-159 -561h-118l-217 746h123l160 -574l156 574h114l155 -574l160 574h118l-218 -746h-118zM665 954l-129 -147h-87l84 147h132z" />
    <glyph glyph-name="wacute" unicode="&#x1e83;" horiz-adv-x="578" 
d="M362 0l-69 211l-68 -211h-99l-123 358h111l63 -221l69 221h95l69 -222l63 222h106l-120 -358h-97zM460 570l-129 -147h-87l84 147h132z" />
    <glyph glyph-name="Wdieresis" unicode="&#x1e84;" horiz-adv-x="991" 
d="M653 0l-156 561l-159 -561h-118l-217 746h123l160 -574l156 574h114l155 -574l160 574h118l-218 -746h-118zM662 902v-95h-111v95h111zM443 902v-95h-111v95h111z" />
    <glyph glyph-name="wdieresis" unicode="&#x1e85;" horiz-adv-x="578" 
d="M362 0l-69 211l-68 -211h-99l-123 358h111l63 -221l69 221h95l69 -222l63 222h106l-120 -358h-97zM427 518v-95h-101v95h101zM256 518v-95h-101v95h101z" />
    <glyph glyph-name="Ygrave" unicode="&#x1ef2;" horiz-adv-x="633" 
d="M375 0h-118v242l-255 504h129l187 -391l192 391h121l-256 -505v-241zM144 954h134l84 -147h-89z" />
    <glyph glyph-name="ygrave" unicode="&#x1ef3;" horiz-adv-x="415" 
d="M204 -199h-108l70 188l-165 369h119l97 -246l87 246h110zM44 570h134l84 -147h-89z" />
    <glyph glyph-name="uni2000" unicode="&#x2000;" horiz-adv-x="500" 
 />
    <glyph glyph-name="uni2001" unicode="&#x2001;" horiz-adv-x="1000" 
 />
    <glyph glyph-name="uni2002" unicode="&#x2002;" horiz-adv-x="500" 
 />
    <glyph glyph-name="uni2003" unicode="&#x2003;" horiz-adv-x="1000" 
 />
    <glyph glyph-name="uni2004" unicode="&#x2004;" horiz-adv-x="333" 
 />
    <glyph glyph-name="uni2005" unicode="&#x2005;" horiz-adv-x="250" 
 />
    <glyph glyph-name="uni2009" unicode="&#x2009;" horiz-adv-x="166" 
 />
    <glyph glyph-name="uni200A" unicode="&#x200a;" horiz-adv-x="100" 
 />
    <glyph glyph-name="uni200B" unicode="&#x200b;" 
 />
    <glyph glyph-name="endash" unicode="&#x2013;" horiz-adv-x="524" 
d="M494 241v-87h-464v87h464z" />
    <glyph glyph-name="emdash" unicode="&#x2014;" horiz-adv-x="724" 
d="M694 241v-87h-664v87h664z" />
    <glyph glyph-name="emdash.salt_em" unicode="&#x2015;" horiz-adv-x="1000" 
d="M1000 361v-87h-1000v87h1000z" />
    <glyph glyph-name="quoteleft" unicode="&#x2018;" horiz-adv-x="284" 
d="M234 746l-58 -283h-125l102 283h81z" />
    <glyph glyph-name="quoteright" unicode="&#x2019;" horiz-adv-x="280" 
d="M55 463l58 283h125l-101 -283h-82z" />
    <glyph glyph-name="quotesinglbase" unicode="&#x201a;" horiz-adv-x="282" 
d="M35 -283l58 283h125l-101 -283h-82z" />
    <glyph glyph-name="quotedblleft" unicode="&#x201c;" horiz-adv-x="462" 
d="M234 746l-58 -283h-125l102 283h81zM412 746l-58 -283h-125l102 283h81z" />
    <glyph glyph-name="quotedblright" unicode="&#x201d;" horiz-adv-x="458" 
d="M55 463l58 283h125l-101 -283h-82zM233 463l58 283h125l-101 -283h-82z" />
    <glyph glyph-name="quotedblbase" unicode="&#x201e;" horiz-adv-x="460" 
d="M35 -283l58 283h125l-101 -283h-82zM213 -283l58 283h125l-101 -283h-82z" />
    <glyph glyph-name="dagger" unicode="&#x2020;" horiz-adv-x="461" 
d="M429 477h-144v-587l-109 30v557h-144v88h144v181h109v-181h144v-88z" />
    <glyph glyph-name="daggerdbl" unicode="&#x2021;" horiz-adv-x="461" 
d="M429 226h-144v-336l-109 30v306h-144v88h144v163h-144v88h144v181h109v-181h144v-88h-144v-163h144v-88z" />
    <glyph glyph-name="bullet" unicode="&#x2022;" horiz-adv-x="257" 
d="M59 386h139v-137h-139v137z" />
    <glyph glyph-name="ellipsis" unicode="&#x2026;" horiz-adv-x="729" 
d="M57 132h132v-132h-132v132zM298 132h132v-132h-132v132zM539 132h132v-132h-132v132z" />
    <glyph glyph-name="perthousand" unicode="&#x2030;" horiz-adv-x="1137" 
d="M685 746l-502 -746h-90l500 746h92zM179 746q67 0 111 -47.5t44 -140.5v-27q0 -92 -44.5 -139.5t-110.5 -47.5q-65 0 -109.5 47.5t-44.5 139.5v27q0 93 44.5 140.5t109.5 47.5zM249 533v23q0 65 -19.5 96.5t-50.5 31.5q-30 0 -49.5 -31.5t-19.5 -96.5v-23q0 -65 19.5 -96
t49.5 -31q31 0 50.5 31t19.5 96zM597 402q66 0 110.5 -47.5t44.5 -140.5v-27q0 -92 -44.5 -139.5t-110.5 -47.5q-65 0 -109.5 47.5t-44.5 139.5v27q0 93 44.5 140.5t109.5 47.5zM958 402q66 0 110 -47.5t44 -140.5v-27q0 -92 -44 -139.5t-110 -47.5q-65 0 -109.5 47.5
t-44.5 139.5v27q0 93 44.5 140.5t109.5 47.5zM1027 189v23q0 65 -19 97t-50 32q-30 0 -50 -32t-20 -97v-23q0 -65 20 -96.5t50 -31.5q31 0 50 31.5t19 96.5zM666 189v23q0 65 -19 96.5t-50 31.5t-50.5 -31.5t-19.5 -96.5v-23q0 -65 19.5 -96t50.5 -31t50 31t19 96z" />
    <glyph glyph-name="minute" unicode="&#x2032;" horiz-adv-x="230" 
d="M35 420l58 326h102l-59 -326h-101z" />
    <glyph glyph-name="second" unicode="&#x2033;" horiz-adv-x="417" 
d="M35 420l58 326h102l-59 -326h-101zM222 420l58 326h102l-59 -326h-101z" />
    <glyph glyph-name="guilsinglleft" unicode="&#x2039;" horiz-adv-x="270" 
d="M233 0h-93l-115 177v3l115 178h95l-115 -179z" />
    <glyph glyph-name="guilsinglright" unicode="&#x203a;" horiz-adv-x="270" 
d="M130 0h-95l115 181l-114 177h94l114 -178v-3z" />
    <glyph glyph-name="fraction" unicode="&#x2044;" horiz-adv-x="274" 
d="M311 746h98l-446 -746h-98z" />
    <glyph glyph-name="zero.sups" unicode="&#x2070;" horiz-adv-x="445" 
d="M223 761q77 0 128 -58.5t51 -174.5v-32q0 -114 -51.5 -173t-127.5 -59q-77 0 -128 59t-51 173v32q0 116 51 174.5t128 58.5zM314 495v32q0 81 -25.5 120t-65.5 39t-66.5 -39t-26.5 -120v-32q0 -80 26.5 -118.5t66.5 -38.5t65.5 38.5t25.5 118.5z" />
    <glyph glyph-name="four.sups" unicode="&#x2074;" horiz-adv-x="436" 
d="M264 438v178l-124 -178h124zM390 365h-37v-86h-89v86h-232l-8 15l254 366h75v-308h58z" />
    <glyph glyph-name="five.sups" unicode="&#x2075;" horiz-adv-x="404" 
d="M152 264q-26 0 -59.5 7t-59.5 21v77q26 -15 56 -23t62 -8q49 0 82 26.5t33 69.5q0 35 -32 60t-85 25q-25 0 -47.5 -4t-43.5 -11l59 242h256l-23 -74h-173l-24 -86q6 1 12 1h12q85 0 132 -43t47 -109q0 -75 -55.5 -123t-148.5 -48z" />
    <glyph glyph-name="six.sups" unicode="&#x2076;" horiz-adv-x="420" 
d="M213 264q-75 0 -127.5 44t-52.5 122q0 38 16 78.5t41 80.5t56.5 80t62.5 77h106q-42 -47 -80 -93.5t-66 -88.5q16 8 34 13t37 5q62 0 106.5 -44.5t44.5 -108.5q0 -68 -50 -116.5t-128 -48.5zM213 515q-38 0 -65.5 -26t-27.5 -63q0 -36 27.5 -62.5t65.5 -26.5
q37 0 64 26.5t27 62.5q0 37 -27 63t-64 26z" />
    <glyph glyph-name="seven.sups" unicode="&#x2077;" horiz-adv-x="396" 
d="M174 279h-97l172 391h-218l24 76h320z" />
    <glyph glyph-name="eight.sups" unicode="&#x2078;" horiz-adv-x="413" 
d="M206 264q-81 0 -129 43t-48 109q0 40 21.5 71.5t60.5 49.5q-27 16 -41.5 41.5t-14.5 55.5q0 51 41 89t110 38q72 0 112 -38t40 -89q0 -30 -14.5 -55.5t-41.5 -41.5q39 -18 60.5 -49.5t21.5 -71.5q0 -66 -48.5 -109t-129.5 -43zM206 561q28 0 48.5 19.5t20.5 47.5
q0 26 -20.5 44t-48.5 18t-48 -18t-20 -44q0 -28 20 -47.5t48 -19.5zM206 335q39 0 65.5 24.5t26.5 61.5q0 35 -26.5 58.5t-65.5 23.5q-37 0 -64 -23.5t-27 -58.5q0 -37 27 -61.5t64 -24.5z" />
    <glyph glyph-name="nine.sups" unicode="&#x2079;" horiz-adv-x="420" 
d="M212 279h-106q42 47 80.5 93.5t66.5 88.5q-16 -8 -34.5 -13t-38.5 -5q-62 0 -106 44t-44 109q0 34 13.5 64t37 52.5t56.5 35.5t72 13q37 0 69.5 -11.5t57 -32.5t38.5 -52t14 -70q0 -38 -16 -78.5t-41 -81t-56.5 -80t-62.5 -76.5zM209 509q37 0 64 26t27 63t-27 63t-64 26
q-39 0 -65.5 -26t-26.5 -63t26.5 -63t65.5 -26z" />
    <glyph glyph-name="zero.sinf" unicode="&#x2080;" horiz-adv-x="405" 
d="M203 282q77 0 128 -58.5t51 -174.5v-32q0 -114 -51.5 -173t-127.5 -59q-77 0 -128 59t-51 173v32q0 116 51 174.5t128 58.5zM294 16v32q0 81 -25.5 120t-65.5 39t-66.5 -39t-26.5 -120v-32q0 -80 26.5 -118.5t66.5 -38.5t65.5 38.5t25.5 118.5z" />
    <glyph glyph-name="one.sinf" unicode="&#x2081;" horiz-adv-x="235" 
d="M197 -200h-88v339l-88 -88v114l107 102h69v-467z" />
    <glyph glyph-name="two.sinf" unicode="&#x2082;" horiz-adv-x="361" 
d="M321 -200h-309l-6 11q10 12 37.5 45.5t58 71t57.5 70.5t36 45q21 26 31.5 44.5t10.5 45.5q0 28 -23 50.5t-61 23.5q-25 0 -50.5 -9.5t-53.5 -32.5v88q27 15 56.5 22t58.5 7q74 -1 119.5 -42t45.5 -100q-1 -48 -21.5 -76.5t-45.5 -59.5q-13 -18 -47 -57t-66 -74h203z" />
    <glyph glyph-name="three.sinf" unicode="&#x2083;" horiz-adv-x="324" 
d="M127 -215q-23 0 -58.5 5t-57.5 18v73q17 -13 47 -18t45 -5q53 -1 86 22t33 60q0 35 -31 56t-79 21h-32l3 71h29q37 0 61 19t24 46q0 25 -22 40.5t-57 15.5q-17 0 -38.5 -3.5t-41.5 -12.5l6 77q16 5 38 8.5t52 3.5q64 1 107.5 -33t43.5 -84q-1 -31 -17.5 -59.5
t-44.5 -45.5q38 -16 62.5 -48t24.5 -75q0 -66 -51 -109.5t-132 -42.5z" />
    <glyph glyph-name="four.sinf" unicode="&#x2084;" horiz-adv-x="397" 
d="M244 -41v178l-124 -178h124zM370 -114h-37v-86h-89v86h-232l-8 15l254 366h75v-308h58z" />
    <glyph glyph-name="five.sinf" unicode="&#x2085;" horiz-adv-x="365" 
d="M132 -215q-26 0 -59.5 7t-59.5 21v77q26 -15 56 -23t62 -8q49 0 82 26.5t33 69.5q0 35 -32 60t-85 25q-25 0 -47.5 -4t-43.5 -11l59 242h256l-23 -74h-173l-24 -86q6 1 12 1h12q85 0 132 -43t47 -109q0 -75 -55.5 -123t-148.5 -48z" />
    <glyph glyph-name="six.sinf" unicode="&#x2086;" horiz-adv-x="380" 
d="M193 -215q-75 0 -127.5 44t-52.5 122q0 38 16 78.5t41 80.5t56.5 80t62.5 77h106q-42 -47 -80 -93.5t-66 -88.5q16 8 34 13t37 5q62 0 106.5 -44.5t44.5 -108.5q0 -68 -50 -116.5t-128 -48.5zM193 36q-38 0 -65.5 -26t-27.5 -63q0 -36 27.5 -62.5t65.5 -26.5
q37 0 64 26.5t27 62.5q0 37 -27 63t-64 26z" />
    <glyph glyph-name="seven.sinf" unicode="&#x2087;" horiz-adv-x="357" 
d="M154 -200h-97l172 391h-218l24 76h320z" />
    <glyph glyph-name="eight.sinf" unicode="&#x2088;" horiz-adv-x="374" 
d="M186 -215q-81 0 -129 43t-48 109q0 40 21.5 71.5t60.5 49.5q-27 16 -41.5 41.5t-14.5 55.5q0 51 41 89t110 38q72 0 112 -38t40 -89q0 -30 -14.5 -55.5t-41.5 -41.5q39 -18 60.5 -49.5t21.5 -71.5q0 -66 -48.5 -109t-129.5 -43zM186 82q28 0 48.5 19.5t20.5 47.5
q0 26 -20.5 44t-48.5 18t-48 -18t-20 -44q0 -28 20 -47.5t48 -19.5zM186 -144q39 0 65.5 24.5t26.5 61.5q0 35 -26.5 58.5t-65.5 23.5q-37 0 -64 -23.5t-27 -58.5q0 -37 27 -61.5t64 -24.5z" />
    <glyph glyph-name="nine.sinf" unicode="&#x2089;" horiz-adv-x="380" 
d="M192 -200h-106q42 47 80.5 93.5t66.5 88.5q-16 -8 -34.5 -13t-38.5 -5q-62 0 -106 44t-44 109q0 34 13.5 64t37 52.5t56.5 35.5t72 13q37 0 69.5 -11.5t57 -32.5t38.5 -52t14 -70q0 -38 -16 -78.5t-41 -81t-56.5 -80t-62.5 -76.5zM189 30q37 0 64 26t27 63t-27 63t-64 26
q-39 0 -65.5 -26t-26.5 -63t26.5 -63t65.5 -26z" />
    <glyph glyph-name="Euro" unicode="&#x20ac;" horiz-adv-x="635" 
d="M601 11q-32 -16 -67 -24t-73 -8q-65 0 -121 21.5t-100 59t-75.5 89.5t-46.5 113h-111l13 63h87l-2 24t-1 25v19t1 18h-98l13 63h95q14 63 45 117t75.5 93t102 61t123.5 22q38 0 72 -8t68 -24v-104q-30 17 -61 28t-66 11q-87 0 -151 -56t-89 -140h300l-14 -63h-299
q-1 -9 -1.5 -18t-0.5 -18q0 -13 1 -25.5t3 -24.5h281l-14 -63h-252q27 -80 90 -133t146 -53q35 0 66.5 11t60.5 29v-105z" />
    <glyph glyph-name="copyrightsound" unicode="&#x2117;" horiz-adv-x="875" 
d="M438 756q83 0 154.5 -30t123.5 -82t81.5 -122t29.5 -149t-29.5 -149t-81.5 -122t-123.5 -82t-154.5 -30t-155 30t-124 82t-81.5 122t-29.5 149t29.5 149t81.5 122t124 82t155 30zM438 714q-71 0 -133.5 -27t-108.5 -73t-73 -108t-27 -133q0 -70 27 -132.5t73 -108.5
t108.5 -73t133.5 -27q70 0 132.5 27t108.5 73t73 108.5t27 132.5q0 71 -27 133t-73 108t-108.5 73t-132.5 27zM448 304h-30v-145h-93v435h124q73 0 122 -31.5t50 -114.5q0 -38 -15.5 -65t-40 -44.5t-55.5 -26t-62 -8.5zM457 511h-40v-124h40q32 0 52.5 16.5t20.5 44.5
t-17 45.5t-56 17.5z" />
    <glyph glyph-name="trademark" unicode="&#x2122;" horiz-adv-x="639" 
d="M82 442v244h-62v60h190v-60h-62v-244h-66zM414 493l-91 146v-197h-65v304h71l94 -156l90 156h70v-304h-65v195l-89 -144h-15z" />
    <glyph glyph-name="arrowleft" unicode="&#x2190;" horiz-adv-x="750" 
d="M380 169v-5h-142l-235 233v12l235 233h142v-5l-175 -175h537v-118h-537z" />
    <glyph glyph-name="arrowup" unicode="&#x2191;" horiz-adv-x="750" 
d="M609 362l-175 175v-537h-118v537l-175 -175h-5v143l233 234h12l233 -234v-143h-5z" />
    <glyph glyph-name="arrowright" unicode="&#x2192;" horiz-adv-x="750" 
d="M512 159h-142v5l175 175h-537v118h537l-175 175v5h142l235 -233v-12z" />
    <glyph glyph-name="arrowdown" unicode="&#x2193;" horiz-adv-x="750" 
d="M381 7h-12l-233 234v143h5l175 -175v537h118v-537l175 175h5v-143z" />
    <glyph glyph-name="uni2196" unicode="&#x2196;" horiz-adv-x="750" 
d="M671 147l-83 -83l-380 379v-247l-4 -4l-100 101l-1 331l8 8l331 -1l100 -101l-4 -4h-246z" />
    <glyph glyph-name="uni2197" unicode="&#x2197;" horiz-adv-x="750" 
d="M542 200v247l-380 -380l-83 84l380 379h-247l-4 4l100 101h331l8 -7l-1 -331l-100 -101z" />
    <glyph glyph-name="uni2198" unicode="&#x2198;" horiz-adv-x="750" 
d="M639 97h-331l-101 101l4 4h246l-378 379l83 84l379 -379v246l4 4l101 -101l1 -331z" />
    <glyph glyph-name="uni2199" unicode="&#x2199;" horiz-adv-x="750" 
d="M111 93l-8 8v331l101 100l4 -4v-247l379 380l84 -83l-380 -380h247l4 -4l-101 -100z" />
    <glyph glyph-name="minus" unicode="&#x2212;" horiz-adv-x="578" 
d="M544 395v-90h-510v90h510z" />
    <glyph glyph-name="radical" unicode="&#x221a;" horiz-adv-x="662" 
d="M371 0h-111l-130 365h-88v90h153l121 -346l243 637h98z" />
    <glyph glyph-name="infinity" unicode="&#x221e;" horiz-adv-x="672" 
d="M495 164q-59 0 -95.5 34.5t-62.5 74.5q-30 -47 -68 -78t-95 -31q-35 0 -65.5 14.5t-52 39t-34 56.5t-12.5 67t12.5 67t34.5 56.5t53 39t67 14.5q58 0 94 -31.5t65 -74.5q33 54 72 80t90 26q35 0 65.5 -14.5t52 -39t34 -56.5t12.5 -67t-12.5 -67t-34.5 -56.5t-53 -39
t-67 -14.5zM182 245q46 0 70.5 30.5t41.5 62.5q-29 44 -50 71.5t-64 27.5q-38 0 -62.5 -29t-24.5 -67t25 -67t64 -29zM492 245q38 0 62.5 29t24.5 67t-25 67t-64 29q-42 0 -66 -25t-46 -65q25 -43 48 -72.5t66 -29.5z" />
    <glyph glyph-name="approxequal" unicode="&#x2248;" horiz-adv-x="561" 
d="M121 385l-83 12q0 39 11.5 65.5t29 42.5t39.5 22.5t44 6.5q27 0 58 -12t60.5 -25.5t57 -25.5t48.5 -12q19 0 36.5 9t17.5 43l82 -13q0 -40 -11 -66t-28.5 -41.5t-40 -22t-45.5 -6.5q-27 0 -57.5 11.5t-60 25.5t-57 25.5t-48.5 11.5q-19 1 -36 -8.5t-17 -42.5zM121 171
l-83 14q0 39 11.5 65t29 42t39.5 22.5t44 6.5q27 0 58 -12t60.5 -25.5t57 -25.5t48.5 -12q19 0 36.5 9.5t17.5 42.5l82 -13q0 -39 -11 -65.5t-28.5 -42.5t-40 -22.5t-45.5 -6.5q-27 0 -57.5 12t-60 25.5t-57 25.5t-48.5 12q-19 0 -36 -9t-17 -43z" />
    <glyph glyph-name="notequal" unicode="&#x2260;" horiz-adv-x="542" 
d="M198 22l-98 -1l69 170h-131v84h165l52 129h-217v84h251l69 170h97l-69 -170h118v-84h-152l-52 -129h204v-84h-238z" />
    <glyph glyph-name="lessequal" unicode="&#x2264;" horiz-adv-x="560" 
d="M533 146l-506 185v86l506 188v-97l-391 -133l391 -130v-99zM27 107h506v-80h-506v80z" />
    <glyph glyph-name="greaterequal" unicode="&#x2265;" horiz-adv-x="560" 
d="M27 146v99l391 130l-391 133v97l506 -188v-86zM533 106v-79h-506v79h506z" />
    <glyph glyph-name="lozenge" unicode="&#x25ca;" horiz-adv-x="593" 
d="M553 373l-216 -373h-80l-217 373l216 373h82zM298 90l162 281l-164 286l-162 -283z" />
    <glyph glyph-name="commaaccent" unicode="&#xf6c3;" horiz-adv-x="500" 
d="M306 -30l-59 -165h-79l24 165h114z" />
    <glyph glyph-name="apple" unicode="&#xf8ff;" horiz-adv-x="596" 
d="M10 -101v761h576v-761h-576zM91 560v-560h180q52 0 100 18t84 53t57.5 88t21.5 122q0 68 -22 120.5t-59 87.5t-85 53t-100 18h-177zM236 17h-137v525h137q43 0 83.5 -17t72 -49.5t50.5 -81.5t19 -113q0 -65 -19 -114.5t-50.5 -82.5t-72 -50t-83.5 -17zM236 535h-130v-510
h130q41 0 80.5 16.5t69.5 49t48.5 80.5t18.5 110t-18.5 109.5t-48.5 79.5t-69.5 48.5t-80.5 16.5zM178 78v403h93q34 0 66 -13t56 -38t38.5 -62.5t14.5 -86.5q0 -50 -14.5 -88t-38.5 -63.5t-56 -38.5t-66 -13h-93z" />
    <glyph glyph-name="uniFEFF" unicode="&#xfeff;" 
 />
    <glyph glyph-name="Adieresis.salt" horiz-adv-x="716" 
d="M608 746v-106h-119v106h119zM228 746v-106h-119v106h119zM497 238l-140 366l-141 -366h281zM588 0l-54 142h-355l-55 -142h-122l297 746h118l297 -746h-126z" />
    <glyph glyph-name="C.salt_low" horiz-adv-x="639" 
d="M604 731v-116q-36 22 -77.5 34t-86.5 12q-61 0 -115 -23.5t-94 -62.5t-63 -91t-23 -109q0 -58 23 -111t63 -92.5t94 -63t115 -23.5q45 0 86.5 12t77.5 34v-117q-38 -18 -81 -27.5t-89 -9.5q-86 0 -161 31t-129.5 85t-86 126.5t-31.5 154.5t31.5 154t86 125.5t129.5 84.5
t161 31q46 0 88.5 -9.5t81.5 -28.5z" />
    <glyph glyph-name="Cacute.salt_low" horiz-adv-x="639" 
d="M604 731v-116q-36 22 -77.5 34t-86.5 12q-61 0 -115 -23.5t-94 -62.5t-63 -91t-23 -109q0 -58 23 -111t63 -92.5t94 -63t115 -23.5q45 0 86.5 12t77.5 34v-117q-38 -18 -81 -27.5t-89 -9.5q-86 0 -161 31t-129.5 85t-86 126.5t-31.5 154.5t31.5 154t86 125.5t129.5 84.5
t161 31q46 0 88.5 -9.5t81.5 -28.5zM576 954l-129 -147h-87l84 147h132z" />
    <glyph glyph-name="Ccaron.salt_low" horiz-adv-x="639" 
d="M604 731v-116q-36 22 -77.5 34t-86.5 12q-61 0 -115 -23.5t-94 -62.5t-63 -91t-23 -109q0 -58 23 -111t63 -92.5t94 -63t115 -23.5q45 0 86.5 12t77.5 34v-117q-38 -18 -81 -27.5t-89 -9.5q-86 0 -161 31t-129.5 85t-86 126.5t-31.5 154.5t31.5 154t86 125.5t129.5 84.5
t161 31q46 0 88.5 -9.5t81.5 -28.5zM467 807h-117l-111 147h94l74 -91l75 91h96z" />
    <glyph glyph-name="Ccedilla.salt_low" horiz-adv-x="639" 
d="M604 731v-116q-36 22 -77.5 34t-86.5 12q-61 0 -115 -23.5t-94 -62.5t-63 -91t-23 -109q0 -58 23 -111t63 -92.5t94 -63t115 -23.5q45 0 86.5 12t77.5 34v-117q-38 -18 -81 -27.5t-89 -9.5q-86 0 -161 31t-129.5 85t-86 126.5t-31.5 154.5t31.5 154t86 125.5t129.5 84.5
t161 31q46 0 88.5 -9.5t81.5 -28.5zM387 -222q-13 0 -34 3.5t-39 9.5v54h1q19 -6 37.5 -9t28.5 -3q25 0 40 9.5t15 24.5q0 14 -18.5 23t-47.5 9h-20l-3 8l29 80h61l-19 -42q40 -7 63 -28.5t23 -52.5q0 -36 -33 -61t-84 -25z" />
    <glyph glyph-name="Ccircumflex.salt_low" horiz-adv-x="639" 
d="M604 731v-116q-36 22 -77.5 34t-86.5 12q-61 0 -115 -23.5t-94 -62.5t-63 -91t-23 -109q0 -58 23 -111t63 -92.5t94 -63t115 -23.5q45 0 86.5 12t77.5 34v-117q-38 -18 -81 -27.5t-89 -9.5q-86 0 -161 31t-129.5 85t-86 126.5t-31.5 154.5t31.5 154t86 125.5t129.5 84.5
t161 31q46 0 88.5 -9.5t81.5 -28.5zM482 807l-75 91l-74 -91h-95l111 147h117l111 -147h-95z" />
    <glyph glyph-name="Cdotaccent.salt_low" horiz-adv-x="639" 
d="M604 731v-116q-36 22 -77.5 34t-86.5 12q-61 0 -115 -23.5t-94 -62.5t-63 -91t-23 -109q0 -58 23 -111t63 -92.5t94 -63t115 -23.5q45 0 86.5 12t77.5 34v-117q-38 -18 -81 -27.5t-89 -9.5q-86 0 -161 31t-129.5 85t-86 126.5t-31.5 154.5t31.5 154t86 125.5t129.5 84.5
t161 31q46 0 88.5 -9.5t81.5 -28.5zM461 906v-99h-108v99h108z" />
    <glyph glyph-name="I_Jacute" horiz-adv-x="553" 
d="M52 0v746h118v-746h-118zM280 954l-129 -147h-87l84 147h132zM228 0v109q16 -7 33.5 -11.5t35.5 -4.5t34.5 6t28 22t18.5 46t7 78v501h118v-534q0 -118 -44.5 -172.5t-148.5 -54.5q-23 0 -43 3.5t-39 11.5zM613 954l-129 -147h-87l84 147h132z" />
    <glyph glyph-name="Jacute" horiz-adv-x="332" 
d="M6 0v109q16 -7 33.5 -11.5t35.5 -4.5t34.5 6t28 22t18.5 46t7 78v501h118v-534q0 -118 -44.5 -172.5t-148.5 -54.5q-23 0 -43 3.5t-39 11.5zM391 954l-129 -147h-87l84 147h132z" />
    <glyph glyph-name="K.salt_tall" horiz-adv-x="638" 
d="M464 0l-296 356v-356h-118v746h118v-346l284 346h139l-303 -361l327 -385h-151z" />
    <glyph glyph-name="Kcommaaccent.salt_tall" horiz-adv-x="638" 
d="M464 0l-296 356v-356h-118v746h118v-346l284 346h139l-303 -361l327 -385h-151zM366 -57l-59 -165h-79l24 165h114z" />
    <glyph glyph-name="Odieresis.salt" horiz-adv-x="870" 
d="M436 662q-60 0 -113.5 -23.5t-92.5 -62.5t-62 -91.5t-23 -110.5q0 -59 23 -111.5t62 -92t92.5 -63t113.5 -23.5t113 23.5t92 63t62 92t23 111.5q0 58 -23 110.5t-62 91.5t-92 62.5t-113 23.5zM845 374q0 -82 -32 -155t-87 -126.5t-130 -85t-160 -31.5q-86 0 -161 31.5
t-130 85t-87 126.5t-32 155q0 76 28 145t77 121h-89v106h117v-79q54 48 125 75.5t152 27.5q80 0 151 -27.5t125 -75.5v79h118v-106h-90q49 -52 77 -121t28 -145z" />
    <glyph glyph-name="P.salt_tall" horiz-adv-x="534" 
d="M232 256h-64v-256h-118v746h188q62 0 114 -14.5t88.5 -44t56.5 -74t20 -104.5q0 -62 -23.5 -109.5t-63 -79t-91 -48t-107.5 -16.5zM235 640h-67v-279h67q72 0 117 41t45 107q0 56 -36 93.5t-126 37.5z" />
    <glyph glyph-name="R.salt_tall" horiz-adv-x="565" 
d="M234 640h-66v-266h65q72 0 119 40t47 102q-1 50 -39.5 87t-125.5 37zM403 0l-231 274h-4v-274h-118v746h176q65 0 119 -15t92 -43.5t59 -71.5t21 -99q0 -46 -16 -84.5t-44 -67.5t-66 -49.5t-81 -30.5l238 -285h-145z" />
    <glyph glyph-name="Racute.salt_tall" horiz-adv-x="565" 
d="M234 640h-66v-266h65q72 0 119 40t47 102q-1 50 -39.5 87t-125.5 37zM403 0l-231 274h-4v-274h-118v746h176q65 0 119 -15t92 -43.5t59 -71.5t21 -99q0 -46 -16 -84.5t-44 -67.5t-66 -49.5t-81 -30.5l238 -285h-145zM434 954l-129 -147h-87l84 147h132z" />
    <glyph glyph-name="Rcaron.salt_tall" horiz-adv-x="565" 
d="M234 640h-66v-266h65q72 0 119 40t47 102q-1 50 -39.5 87t-125.5 37zM403 0l-231 274h-4v-274h-118v746h176q65 0 119 -15t92 -43.5t59 -71.5t21 -99q0 -46 -16 -84.5t-44 -67.5t-66 -49.5t-81 -30.5l238 -285h-145zM324 807h-117l-111 147h94l74 -91l75 91h96z" />
    <glyph glyph-name="Rcommaaccent.salt_tall" horiz-adv-x="565" 
d="M234 640h-66v-266h65q72 0 119 40t47 102q-1 50 -39.5 87t-125.5 37zM403 0l-231 274h-4v-274h-118v746h176q65 0 119 -15t92 -43.5t59 -71.5t21 -99q0 -46 -16 -84.5t-44 -67.5t-66 -49.5t-81 -30.5l238 -285h-145zM329 -57l-59 -165h-79l24 165h114z" />
    <glyph glyph-name="S.salt_low" horiz-adv-x="485" 
d="M411 735l-1 -108q-28 14 -64 24.5t-73 10.5q-61 0 -86 -25t-25 -51q0 -36 29.5 -68t93.5 -82q94 -75 133.5 -130.5t39.5 -112.5q0 -48 -19.5 -86.5t-52.5 -64.5t-79 -40t-98 -14q-41 0 -92 10t-83 25l2 111q36 -21 84.5 -34t92.5 -13q63 0 94 32t31 69q0 38 -30.5 74
t-100.5 90q-44 35 -75.5 64t-51.5 55.5t-29 53.5t-9 59q0 34 13.5 66t41 56.5t70.5 39.5t102 15q34 0 72.5 -6.5t69.5 -19.5z" />
    <glyph glyph-name="S.salt_tall" horiz-adv-x="511" 
d="M428 734l-2 -107q-28 15 -67.5 25t-77.5 10q-67 0 -94 -27.5t-27 -55.5q0 -34 31 -67t104 -79q94 -60 140.5 -113t46.5 -121q0 -50 -20 -89t-55 -66t-83 -41.5t-103 -14.5q-22 0 -47.5 2.5t-50.5 7t-47.5 11.5t-37.5 15l3 110q36 -21 84 -34t100 -13q69 0 103 34t34 74
q0 37 -35 73t-113 84q-98 62 -136 112.5t-38 112.5q0 35 14 68.5t43 59t74 41t106 15.5q36 0 77.5 -6.5t73.5 -20.5z" />
    <glyph glyph-name="Sacute.salt_low" horiz-adv-x="485" 
d="M411 735l-1 -108q-28 14 -64 24.5t-73 10.5q-61 0 -86 -25t-25 -51q0 -36 29.5 -68t93.5 -82q94 -75 133.5 -130.5t39.5 -112.5q0 -48 -19.5 -86.5t-52.5 -64.5t-79 -40t-98 -14q-41 0 -92 10t-83 25l2 111q36 -21 84.5 -34t92.5 -13q63 0 94 32t31 69q0 38 -30.5 74
t-100.5 90q-44 35 -75.5 64t-51.5 55.5t-29 53.5t-9 59q0 34 13.5 66t41 56.5t70.5 39.5t102 15q34 0 72.5 -6.5t69.5 -19.5zM435 954l-129 -147h-87l84 147h132z" />
    <glyph glyph-name="Sacute.salt_tall" horiz-adv-x="511" 
d="M428 734l-2 -107q-28 15 -67.5 25t-77.5 10q-67 0 -94 -27.5t-27 -55.5q0 -34 31 -67t104 -79q94 -60 140.5 -113t46.5 -121q0 -50 -20 -89t-55 -66t-83 -41.5t-103 -14.5q-22 0 -47.5 2.5t-50.5 7t-47.5 11.5t-37.5 15l3 110q36 -21 84 -34t100 -13q69 0 103 34t34 74
q0 37 -35 73t-113 84q-98 62 -136 112.5t-38 112.5q0 35 14 68.5t43 59t74 41t106 15.5q36 0 77.5 -6.5t73.5 -20.5zM441 954l-129 -147h-87l84 147h132z" />
    <glyph glyph-name="Scaron.salt_low" horiz-adv-x="485" 
d="M411 735l-1 -108q-28 14 -64 24.5t-73 10.5q-61 0 -86 -25t-25 -51q0 -36 29.5 -68t93.5 -82q94 -75 133.5 -130.5t39.5 -112.5q0 -48 -19.5 -86.5t-52.5 -64.5t-79 -40t-98 -14q-41 0 -92 10t-83 25l2 111q36 -21 84.5 -34t92.5 -13q63 0 94 32t31 69q0 38 -30.5 74
t-100.5 90q-44 35 -75.5 64t-51.5 55.5t-29 53.5t-9 59q0 34 13.5 66t41 56.5t70.5 39.5t102 15q34 0 72.5 -6.5t69.5 -19.5zM326 807h-117l-111 147h94l74 -91l75 91h96z" />
    <glyph glyph-name="Scaron.salt_tall" horiz-adv-x="511" 
d="M428 734l-2 -107q-28 15 -67.5 25t-77.5 10q-67 0 -94 -27.5t-27 -55.5q0 -34 31 -67t104 -79q94 -60 140.5 -113t46.5 -121q0 -50 -20 -89t-55 -66t-83 -41.5t-103 -14.5q-22 0 -47.5 2.5t-50.5 7t-47.5 11.5t-37.5 15l3 110q36 -21 84 -34t100 -13q69 0 103 34t34 74
q0 37 -35 73t-113 84q-98 62 -136 112.5t-38 112.5q0 35 14 68.5t43 59t74 41t106 15.5q36 0 77.5 -6.5t73.5 -20.5zM332 807h-117l-111 147h94l74 -91l75 91h96z" />
    <glyph glyph-name="Scedilla.salt_low" horiz-adv-x="485" 
d="M411 735l-1 -108q-28 14 -64 24.5t-73 10.5q-61 0 -86 -25t-25 -51q0 -36 29.5 -68t93.5 -82q94 -75 133.5 -130.5t39.5 -112.5q0 -48 -19.5 -86.5t-52.5 -64.5t-79 -40t-98 -14q-41 0 -92 10t-83 25l2 111q36 -21 84.5 -34t92.5 -13q63 0 94 32t31 69q0 38 -30.5 74
t-100.5 90q-44 35 -75.5 64t-51.5 55.5t-29 53.5t-9 59q0 34 13.5 66t41 56.5t70.5 39.5t102 15q34 0 72.5 -6.5t69.5 -19.5zM196 -211q-13 0 -34 3.5t-39 9.5v54h1q19 -6 37.5 -9t28.5 -3q25 0 40 9.5t15 24.5q0 14 -18.5 23t-47.5 9h-20l-3 8l29 80h61l-19 -42
q40 -7 63 -28.5t23 -52.5q0 -36 -33 -61t-84 -25z" />
    <glyph glyph-name="Scedilla.salt_tall" horiz-adv-x="511" 
d="M428 734l-2 -107q-28 15 -67.5 25t-77.5 10q-67 0 -94 -27.5t-27 -55.5q0 -34 31 -67t104 -79q94 -60 140.5 -113t46.5 -121q0 -50 -20 -89t-55 -66t-83 -41.5t-103 -14.5q-22 0 -47.5 2.5t-50.5 7t-47.5 11.5t-37.5 15l3 110q36 -21 84 -34t100 -13q69 0 103 34t34 74
q0 37 -35 73t-113 84q-98 62 -136 112.5t-38 112.5q0 35 14 68.5t43 59t74 41t106 15.5q36 0 77.5 -6.5t73.5 -20.5zM208 -211q-13 0 -34 3.5t-39 9.5v54h1q19 -6 37.5 -9t28.5 -3q25 0 40 9.5t15 24.5q0 14 -18.5 23t-47.5 9h-20l-3 8l29 80h61l-19 -42q40 -7 63 -28.5
t23 -52.5q0 -36 -33 -61t-84 -25z" />
    <glyph glyph-name="Scircumflex.salt_low" horiz-adv-x="485" 
d="M411 735l-1 -108q-28 14 -64 24.5t-73 10.5q-61 0 -86 -25t-25 -51q0 -36 29.5 -68t93.5 -82q94 -75 133.5 -130.5t39.5 -112.5q0 -48 -19.5 -86.5t-52.5 -64.5t-79 -40t-98 -14q-41 0 -92 10t-83 25l2 111q36 -21 84.5 -34t92.5 -13q63 0 94 32t31 69q0 38 -30.5 74
t-100.5 90q-44 35 -75.5 64t-51.5 55.5t-29 53.5t-9 59q0 34 13.5 66t41 56.5t70.5 39.5t102 15q34 0 72.5 -6.5t69.5 -19.5zM341 807l-75 91l-74 -91h-95l111 147h117l111 -147h-95z" />
    <glyph glyph-name="Scircumflex.salt_tall" horiz-adv-x="511" 
d="M428 734l-2 -107q-28 15 -67.5 25t-77.5 10q-67 0 -94 -27.5t-27 -55.5q0 -34 31 -67t104 -79q94 -60 140.5 -113t46.5 -121q0 -50 -20 -89t-55 -66t-83 -41.5t-103 -14.5q-22 0 -47.5 2.5t-50.5 7t-47.5 11.5t-37.5 15l3 110q36 -21 84 -34t100 -13q69 0 103 34t34 74
q0 37 -35 73t-113 84q-98 62 -136 112.5t-38 112.5q0 35 14 68.5t43 59t74 41t106 15.5q36 0 77.5 -6.5t73.5 -20.5zM347 807l-75 91l-74 -91h-95l111 147h117l111 -147h-95z" />
    <glyph glyph-name="Scommaaccent.salt_low" horiz-adv-x="485" 
d="M411 735l-1 -108q-28 14 -64 24.5t-73 10.5q-61 0 -86 -25t-25 -51q0 -36 29.5 -68t93.5 -82q94 -75 133.5 -130.5t39.5 -112.5q0 -48 -19.5 -86.5t-52.5 -64.5t-79 -40t-98 -14q-41 0 -92 10t-83 25l2 111q36 -21 84.5 -34t92.5 -13q63 0 94 32t31 69q0 38 -30.5 74
t-100.5 90q-44 35 -75.5 64t-51.5 55.5t-29 53.5t-9 59q0 34 13.5 66t41 56.5t70.5 39.5t102 15q34 0 72.5 -6.5t69.5 -19.5zM269 -57l-59 -165h-79l24 165h114z" />
    <glyph glyph-name="Scommaaccent.salt_tall" horiz-adv-x="511" 
d="M428 734l-2 -107q-28 15 -67.5 25t-77.5 10q-67 0 -94 -27.5t-27 -55.5q0 -34 31 -67t104 -79q94 -60 140.5 -113t46.5 -121q0 -50 -20 -89t-55 -66t-83 -41.5t-103 -14.5q-22 0 -47.5 2.5t-50.5 7t-47.5 11.5t-37.5 15l3 110q36 -21 84 -34t100 -13q69 0 103 34t34 74
q0 37 -35 73t-113 84q-98 62 -136 112.5t-38 112.5q0 35 14 68.5t43 59t74 41t106 15.5q36 0 77.5 -6.5t73.5 -20.5zM285 -68l-59 -165h-79l24 165h114z" />
    <glyph glyph-name="T.salt_tall" horiz-adv-x="438" 
d="M160 0v641h-151v105h420v-105h-151v-641h-118z" />
    <glyph glyph-name="Tbar.salt_tall" horiz-adv-x="438" 
d="M356 319h-78v-319h-118v319h-78v88h78v234h-151v105h420v-105h-151v-234h78v-88z" />
    <glyph glyph-name="Tcaron.salt_tall" horiz-adv-x="438" 
d="M160 0v641h-151v105h420v-105h-151v-641h-118zM278 807h-117l-111 147h94l74 -91l75 91h96z" />
    <glyph glyph-name="Tcommaaccent.salt_tall" horiz-adv-x="438" 
d="M160 0v641h-151v105h420v-105h-151v-641h-118zM276 -57l-59 -165h-79l24 165h114z" />
    <glyph glyph-name="Udieresis.salt" horiz-adv-x="669" 
d="M618 746v-95h-118v95h118zM168 746v-95h-118v95h118zM618 300q0 -150 -72.5 -237t-211.5 -87q-137 0 -210.5 87t-73.5 237v331h118v-361q0 -46 14 -81t37 -58.5t53 -35.5t62 -12q33 0 63 12t53 35.5t36.5 58.5t13.5 81v361h118v-331z" />
    <glyph glyph-name="a.salt_low" horiz-adv-x="433" 
d="M211 48q34 0 57 18t23 43t-22 43t-58 18t-56 -18t-20 -43t20 -43t56 -18zM297 0v37q-18 -21 -50 -37t-76 -16q-63 0 -104.5 33t-41.5 88t43 91.5t114 36.5q35 0 62 -8t46 -21v1q0 40 -27 59t-77 19q-18 0 -39 -2t-55 -11l-3 86q37 8 63.5 10.5t60.5 2.5q90 0 136 -43
t46 -104v-222h-98z" />
    <glyph glyph-name="a.salt_ss" horiz-adv-x="477" 
d="M334 178q0 43 -29 72t-72 29t-71 -28.5t-28 -71.5q0 -42 28 -71t71 -29t72 28.5t29 70.5zM339 0v52q-24 -29 -59.5 -46.5t-80.5 -17.5q-74 0 -124.5 54.5t-50.5 135.5q0 40 13.5 75t37 61t55.5 41t69 15q41 0 75.5 -16.5t58.5 -44.5v49h105v-358h-99z" />
    <glyph glyph-name="aacute.salt_low" horiz-adv-x="433" 
d="M211 48q34 0 57 18t23 43t-22 43t-58 18t-56 -18t-20 -43t20 -43t56 -18zM297 0v37q-18 -21 -50 -37t-76 -16q-63 0 -104.5 33t-41.5 88t43 91.5t114 36.5q35 0 62 -8t46 -21v1q0 40 -27 59t-77 19q-18 0 -39 -2t-55 -11l-3 86q37 8 63.5 10.5t60.5 2.5q90 0 136 -43
t46 -104v-222h-98zM393 570l-129 -147h-87l84 147h132z" />
    <glyph glyph-name="aacute.salt_ss" horiz-adv-x="477" 
d="M334 178q0 43 -29 72t-72 29t-71 -28.5t-28 -71.5q0 -42 28 -71t71 -29t72 28.5t29 70.5zM339 0v52q-24 -29 -59.5 -46.5t-80.5 -17.5q-74 0 -124.5 54.5t-50.5 135.5q0 40 13.5 75t37 61t55.5 41t69 15q41 0 75.5 -16.5t58.5 -44.5v49h105v-358h-99zM416 570l-129 -147
h-87l84 147h132z" />
    <glyph glyph-name="abreve.salt_low" horiz-adv-x="433" 
d="M211 48q34 0 57 18t23 43t-22 43t-58 18t-56 -18t-20 -43t20 -43t56 -18zM297 0v37q-18 -21 -50 -37t-76 -16q-63 0 -104.5 33t-41.5 88t43 91.5t114 36.5q35 0 62 -8t46 -21v1q0 40 -27 59t-77 19q-18 0 -39 -2t-55 -11l-3 86q37 8 63.5 10.5t60.5 2.5q90 0 136 -43
t46 -104v-222h-98zM382 567q-15 -66 -55.5 -107.5t-102.5 -41.5t-102.5 41.5t-55.5 107.5l72 3q15 -40 38.5 -60.5t47.5 -20.5t47.5 20.5t38.5 60.5z" />
    <glyph glyph-name="abreve.salt_ss" horiz-adv-x="477" 
d="M334 178q0 43 -29 72t-72 29t-71 -28.5t-28 -71.5q0 -42 28 -71t71 -29t72 28.5t29 70.5zM339 0v52q-24 -29 -59.5 -46.5t-80.5 -17.5q-74 0 -124.5 54.5t-50.5 135.5q0 40 13.5 75t37 61t55.5 41t69 15q41 0 75.5 -16.5t58.5 -44.5v49h105v-358h-99zM405 567
q-15 -66 -55.5 -107.5t-102.5 -41.5t-102.5 41.5t-55.5 107.5l72 3q15 -40 38.5 -60.5t47.5 -20.5t47.5 20.5t38.5 60.5z" />
    <glyph glyph-name="acircumflex.salt_low" horiz-adv-x="433" 
d="M211 48q34 0 57 18t23 43t-22 43t-58 18t-56 -18t-20 -43t20 -43t56 -18zM297 0v37q-18 -21 -50 -37t-76 -16q-63 0 -104.5 33t-41.5 88t43 91.5t114 36.5q35 0 62 -8t46 -21v1q0 40 -27 59t-77 19q-18 0 -39 -2t-55 -11l-3 86q37 8 63.5 10.5t60.5 2.5q90 0 136 -43
t46 -104v-222h-98zM299 423l-75 91l-74 -91h-95l111 147h117l111 -147h-95z" />
    <glyph glyph-name="acircumflex.salt_ss" horiz-adv-x="477" 
d="M334 178q0 43 -29 72t-72 29t-71 -28.5t-28 -71.5q0 -42 28 -71t71 -29t72 28.5t29 70.5zM339 0v52q-24 -29 -59.5 -46.5t-80.5 -17.5q-74 0 -124.5 54.5t-50.5 135.5q0 40 13.5 75t37 61t55.5 41t69 15q41 0 75.5 -16.5t58.5 -44.5v49h105v-358h-99zM321 423l-75 91
l-74 -91h-95l111 147h117l111 -147h-95z" />
    <glyph glyph-name="acute.lc" 
d="M130 790l-129 -147h-87l84 147h132z" />
    <glyph glyph-name="adieresis.salt_low" horiz-adv-x="433" 
d="M211 48q34 0 57 18t23 43t-22 43t-58 18t-56 -18t-20 -43t20 -43t56 -18zM297 0v37q-18 -21 -50 -37t-76 -16q-63 0 -104.5 33t-41.5 88t43 91.5t114 36.5q35 0 62 -8t46 -21v1q0 40 -27 59t-77 19q-18 0 -39 -2t-55 -11l-3 86q37 8 63.5 10.5t60.5 2.5q90 0 136 -43
t46 -104v-222h-98zM367 518v-95h-101v95h101zM196 518v-95h-101v95h101z" />
    <glyph glyph-name="adieresis.salt_ss" horiz-adv-x="477" 
d="M334 178q0 43 -29 72t-72 29t-71 -28.5t-28 -71.5q0 -42 28 -71t71 -29t72 28.5t29 70.5zM339 0v52q-24 -29 -59.5 -46.5t-80.5 -17.5q-74 0 -124.5 54.5t-50.5 135.5q0 40 13.5 75t37 61t55.5 41t69 15q41 0 75.5 -16.5t58.5 -44.5v49h105v-358h-99zM383 518v-95h-101
v95h101zM212 518v-95h-101v95h101z" />
    <glyph glyph-name="ae.salt_low" horiz-adv-x="700" 
d="M482 289q-34 0 -56.5 -18.5t-30.5 -51.5h173q-8 33 -30 51.5t-56 18.5zM211 48q34 0 57 18t23 43t-22 43t-58 18t-56 -18t-20 -43t20 -43t56 -18zM675 45q-31 -26 -77 -44t-100 -18q-52 0 -93 16.5t-68 45.5q-16 -22 -53.5 -42t-95.5 -20q-74 0 -118.5 33.5t-44.5 88.5
t43 91.5t114 36.5q33 0 58.5 -7.5t44.5 -18.5q-1 39 -26.5 57.5t-74.5 18.5q-18 0 -38 -2t-54 -11l-3 86q37 8 62.5 10.5t59.5 2.5q46 0 79.5 -12.5t54.5 -33.5q26 25 61 38.5t77 13.5q84 0 141 -56t57 -140v-30h-289q7 -40 34.5 -61t73.5 -21q37 0 67.5 12t54.5 31z" />
    <glyph glyph-name="aeacute.salt_low" horiz-adv-x="700" 
d="M482 289q-34 0 -56.5 -18.5t-30.5 -51.5h173q-8 33 -30 51.5t-56 18.5zM211 48q34 0 57 18t23 43t-22 43t-58 18t-56 -18t-20 -43t20 -43t56 -18zM675 45q-31 -26 -77 -44t-100 -18q-52 0 -93 16.5t-68 45.5q-16 -22 -53.5 -42t-95.5 -20q-74 0 -118.5 33.5t-44.5 88.5
t43 91.5t114 36.5q33 0 58.5 -7.5t44.5 -18.5q-1 39 -26.5 57.5t-74.5 18.5q-18 0 -38 -2t-54 -11l-3 86q37 8 62.5 10.5t59.5 2.5q46 0 79.5 -12.5t54.5 -33.5q26 25 61 38.5t77 13.5q84 0 141 -56t57 -140v-30h-289q7 -40 34.5 -61t73.5 -21q37 0 67.5 12t54.5 31z
M522 570l-129 -147h-87l84 147h132z" />
    <glyph glyph-name="agrave.salt_low" horiz-adv-x="433" 
d="M211 48q34 0 57 18t23 43t-22 43t-58 18t-56 -18t-20 -43t20 -43t56 -18zM297 0v37q-18 -21 -50 -37t-76 -16q-63 0 -104.5 33t-41.5 88t43 91.5t114 36.5q35 0 62 -8t46 -21v1q0 40 -27 59t-77 19q-18 0 -39 -2t-55 -11l-3 86q37 8 63.5 10.5t60.5 2.5q90 0 136 -43
t46 -104v-222h-98zM51 570h134l84 -147h-89z" />
    <glyph glyph-name="agrave.salt_ss" horiz-adv-x="477" 
d="M334 178q0 43 -29 72t-72 29t-71 -28.5t-28 -71.5q0 -42 28 -71t71 -29t72 28.5t29 70.5zM339 0v52q-24 -29 -59.5 -46.5t-80.5 -17.5q-74 0 -124.5 54.5t-50.5 135.5q0 40 13.5 75t37 61t55.5 41t69 15q41 0 75.5 -16.5t58.5 -44.5v49h105v-358h-99zM74 570h134l84 -147
h-89z" />
    <glyph glyph-name="amacron.salt_low" horiz-adv-x="433" 
d="M211 48q34 0 57 18t23 43t-22 43t-58 18t-56 -18t-20 -43t20 -43t56 -18zM297 0v37q-18 -21 -50 -37t-76 -16q-63 0 -104.5 33t-41.5 88t43 91.5t114 36.5q35 0 62 -8t46 -21v1q0 40 -27 59t-77 19q-18 0 -39 -2t-55 -11l-3 86q37 8 63.5 10.5t60.5 2.5q90 0 136 -43
t46 -104v-222h-98zM354 506v-83h-260v83h260z" />
    <glyph glyph-name="amacron.salt_ss" horiz-adv-x="477" 
d="M334 178q0 43 -29 72t-72 29t-71 -28.5t-28 -71.5q0 -42 28 -71t71 -29t72 28.5t29 70.5zM339 0v52q-24 -29 -59.5 -46.5t-80.5 -17.5q-74 0 -124.5 54.5t-50.5 135.5q0 40 13.5 75t37 61t55.5 41t69 15q41 0 75.5 -16.5t58.5 -44.5v49h105v-358h-99zM377 506v-83h-260
v83h260z" />
    <glyph glyph-name="aogonek.salt_low" horiz-adv-x="433" 
d="M316 -158q-44 0 -64 20t-20 45t15.5 44t34.5 35l15 12v39q-18 -21 -50 -37t-76 -16q-63 0 -104.5 33t-41.5 88t43 91.5t114 36.5q35 0 62 -8t46 -21v1q0 40 -27 59t-77 19q-18 0 -39 -2t-55 -11l-3 86q37 8 63.5 10.5t60.5 2.5q90 0 136 -43t46 -104v-222l-44 -34
q-16 -13 -24.5 -23t-8.5 -22q0 -8 7 -15t20 -7q9 0 17 3.5t14 7.5l31 -38q-13 -11 -37 -20.5t-54 -9.5zM211 48q34 0 57 18t23 43t-22 43t-58 18t-56 -18t-20 -43t20 -43t56 -18z" />
    <glyph glyph-name="aogonek.salt_ss" horiz-adv-x="477" 
d="M359 -158q-44 0 -64 20t-20 45t15.5 44t35.5 35l13 11v55q-24 -29 -59.5 -46.5t-80.5 -17.5q-74 0 -124.5 54.5t-50.5 135.5q0 40 13.5 75t37 61t55.5 41t69 15q41 0 75.5 -16.5t58.5 -44.5v49h105v-358l-43 -34q-16 -13 -25 -23t-9 -22q0 -8 7 -15t20 -7q9 0 17 3.5
t15 7.5l30 -38q-13 -11 -36.5 -20.5t-54.5 -9.5zM334 178q0 42 -29 71.5t-72 29.5t-71 -29.5t-28 -70.5q0 -40 28 -70t71 -30t72 29.5t29 69.5z" />
    <glyph glyph-name="aring.salt_low" horiz-adv-x="433" 
d="M211 48q34 0 57 18t23 43t-22 43t-58 18t-56 -18t-20 -43t20 -43t56 -18zM297 0v37q-18 -21 -50 -37t-76 -16q-63 0 -104.5 33t-41.5 88t43 91.5t114 36.5q35 0 62 -8t46 -21v1q0 40 -27 59t-77 19q-18 0 -39 -2t-55 -11l-3 86q37 8 63.5 10.5t60.5 2.5q90 0 136 -43
t46 -104v-222h-98zM224 652q50 0 85 -35.5t35 -81.5q0 -47 -35 -82t-85 -35t-85 35.5t-35 81.5t35 81.5t85 35.5zM224 599q-26 0 -44.5 -18.5t-18.5 -45.5q0 -26 18.5 -45t44.5 -19t44.5 19t18.5 45q0 27 -18.5 45.5t-44.5 18.5z" />
    <glyph glyph-name="aring.salt_ss" horiz-adv-x="477" 
d="M334 178q0 43 -29 72t-72 29t-71 -28.5t-28 -71.5q0 -42 28 -71t71 -29t72 28.5t29 70.5zM339 0v52q-24 -29 -59.5 -46.5t-80.5 -17.5q-74 0 -124.5 54.5t-50.5 135.5q0 40 13.5 75t37 61t55.5 41t69 15q41 0 75.5 -16.5t58.5 -44.5v49h105v-358h-99zM247 652
q50 0 85 -35.5t35 -81.5q0 -47 -35 -82t-85 -35t-85 35.5t-35 81.5t35 81.5t85 35.5zM247 599q-26 0 -44.5 -18.5t-18.5 -45.5q0 -26 18.5 -45t44.5 -19t44.5 19t18.5 45q0 27 -18.5 45.5t-44.5 18.5z" />
    <glyph glyph-name="aringacute.salt_low" horiz-adv-x="433" 
d="M211 48q34 0 57 18t23 43t-22 43t-58 18t-56 -18t-20 -43t20 -43t56 -18zM297 0v37q-18 -21 -50 -37t-76 -16q-63 0 -104.5 33t-41.5 88t43 91.5t114 36.5q35 0 62 -8t46 -21v1q0 40 -27 59t-77 19q-18 0 -39 -2t-55 -11l-3 86q37 8 63.5 10.5t60.5 2.5q90 0 136 -43
t46 -104v-222h-98zM224 652q50 0 85 -35.5t35 -81.5q0 -47 -35 -82t-85 -35t-85 35.5t-35 81.5t35 81.5t85 35.5zM224 599q-26 0 -44.5 -18.5t-18.5 -45.5q0 -26 18.5 -45t44.5 -19t44.5 19t18.5 45q0 27 -18.5 45.5t-44.5 18.5zM393 821l-129 -147h-87l84 147h132z" />
    <glyph glyph-name="aringacute.salt_ss" horiz-adv-x="477" 
d="M334 178q0 43 -29 72t-72 29t-71 -28.5t-28 -71.5q0 -42 28 -71t71 -29t72 28.5t29 70.5zM339 0v52q-24 -29 -59.5 -46.5t-80.5 -17.5q-74 0 -124.5 54.5t-50.5 135.5q0 40 13.5 75t37 61t55.5 41t69 15q41 0 75.5 -16.5t58.5 -44.5v49h105v-358h-99zM247 652
q50 0 85 -35.5t35 -81.5q0 -47 -35 -82t-85 -35t-85 35.5t-35 81.5t35 81.5t85 35.5zM247 599q-26 0 -44.5 -18.5t-18.5 -45.5q0 -26 18.5 -45t44.5 -19t44.5 19t18.5 45q0 27 -18.5 45.5t-44.5 18.5zM416 821l-129 -147h-87l84 147h132z" />
    <glyph glyph-name="asterisk.salt1" horiz-adv-x="360" 
d="M322 505l-114 25l-42 -102l-23 2l-10 116l-111 9l-5 22l107 47l-26 108l19 11l77 -88l95 59l17 -16l-59 -99l84 -73z" />
    <glyph glyph-name="atilde.salt_low" horiz-adv-x="433" 
d="M211 48q34 0 57 18t23 43t-22 43t-58 18t-56 -18t-20 -43t20 -43t56 -18zM297 0v37q-18 -21 -50 -37t-76 -16q-63 0 -104.5 33t-41.5 88t43 91.5t114 36.5q35 0 62 -8t46 -21v1q0 40 -27 59t-77 19q-18 0 -39 -2t-55 -11l-3 86q37 8 63.5 10.5t60.5 2.5q90 0 136 -43
t46 -104v-222h-98zM140 422l-79 3q-3 72 23 100.5t66 28.5q18 0 36 -7.5t35 -16l32 -16t25 -7.5q13 0 22 8.5t9 36.5l78 -2q3 -62 -20 -93t-66 -31q-18 0 -36.5 7t-36 15.5t-32.5 15.5t-26 7q-12 0 -21.5 -9.5t-8.5 -39.5z" />
    <glyph glyph-name="atilde.salt_ss" horiz-adv-x="477" 
d="M334 178q0 43 -29 72t-72 29t-71 -28.5t-28 -71.5q0 -42 28 -71t71 -29t72 28.5t29 70.5zM339 0v52q-24 -29 -59.5 -46.5t-80.5 -17.5q-74 0 -124.5 54.5t-50.5 135.5q0 40 13.5 75t37 61t55.5 41t69 15q41 0 75.5 -16.5t58.5 -44.5v49h105v-358h-99zM163 422l-79 3
q-3 72 23 100.5t66 28.5q18 0 36 -7.5t35 -16l32 -16t25 -7.5q13 0 22 8.5t9 36.5l78 -2q3 -62 -20 -93t-66 -31q-18 0 -36.5 7t-36 15.5t-32.5 15.5t-26 7q-12 0 -21.5 -9.5t-8.5 -39.5z" />
    <glyph glyph-name="braceleft.uc" horiz-adv-x="414" 
d="M348 -122h-80q-59 0 -92 28.5t-33 109.5v205q0 46 -15.5 67.5t-40.5 28.5q-1 0 -3.5 0.5t-3.5 1.5v76q1 1 3.5 1.5t3.5 0.5q25 7 40.5 28.5t15.5 66.5v208q0 81 33 109.5t92 28.5h80v-72h-36q-30 0 -45 -16.5t-15 -72.5v-183q0 -48 -18 -80t-58 -49v-16q40 -16 58 -47
t18 -79v-190q0 -56 15 -69.5t45 -13.5h36v-72z" />
    <glyph glyph-name="braceright.uc" horiz-adv-x="414" 
d="M146 -122h-81v66h37q29 0 44 14t15 70v195q0 48 18 79t58 47v16q-40 17 -58 49t-18 80v189q0 56 -15 72.5t-44 16.5h-37v66h81q58 0 91.5 -28.5t33.5 -109.5v-208q0 -45 15.5 -66.5t40.5 -28.5q1 0 3.5 -0.5t3.5 -1.5v-76q-1 -1 -4 -1.5l-3 -0.5q-25 -7 -40.5 -28.5
t-15.5 -67.5v-205q0 -81 -33.5 -109.5t-91.5 -28.5z" />
    <glyph glyph-name="bracketleft.uc" horiz-adv-x="398" 
d="M115 -122v960h236v-72h-127v-816h135v-72h-244z" />
    <glyph glyph-name="bracketright.uc" horiz-adv-x="398" 
d="M283 -122h-245v72h135v816h-127v72h237v-960z" />
    <glyph glyph-name="breve.cmb" 
d="M158 789q-15 -66 -55.5 -107.5t-102.5 -41.5t-102.5 41.5t-55.5 107.5l72 3q15 -40 38.5 -60.5t47.5 -20.5t47.5 20.5t38.5 60.5z" />
    <glyph glyph-name="breve.lc" 
d="M158 789q-15 -66 -55.5 -107.5t-102.5 -41.5t-102.5 41.5t-55.5 107.5l72 3q15 -40 38.5 -60.5t47.5 -20.5t47.5 20.5t38.5 60.5z" />
    <glyph glyph-name="c.salt_low" horiz-adv-x="358" 
d="M327 99v-92q-15 -10 -42.5 -14.5t-49.5 -4.5q-46 0 -85 14.5t-67.5 40t-44.5 60.5t-16 76t16 76t44.5 60.5t67.5 40t85 14.5q22 0 49.5 -5t42.5 -14v-92h-3q-23 13 -42.5 17t-42.5 4q-46 0 -76 -29t-30 -72t30 -72t76 -29q23 0 42.5 4.5t42.5 16.5h3z" />
    <glyph glyph-name="c_h" horiz-adv-x="765" 
d="M327 99v-92q-15 -10 -42.5 -14.5t-49.5 -4.5q-46 0 -85 14.5t-67.5 40t-44.5 60.5t-16 76t16 76t44.5 60.5t67.5 40t85 14.5q22 0 49.5 -5t42.5 -14v-92h-3q-23 13 -42.5 17t-42.5 4q-46 0 -76 -29t-30 -72t30 -72t76 -29q23 0 42.5 4.5t42.5 16.5h3zM488 208v-208h-105
v780h105v-462q16 19 44.5 34t67.5 15q54 0 91 -35.5t37 -96.5v-235h-105v202q0 39 -19.5 55.5t-47.5 16.5q-24 0 -46 -17.5t-22 -48.5z" />
    <glyph glyph-name="c_k" horiz-adv-x="753" 
d="M327 99v-92q-15 -10 -42.5 -14.5t-49.5 -4.5q-46 0 -85 14.5t-67.5 40t-44.5 60.5t-16 76t16 76t44.5 60.5t67.5 40t85 14.5q22 0 49.5 -5t42.5 -14v-92h-3q-23 13 -42.5 17t-42.5 4q-46 0 -76 -29t-30 -72t30 -72t76 -29q23 0 42.5 4.5t42.5 16.5h3zM614 0l-91 148
l-35 -38v-110h-105v780h105v-541l112 119h134l-135 -141l143 -217h-128z" />
    <glyph glyph-name="cacute.salt_low" horiz-adv-x="358" 
d="M327 99v-92q-15 -10 -42.5 -14.5t-49.5 -4.5q-46 0 -85 14.5t-67.5 40t-44.5 60.5t-16 76t16 76t44.5 60.5t67.5 40t85 14.5q22 0 49.5 -5t42.5 -14v-92h-3q-23 13 -42.5 17t-42.5 4q-46 0 -76 -29t-30 -72t30 -72t76 -29q23 0 42.5 4.5t42.5 16.5h3zM393 570l-129 -147
h-87l84 147h132z" />
    <glyph glyph-name="caron.cmb" 
d="M57 643h-117l-111 147h94l74 -91l75 91h96z" />
    <glyph glyph-name="caron.lc" 
d="M57 643h-117l-111 147h94l74 -91l75 91h96z" />
    <glyph glyph-name="caron.vertical" orientation="v" 
d="M24 -30l-48 -167h-62l17 167h93z" />
    <glyph glyph-name="ccaron.salt_low" horiz-adv-x="358" 
d="M327 99v-92q-15 -10 -42.5 -14.5t-49.5 -4.5q-46 0 -85 14.5t-67.5 40t-44.5 60.5t-16 76t16 76t44.5 60.5t67.5 40t85 14.5q22 0 49.5 -5t42.5 -14v-92h-3q-23 13 -42.5 17t-42.5 4q-46 0 -76 -29t-30 -72t30 -72t76 -29q23 0 42.5 4.5t42.5 16.5h3zM284 423h-117
l-111 147h94l74 -91l75 91h96z" />
    <glyph glyph-name="ccedilla.salt_low" horiz-adv-x="358" 
d="M327 99v-92q-15 -10 -42.5 -14.5t-49.5 -4.5q-46 0 -85 14.5t-67.5 40t-44.5 60.5t-16 76t16 76t44.5 60.5t67.5 40t85 14.5q22 0 49.5 -5t42.5 -14v-92h-3q-23 13 -42.5 17t-42.5 4q-46 0 -76 -29t-30 -72t30 -72t76 -29q23 0 42.5 4.5t42.5 16.5h3zM197 -181
q-13 0 -31.5 3t-34.5 8v53h1q16 -5 32 -7.5t25 -2.5q20 0 32 7t12 19t-15 19.5t-40 7.5h-16l-1 5l24 69l53 -3l-13 -27q35 -6 55.5 -25t20.5 -47q0 -35 -28 -57t-76 -22z" />
    <glyph glyph-name="ccircumflex.salt_low" horiz-adv-x="358" 
d="M327 99v-92q-15 -10 -42.5 -14.5t-49.5 -4.5q-46 0 -85 14.5t-67.5 40t-44.5 60.5t-16 76t16 76t44.5 60.5t67.5 40t85 14.5q22 0 49.5 -5t42.5 -14v-92h-3q-23 13 -42.5 17t-42.5 4q-46 0 -76 -29t-30 -72t30 -72t76 -29q23 0 42.5 4.5t42.5 16.5h3zM299 423l-75 91
l-74 -91h-95l111 147h117l111 -147h-95z" />
    <glyph glyph-name="cdotaccent.salt_low" horiz-adv-x="358" 
d="M327 99v-92q-15 -10 -42.5 -14.5t-49.5 -4.5q-46 0 -85 14.5t-67.5 40t-44.5 60.5t-16 76t16 76t44.5 60.5t67.5 40t85 14.5q22 0 49.5 -5t42.5 -14v-92h-3q-23 13 -42.5 17t-42.5 4q-46 0 -76 -29t-30 -72t30 -72t76 -29q23 0 42.5 4.5t42.5 16.5h3zM278 525v-100h-108
v100h108z" />
    <glyph glyph-name="cedilla.cmb" 
d="M-28 -199q-13 0 -34 3.5t-39 9.5v54h1q19 -6 37.5 -9t28.5 -3q25 0 40 9.5t15 24.5q0 14 -18.5 23t-47.5 9h-20l-3 8l29 80h61l-19 -42q40 -7 63 -28.5t23 -52.5q0 -36 -33 -61t-84 -25z" />
    <glyph glyph-name="cedilla.lc" 
d="M-29 -169q-13 0 -31.5 3t-34.5 8v53h1q16 -5 32 -7.5t25 -2.5q20 0 32 7t12 19t-15 19.5t-40 7.5h-16l-1 5l24 69l53 -3l-13 -27q35 -6 55.5 -25t20.5 -47q0 -35 -28 -57t-76 -22z" />
    <glyph glyph-name="circumflex.cmb" 
d="M73 643l-75 91l-74 -91h-95l111 147h117l111 -147h-95z" />
    <glyph glyph-name="circumflex.lc" 
d="M73 643l-75 91l-74 -91h-95l111 147h117l111 -147h-95z" />
    <glyph glyph-name="colon.uc" horiz-adv-x="245" 
d="M59 622h127v-141h-127v141zM59 241h127v-141h-127v141z" />
    <glyph glyph-name="commaaccent.cmb" 
d="M56 -30l-59 -165h-79l24 165h114z" />
    <glyph glyph-name="commaaccent.lc" 
d="M56 -30l-59 -165h-79l24 165h114z" />
    <glyph glyph-name="dieresis.cmb" 
d="M165 770v-95h-111v95h111zM-54 770v-95h-111v95h111z" />
    <glyph glyph-name="dieresis.lc" 
d="M136 770v-95h-101v95h101zM-35 770v-95h-101v95h101z" />
    <glyph glyph-name="divide.uc" horiz-adv-x="597" 
d="M245 514v118h108v-118h-108zM560 418v-91h-523v91h523zM245 113v118h108v-118h-108z" />
    <glyph glyph-name="dotaccent.cmb" 
d="M54 733v-99h-108v99h108z" />
    <glyph glyph-name="dotaccent.lc" 
d="M54 734v-100h-108v100h108z" />
    <glyph glyph-name="eight.dnom" horiz-adv-x="374" 
d="M186 -15q-81 0 -129 43t-48 109q0 40 21.5 71.5t60.5 49.5q-27 16 -41.5 41.5t-14.5 55.5q0 51 41 89t110 38q72 0 112 -38t40 -89q0 -30 -14.5 -55.5t-41.5 -41.5q39 -18 60.5 -49.5t21.5 -71.5q0 -66 -48.5 -109t-129.5 -43zM186 282q28 0 48.5 19.5t20.5 47.5
q0 26 -20.5 44t-48.5 18t-48 -18t-20 -44q0 -28 20 -47.5t48 -19.5zM186 56q39 0 65.5 24.5t26.5 61.5q0 35 -26.5 58.5t-65.5 23.5q-37 0 -64 -23.5t-27 -58.5q0 -37 27 -61.5t64 -24.5z" />
    <glyph glyph-name="eight.numr" horiz-adv-x="374" 
d="M186 264q-81 0 -129 43t-48 109q0 40 21.5 71.5t60.5 49.5q-27 16 -41.5 41.5t-14.5 55.5q0 51 41 89t110 38q72 0 112 -38t40 -89q0 -30 -14.5 -55.5t-41.5 -41.5q39 -18 60.5 -49.5t21.5 -71.5q0 -66 -48.5 -109t-129.5 -43zM186 561q28 0 48.5 19.5t20.5 47.5
q0 26 -20.5 44t-48.5 18t-48 -18t-20 -44q0 -28 20 -47.5t48 -19.5zM186 335q39 0 65.5 24.5t26.5 61.5q0 35 -26.5 58.5t-65.5 23.5q-37 0 -64 -23.5t-27 -58.5q0 -37 27 -61.5t64 -24.5z" />
    <glyph glyph-name="emdash.uc" horiz-adv-x="724" 
d="M694 362v-87h-664v87h664z" />
    <glyph glyph-name="emdash.uc_salt_em" horiz-adv-x="1000" 
d="M1000 417v-87h-1000v87h1000z" />
    <glyph glyph-name="endash.salt_en" horiz-adv-x="500" 
d="M500 361v-87h-500v87h500z" />
    <glyph glyph-name="endash.uc" horiz-adv-x="524" 
d="M494 362v-87h-464v87h464z" />
    <glyph glyph-name="endash.uc_salt_en" horiz-adv-x="500" 
d="M500 417v-87h-500v87h500z" />
    <glyph glyph-name="equal.uc" horiz-adv-x="545" 
d="M508 511v-84h-470v84h470zM508 298v-84h-470v84h470z" />
    <glyph glyph-name="five.dnom" horiz-adv-x="365" 
d="M132 -15q-26 0 -59.5 7t-59.5 21v77q26 -15 56 -23t62 -8q49 0 82 26.5t33 69.5q0 35 -32 60t-85 25q-25 0 -47.5 -4t-43.5 -11l59 242h256l-23 -74h-173l-24 -86q6 1 12 1h12q85 0 132 -43t47 -109q0 -75 -55.5 -123t-148.5 -48z" />
    <glyph glyph-name="five.numr" horiz-adv-x="365" 
d="M132 264q-26 0 -59.5 7t-59.5 21v77q26 -15 56 -23t62 -8q49 0 82 26.5t33 69.5q0 35 -32 60t-85 25q-25 0 -47.5 -4t-43.5 -11l59 242h256l-23 -74h-173l-24 -86q6 1 12 1h12q85 0 132 -43t47 -109q0 -75 -55.5 -123t-148.5 -48z" />
    <glyph glyph-name="four.dnom" horiz-adv-x="397" 
d="M244 159v178l-124 -178h124zM370 86h-37v-86h-89v86h-232l-8 15l254 366h75v-308h58z" />
    <glyph glyph-name="four.numr" horiz-adv-x="397" 
d="M244 438v178l-124 -178h124zM370 365h-37v-86h-89v86h-232l-8 15l254 366h75v-308h58z" />
    <glyph glyph-name="grave.cmb" 
d="M-128 790h134l84 -147h-89z" />
    <glyph glyph-name="grave.lc" 
d="M-128 790h134l84 -147h-89z" />
    <glyph glyph-name="guillemotleft.uc" horiz-adv-x="569" 
d="M517 46h-95l-185 285v4l185 285h97l-186 -286zM325 46h-95l-185 285v4l185 285h97l-186 -286z" />
    <glyph glyph-name="guillemotright.uc" horiz-adv-x="568" 
d="M338 46h-96l185 288l-184 286h95l185 -285v-4zM146 46h-96l185 288l-184 286h95l185 -285v-4z" />
    <glyph glyph-name="guilsinglleft.uc" horiz-adv-x="376" 
d="M325 46h-95l-185 285v4l185 285h97l-186 -286z" />
    <glyph glyph-name="guilsinglright.uc" horiz-adv-x="376" 
d="M146 46h-96l185 288l-184 286h95l185 -285v-4z" />
    <glyph glyph-name="hungarumlaut.cmb" 
d="M130 790h121l-132 -147h-81zM-53 790h121l-133 -147h-82z" />
    <glyph glyph-name="hungarumlaut.lc" 
d="M120 790h122l-133 -147h-81zM-44 790h121l-132 -147h-82z" />
    <glyph glyph-name="hyphen.uc" horiz-adv-x="404" 
d="M364 371v-104h-324v104h324z" />
    <glyph glyph-name="i_jacute" horiz-adv-x="374" 
d="M146 358v-358h-105v358h105zM263 570l-129 -147h-87l84 147h132zM162 -107h13q22 0 37.5 15t15.5 42v408h105v-405q0 -81 -36.5 -117t-124.5 -36h-10v93zM449 570l-129 -147h-87l84 147h132z" />
    <glyph glyph-name="jacute" horiz-adv-x="187" 
d="M-25 -107h13q22 0 37.5 15t15.5 42v408h105v-405q0 -81 -36.5 -117t-124.5 -36h-10v93zM262 570l-129 -147h-87l84 147h132z" />
    <glyph glyph-name="macron.cmb" 
d="M140 749v-83h-280v83h280z" />
    <glyph glyph-name="macron.lc" 
d="M130 749v-83h-260v83h260z" />
    <glyph glyph-name="minus.uc" horiz-adv-x="578" 
d="M544 418v-90h-510v90h510z" />
    <glyph glyph-name="multiply.uc" horiz-adv-x="539" 
d="M446 121l-181 181l-174 -173l-61 62l173 173l-169 169l64 62l168 -168l159 159l62 -62l-159 -159l181 -181z" />
    <glyph glyph-name="nine.dnom" horiz-adv-x="380" 
d="M192 0h-106q42 47 80.5 93.5t66.5 88.5q-16 -8 -34.5 -13t-38.5 -5q-62 0 -106 44t-44 109q0 34 13.5 64t37 52.5t56.5 35.5t72 13q37 0 69.5 -11.5t57 -32.5t38.5 -52t14 -70q0 -38 -16 -78.5t-41 -81t-56.5 -80t-62.5 -76.5zM189 230q37 0 64 26t27 63t-27 63t-64 26
q-39 0 -65.5 -26t-26.5 -63t26.5 -63t65.5 -26z" />
    <glyph glyph-name="nine.numr" horiz-adv-x="380" 
d="M192 279h-106q42 47 80.5 93.5t66.5 88.5q-16 -8 -34.5 -13t-38.5 -5q-62 0 -106 44t-44 109q0 34 13.5 64t37 52.5t56.5 35.5t72 13q37 0 69.5 -11.5t57 -32.5t38.5 -52t14 -70q0 -38 -16 -78.5t-41 -81t-56.5 -80t-62.5 -76.5zM189 509q37 0 64 26t27 63t-27 63t-64 26
q-39 0 -65.5 -26t-26.5 -63t26.5 -63t65.5 -26z" />
    <glyph glyph-name="ogonek.cmb" 
d="M13 -29q-20 -16 -30.5 -27t-10.5 -24q0 -11 8.5 -20t22.5 -9q12 0 21 4.5t16 10.5l35 -44q-13 -13 -38.5 -24.5t-59.5 -11.5q-49 0 -72 24t-23 52t17 49t40 39l38 27l77 -11z" />
    <glyph glyph-name="ogonek.lc" 
d="M6 -28q-16 -13 -25 -23t-9 -22q0 -8 7.5 -15t19.5 -7q9 0 17.5 3.5t14.5 7.5l30 -38q-12 -11 -36 -20.5t-55 -9.5q-44 0 -64 20t-20 45t15.5 44t35.5 35l33 26l79 -12z" />
    <glyph glyph-name="one.dnom" horiz-adv-x="235" 
d="M197 0h-88v339l-88 -88v114l107 102h69v-467z" />
    <glyph glyph-name="one.numr" horiz-adv-x="235" 
d="M197 279h-88v339l-88 -88v114l107 102h69v-467z" />
    <glyph glyph-name="parenleft.uc" horiz-adv-x="402" 
d="M289 842l63 -67q-26 -25 -54.5 -65.5t-51.5 -92.5t-38 -115t-15 -134v-13q0 -70 15 -133.5t38 -116t51.5 -92.5t54.5 -64l-62 -68q-34 27 -70.5 71.5t-66.5 104t-49.5 134.5t-19.5 162v16q0 88 19.5 162.5t49.5 133.5t66.5 103.5t69.5 73.5z" />
    <glyph glyph-name="parenright.uc" horiz-adv-x="412" 
d="M122 842q33 -29 69.5 -73.5t66.5 -103.5t49.5 -133.5t19.5 -162.5v-16q0 -87 -19.5 -162t-49.5 -134.5t-66.5 -104t-70.5 -71.5l-61 68q26 24 54.5 64t51 92.5t37.5 116t15 133.5v13q0 71 -15 134t-38 115t-51 92.5t-54 65.5z" />
    <glyph glyph-name="plus.uc" horiz-adv-x="617" 
d="M578 329h-218v-239h-103v239h-219v90h219v220h103v-220h218v-90z" />
    <glyph glyph-name="registered.salt_big" horiz-adv-x="875" 
d="M438 756q83 0 154.5 -30t123.5 -82t81.5 -122t29.5 -149t-29.5 -149t-81.5 -122t-123.5 -82t-154.5 -30t-155 30t-124 82t-81.5 122t-29.5 149t29.5 149t81.5 122t124 82t155 30zM438 714q-71 0 -133.5 -27t-108.5 -73t-73 -108t-27 -133q0 -70 27 -132.5t73 -108.5
t108.5 -73t133.5 -27q70 0 132 27t108.5 73t73.5 108.5t27 132.5q0 71 -27 133t-73.5 108t-108.5 73t-132 27zM434 511h-30v-126h30q34 0 52.5 17.5t18.5 46.5q0 28 -18.5 45t-52.5 17zM525 161l-113 148h-7v-148h-92v433h118q32 0 62 -7.5t53 -24.5t36.5 -44.5t13.5 -65.5
q0 -46 -25.5 -78t-61.5 -48l120 -157l-7 -8h-97z" />
    <glyph glyph-name="ring.cmb" 
d="M0 873q50 0 85 -35.5t35 -81.5q0 -47 -35 -82t-85 -35t-85 35.5t-35 81.5t35 81.5t85 35.5zM0 820q-26 0 -44.5 -18.5t-18.5 -45.5q0 -26 18.5 -45t44.5 -19t44.5 19t18.5 45q0 27 -18.5 45.5t-44.5 18.5z" />
    <glyph glyph-name="ring.lc" 
d="M0 873q50 0 85 -35.5t35 -81.5q0 -47 -35 -82t-85 -35t-85 35.5t-35 81.5t35 81.5t85 35.5zM0 820q-26 0 -44.5 -18.5t-18.5 -45.5q0 -26 18.5 -45t44.5 -19t44.5 19t18.5 45q0 27 -18.5 45.5t-44.5 18.5z" />
    <glyph glyph-name="s.salt_low" horiz-adv-x="313" 
d="M166 370q25 0 46.5 -4t37.5 -10v-88q-21 10 -40.5 14t-31.5 4q-17 0 -27 -6t-10 -16q0 -8 11.5 -18t35.5 -26q57 -38 78 -65.5t21 -60.5q0 -43 -36.5 -74.5t-102.5 -31.5q-30 0 -58 5.5t-50 15.5v89q27 -13 51 -19t39 -6q23 0 33.5 7.5t10.5 17.5q0 7 -10.5 18.5
t-50.5 36.5q-49 33 -66 59.5t-17 54.5q0 40 31.5 71.5t104.5 31.5z" />
    <glyph glyph-name="sacute.salt_low" horiz-adv-x="321" 
d="M166 370q25 0 46.5 -4t37.5 -10v-88q-21 10 -40.5 14t-31.5 4q-17 0 -27 -6t-10 -16q0 -8 11.5 -18t35.5 -26q57 -38 78 -65.5t21 -60.5q0 -43 -36.5 -74.5t-102.5 -31.5q-30 0 -58 5.5t-50 15.5v89q27 -13 51 -19t39 -6q23 0 33.5 7.5t10.5 17.5q0 7 -10.5 18.5
t-50.5 36.5q-49 33 -66 59.5t-17 54.5q0 40 31.5 71.5t104.5 31.5zM329 570l-129 -147h-87l84 147h132z" />
    <glyph glyph-name="scaron.salt_low" horiz-adv-x="321" 
d="M166 370q25 0 46.5 -4t37.5 -10v-88q-21 10 -40.5 14t-31.5 4q-17 0 -27 -6t-10 -16q0 -8 11.5 -18t35.5 -26q57 -38 78 -65.5t21 -60.5q0 -43 -36.5 -74.5t-102.5 -31.5q-30 0 -58 5.5t-50 15.5v89q27 -13 51 -19t39 -6q23 0 33.5 7.5t10.5 17.5q0 7 -10.5 18.5
t-50.5 36.5q-49 33 -66 59.5t-17 54.5q0 40 31.5 71.5t104.5 31.5zM220 423h-117l-111 147h94l74 -91l75 91h96z" />
    <glyph glyph-name="scedilla.salt_low" horiz-adv-x="321" 
d="M166 370q25 0 46.5 -4t37.5 -10v-88q-21 10 -40.5 14t-31.5 4q-17 0 -27 -6t-10 -16q0 -8 11.5 -18t35.5 -26q57 -38 78 -65.5t21 -60.5q0 -43 -36.5 -74.5t-102.5 -31.5q-30 0 -58 5.5t-50 15.5v89q27 -13 51 -19t39 -6q23 0 33.5 7.5t10.5 17.5q0 7 -10.5 18.5
t-50.5 36.5q-49 33 -66 59.5t-17 54.5q0 40 31.5 71.5t104.5 31.5zM144 -181q-13 0 -31.5 3t-34.5 8v53h1q16 -5 32 -7.5t25 -2.5q20 0 32 7t12 19t-15 19.5t-40 7.5h-16l-1 5l24 69l53 -3l-13 -27q35 -6 55.5 -25t20.5 -47q0 -35 -28 -57t-76 -22z" />
    <glyph glyph-name="scircumflex.salt_low" horiz-adv-x="321" 
d="M166 370q25 0 46.5 -4t37.5 -10v-88q-21 10 -40.5 14t-31.5 4q-17 0 -27 -6t-10 -16q0 -8 11.5 -18t35.5 -26q57 -38 78 -65.5t21 -60.5q0 -43 -36.5 -74.5t-102.5 -31.5q-30 0 -58 5.5t-50 15.5v89q27 -13 51 -19t39 -6q23 0 33.5 7.5t10.5 17.5q0 7 -10.5 18.5
t-50.5 36.5q-49 33 -66 59.5t-17 54.5q0 40 31.5 71.5t104.5 31.5zM235 423l-75 91l-74 -91h-95l111 147h117l111 -147h-95z" />
    <glyph glyph-name="scommaaccent.salt_low" horiz-adv-x="321" 
d="M166 370q25 0 46.5 -4t37.5 -10v-88q-21 10 -40.5 14t-31.5 4q-17 0 -27 -6t-10 -16q0 -8 11.5 -18t35.5 -26q57 -38 78 -65.5t21 -60.5q0 -43 -36.5 -74.5t-102.5 -31.5q-30 0 -58 5.5t-50 15.5v89q27 -13 51 -19t39 -6q23 0 33.5 7.5t10.5 17.5q0 7 -10.5 18.5
t-50.5 36.5q-49 33 -66 59.5t-17 54.5q0 40 31.5 71.5t104.5 31.5zM215 -57l-59 -165h-79l24 165h114z" />
    <glyph glyph-name="semicolon.uc" horiz-adv-x="266" 
d="M76 622h126v-141h-126v141zM77 215h127l-83 -263h-86z" />
    <glyph glyph-name="seven.dnom" horiz-adv-x="357" 
d="M154 0h-97l172 391h-218l24 76h320z" />
    <glyph glyph-name="seven.numr" horiz-adv-x="357" 
d="M154 279h-97l172 391h-218l24 76h320z" />
    <glyph glyph-name="six.dnom" horiz-adv-x="380" 
d="M193 -15q-75 0 -127.5 44t-52.5 122q0 38 16 78.5t41 80.5t56.5 80t62.5 77h106q-42 -47 -80 -93.5t-66 -88.5q16 8 34 13t37 5q62 0 106.5 -44.5t44.5 -108.5q0 -68 -50 -116.5t-128 -48.5zM193 236q-38 0 -65.5 -26t-27.5 -63q0 -36 27.5 -62.5t65.5 -26.5
q37 0 64 26.5t27 62.5q0 37 -27 63t-64 26z" />
    <glyph glyph-name="six.numr" horiz-adv-x="380" 
d="M193 264q-75 0 -127.5 44t-52.5 122q0 38 16 78.5t41 80.5t56.5 80t62.5 77h106q-42 -47 -80 -93.5t-66 -88.5q16 8 34 13t37 5q62 0 106.5 -44.5t44.5 -108.5q0 -68 -50 -116.5t-128 -48.5zM193 515q-38 0 -65.5 -26t-27.5 -63q0 -36 27.5 -62.5t65.5 -26.5
q37 0 64 26.5t27 62.5q0 37 -27 63t-64 26z" />
    <glyph glyph-name="space.em" horiz-adv-x="1000" 
 />
    <glyph glyph-name="space.en" horiz-adv-x="500" 
 />
    <glyph glyph-name="space.frac" horiz-adv-x="85" 
 />
    <glyph glyph-name="space.thin" horiz-adv-x="150" 
 />
    <glyph glyph-name="three.dnom" horiz-adv-x="324" 
d="M127 -15q-23 0 -58.5 5t-57.5 18v73q17 -13 47 -18t45 -5q53 -1 86 22t33 60q0 35 -31 56t-79 21h-32l3 71h29q37 0 61 19t24 46q0 25 -22 40.5t-57 15.5q-17 0 -38.5 -3.5t-41.5 -12.5l6 77q16 5 38 8.5t52 3.5q64 1 107.5 -33t43.5 -84q-1 -31 -17.5 -59.5t-44.5 -45.5
q38 -16 62.5 -48t24.5 -75q0 -66 -51 -109.5t-132 -42.5z" />
    <glyph glyph-name="three.numr" horiz-adv-x="324" 
d="M127 264q-23 0 -58.5 5t-57.5 18v73q17 -13 47 -18t45 -5q53 -1 86 22t33 60q0 35 -31 56t-79 21h-32l3 71h29q37 0 61 19t24 46q0 25 -22 40.5t-57 15.5q-17 0 -38.5 -3.5t-41.5 -12.5l6 77q16 5 38 8.5t52 3.5q64 1 107.5 -33t43.5 -84q-1 -31 -17.5 -59.5t-44.5 -45.5
q38 -16 62.5 -48t24.5 -75q0 -66 -51 -109.5t-132 -42.5z" />
    <glyph glyph-name="tilde.cmb" 
d="M-122 643l-86 2q-4 42 4 71t24 46t37.5 24.5t44.5 7.5t48.5 -10t49 -22t45 -22t36.5 -10q16 0 29 12.5t12 50.5l86 -2q7 -76 -25.5 -111t-83.5 -35q-24 0 -49.5 10t-49 21.5t-45 21.5t-36.5 10q-16 0 -29.5 -12.5t-11.5 -52.5z" />
    <glyph glyph-name="tilde.lc" 
d="M-84 643l-79 3q-3 72 23 100.5t66 28.5q18 0 36 -7.5t35 -16l32 -16t25 -7.5q13 0 22 8.5t9 36.5l78 -2q3 -62 -20 -93t-66 -31q-18 0 -36.5 7t-36 15.5t-32.5 15.5t-26 7q-12 0 -21.5 -9.5t-8.5 -39.5z" />
    <glyph glyph-name="two.dnom" horiz-adv-x="361" 
d="M321 0h-309l-6 11q10 12 37.5 45.5t58 71t57.5 70.5t36 45q21 26 31.5 44.5t10.5 45.5q0 28 -23 50.5t-61 23.5q-25 0 -50.5 -9.5t-53.5 -32.5v88q27 15 56.5 22t58.5 7q74 -1 119.5 -42t45.5 -100q-1 -48 -21.5 -76.5t-45.5 -59.5q-13 -18 -47 -57t-66 -74h203z" />
    <glyph glyph-name="two.numr" horiz-adv-x="361" 
d="M321 279h-309l-6 11q10 12 37.5 45.5t58 71t57.5 70.5t36 45q21 26 31.5 44.5t10.5 45.5q0 28 -23 50.5t-61 23.5q-25 0 -50.5 -9.5t-53.5 -32.5v88q27 15 56.5 22t58.5 7q74 -1 119.5 -42t45.5 -100q-1 -48 -21.5 -76.5t-45.5 -59.5q-13 -18 -47 -57t-66 -74h203z" />
    <glyph glyph-name="zero.dnom" horiz-adv-x="405" 
d="M203 482q77 0 128 -58.5t51 -174.5v-32q0 -114 -51.5 -173t-127.5 -59q-77 0 -128 59t-51 173v32q0 116 51 174.5t128 58.5zM294 216v32q0 81 -25.5 120t-65.5 39t-66.5 -39t-26.5 -120v-32q0 -80 26.5 -118.5t66.5 -38.5t65.5 38.5t25.5 118.5z" />
    <glyph glyph-name="zero.numr" horiz-adv-x="405" 
d="M203 761q77 0 128 -58.5t51 -174.5v-32q0 -114 -51.5 -173t-127.5 -59q-77 0 -128 59t-51 173v32q0 116 51 174.5t128 58.5zM294 495v32q0 81 -25.5 120t-65.5 39t-66.5 -39t-26.5 -120v-32q0 -80 26.5 -118.5t66.5 -38.5t65.5 38.5t25.5 118.5z" />
    <glyph glyph-name="zero.salt_slash" horiz-adv-x="618" 
d="M309 770q58 0 107.5 -23.5t85 -70t55.5 -116.5t20 -162v-52q0 -91 -20 -160.5t-55.5 -116t-85 -70t-107.5 -23.5q-57 0 -106 23.5t-85 70t-56.5 116t-20.5 160.5v52q0 92 20.5 162t56.5 116.5t85 70t106 23.5zM309 675q-19 0 -36 -5t-32 -15l195 -493q15 34 23 79.5
t8 103.5v52q0 141 -44 209.5t-114 68.5zM309 70q19 0 36.5 5t33.5 15l-196 491q-15 -33 -23.5 -79.5t-8.5 -104.5v-52q0 -140 45 -207.5t113 -67.5z" />
    </font>
</defs>
</svg>
