<?xml version="1.0" standalone="no"?>
<!DOCTYPE svg PUBLIC "-//W3C//DTD SVG 1.1//EN" "http://www.w3.org/Graphics/SVG/1.1/DTD/svg11.dtd" >
<svg>
<metadata>
Created by FontForge 20120731 at Thu Sep  5 23:24:27 2019
 By www
Copyright (c) 2015 CJ Type. All rights reserved.
</metadata>
<defs>
<font id="DunbarTall-Book" horiz-adv-x="0" >
  <font-face 
    font-family="DunbarTall Book"
    font-weight="350"
    font-stretch="normal"
    units-per-em="1000"
    panose-1="0 0 0 0 0 0 0 2 0 0"
    ascent="780"
    descent="-220"
    x-height="574"
    cap-height="746"
    bbox="-199.391 -273 1186 1093"
    underline-thickness="0"
    underline-position="0"
    unicode-range="U+0020-FEFF"
  />
<missing-glyph 
 />
    <glyph glyph-name="f_f" unicode="ff" horiz-adv-x="513" 
d="M177 0h-86v500h-80v74h80v36q0 57 16 92.5t42 54.5t58.5 25t65.5 6v-77q-17 0 -34 -3t-31 -14t-22.5 -32.5t-8.5 -56.5v-31h148v36q0 57 16 92.5t42 54.5t58.5 25t65.5 6v-77q-17 0 -34 -3t-31 -14t-22.5 -32.5t-8.5 -56.5v-31h83v-74h-83v-500h-86v500h-148v-500z" />
    <glyph glyph-name="f_i" unicode="fi" horiz-adv-x="455" 
d="M252 500h-75v-500h-86v500h-80v74h80v36q0 57 16.5 92.5t42 54.5t57 25t61.5 6v-77q-14 0 -30 -3t-29.5 -14t-22.5 -32.5t-9 -56.5v-31h75v-74zM406 780v-113h-90v113h90zM404 574v-574h-86v574h86z" />
    <glyph glyph-name="f_l" unicode="fl" horiz-adv-x="455" 
d="M252 500h-75v-500h-86v500h-80v74h80v36q0 57 16.5 92.5t42 54.5t57 25t61.5 6v-77q-14 0 -30 -3t-29.5 -14t-22.5 -32.5t-9 -56.5v-31h75v-74zM404 780v-780h-86v780h86z" />
    <glyph glyph-name="f_f_i" unicode="ffi" horiz-adv-x="689" 
d="M640 780v-113h-90v113h90zM638 574v-574h-86v574h86zM177 0h-86v500h-80v74h80v36q0 57 16 92.5t42 54.5t58.5 25t65.5 6v-77q-17 0 -34 -3t-31 -14t-22.5 -32.5t-8.5 -56.5v-31h148v36q0 57 16.5 92.5t42 54.5t57 25t61.5 6v-77q-14 0 -30 -3t-29.5 -14t-22.5 -32.5
t-9 -56.5v-31h75v-74h-75v-500h-86v500h-148v-500z" />
    <glyph glyph-name="f_f_l" unicode="ffl" horiz-adv-x="689" 
d="M638 780v-780h-86v780h86zM177 0h-86v500h-80v74h80v36q0 57 16 92.5t42 54.5t58.5 25t65.5 6v-77q-17 0 -34 -3t-31 -14t-22.5 -32.5t-8.5 -56.5v-31h148v36q0 57 16.5 92.5t42 54.5t57 25t61.5 6v-77q-14 0 -30 -3t-29.5 -14t-22.5 -32.5t-9 -56.5v-31h75v-74h-75v-500
h-86v500h-148v-500z" />
    <glyph glyph-name=".notdef" 
 />
    <glyph glyph-name=".null" 
 />
    <glyph glyph-name="nonmarkingreturn" horiz-adv-x="333" 
 />
    <glyph glyph-name="space" unicode=" " horiz-adv-x="170" 
 />
    <glyph glyph-name="exclam" unicode="!" horiz-adv-x="278" 
d="M176 177h-74l-17 569h108zM87 0v104h104v-104h-104z" />
    <glyph glyph-name="quotedbl" unicode="&#x22;" horiz-adv-x="409" 
d="M57 473l54 273h100l-92 -273h-62zM211 473l54 273h100l-92 -273h-62z" />
    <glyph glyph-name="numbersign" unicode="#" horiz-adv-x="751" 
d="M451 287l35 172h-176l-36 -172h177zM393 0l44 215h-177l-44 -215h-76l44 215h-139v72h153l35 172h-149v72h163l44 215h77l-44 -215h176l44 215h78l-44 -215h127v-72h-141l-36 -172h137v-72h-151l-44 -215h-77z" />
    <glyph glyph-name="dollar" unicode="$" horiz-adv-x="517" 
d="M135 581q0 -31 21 -58.5t67 -60.5v195q-50 -10 -69 -33.5t-19 -42.5zM397 187q0 32 -26 61t-82 69v-238q56 11 82 42.5t26 65.5zM289 -116h-66v114q-49 1 -101 13.5t-85 36.5v86q46 -31 89.5 -45t96.5 -15v287q-96 62 -137.5 110.5t-41.5 106.5q0 54 45 101t134 57v111
h66v-110q36 -1 76 -10.5t71 -26.5l1 -83q-28 19 -66.5 31t-81.5 14v-245q49 -33 86 -59t62 -51.5t37.5 -53t12.5 -63.5q0 -43 -15.5 -76.5t-42 -56.5t-63 -37t-77.5 -19v-117z" />
    <glyph glyph-name="percent" unicode="%" horiz-adv-x="718" 
d="M626 746l-461 -746h-72l460 746h73zM165 746q62 0 102.5 -47.5t40.5 -140.5v-26q0 -93 -41 -140.5t-102 -47.5q-60 0 -101 47.5t-41 140.5v26q0 93 41 140.5t101 47.5zM239 532v26q0 68 -20.5 101.5t-53.5 33.5q-31 0 -52 -33.5t-21 -101.5v-26q0 -69 21 -102t52 -33
q33 0 53.5 33t20.5 102zM552 402q61 0 102 -47.5t41 -140.5v-26q0 -93 -41 -140.5t-102 -47.5q-60 0 -101 47.5t-41 140.5v26q0 93 41 140.5t101 47.5zM626 188v26q0 68 -20.5 101.5t-53.5 33.5q-31 0 -52 -33.5t-21 -101.5v-26q0 -69 21 -102t52 -33q33 0 53.5 33t20.5 102
z" />
    <glyph glyph-name="ampersand" unicode="&#x26;" horiz-adv-x="722" 
d="M222 603q0 -37 21.5 -66t58.5 -71q4 2 8.5 5t8.5 6q51 34 81.5 63.5t30.5 69.5q0 31 -26 60t-80 29q-46 0 -74.5 -28.5t-28.5 -67.5zM282 55q54 0 100 26t84 66q-50 59 -101 119t-84 99q-61 -39 -100 -78t-39 -99q0 -26 12 -50.5t31.5 -42.5t45 -29t51.5 -11zM593 0
q-11 13 -30 34.5t-41 48.5q-46 -48 -106 -78t-141 -29q-49 0 -91 15t-73 42t-49 64.5t-18 83.5q0 84 53.5 136.5t134.5 104.5q-46 52 -74.5 91.5t-27.5 90.5q0 69 56 117.5t139 48.5q47 0 83.5 -13t61.5 -35t38 -50.5t13 -59.5q0 -63 -44.5 -106t-104.5 -84q-5 -4 -10.5 -7
t-10.5 -6q36 -42 81 -94t89 -103q21 28 41 57.5t39 57.5l61 -58q-21 -30 -42 -61t-43 -60q46 -53 80.5 -93t45.5 -53v-2h-110z" />
    <glyph glyph-name="quotesingle" unicode="'" horiz-adv-x="255" 
d="M57 473l54 273h100l-92 -273h-62z" />
    <glyph glyph-name="parenleft" unicode="(" horiz-adv-x="407" 
d="M291 774l50 -57q-27 -26 -56 -67t-53.5 -94t-40 -117.5t-15.5 -136.5v-13q0 -72 15.5 -136.5t39.5 -118t53 -94.5t57 -65l-49 -57q-33 27 -69 71t-65 103.5t-48.5 134t-19.5 161.5v15q0 87 19 161t48.5 133t65.5 103.5t68 73.5z" />
    <glyph glyph-name="parenright" unicode=")" horiz-adv-x="407" 
d="M115 774q33 -29 68.5 -73.5t65 -103.5t48.5 -133t19 -161v-15q0 -87 -19 -161.5t-48.5 -134t-65.5 -103.5t-69 -71l-48 57q28 24 57 65t52.5 94.5t39 118t15.5 136.5v13q0 72 -15.5 136.5t-39.5 117.5t-53 94t-56 67z" />
    <glyph glyph-name="asterisk" unicode="*" horiz-adv-x="365" 
d="M260 421l-77 133l-76 -135l-58 42l101 108l-131 26l22 69l123 -58l-17 140h71l-17 -138l122 57l23 -69l-130 -26l101 -108z" />
    <glyph glyph-name="plus" unicode="+" horiz-adv-x="612" 
d="M573 314h-226v-246h-82v246h-226v72h226v226h82v-226h226v-72z" />
    <glyph glyph-name="comma" unicode="," horiz-adv-x="243" 
d="M82 115h107l-86 -264h-64z" />
    <glyph glyph-name="hyphen" unicode="-" horiz-adv-x="404" 
d="M364 360v-85h-324v85h324z" />
    <glyph glyph-name="period" unicode="." horiz-adv-x="230" 
d="M61 119h108v-119h-108v119z" />
    <glyph glyph-name="slash" unicode="/" horiz-adv-x="524" 
d="M507 780l-496 -1000h-85l494 1000h87z" />
    <glyph glyph-name="zero" unicode="0" horiz-adv-x="594" 
d="M297 770q55 0 102 -23.5t81 -70t53 -116.5t19 -162v-52q0 -91 -19.5 -160.5t-53 -116t-80.5 -70t-102 -23.5q-54 0 -101 23.5t-81 70t-53.5 116t-19.5 160.5v52q0 92 19.5 162t53.5 116.5t81 70t101 23.5zM466 346v52q0 151 -47 224t-122 73q-72 0 -120.5 -73t-48.5 -224
v-52q0 -150 48.5 -222.5t120.5 -72.5q75 0 122 72.5t47 222.5z" />
    <glyph glyph-name="one" unicode="1" horiz-adv-x="343" 
d="M271 0h-86v614l-148 -156v111l167 177h67v-746z" />
    <glyph glyph-name="two" unicode="2" horiz-adv-x="564" 
d="M500 0h-473l-4 9q10 12 52.5 60.5t91 103.5t91.5 104t55 64q57 69 80.5 114t23.5 94q0 28 -11.5 54.5t-31.5 47t-49 33t-63 12.5q-43 0 -86.5 -16t-89.5 -56l1 92q40 27 86 40.5t96 13.5q52 0 95.5 -18t75 -47.5t49 -69t17.5 -83.5q1 -65 -29 -120t-97 -134
q-10 -12 -32.5 -37t-51 -56.5t-60 -66t-59.5 -64.5h355z" />
    <glyph glyph-name="three" unicode="3" horiz-adv-x="496" 
d="M186 -24q-16 0 -38 2.5t-45 7t-45 11.5t-37 16v81q18 -10 39 -18t41.5 -13.5t38.5 -8.5t30 -3q91 -1 149.5 48t58.5 121t-55.5 116t-139.5 44h-56l2 74h54q65 0 108 38.5t43 89.5q0 49 -40 81.5t-100 32.5q-29 0 -59.5 -5.5t-63.5 -21.5l9 79q22 10 55 16t70 6
q44 0 83.5 -13.5t68.5 -38t46 -57.5t17 -71q0 -50 -29.5 -95.5t-75.5 -70.5q66 -23 107.5 -77.5t41.5 -128.5q0 -51 -20.5 -95.5t-57.5 -77t-88 -51t-112 -18.5z" />
    <glyph glyph-name="four" unicode="4" horiz-adv-x="618" 
d="M404 231v370l-250 -370h250zM566 157h-74v-157h-88v157h-375l-4 12l394 577h73v-515h97z" />
    <glyph glyph-name="five" unicode="5" horiz-adv-x="570" 
d="M206 -24q-39 0 -86.5 12t-90.5 34v80q40 -23 87.5 -37.5t89.5 -14.5q46 0 85.5 14.5t68.5 41t45 63.5t16 81q0 72 -54 121t-140 49q-43 0 -79.5 -8t-72.5 -22l91 356h372l-24 -74h-288l-49 -183q16 3 34.5 4.5t36.5 1.5q59 0 107.5 -18.5t82.5 -50.5t53 -77.5t19 -98.5
q0 -59 -22 -109.5t-62 -87t-96 -57t-124 -20.5z" />
    <glyph glyph-name="six" unicode="6" horiz-adv-x="578" 
d="M291 -24q-53 0 -100.5 17.5t-83.5 49.5t-57.5 78.5t-21.5 104.5q0 59 25 123t65 130t90 134t100 133h106q-70 -88 -130 -167.5t-101 -148.5q26 17 58 26.5t68 9.5q51 0 96 -19t78 -51.5t52.5 -76.5t19.5 -94q0 -51 -20 -96.5t-55.5 -79.5t-84 -53.5t-104.5 -19.5z
M291 395q-36 0 -68.5 -13.5t-56.5 -37t-38.5 -55t-14.5 -66.5t14.5 -66.5t38.5 -55t56.5 -37.5t68.5 -14q37 0 69.5 14t56.5 37.5t38 55t14 66.5t-14 66.5t-38 55t-56.5 37t-69.5 13.5z" />
    <glyph glyph-name="seven" unicode="7" horiz-adv-x="534" 
d="M206 0h-94l285 672h-375l29 74h471z" />
    <glyph glyph-name="eight" unicode="8" horiz-adv-x="573" 
d="M286 -24q-57 0 -105.5 18.5t-83.5 50t-55 74t-20 91.5q0 67 38 121.5t101 82.5q-45 25 -71.5 67t-26.5 91q0 41 17 77t46.5 63t70.5 42.5t89 15.5q49 0 90.5 -15.5t71 -42.5t46 -63t16.5 -77q0 -49 -26 -91t-72 -67q63 -28 101.5 -82.5t38.5 -121.5q0 -49 -20 -91.5
t-55.5 -74t-84.5 -50t-106 -18.5zM286 443q55 0 96 36.5t41 88.5q0 54 -40.5 91t-96.5 37t-96.5 -37t-40.5 -91q0 -51 40.5 -88t96.5 -37zM286 50q37 0 69.5 13t57 35t38.5 52t14 64q0 69 -52 116t-127 47q-36 0 -68.5 -12.5t-56.5 -34t-38.5 -51.5t-14.5 -65q0 -34 14 -64
t38.5 -52t57 -35t68.5 -13z" />
    <glyph glyph-name="nine" unicode="9" horiz-adv-x="578" 
d="M270 0h-106q70 88 130 167.5t101 148.5q-26 -17 -58 -26.5t-68 -9.5q-51 0 -96 19t-78 51.5t-52.5 76.5t-19.5 94q0 51 20 96.5t55.5 79.5t83.5 53.5t104 19.5q53 0 101 -17.5t84 -49.5t57.5 -78.5t21.5 -104.5q0 -59 -25 -123t-65 -130t-90 -134t-100 -133zM286 351
q36 0 69 13.5t57 37t38.5 55t14.5 66.5t-14.5 66.5t-38.5 55t-57 37.5t-69 14q-37 0 -69 -14t-56 -37.5t-38 -55t-14 -66.5t14 -66.5t38 -55t56 -37t69 -13.5z" />
    <glyph glyph-name="colon" unicode=":" horiz-adv-x="232" 
d="M64 521h105v-129h-105v129zM64 129h105v-129h-105v129z" />
    <glyph glyph-name="semicolon" unicode=";" horiz-adv-x="246" 
d="M75 521h104v-129h-104v129zM77 109h104l-75 -255h-66z" />
    <glyph glyph-name="less" unicode="&#x3c;" horiz-adv-x="561" 
d="M531 36l-502 250v66l502 250v-80l-414 -202l414 -201v-83z" />
    <glyph glyph-name="equal" unicode="=" horiz-adv-x="537" 
d="M499 478v-69h-460v69h460zM499 270v-69h-460v69h460z" />
    <glyph glyph-name="greater" unicode="&#x3e;" horiz-adv-x="561" 
d="M30 36v83l414 201l-414 202v80l502 -250v-66z" />
    <glyph glyph-name="question" unicode="?" horiz-adv-x="534" 
d="M275 171h-84v218h28q32 0 62.5 10t54 29.5t37.5 49t14 67.5q0 57 -42 98.5t-116 41.5q-42 0 -84 -14.5t-87 -52.5l-2 87q41 28 88.5 42t98.5 14t94 -15.5t73.5 -43.5t48 -68t17.5 -89q0 -50 -16.5 -90.5t-44 -69.5t-64 -46.5t-76.5 -23.5v-144zM190 0v99h86v-99h-86z" />
    <glyph glyph-name="at" unicode="@" horiz-adv-x="1001" 
d="M530 -189q-108 1 -197.5 38.5t-152.5 101t-97.5 148.5t-34.5 181q0 90 33 173t93 145.5t146 100t190 37.5q100 0 183 -35.5t141.5 -94t90.5 -137t32 -163.5q0 -77 -19.5 -130.5t-48 -85.5t-62 -46.5t-61.5 -14.5q-48 0 -71 26.5t-27 59.5q-32 -37 -78 -62t-100 -26
q-52 -1 -97 16t-77 48t-50.5 74.5t-18.5 95.5q0 53 18.5 96.5t51 75t77.5 49t96 17.5q54 1 100 -23.5t77 -61.5v60h73v-342q0 -30 12.5 -38.5t22.5 -8.5q17 0 39 12t41.5 38.5t33 69t13.5 102.5q0 74 -28 143.5t-79.5 122t-124 84t-160.5 31.5q-92 0 -167.5 -34.5
t-128.5 -91t-82 -130t-29 -151.5q0 -83 30.5 -159t85.5 -134t134.5 -93t176.5 -36q42 0 86.5 5.5t86 16.5t78.5 27t63 37l29 -43q-28 -21 -68 -38t-85.5 -29t-94.5 -18t-95 -6zM496 95q34 0 64.5 14.5t52.5 38t35 53.5t13 62q0 31 -12 61t-33.5 53t-52 37.5t-67.5 14.5
q-33 0 -63.5 -10.5t-53.5 -31.5t-37 -52.5t-14 -73.5q0 -41 14 -72.5t37 -52t53.5 -31t63.5 -10.5z" />
    <glyph glyph-name="A" unicode="A" horiz-adv-x="698" 
d="M506 233l-158 402l-159 -402h317zM598 0l-61 156h-378l-62 -156h-95l301 746h93l300 -746h-98z" />
    <glyph glyph-name="B" unicode="B" horiz-adv-x="521" 
d="M252 0h-200v746h179q64 0 108.5 -15t71.5 -40t39 -59t12 -71q0 -51 -26.5 -96.5t-74.5 -73.5q60 -26 94 -77.5t34 -115.5q0 -37 -13 -72.5t-41.5 -63.5t-73.5 -45t-109 -17zM218 668h-74v-247h70q73 0 117 39t44 93q-1 46 -34.5 80.5t-122.5 34.5zM232 346h-88v-268h92
q45 0 76 11.5t49 29.5t26.5 41t8.5 46q0 61 -44.5 100.5t-119.5 39.5z" />
    <glyph glyph-name="C" unicode="C" horiz-adv-x="645" 
d="M610 730v-93q-37 23 -80.5 36t-89.5 13q-66 0 -124 -25.5t-101.5 -68.5t-68.5 -99.5t-25 -117.5q0 -63 25 -120t68.5 -100.5t101.5 -69t124 -25.5q46 0 89.5 13t80.5 36v-93q-39 -19 -83 -29.5t-91 -10.5q-85 0 -160 31.5t-130 85t-86.5 126.5t-31.5 155t31.5 154.5
t86.5 126t130 84.5t160 31q47 0 90.5 -10.5t83.5 -29.5z" />
    <glyph glyph-name="D" unicode="D" horiz-adv-x="640" 
d="M52 0v746h183q72 0 140 -25t119.5 -72.5t83 -117t31.5 -157.5q0 -89 -31.5 -159t-83 -117.5t-119.5 -72.5t-140 -25h-183zM144 664v-582h88q55 0 106.5 19t91 55.5t63 91.5t23.5 126t-23.5 125t-63 90.5t-91 55.5t-106.5 19h-88z" />
    <glyph glyph-name="E" unicode="E" horiz-adv-x="474" 
d="M52 0v746h373v-80h-281v-231h260v-80h-260v-275h289v-80h-381z" />
    <glyph glyph-name="F" unicode="F" horiz-adv-x="486" 
d="M52 0v746h401v-80h-309v-246h280v-80h-280v-340h-92z" />
    <glyph glyph-name="G" unicode="G" horiz-adv-x="841" 
d="M814 372q0 -81 -29.5 -153.5t-80.5 -126t-120 -85t-148 -31.5q-85 0 -160 31.5t-129.5 85t-86.5 126.5t-32 155t32 154.5t86.5 126t129.5 84.5t160 31q81 0 154 -28.5t124 -75.5l-62 -64q-46 40 -100.5 62t-115.5 22q-65 0 -122.5 -25.5t-100 -68t-67.5 -99t-25 -118.5
q0 -63 25 -120.5t67.5 -100.5t100 -68.5t122.5 -25.5q55 0 104.5 21.5t87 57.5t62 85t29.5 103l-254 -1l37 85h312v-39z" />
    <glyph glyph-name="H" unicode="H" horiz-adv-x="660" 
d="M52 0v746h92v-308h372v308h92v-746h-92v357h-372v-357h-92z" />
    <glyph glyph-name="I" unicode="I" horiz-adv-x="200" 
d="M54 0v746h92v-746h-92z" />
    <glyph glyph-name="J" unicode="J" horiz-adv-x="306" 
d="M5 0v85q15 -7 31 -10.5t34 -3.5t35 5t29.5 21t20 46.5t7.5 81.5v521h92v-539q0 -121 -40.5 -170.5t-135.5 -49.5q-21 0 -39 3t-34 10z" />
    <glyph glyph-name="K" unicode="K" horiz-adv-x="610" 
d="M465 0l-321 361v-361h-92v746h92v-351l306 351h110l-320 -363l344 -383h-119z" />
    <glyph glyph-name="L" unicode="L" horiz-adv-x="430" 
d="M52 746h92v-664h275v-82h-367v746z" />
    <glyph glyph-name="M" unicode="M" horiz-adv-x="827" 
d="M405 127l-261 448v-575h-92v746h98l268 -465l261 465h96v-746h-92v574l-254 -447h-24z" />
    <glyph glyph-name="N" unicode="N" horiz-adv-x="711" 
d="M568 0l-424 597v-597h-92v746h97l417 -588v588h92v-746h-90z" />
    <glyph glyph-name="O" unicode="O" horiz-adv-x="872" 
d="M436 770q85 0 159.5 -31t129 -84.5t86.5 -126t32 -154.5t-32 -155t-86.5 -126.5t-129 -85t-159.5 -31.5t-160 31.5t-129.5 85t-86.5 126.5t-32 155t32 154.5t86.5 126t129.5 84.5t160 31zM436 686q-65 0 -122.5 -25.5t-100 -68t-67.5 -99t-25 -118.5q0 -63 25 -120.5
t67.5 -100.5t100 -68.5t122.5 -25.5t122.5 25.5t100 68.5t67 100.5t24.5 120.5q0 62 -24.5 118.5t-67 99t-100 68t-122.5 25.5z" />
    <glyph glyph-name="P" unicode="P" horiz-adv-x="507" 
d="M219 275h-75v-275h-92v746h174q127 0 195 -60.5t68 -164.5q0 -57 -21.5 -103t-58 -77.5t-85.5 -48.5t-105 -17zM222 662h-78v-303h78q76 0 124 45.5t48 116.5q0 57 -37 99t-135 42z" />
    <glyph glyph-name="Q" unicode="Q" horiz-adv-x="872" 
d="M436 686q-65 0 -122.5 -25.5t-100 -68t-67.5 -99t-25 -118.5q0 -63 25 -120.5t67.5 -100.5t100 -68.5t122.5 -25.5t122.5 25.5t100 68.5t67 100.5t24.5 120.5q0 62 -24.5 118.5t-67 99t-100 68t-122.5 25.5zM828 -23h-364q-7 -1 -14 -1h-14q-85 0 -160 31.5t-129.5 85
t-86.5 126.5t-32 155t32 154.5t86.5 126t129.5 84.5t160 31t159.5 -31t129 -84.5t86.5 -126t32 -154.5q0 -104 -55 -191.5t-142 -135.5l205 10z" />
    <glyph glyph-name="R" unicode="R" horiz-adv-x="538" 
d="M219 662h-75v-291h73q78 0 128.5 45t50.5 111q0 25 -10 49.5t-31 43.5t-54.5 30.5t-81.5 11.5zM405 0l-259 289h-2v-289h-92v746h161q134 0 205 -61t71 -158q0 -48 -17.5 -88t-48 -69.5t-72.5 -49t-91 -26.5l261 -294h-116z" />
    <glyph glyph-name="S" unicode="S" horiz-adv-x="506" 
d="M418 732l-3 -88q-28 16 -67 27t-78 11q-38 0 -63.5 -9.5t-40.5 -23t-21.5 -30.5t-6.5 -32q0 -38 32 -74t111 -82q98 -57 145.5 -111.5t47.5 -121.5q0 -49 -19 -88.5t-53 -66t-80 -41t-100 -14.5q-22 0 -47.5 3t-50.5 8t-47.5 12.5t-37.5 16.5l3 91q38 -24 85.5 -38
t100.5 -14q39 0 68 11t48 29t28 40.5t9 45.5q0 43 -36 82t-121 88q-99 59 -138.5 110t-39.5 111q0 34 13 66t40 56.5t69.5 39.5t99.5 15q35 0 76 -7t74 -22z" />
    <glyph glyph-name="T" unicode="T" horiz-adv-x="420" 
d="M164 0v665h-155v81h402v-81h-155v-665h-92z" />
    <glyph glyph-name="U" unicode="U" horiz-adv-x="650" 
d="M598 291q0 -144 -69.5 -229.5t-204.5 -85.5q-133 0 -202.5 85.5t-69.5 229.5v455h92v-484q0 -50 15.5 -88t40.5 -63t57.5 -38t66.5 -13q36 0 69 13t58 38t40 63t15 88v484h92v-455z" />
    <glyph glyph-name="V" unicode="V" horiz-adv-x="675" 
d="M386 0h-97l-287 746h98l240 -628l238 628h95z" />
    <glyph glyph-name="W" unicode="W" horiz-adv-x="984" 
d="M662 0l-169 598l-171 -598h-97l-222 746h97l177 -611l170 611h96l169 -612l177 612h92l-222 -746h-97z" />
    <glyph glyph-name="X" unicode="X" horiz-adv-x="616" 
d="M508 0l-202 331l-198 -331h-102l240 395l-217 351h104l174 -283l176 283h100l-216 -349l243 -397h-102z" />
    <glyph glyph-name="Y" unicode="Y" horiz-adv-x="604" 
d="M347 0h-92v244l-253 502h101l200 -410l203 410h96l-255 -504v-242z" />
    <glyph glyph-name="Z" unicode="Z" horiz-adv-x="594" 
d="M545 0h-530l-1 7l398 661h-350l37 78h459l1 -7l-399 -661h422z" />
    <glyph glyph-name="bracketleft" unicode="[" horiz-adv-x="381" 
d="M119 -214v960h213v-59h-127v-842h135v-59h-221z" />
    <glyph glyph-name="backslash" unicode="\" horiz-adv-x="526" 
d="M17 780h89l494 -1000h-87z" />
    <glyph glyph-name="bracketright" unicode="]" horiz-adv-x="381" 
d="M262 -214h-221v59h135v842h-127v59h213v-960z" />
    <glyph glyph-name="asciicircum" unicode="^" horiz-adv-x="622" 
d="M486 369l-176 301l-176 -301h-85l222 377h77l225 -377h-87z" />
    <glyph glyph-name="underscore" unicode="_" horiz-adv-x="500" 
d="M500 -59v-68h-500v68h500z" />
    <glyph glyph-name="grave" unicode="`" horiz-adv-x="500" 
d="M137 790h108l87 -147h-70z" />
    <glyph glyph-name="a" unicode="a" horiz-adv-x="514" 
d="M244 42q58 0 97.5 38t39.5 92q0 51 -38 88.5t-99 37.5q-58 0 -94 -37.5t-36 -88.5q0 -54 36 -92t94 -38zM385 0v56q-28 -31 -70.5 -53t-95.5 -22q-41 0 -77 14.5t-62 40t-41 60t-15 74.5q0 39 15 73.5t42 60t64.5 40.5t82.5 15q49 0 87 -15.5t65 -39.5v55q0 91 -36.5 124
t-96.5 33q-29 0 -57 -3.5t-82 -13.5l-6 73q52 10 83.5 13.5t68.5 3.5q109 0 160.5 -54.5t51.5 -147.5v-387h-81z" />
    <glyph glyph-name="b" unicode="b" horiz-adv-x="707" 
d="M378 -25q-77 0 -141.5 35t-105.5 92v-102h-83v780h86v-305q41 56 105 90t139 34q65 0 120.5 -25.5t96 -68.5t63.5 -100t23 -119t-23 -119t-63.5 -99.5t-96 -67.5t-120.5 -25zM132 287q0 -46 17.5 -89t48 -75t73 -51.5t91.5 -19.5q50 0 92 19.5t72 51.5t47 75t17 89
q0 47 -17 89.5t-47 75t-72 51.5t-92 19q-49 0 -91.5 -19.5t-73 -51.5t-48 -75t-17.5 -89z" />
    <glyph glyph-name="c" unicode="c" horiz-adv-x="530" 
d="M488 91v-81q-31 -16 -70.5 -22t-67.5 -6q-68 0 -127.5 24.5t-103 65.5t-68.5 97t-25 118t25 118t68.5 97t103 65.5t127.5 24.5q27 0 66 -7t72 -24v-82h-3q-36 24 -73 31t-62 7q-49 0 -91.5 -18t-74 -49t-49.5 -73.5t-18 -89.5t18 -89.5t49.5 -73.5t74 -49t91.5 -18
q25 0 59 6t76 28h3z" />
    <glyph glyph-name="d" unicode="d" horiz-adv-x="707" 
d="M575 287q0 46 -17.5 89t-48 75t-73 51.5t-91.5 19.5q-50 0 -92 -19t-72 -51.5t-47 -75t-17 -89.5q0 -46 17 -89t47 -75t72 -51.5t92 -19.5q49 0 91.5 19.5t73 51.5t48 75t17.5 89zM576 0v102q-41 -57 -105.5 -92t-141.5 -35q-65 0 -120.5 25t-96 67.5t-63.5 99.5t-23 119
t23 119t63.5 100t96 68.5t120.5 25.5q75 0 139 -34t105 -90v305h85v-780h-82z" />
    <glyph glyph-name="e" unicode="e" horiz-adv-x="658" 
d="M332 528q-78 0 -135 -49.5t-73 -128.5h416q-16 77 -74 127.5t-134 50.5zM622 82q-43 -46 -111.5 -78.5t-160.5 -32.5q-72 0 -131.5 25t-102.5 67.5t-66.5 100.5t-23.5 123q0 64 22.5 121.5t63 100.5t97 68.5t123.5 25.5q62 0 117.5 -24t96.5 -65t65 -97t24 -119v-18h-518
q1 -51 19 -94t49 -74t73 -48.5t92 -17.5q69 0 124 26.5t95 66.5z" />
    <glyph glyph-name="f" unicode="f" horiz-adv-x="279" 
d="M260 500h-83v-500h-86v500h-80v74h80v36q0 57 16 92.5t42 54.5t58.5 25t65.5 6v-77q-17 0 -34 -3t-31 -14t-22.5 -32.5t-8.5 -56.5v-31h83v-74z" />
    <glyph glyph-name="g" unicode="g" horiz-adv-x="672" 
d="M329 103q43 0 81.5 16.5t66.5 45t44.5 67t16.5 81.5t-16.5 81.5t-44.5 67.5t-66.5 45.5t-81.5 16.5t-82 -16.5t-67.5 -45.5t-45.5 -67.5t-17 -81.5t17 -81.5t45.5 -67t67.5 -45t82 -16.5zM324 -219q-39 0 -87 4.5t-106 16.5v75q68 -13 113 -18t79 -4q42 0 81 10.5
t68.5 36t47 70t17.5 112.5v49q-44 -51 -104.5 -78.5t-113.5 -27.5q-57 0 -110 20t-93 57.5t-64 90.5t-24 118t24 118t63.5 90.5t92.5 58.5t111 21q54 0 115.5 -28t104.5 -81v82h84v-488q0 -88 -23 -147t-63.5 -94t-95 -49.5t-117.5 -14.5z" />
    <glyph glyph-name="h" unicode="h" horiz-adv-x="573" 
d="M134 359v-359h-86v780h84v-277q28 34 77 60t111 26q95 0 151 -58t56 -157v-374h-86v349q0 46 -12.5 77.5t-33.5 50.5t-49 27t-57 8q-25 0 -52 -9.5t-50 -28.5t-38 -48t-15 -67z" />
    <glyph glyph-name="i" unicode="i" horiz-adv-x="188" 
d="M139 780v-113h-90v113h90zM137 574v-574h-86v574h86z" />
    <glyph glyph-name="j" unicode="j" horiz-adv-x="188" 
d="M139 780v-113h-90v113h90zM-67 -144h9q55 0 82 34t27 104v580h86v-580q0 -116 -46.5 -166.5t-141.5 -51.5h-16v80z" />
    <glyph glyph-name="k" unicode="k" horiz-adv-x="533" 
d="M426 0l-226 288l-66 -60v-228h-86v780h86v-444l267 238h114l-254 -230l272 -344h-107z" />
    <glyph glyph-name="l" unicode="l" horiz-adv-x="188" 
d="M137 780v-780h-86v780h86z" />
    <glyph glyph-name="m" unicode="m" horiz-adv-x="872" 
d="M135 359v-359h-87v574h84v-74q22 34 63 61.5t97 27.5q60 0 104 -29t66 -80q17 40 62 74.5t113 34.5q85 0 136.5 -58t51.5 -157v-374h-86v349q0 93 -36 128t-93 35q-24 0 -47 -10t-41.5 -29t-30 -47.5t-11.5 -64.5v-361h-86v349q0 93 -39 128t-91 35q-23 0 -46 -9.5
t-41.5 -28.5t-30 -48t-11.5 -67z" />
    <glyph glyph-name="n" unicode="n" horiz-adv-x="573" 
d="M134 359v-359h-86v574h84v-71q28 34 77 60t111 26q95 0 150.5 -58t55.5 -157v-374h-86v349q0 46 -12.5 77.5t-33.5 50.5t-48.5 27t-56.5 8q-25 0 -52 -9.5t-50 -28.5t-38 -48t-15 -67z" />
    <glyph glyph-name="o" unicode="o" horiz-adv-x="695" 
d="M348 603q69 0 128.5 -25.5t102 -68.5t67 -101t24.5 -121t-24.5 -121t-67 -101t-102 -68.5t-128.5 -25.5t-128.5 25.5t-102 68.5t-67 101t-24.5 121t24.5 121t67 101t102 68.5t128.5 25.5zM348 528q-50 0 -92.5 -19.5t-73 -52.5t-48 -77t-17.5 -92t17.5 -92t48 -77
t73 -52.5t92.5 -19.5t92.5 19.5t73 53t48 77t17.5 91.5t-17.5 92t-48 77t-73 52.5t-92.5 19.5z" />
    <glyph glyph-name="p" unicode="p" horiz-adv-x="707" 
d="M132 287q0 -46 17.5 -89t48 -75t73 -51.5t91.5 -19.5q50 0 92 19t72 51.5t47 75t17 89.5q0 46 -17 89t-47 75t-72 51.5t-92 19.5q-49 0 -91.5 -19.5t-73 -51.5t-48 -75t-17.5 -89zM378 -25q-75 0 -139 34t-105 90v-319h-86v794h83v-102q41 57 105.5 92t141.5 35
q65 0 120.5 -25t96 -67.5t63.5 -99.5t23 -119t-23 -119t-63.5 -100t-96 -68.5t-120.5 -25.5z" />
    <glyph glyph-name="q" unicode="q" horiz-adv-x="707" 
d="M658 -220h-85v319q-41 -56 -105 -90t-139 -34q-65 0 -120.5 25.5t-96 68.5t-63.5 100t-23 119t23 119t63.5 99.5t96 67.5t120.5 25q77 0 141.5 -35t105.5 -92v102h82v-794zM575 287q0 46 -17.5 89t-48 75t-73 51.5t-91.5 19.5q-50 0 -92 -19.5t-72 -51.5t-47 -75t-17 -89
q0 -47 17 -89.5t47 -75t72 -51.5t92 -19q49 0 91.5 19.5t73 51.5t48 75t17.5 89z" />
    <glyph glyph-name="r" unicode="r" horiz-adv-x="336" 
d="M134 321v-321h-86v574h84v-113q9 17 24 36.5t35.5 36.5t46 28.5t54.5 11.5h19v-98q-4 2 -10.5 3t-10.5 1q-35 0 -64 -16t-49.5 -39.5t-31.5 -51.5t-11 -52z" />
    <glyph glyph-name="s" unicode="s" horiz-adv-x="421" 
d="M211 591q34 0 65 -8t56 -20v-82q-28 17 -58 26.5t-58 9.5q-43 0 -69.5 -19t-26.5 -50q0 -24 24.5 -46.5t83.5 -59.5q101 -63 136 -107t35 -94q0 -72 -54.5 -114t-141.5 -43q-39 0 -85.5 13t-80.5 30v83q42 -23 85 -37t72 -14q58 1 86 25t28 57q0 9 -3.5 20.5t-16.5 27
t-38.5 36t-69.5 46.5q-44 28 -73 49.5t-46.5 41.5t-24.5 42t-7 50q0 22 10.5 46.5t32.5 44.5t56.5 33t82.5 13z" />
    <glyph glyph-name="t" unicode="t" horiz-adv-x="271" 
d="M258 500h-80v-500h-86v500h-79v74h79v139l86 30v-169h80v-74z" />
    <glyph glyph-name="u" unicode="u" horiz-adv-x="573" 
d="M442 0v72q-28 -34 -77 -60.5t-111 -26.5q-96 0 -152 58t-56 157v374h86v-349q0 -46 12.5 -77.5t33.5 -50.5t49 -27t57 -8q25 0 52.5 9.5t50 28.5t37.5 48t15 67v359h86v-574h-83z" />
    <glyph glyph-name="v" unicode="v" horiz-adv-x="609" 
d="M353 0h-98l-256 574h96l210 -485l215 485h90z" />
    <glyph glyph-name="w" unicode="w" horiz-adv-x="860" 
d="M579 0l-148 451l-147 -451h-86l-199 574h92l150 -459l145 459h94l143 -460l151 460h87l-198 -574h-84z" />
    <glyph glyph-name="x" unicode="x" horiz-adv-x="582" 
d="M462 0l-173 240l-179 -240h-96l222 297l-197 277h99l158 -224l161 224h95l-203 -276l209 -298h-96z" />
    <glyph glyph-name="y" unicode="y" horiz-adv-x="576" 
d="M273 -220h-86l79 209l-267 585h96l211 -480l182 480h89z" />
    <glyph glyph-name="z" unicode="z" horiz-adv-x="559" 
d="M500 0h-490l-1 3l385 497h-315l34 74h431l1 -3l-384 -497h372z" />
    <glyph glyph-name="braceleft" unicode="{" horiz-adv-x="397" 
d="M330 -214h-72q-55 0 -84.5 28.5t-29.5 109.5v210q0 46 -15.5 67t-40.5 28q-1 0 -3 0.5t-3 0.5v70q1 0 3 0.5t3 0.5q25 7 40.5 27.5t15.5 66.5v213q0 81 29.5 109.5t84.5 28.5h72v-59h-38q-31 0 -46.5 -17.5t-15.5 -76.5v-198q0 -47 -16.5 -77.5t-54.5 -45.5v-14
q38 -14 54.5 -44t16.5 -78v-201q0 -59 15.5 -74.5t46.5 -15.5h38v-59z" />
    <glyph glyph-name="bar" unicode="|" horiz-adv-x="178" 
d="M57 746h64v-906h-64v906z" />
    <glyph glyph-name="braceright" unicode="}" horiz-adv-x="397" 
d="M139 -214h-73v55h39q31 0 46 16t15 75v204q0 48 17 78t54 44v14q-37 15 -54 45.5t-17 77.5v202q0 59 -15 76.5t-46 17.5h-39v55h73q54 0 84 -28.5t30 -109.5v-213q0 -46 15.5 -66.5t40.5 -27.5q1 0 3 -0.5t3 -0.5v-70q-1 0 -3.5 -0.5l-2.5 -0.5q-25 -7 -40.5 -28
t-15.5 -67v-210q0 -81 -30 -109.5t-84 -28.5z" />
    <glyph glyph-name="asciitilde" unicode="~" horiz-adv-x="665" 
d="M140 238l-81 7q0 90 41 125t94 35q32 0 69 -17.5t73.5 -39t70.5 -39t60 -17.5q22 0 40 15t18 71l81 -7q0 -84 -38.5 -121t-92.5 -37q-33 0 -70.5 17.5t-74.5 38.5t-71.5 38.5t-60.5 17.5q-21 0 -39.5 -15.5t-18.5 -71.5z" />
    <glyph glyph-name="exclamdown" unicode="&#xa1;" horiz-adv-x="278" 
d="M87 746h104v-104h-104v104zM176 569l17 -569h-108l17 569h74z" />
    <glyph glyph-name="cent" unicode="&#xa2;" horiz-adv-x="512" 
d="M484 -1q-31 -13 -63 -18.5t-58 -6.5v-91h-67v95q-58 9 -107.5 36.5t-85.5 68t-56.5 93t-20.5 111.5t20.5 111.5t56.5 93t85.5 68t107.5 36.5v99h67v-95q25 -1 57 -7.5t64 -22.5v-82h-3q-36 22 -71.5 30t-58.5 8q-48 0 -91 -19t-75 -51.5t-50.5 -76t-18.5 -92.5
t18.5 -92.5t50.5 -76t75 -51.5t91 -19q25 0 55.5 5.5t74.5 26.5h3v-81z" />
    <glyph glyph-name="sterling" unicode="&#xa3;" horiz-adv-x="580" 
d="M546 71v-71h-503v71h25q48 0 71.5 33.5t23.5 96.5v157h-92v63h92v153q0 45 19 80t50 58.5t72.5 36t85.5 12.5q30 0 60 -4t60 -17v-79q-27 14 -54 20t-55 6t-55 -8t-48.5 -23.5t-34.5 -37.5t-13 -50v-147h196v-63h-196v-157q0 -46 -10.5 -78.5t-29.5 -51.5h336z" />
    <glyph glyph-name="currency" unicode="&#xa4;" horiz-adv-x="572" 
d="M482 154l-96 95q-21 -15 -47 -23t-54 -8t-53.5 8t-46.5 23l-96 -95l-52 54l96 95q-13 21 -20 45t-7 49t7 49t20 45l-96 95l52 54l96 -94q21 14 46.5 22t53.5 8t54 -8t47 -23l96 95l52 -53l-96 -95q13 -21 20 -45.5t7 -49.5t-7 -49t-20 -45l96 -95zM285 513
q-49 0 -80.5 -35t-31.5 -81t31.5 -81t80.5 -35t81.5 35t32.5 81t-32.5 81t-81.5 35z" />
    <glyph glyph-name="yen" unicode="&#xa5;" horiz-adv-x="605" 
d="M558 175h-210v-175h-92v175h-202v60h202v40l-29 55h-173v60h142l-184 356h101l191 -381l192 381h97l-186 -356h151v-60h-182l-28 -53v-42h210v-60z" />
    <glyph glyph-name="brokenbar" unicode="&#xa6;" horiz-adv-x="178" 
d="M57 746h64v-396h-64v396zM57 236h64v-396h-64v396z" />
    <glyph glyph-name="section" unicode="&#xa7;" horiz-adv-x="486" 
d="M248 176q18 -10 34.5 -19.5t29.5 -19.5q34 12 53 40.5t19 62.5q0 12 -4 28t-18.5 35.5t-42 43t-74.5 49.5l-14 8l-14 8q-46 -2 -75.5 -28.5t-29.5 -64.5q0 -34 27.5 -66.5t108.5 -76.5zM210 -219q-44 0 -86 13.5t-74 29.5l3 84q39 -23 78.5 -38t78.5 -15q58 1 92.5 30
t34.5 72q0 16 -5 33t-21.5 36t-46.5 42t-79 51q-75 40 -112.5 82t-37.5 102q0 44 29 89t86 64q-42 33 -59 66t-17 74q0 29 12 59t35 54.5t57.5 40t79.5 15.5q32 0 60 -7.5t62 -23.5l-3 -79q-28 17 -56.5 26.5t-62.5 9.5q-42 0 -72.5 -24.5t-30.5 -61.5q0 -34 30 -64.5
t98 -70.5q104 -58 141 -111t37 -110q0 -59 -27.5 -98.5t-69.5 -58.5q30 -31 42.5 -63t12.5 -66q0 -46 -17.5 -80.5t-46 -56.5t-66.5 -33.5t-79 -11.5z" />
    <glyph glyph-name="dieresis" unicode="&#xa8;" horiz-adv-x="500" 
d="M398 759v-84h-90v84h90zM192 759v-84h-90v84h90z" />
    <glyph glyph-name="copyright" unicode="&#xa9;" horiz-adv-x="879" 
d="M440 756q83 0 154.5 -30t123.5 -82t81.5 -122t29.5 -149t-29.5 -149t-81.5 -122t-123.5 -82t-154.5 -30t-155 30t-124 82t-81.5 122t-29.5 149t29.5 149t81.5 122t124 82t155 30zM440 716q-71 0 -134 -27t-109.5 -73.5t-73.5 -109t-27 -133.5t27 -133.5t73.5 -109
t109.5 -73.5t134 -27t133.5 27t109 73.5t73.5 109t27 133.5t-27 133.5t-73.5 109t-109 73.5t-133.5 27zM601 555l-36 -51q-26 19 -52.5 28.5t-56.5 9.5q-35 0 -66 -13.5t-54 -36t-36.5 -53t-13.5 -63.5t13.5 -63.5t36.5 -53.5t54 -36.5t66 -13.5q30 0 56.5 9.5t52.5 28.5
l36 -51q-33 -27 -70.5 -40.5t-77.5 -13.5q-51 0 -95 18.5t-76 50t-50.5 74.5t-18.5 91t18.5 90.5t50.5 74t76 50t95 18.5q40 0 77.5 -13.5t70.5 -40.5z" />
    <glyph glyph-name="ordfeminine" unicode="&#xaa;" horiz-adv-x="372" 
d="M178 384q35 0 58.5 24t23.5 58q0 31 -22.5 54t-59.5 23q-36 0 -57.5 -23t-21.5 -54q0 -34 21.5 -58t57.5 -24zM265 345v36q-19 -20 -48.5 -34.5t-68.5 -14.5q-57 0 -95 37.5t-38 94.5q0 54 39 93t105 39q31 0 56 -8.5t43 -21.5v25q0 56 -22.5 76.5t-65.5 20.5
q-20 0 -40.5 -3t-57.5 -10l-3 70q36 7 59 9.5t51 2.5q82 0 121.5 -38t39.5 -103v-271h-75z" />
    <glyph glyph-name="guillemotleft" unicode="&#xab;" horiz-adv-x="541" 
d="M308 0h-76l-185 285v4l185 285h78l-186 -287zM488 0h-76l-185 285v4l185 285h78l-186 -287z" />
    <glyph glyph-name="logicalnot" unicode="&#xac;" horiz-adv-x="654" 
d="M614 133h-88v221h-496v75h584v-296z" />
    <glyph glyph-name="registered" unicode="&#xae;" horiz-adv-x="527" 
d="M264 756q50 0 92.5 -18t73.5 -49t49 -73t18 -89t-18 -89.5t-49 -73.5t-73.5 -49t-92.5 -18t-93 18t-74 49t-49 73.5t-18 89.5t18 89t49 73t74 49t93 18zM264 732q-43 0 -80.5 -16t-65.5 -43.5t-44.5 -65t-16.5 -80.5t16.5 -80.5t44.5 -65.5t65.5 -44t80.5 -16
q42 0 79.5 16t65.5 44t44 65.5t16 80.5t-16 80.5t-44 65t-65.5 43.5t-79.5 16zM260 618h-21v-84h21q22 0 34.5 12t12.5 31q0 17 -11.5 29t-35.5 12zM322 398l-82 96h-1v-96h-44v260h65q40 0 66 -20t26 -61q0 -29 -17.5 -49t-41.5 -28l80 -97l-3 -5h-48z" />
    <glyph glyph-name="macron" unicode="&#xaf;" horiz-adv-x="500" 
d="M382 733v-68h-264v68h264z" />
    <glyph glyph-name="degree" unicode="&#xb0;" horiz-adv-x="368" 
d="M184 765q35 0 64.5 -13t51 -34.5t34 -50.5t12.5 -61t-12.5 -61t-34 -51t-51 -35t-64.5 -13t-64.5 13t-51 35t-34 51t-12.5 61t12.5 61t34 50.5t51 34.5t64.5 13zM184 715q-46 0 -76 -33t-30 -76q0 -44 30 -77t76 -33t75.5 33.5t29.5 76.5t-29.5 76t-75.5 33z" />
    <glyph glyph-name="plusminus" unicode="&#xb1;" horiz-adv-x="602" 
d="M562 327h-219v-191h-82v191h-221v72h221v218h82v-218h219v-72zM563 96v-66h-524v66h524z" />
    <glyph glyph-name="two.sups" unicode="&#xb2;" horiz-adv-x="388" 
d="M334 279h-304l-4 8q8 10 37 45t61 74t61 73.5t37 45.5q22 27 33.5 46.5t11.5 48.5q0 31 -25.5 56t-65.5 26q-26 0 -52.5 -10t-54.5 -34v72q26 16 55 23.5t59 7.5q69 -1 113 -41t44 -97q-1 -47 -19.5 -74t-43.5 -57q-7 -9 -22 -26.5t-33.5 -39t-39.5 -45t-39 -43.5h216z
" />
    <glyph glyph-name="three.sups" unicode="&#xb3;" horiz-adv-x="349" 
d="M139 264q-20 0 -54 5t-56 18v60q16 -13 47 -18t46 -5q55 -1 90 25.5t35 68.5q0 40 -33 64t-83 24h-34l2 59h32q39 0 64.5 21.5t25.5 51.5q0 28 -23.5 45.5t-60.5 17.5q-16 0 -37 -3t-41 -13l6 64q15 5 36 8.5t47 3.5q60 1 101.5 -32.5t41.5 -82.5q-1 -31 -18.5 -59.5
t-45.5 -44.5q40 -15 65 -48.5t25 -77.5q0 -65 -50 -109t-128 -43z" />
    <glyph glyph-name="acute" unicode="&#xb4;" horiz-adv-x="500" 
d="M364 790l-126 -147h-68l88 147h106z" />
    <glyph glyph-name="paragraph" unicode="&#xb6;" horiz-adv-x="579" 
d="M376 -207h-58v479h-13q-60 0 -110.5 19t-86 51.5t-55.5 75.5t-20 90t19.5 90t54.5 76t84 52.5t107 19.5h227v-953h-58v889h-91v-889z" />
    <glyph glyph-name="periodcentered" unicode="&#xb7;" horiz-adv-x="230" 
d="M61 406h108v-120h-108v120z" />
    <glyph glyph-name="cedilla" unicode="&#xb8;" horiz-adv-x="500" 
d="M222 -195q-10 0 -30.5 3t-37.5 9v50h1q18 -7 36 -10t27 -3q26 0 41 10.5t15 26.5q0 14 -17.5 23t-47.5 9h-20l-3 7l30 80h53l-19 -44q42 -5 64 -26t22 -52q0 -34 -31.5 -58.5t-82.5 -24.5z" />
    <glyph glyph-name="one.sups" unicode="&#xb9;" horiz-adv-x="259" 
d="M200 279h-70v363l-90 -94v92l105 106h55v-467z" />
    <glyph glyph-name="ordmasculine" unicode="&#xba;" horiz-adv-x="492" 
d="M246 766q50 0 92 -17.5t72.5 -47t48 -70t17.5 -85.5q0 -46 -17.5 -86t-48 -70t-72.5 -47.5t-92 -17.5q-49 0 -91.5 17.5t-73 47.5t-48 70t-17.5 86q0 45 17.5 85.5t48 70t73 47t91.5 17.5zM246 696q-62 0 -102.5 -44.5t-40.5 -105.5q0 -62 40.5 -106.5t102.5 -44.5
q63 0 103.5 45t40.5 106t-40.5 105.5t-103.5 44.5z" />
    <glyph glyph-name="guillemotright" unicode="&#xbb;" horiz-adv-x="541" 
d="M130 0h-78l186 288l-184 286h76l185 -285v-4zM310 0h-78l186 288l-184 286h76l185 -285v-4z" />
    <glyph glyph-name="onequarter" unicode="&#xbc;" horiz-adv-x="723" 
d="M180 279h-70v363l-90 -94v92l105 106h55v-467zM526 746h77l-441 -746h-77zM587 151v202l-144 -202h144zM698 92h-40v-92h-71v92h-240l-5 11l258 364h58v-316h58z" />
    <glyph glyph-name="onehalf" unicode="&#xbd;" horiz-adv-x="793" 
d="M180 279h-70v363l-90 -94v92l105 106h55v-467zM526 746h77l-441 -746h-77zM759 0h-304l-4 8q8 10 37 45t61 74t61 73.5t37 45.5q22 27 33.5 46.5t11.5 48.5q0 31 -25.5 56t-65.5 26q-26 0 -52.5 -10t-54.5 -34v72q26 16 55 23.5t59 7.5q69 -1 113 -41t44 -97
q-1 -47 -19.5 -74t-43.5 -57q-7 -9 -22 -26.5t-33.5 -39t-39.5 -45t-39 -43.5h216z" />
    <glyph glyph-name="threequarters" unicode="&#xbe;" horiz-adv-x="803" 
d="M119 264q-20 0 -54 5t-56 18v60q16 -13 47 -18t46 -5q55 -1 90 25.5t35 68.5q0 40 -33 64t-83 24h-34l2 59h32q39 0 64.5 21.5t25.5 51.5q0 28 -23.5 45.5t-60.5 17.5q-16 0 -37 -3t-41 -13l6 64q15 5 36 8.5t47 3.5q60 1 101.5 -32.5t41.5 -82.5q-1 -31 -18.5 -59.5
t-45.5 -44.5q40 -15 65 -48.5t25 -77.5q0 -65 -50 -109t-128 -43zM605 746h77l-441 -746h-77zM666 151v202l-144 -202h144zM777 92h-40v-92h-71v92h-240l-5 11l258 364h58v-316h58z" />
    <glyph glyph-name="questiondown" unicode="&#xbf;" horiz-adv-x="582" 
d="M367 746v-99h-86v99h86zM315 -15q-51 0 -94 15t-74 43t-48.5 67.5t-17.5 88.5q0 51 16.5 90.5t44 67t64.5 43.5t77 21v155h82v-209h-27q-33 0 -63.5 -10.5t-54 -30.5t-37.5 -50t-14 -68q0 -62 42.5 -105t116.5 -43q42 0 84 15t87 53l2 -87q-41 -27 -88 -41.5t-98 -14.5z
" />
    <glyph glyph-name="Agrave" unicode="&#xc0;" horiz-adv-x="698" 
d="M506 233l-158 402l-159 -402h317zM598 0l-61 156h-378l-62 -156h-95l301 746h93l300 -746h-98zM192 954h108l87 -147h-70z" />
    <glyph glyph-name="Aacute" unicode="&#xc1;" horiz-adv-x="698" 
d="M506 233l-158 402l-159 -402h317zM598 0l-61 156h-378l-62 -156h-95l301 746h93l300 -746h-98zM502 954l-126 -147h-68l88 147h106z" />
    <glyph glyph-name="Acircumflex" unicode="&#xc2;" horiz-adv-x="698" 
d="M506 233l-158 402l-159 -402h317zM598 0l-61 156h-378l-62 -156h-95l301 746h93l300 -746h-98zM429 807l-80 98l-80 -98h-73l104 147h98l104 -147h-73z" />
    <glyph glyph-name="Atilde" unicode="&#xc3;" horiz-adv-x="698" 
d="M506 233l-158 402l-159 -402h317zM598 0l-61 156h-378l-62 -156h-95l301 746h93l300 -746h-98zM220 807l-70 1q-4 40 3.5 67.5t22 44t34.5 23.5t41 7q22 0 47.5 -11t50 -24.5t47 -24.5t38.5 -11t29.5 14t12.5 57l70 -1q7 -75 -25 -107.5t-76 -32.5q-23 0 -49 11t-50 24.5
t-46 24.5t-38 11q-17 0 -30.5 -13.5t-11.5 -59.5z" />
    <glyph glyph-name="Adieresis" unicode="&#xc4;" horiz-adv-x="698" 
d="M506 233l-158 402l-159 -402h317zM598 0l-61 156h-378l-62 -156h-95l301 746h93l300 -746h-98zM496 891v-84h-90v84h90zM290 891v-84h-90v84h90z" />
    <glyph glyph-name="Aring" unicode="&#xc5;" horiz-adv-x="698" 
d="M506 233l-158 402l-159 -402h317zM598 0l-61 156h-378l-62 -156h-95l301 746h93l300 -746h-98zM348 923q47 0 80 -33.5t33 -77.5t-33 -77t-80 -33t-80 33.5t-33 76.5q0 44 33 77.5t80 33.5zM348 878q-27 0 -46 -19t-19 -47q0 -27 19 -46t46 -19t46 19t19 46q0 28 -19 47
t-46 19z" />
    <glyph glyph-name="AE" unicode="&#xc6;" horiz-adv-x="943" 
d="M488 233l-154 422l-152 -422h306zM573 0l-57 156h-362l-56 -156h-96l288 746h419v-80h-296l89 -231h304v-80h-273l106 -275h302v-80h-368z" />
    <glyph glyph-name="Ccedilla" unicode="&#xc7;" horiz-adv-x="645" 
d="M610 730v-93q-37 23 -80.5 36t-89.5 13q-66 0 -124 -25.5t-101.5 -68.5t-68.5 -99.5t-25 -117.5q0 -63 25 -120t68.5 -100.5t101.5 -69t124 -25.5q46 0 89.5 13t80.5 36v-93q-39 -19 -83 -29.5t-91 -10.5q-85 0 -160 31.5t-130 85t-86.5 126.5t-31.5 155t31.5 154.5
t86.5 126t130 84.5t160 31q47 0 90.5 -10.5t83.5 -29.5zM395 -219q-10 0 -30.5 3t-37.5 9v50h1q18 -7 36 -10t27 -3q26 0 41 10.5t15 26.5q0 14 -17.5 23t-47.5 9h-20l-3 7l30 80h53l-19 -44q42 -5 64 -26t22 -52q0 -34 -31.5 -58.5t-82.5 -24.5z" />
    <glyph glyph-name="Egrave" unicode="&#xc8;" horiz-adv-x="474" 
d="M52 0v746h373v-80h-281v-231h260v-80h-260v-275h289v-80h-381zM92 954h108l87 -147h-70z" />
    <glyph glyph-name="Eacute" unicode="&#xc9;" horiz-adv-x="474" 
d="M52 0v746h373v-80h-281v-231h260v-80h-260v-275h289v-80h-381zM402 954l-126 -147h-68l88 147h106z" />
    <glyph glyph-name="Ecircumflex" unicode="&#xca;" horiz-adv-x="474" 
d="M52 0v746h373v-80h-281v-231h260v-80h-260v-275h289v-80h-381zM328 807l-80 98l-80 -98h-73l104 147h98l104 -147h-73z" />
    <glyph glyph-name="Edieresis" unicode="&#xcb;" horiz-adv-x="474" 
d="M52 0v746h373v-80h-281v-231h260v-80h-260v-275h289v-80h-381zM396 891v-84h-90v84h90zM190 891v-84h-90v84h90z" />
    <glyph glyph-name="Igrave" unicode="&#xcc;" horiz-adv-x="200" 
d="M54 0v746h92v-746h-92zM-56 954h108l87 -147h-70z" />
    <glyph glyph-name="Iacute" unicode="&#xcd;" horiz-adv-x="200" 
d="M54 0v746h92v-746h-92zM254 954l-126 -147h-68l88 147h106z" />
    <glyph glyph-name="Icircumflex" unicode="&#xce;" horiz-adv-x="200" 
d="M54 0v746h92v-746h-92zM181 807l-80 98l-80 -98h-73l104 147h98l104 -147h-73z" />
    <glyph glyph-name="Idieresis" unicode="&#xcf;" horiz-adv-x="200" 
d="M54 0v746h92v-746h-92zM248 891v-84h-90v84h90zM42 891v-84h-90v84h90z" />
    <glyph glyph-name="Eth" unicode="&#xd0;" horiz-adv-x="647" 
d="M242 0h-183v344h-52v75h52v327h183q72 0 139.5 -25t119 -72.5t83 -117t31.5 -157.5q0 -89 -31 -159t-82.5 -117.5t-119.5 -72.5t-140 -25zM151 82h87q55 0 106.5 19t91 55.5t63 91.5t23.5 126t-23.5 125t-63 90.5t-91 55.5t-106.5 19h-87v-245h144v-75h-144v-262z" />
    <glyph glyph-name="Ntilde" unicode="&#xd1;" horiz-adv-x="711" 
d="M568 0l-424 597v-597h-92v746h97l417 -588v588h92v-746h-90zM223 807l-70 1q-4 40 3.5 67.5t22 44t34.5 23.5t41 7q22 0 47.5 -11t50 -24.5t47 -24.5t38.5 -11t29.5 14t12.5 57l70 -1q7 -75 -25 -107.5t-76 -32.5q-23 0 -49 11t-50 24.5t-46 24.5t-38 11
q-17 0 -30.5 -13.5t-11.5 -59.5z" />
    <glyph glyph-name="Ograve" unicode="&#xd2;" horiz-adv-x="872" 
d="M436 770q85 0 159.5 -31t129 -84.5t86.5 -126t32 -154.5t-32 -155t-86.5 -126.5t-129 -85t-159.5 -31.5t-160 31.5t-129.5 85t-86.5 126.5t-32 155t32 154.5t86.5 126t129.5 84.5t160 31zM436 686q-65 0 -122.5 -25.5t-100 -68t-67.5 -99t-25 -118.5q0 -63 25 -120.5
t67.5 -100.5t100 -68.5t122.5 -25.5t122.5 25.5t100 68.5t67 100.5t24.5 120.5q0 62 -24.5 118.5t-67 99t-100 68t-122.5 25.5zM280 954h108l87 -147h-70z" />
    <glyph glyph-name="Oacute" unicode="&#xd3;" horiz-adv-x="872" 
d="M436 770q85 0 159.5 -31t129 -84.5t86.5 -126t32 -154.5t-32 -155t-86.5 -126.5t-129 -85t-159.5 -31.5t-160 31.5t-129.5 85t-86.5 126.5t-32 155t32 154.5t86.5 126t129.5 84.5t160 31zM436 686q-65 0 -122.5 -25.5t-100 -68t-67.5 -99t-25 -118.5q0 -63 25 -120.5
t67.5 -100.5t100 -68.5t122.5 -25.5t122.5 25.5t100 68.5t67 100.5t24.5 120.5q0 62 -24.5 118.5t-67 99t-100 68t-122.5 25.5zM590 954l-126 -147h-68l88 147h106z" />
    <glyph glyph-name="Ocircumflex" unicode="&#xd4;" horiz-adv-x="872" 
d="M436 770q85 0 159.5 -31t129 -84.5t86.5 -126t32 -154.5t-32 -155t-86.5 -126.5t-129 -85t-159.5 -31.5t-160 31.5t-129.5 85t-86.5 126.5t-32 155t32 154.5t86.5 126t129.5 84.5t160 31zM436 686q-65 0 -122.5 -25.5t-100 -68t-67.5 -99t-25 -118.5q0 -63 25 -120.5
t67.5 -100.5t100 -68.5t122.5 -25.5t122.5 25.5t100 68.5t67 100.5t24.5 120.5q0 62 -24.5 118.5t-67 99t-100 68t-122.5 25.5zM517 807l-80 98l-80 -98h-73l104 147h98l104 -147h-73z" />
    <glyph glyph-name="Otilde" unicode="&#xd5;" horiz-adv-x="872" 
d="M436 770q85 0 159.5 -31t129 -84.5t86.5 -126t32 -154.5t-32 -155t-86.5 -126.5t-129 -85t-159.5 -31.5t-160 31.5t-129.5 85t-86.5 126.5t-32 155t32 154.5t86.5 126t129.5 84.5t160 31zM436 686q-65 0 -122.5 -25.5t-100 -68t-67.5 -99t-25 -118.5q0 -63 25 -120.5
t67.5 -100.5t100 -68.5t122.5 -25.5t122.5 25.5t100 68.5t67 100.5t24.5 120.5q0 62 -24.5 118.5t-67 99t-100 68t-122.5 25.5zM308 807l-70 1q-4 40 3.5 67.5t22 44t34.5 23.5t41 7q22 0 47.5 -11t50 -24.5t47 -24.5t38.5 -11t29.5 14t12.5 57l70 -1q7 -75 -25 -107.5
t-76 -32.5q-23 0 -49 11t-50 24.5t-46 24.5t-38 11q-17 0 -30.5 -13.5t-11.5 -59.5z" />
    <glyph glyph-name="Odieresis" unicode="&#xd6;" horiz-adv-x="872" 
d="M436 770q85 0 159.5 -31t129 -84.5t86.5 -126t32 -154.5t-32 -155t-86.5 -126.5t-129 -85t-159.5 -31.5t-160 31.5t-129.5 85t-86.5 126.5t-32 155t32 154.5t86.5 126t129.5 84.5t160 31zM436 686q-65 0 -122.5 -25.5t-100 -68t-67.5 -99t-25 -118.5q0 -63 25 -120.5
t67.5 -100.5t100 -68.5t122.5 -25.5t122.5 25.5t100 68.5t67 100.5t24.5 120.5q0 62 -24.5 118.5t-67 99t-100 68t-122.5 25.5zM584 891v-84h-90v84h90zM378 891v-84h-90v84h90z" />
    <glyph glyph-name="multiply" unicode="&#xd7;" horiz-adv-x="526" 
d="M445 102l-187 188l-179 -179l-49 51l178 178l-172 172l51 50l172 -172l162 162l50 -50l-162 -162l187 -187z" />
    <glyph glyph-name="Oslash" unicode="&#xd8;" horiz-adv-x="880" 
d="M121 375q0 -69 29 -130t78 -105l354 509q-32 18 -69 27.5t-77 9.5q-65 0 -122.5 -25.5t-100 -68t-67.5 -99t-25 -118.5zM436 60q65 0 122.5 25.5t100 68.5t67 100.5t24.5 120.5q0 66 -28.5 127t-77.5 104l-355 -509q33 -17 70 -27t77 -10zM436 -24q-54 0 -104 13t-93 36
l-51 -73h-91l79 114q-68 54 -108 134.5t-40 173.5q0 82 32 154.5t86.5 126t129.5 84.5t160 31q54 0 103.5 -13t93.5 -36l50 73h92l-80 -114q68 -54 108 -134t40 -172q0 -82 -32 -155t-86.5 -126.5t-129 -85t-159.5 -31.5z" />
    <glyph glyph-name="Ugrave" unicode="&#xd9;" horiz-adv-x="650" 
d="M598 291q0 -144 -69.5 -229.5t-204.5 -85.5q-133 0 -202.5 85.5t-69.5 229.5v455h92v-484q0 -50 15.5 -88t40.5 -63t57.5 -38t66.5 -13q36 0 69 13t58 38t40 63t15 88v484h92v-455zM169 954h108l87 -147h-70z" />
    <glyph glyph-name="Uacute" unicode="&#xda;" horiz-adv-x="650" 
d="M598 291q0 -144 -69.5 -229.5t-204.5 -85.5q-133 0 -202.5 85.5t-69.5 229.5v455h92v-484q0 -50 15.5 -88t40.5 -63t57.5 -38t66.5 -13q36 0 69 13t58 38t40 63t15 88v484h92v-455zM479 954l-126 -147h-68l88 147h106z" />
    <glyph glyph-name="Ucircumflex" unicode="&#xdb;" horiz-adv-x="650" 
d="M598 291q0 -144 -69.5 -229.5t-204.5 -85.5q-133 0 -202.5 85.5t-69.5 229.5v455h92v-484q0 -50 15.5 -88t40.5 -63t57.5 -38t66.5 -13q36 0 69 13t58 38t40 63t15 88v484h92v-455zM406 807l-80 98l-80 -98h-73l104 147h98l104 -147h-73z" />
    <glyph glyph-name="Udieresis" unicode="&#xdc;" horiz-adv-x="650" 
d="M598 291q0 -144 -69.5 -229.5t-204.5 -85.5q-133 0 -202.5 85.5t-69.5 229.5v455h92v-484q0 -50 15.5 -88t40.5 -63t57.5 -38t66.5 -13q36 0 69 13t58 38t40 63t15 88v484h92v-455zM473 891v-84h-90v84h90zM267 891v-84h-90v84h90z" />
    <glyph glyph-name="Yacute" unicode="&#xdd;" horiz-adv-x="604" 
d="M347 0h-92v244l-253 502h101l200 -410l203 410h96l-255 -504v-242zM456 954l-126 -147h-68l88 147h106z" />
    <glyph glyph-name="Thorn" unicode="&#xde;" horiz-adv-x="493" 
d="M229 550h-85v-278h85q69 0 113 40t44 102q-1 55 -34.5 95.5t-122.5 40.5zM217 188h-73v-188h-92v746h92v-112h80q124 0 189.5 -56t65.5 -164q0 -54 -20.5 -96t-56 -71t-83.5 -44t-102 -15z" />
    <glyph glyph-name="germandbls" unicode="&#xdf;" horiz-adv-x="552" 
d="M278 -148v90q82 52 120 110.5t38 115.5q0 64 -43 108.5t-109 62.5l90 161h-238v-500h-86v610q0 57 16 92.5t42 54.5t59 25t66 6v-77q-17 0 -34.5 -3t-31.5 -14t-22.5 -32.5t-8.5 -56.5v-76l31 45h330l1 -3l-111 -200q66 -31 101.5 -85.5t35.5 -117.5q0 -102 -68 -178
t-178 -138z" />
    <glyph glyph-name="agrave" unicode="&#xe0;" horiz-adv-x="514" 
d="M244 42q58 0 97.5 38t39.5 92q0 51 -38 88.5t-99 37.5q-58 0 -94 -37.5t-36 -88.5q0 -54 36 -92t94 -38zM385 0v56q-28 -31 -70.5 -53t-95.5 -22q-41 0 -77 14.5t-62 40t-41 60t-15 74.5q0 39 15 73.5t42 60t64.5 40.5t82.5 15q49 0 87 -15.5t65 -39.5v55q0 91 -36.5 124
t-96.5 33q-29 0 -57 -3.5t-82 -13.5l-6 73q52 10 83.5 13.5t68.5 3.5q109 0 160.5 -54.5t51.5 -147.5v-387h-81zM103 798h108l87 -147h-70z" />
    <glyph glyph-name="aacute" unicode="&#xe1;" horiz-adv-x="514" 
d="M244 42q58 0 97.5 38t39.5 92q0 51 -38 88.5t-99 37.5q-58 0 -94 -37.5t-36 -88.5q0 -54 36 -92t94 -38zM385 0v56q-28 -31 -70.5 -53t-95.5 -22q-41 0 -77 14.5t-62 40t-41 60t-15 74.5q0 39 15 73.5t42 60t64.5 40.5t82.5 15q49 0 87 -15.5t65 -39.5v55q0 91 -36.5 124
t-96.5 33q-29 0 -57 -3.5t-82 -13.5l-6 73q52 10 83.5 13.5t68.5 3.5q109 0 160.5 -54.5t51.5 -147.5v-387h-81zM414 798l-126 -147h-68l88 147h106z" />
    <glyph glyph-name="acircumflex" unicode="&#xe2;" horiz-adv-x="514" 
d="M244 42q58 0 97.5 38t39.5 92q0 51 -38 88.5t-99 37.5q-58 0 -94 -37.5t-36 -88.5q0 -54 36 -92t94 -38zM385 0v56q-28 -31 -70.5 -53t-95.5 -22q-41 0 -77 14.5t-62 40t-41 60t-15 74.5q0 39 15 73.5t42 60t64.5 40.5t82.5 15q49 0 87 -15.5t65 -39.5v55q0 91 -36.5 124
t-96.5 33q-29 0 -57 -3.5t-82 -13.5l-6 73q52 10 83.5 13.5t68.5 3.5q109 0 160.5 -54.5t51.5 -147.5v-387h-81zM340 651l-80 98l-80 -98h-73l104 147h98l104 -147h-73z" />
    <glyph glyph-name="atilde" unicode="&#xe3;" horiz-adv-x="514" 
d="M244 42q58 0 97.5 38t39.5 92q0 51 -38 88.5t-99 37.5q-58 0 -94 -37.5t-36 -88.5q0 -54 36 -92t94 -38zM385 0v56q-28 -31 -70.5 -53t-95.5 -22q-41 0 -77 14.5t-62 40t-41 60t-15 74.5q0 39 15 73.5t42 60t64.5 40.5t82.5 15q49 0 87 -15.5t65 -39.5v55q0 91 -36.5 124
t-96.5 33q-29 0 -57 -3.5t-82 -13.5l-6 73q52 10 83.5 13.5t68.5 3.5q109 0 160.5 -54.5t51.5 -147.5v-387h-81zM132 651l-70 1q-4 40 3.5 67.5t22 44t34.5 23.5t41 7q22 0 47.5 -11t50 -24.5t47 -24.5t38.5 -11t29.5 14t12.5 57l70 -1q7 -75 -25 -107.5t-76 -32.5
q-23 0 -49 11t-50 24.5t-46 24.5t-38 11q-17 0 -30.5 -13.5t-11.5 -59.5z" />
    <glyph glyph-name="adieresis" unicode="&#xe4;" horiz-adv-x="514" 
d="M244 42q58 0 97.5 38t39.5 92q0 51 -38 88.5t-99 37.5q-58 0 -94 -37.5t-36 -88.5q0 -54 36 -92t94 -38zM385 0v56q-28 -31 -70.5 -53t-95.5 -22q-41 0 -77 14.5t-62 40t-41 60t-15 74.5q0 39 15 73.5t42 60t64.5 40.5t82.5 15q49 0 87 -15.5t65 -39.5v55q0 91 -36.5 124
t-96.5 33q-29 0 -57 -3.5t-82 -13.5l-6 73q52 10 83.5 13.5t68.5 3.5q109 0 160.5 -54.5t51.5 -147.5v-387h-81zM408 735v-84h-90v84h90zM202 735v-84h-90v84h90z" />
    <glyph glyph-name="aring" unicode="&#xe5;" horiz-adv-x="514" 
d="M244 42q58 0 97.5 38t39.5 92q0 51 -38 88.5t-99 37.5q-58 0 -94 -37.5t-36 -88.5q0 -54 36 -92t94 -38zM385 0v56q-28 -31 -70.5 -53t-95.5 -22q-41 0 -77 14.5t-62 40t-41 60t-15 74.5q0 39 15 73.5t42 60t64.5 40.5t82.5 15q49 0 87 -15.5t65 -39.5v55q0 91 -36.5 124
t-96.5 33q-29 0 -57 -3.5t-82 -13.5l-6 73q52 10 83.5 13.5t68.5 3.5q109 0 160.5 -54.5t51.5 -147.5v-387h-81zM260 867q47 0 80 -33.5t33 -77.5t-33 -77t-80 -33t-80 33.5t-33 76.5q0 44 33 77.5t80 33.5zM260 822q-27 0 -46 -19t-19 -47q0 -27 19 -46t46 -19t46 19t19 46
q0 28 -19 47t-46 19z" />
    <glyph glyph-name="ae" unicode="&#xe6;" horiz-adv-x="996" 
d="M671 528q-78 0 -135.5 -49.5t-73.5 -128.5h416q-16 77 -73.5 127.5t-133.5 50.5zM244 33q58 0 97.5 37.5t39.5 96.5q0 54 -38.5 92.5t-98.5 38.5q-58 0 -94 -38.5t-36 -92.5q0 -57 36 -95.5t94 -38.5zM960 82q-43 -46 -111.5 -78.5t-160.5 -32.5q-84 0 -150.5 35.5
t-107.5 93.5q-17 -53 -68 -91t-132 -38q-90 0 -148 55t-58 139q0 41 15 76.5t41.5 61.5t64.5 41t83 15q43 0 79 -12.5t62 -33.5v46q0 91 -34 124t-91 33q-29 0 -55.5 -3.5t-80.5 -13.5l-6 73q52 10 82 13.5t67 3.5q75 0 121 -27t66 -76q40 53 100 85t133 32q62 0 117 -24
t96 -65t65 -97t24 -119v-18h-518q1 -51 19 -94t49 -74t73 -48.5t92 -17.5q69 0 124 26.5t95 66.5zM390 151l2 3v5z" />
    <glyph glyph-name="ccedilla" unicode="&#xe7;" horiz-adv-x="530" 
d="M488 91v-81q-31 -16 -70.5 -22t-67.5 -6q-68 0 -127.5 24.5t-103 65.5t-68.5 97t-25 118t25 118t68.5 97t103 65.5t127.5 24.5q27 0 66 -7t72 -24v-82h-3q-36 24 -73 31t-62 7q-49 0 -91.5 -18t-74 -49t-49.5 -73.5t-18 -89.5t18 -89.5t49.5 -73.5t74 -49t91.5 -18
q25 0 59 6t76 28h3zM305 -213q-10 0 -30.5 3t-37.5 9v50h1q18 -6 36 -9.5t27 -3.5q26 0 41 10.5t15 26.5q0 14 -17.5 23t-47.5 9h-20l-3 7l30 80h53l-19 -44q42 -5 64 -26t22 -52q0 -34 -31.5 -58.5t-82.5 -24.5z" />
    <glyph glyph-name="egrave" unicode="&#xe8;" horiz-adv-x="658" 
d="M332 528q-78 0 -135 -49.5t-73 -128.5h416q-16 77 -74 127.5t-134 50.5zM622 82q-43 -46 -111.5 -78.5t-160.5 -32.5q-72 0 -131.5 25t-102.5 67.5t-66.5 100.5t-23.5 123q0 64 22.5 121.5t63 100.5t97 68.5t123.5 25.5q62 0 117.5 -24t96.5 -65t65 -97t24 -119v-18h-518
q1 -51 19 -94t49 -74t73 -48.5t92 -17.5q69 0 124 26.5t95 66.5zM176 798h108l87 -147h-70z" />
    <glyph glyph-name="eacute" unicode="&#xe9;" horiz-adv-x="658" 
d="M332 528q-78 0 -135 -49.5t-73 -128.5h416q-16 77 -74 127.5t-134 50.5zM622 82q-43 -46 -111.5 -78.5t-160.5 -32.5q-72 0 -131.5 25t-102.5 67.5t-66.5 100.5t-23.5 123q0 64 22.5 121.5t63 100.5t97 68.5t123.5 25.5q62 0 117.5 -24t96.5 -65t65 -97t24 -119v-18h-518
q1 -51 19 -94t49 -74t73 -48.5t92 -17.5q69 0 124 26.5t95 66.5zM486 798l-126 -147h-68l88 147h106z" />
    <glyph glyph-name="ecircumflex" unicode="&#xea;" horiz-adv-x="658" 
d="M332 528q-78 0 -135 -49.5t-73 -128.5h416q-16 77 -74 127.5t-134 50.5zM622 82q-43 -46 -111.5 -78.5t-160.5 -32.5q-72 0 -131.5 25t-102.5 67.5t-66.5 100.5t-23.5 123q0 64 22.5 121.5t63 100.5t97 68.5t123.5 25.5q62 0 117.5 -24t96.5 -65t65 -97t24 -119v-18h-518
q1 -51 19 -94t49 -74t73 -48.5t92 -17.5q69 0 124 26.5t95 66.5zM413 651l-80 98l-80 -98h-73l104 147h98l104 -147h-73z" />
    <glyph glyph-name="edieresis" unicode="&#xeb;" horiz-adv-x="658" 
d="M332 528q-78 0 -135 -49.5t-73 -128.5h416q-16 77 -74 127.5t-134 50.5zM622 82q-43 -46 -111.5 -78.5t-160.5 -32.5q-72 0 -131.5 25t-102.5 67.5t-66.5 100.5t-23.5 123q0 64 22.5 121.5t63 100.5t97 68.5t123.5 25.5q62 0 117.5 -24t96.5 -65t65 -97t24 -119v-18h-518
q1 -51 19 -94t49 -74t73 -48.5t92 -17.5q69 0 124 26.5t95 66.5zM480 735v-84h-90v84h90zM274 735v-84h-90v84h90z" />
    <glyph glyph-name="igrave" unicode="&#xec;" horiz-adv-x="188" 
d="M137 574v-574h-86v574h86zM-62 798h108l87 -147h-70z" />
    <glyph glyph-name="iacute" unicode="&#xed;" horiz-adv-x="188" 
d="M137 574v-574h-86v574h86zM248 798l-126 -147h-68l88 147h106z" />
    <glyph glyph-name="icircumflex" unicode="&#xee;" horiz-adv-x="188" 
d="M137 574v-574h-86v574h86zM175 651l-80 98l-80 -98h-73l104 147h98l104 -147h-73z" />
    <glyph glyph-name="idieresis" unicode="&#xef;" horiz-adv-x="188" 
d="M137 574v-574h-86v574h86zM242 735v-84h-90v84h90zM36 735v-84h-90v84h90z" />
    <glyph glyph-name="eth" unicode="&#xf0;" horiz-adv-x="692" 
d="M346 -28q-69 0 -127.5 25.5t-101.5 68.5t-67 100.5t-24 120.5q0 61 24 117t67 98t101.5 67t127.5 25q34 0 65.5 -6.5t59.5 -19.5q-19 22 -40.5 44t-45.5 44l-152 -44l-29 52l127 36q-26 20 -54 40.5t-59 39.5h123q20 -13 39.5 -27t37.5 -27l137 39l29 -52l-113 -32
q96 -88 145.5 -187.5t49.5 -198.5v-4.5v-3.5v0q0 -63 -24 -120.5t-66.5 -100.5t-101.5 -68.5t-128 -25.5zM346 526q-50 0 -92 -19.5t-72.5 -52.5t-48 -76.5t-17.5 -90.5t17.5 -90.5t48 -76.5t72.5 -52.5t92 -19.5t92.5 19.5t73 52.5t47.5 76.5t17 90.5t-17 90.5t-47.5 76.5
t-73 52.5t-92.5 19.5z" />
    <glyph glyph-name="ntilde" unicode="&#xf1;" horiz-adv-x="573" 
d="M134 359v-359h-86v574h84v-71q28 34 77 60t111 26q95 0 150.5 -58t55.5 -157v-374h-86v349q0 46 -12.5 77.5t-33.5 50.5t-48.5 27t-56.5 8q-25 0 -52 -9.5t-50 -28.5t-38 -48t-15 -67zM160 651l-70 1q-4 40 3.5 67.5t22 44t34.5 23.5t41 7q22 0 47.5 -11t50 -24.5
t47 -24.5t38.5 -11t29.5 14t12.5 57l70 -1q7 -75 -25 -107.5t-76 -32.5q-23 0 -49 11t-50 24.5t-46 24.5t-38 11q-17 0 -30.5 -13.5t-11.5 -59.5z" />
    <glyph glyph-name="ograve" unicode="&#xf2;" horiz-adv-x="695" 
d="M348 603q69 0 128.5 -25.5t102 -68.5t67 -101t24.5 -121t-24.5 -121t-67 -101t-102 -68.5t-128.5 -25.5t-128.5 25.5t-102 68.5t-67 101t-24.5 121t24.5 121t67 101t102 68.5t128.5 25.5zM348 528q-50 0 -92.5 -19.5t-73 -52.5t-48 -77t-17.5 -92t17.5 -92t48 -77
t73 -52.5t92.5 -19.5t92.5 19.5t73 53t48 77t17.5 91.5t-17.5 92t-48 77t-73 52.5t-92.5 19.5zM191 798h108l87 -147h-70z" />
    <glyph glyph-name="oacute" unicode="&#xf3;" horiz-adv-x="695" 
d="M348 603q69 0 128.5 -25.5t102 -68.5t67 -101t24.5 -121t-24.5 -121t-67 -101t-102 -68.5t-128.5 -25.5t-128.5 25.5t-102 68.5t-67 101t-24.5 121t24.5 121t67 101t102 68.5t128.5 25.5zM348 528q-50 0 -92.5 -19.5t-73 -52.5t-48 -77t-17.5 -92t17.5 -92t48 -77
t73 -52.5t92.5 -19.5t92.5 19.5t73 53t48 77t17.5 91.5t-17.5 92t-48 77t-73 52.5t-92.5 19.5zM502 798l-126 -147h-68l88 147h106z" />
    <glyph glyph-name="ocircumflex" unicode="&#xf4;" horiz-adv-x="695" 
d="M348 603q69 0 128.5 -25.5t102 -68.5t67 -101t24.5 -121t-24.5 -121t-67 -101t-102 -68.5t-128.5 -25.5t-128.5 25.5t-102 68.5t-67 101t-24.5 121t24.5 121t67 101t102 68.5t128.5 25.5zM348 528q-50 0 -92.5 -19.5t-73 -52.5t-48 -77t-17.5 -92t17.5 -92t48 -77
t73 -52.5t92.5 -19.5t92.5 19.5t73 53t48 77t17.5 91.5t-17.5 92t-48 77t-73 52.5t-92.5 19.5zM428 651l-80 98l-80 -98h-73l104 147h98l104 -147h-73z" />
    <glyph glyph-name="otilde" unicode="&#xf5;" horiz-adv-x="695" 
d="M348 603q69 0 128.5 -25.5t102 -68.5t67 -101t24.5 -121t-24.5 -121t-67 -101t-102 -68.5t-128.5 -25.5t-128.5 25.5t-102 68.5t-67 101t-24.5 121t24.5 121t67 101t102 68.5t128.5 25.5zM348 528q-50 0 -92.5 -19.5t-73 -52.5t-48 -77t-17.5 -92t17.5 -92t48 -77
t73 -52.5t92.5 -19.5t92.5 19.5t73 53t48 77t17.5 91.5t-17.5 92t-48 77t-73 52.5t-92.5 19.5zM220 651l-70 1q-4 40 3.5 67.5t22 44t34.5 23.5t41 7q22 0 47.5 -11t50 -24.5t47 -24.5t38.5 -11t29.5 14t12.5 57l70 -1q7 -75 -25 -107.5t-76 -32.5q-23 0 -49 11t-50 24.5
t-46 24.5t-38 11q-17 0 -30.5 -13.5t-11.5 -59.5z" />
    <glyph glyph-name="odieresis" unicode="&#xf6;" horiz-adv-x="695" 
d="M348 603q69 0 128.5 -25.5t102 -68.5t67 -101t24.5 -121t-24.5 -121t-67 -101t-102 -68.5t-128.5 -25.5t-128.5 25.5t-102 68.5t-67 101t-24.5 121t24.5 121t67 101t102 68.5t128.5 25.5zM348 528q-50 0 -92.5 -19.5t-73 -52.5t-48 -77t-17.5 -92t17.5 -92t48 -77
t73 -52.5t92.5 -19.5t92.5 19.5t73 53t48 77t17.5 91.5t-17.5 92t-48 77t-73 52.5t-92.5 19.5zM496 735v-84h-90v84h90zM290 735v-84h-90v84h90z" />
    <glyph glyph-name="divide" unicode="&#xf7;" horiz-adv-x="596" 
d="M254 491v106h89v-106h-89zM558 386v-73h-520v73h520zM254 102v106h89v-106h-89z" />
    <glyph glyph-name="oslash" unicode="&#xf8;" horiz-adv-x="692" 
d="M117 287q0 -51 20 -97.5t54 -80.5l250 399q-21 10 -44.5 15t-48.5 5q-50 0 -92.5 -19.5t-73 -52.5t-48 -77t-17.5 -92zM348 46q50 0 92.5 19.5t73 53t48 77t17.5 91.5q0 52 -20.5 99t-55.5 81l-251 -400q22 -10 46 -15.5t50 -5.5zM348 -29q-37 0 -72 8t-66 21l-30 -48
h-88l55 87q-56 44 -88.5 109t-32.5 139q0 63 24.5 121t67 101t102 68.5t128.5 25.5q37 0 70.5 -7.5t64.5 -20.5l29 47h88l-53 -85q57 -44 90 -109.5t33 -140.5q0 -63 -24.5 -121t-67 -101t-102 -68.5t-128.5 -25.5z" />
    <glyph glyph-name="ugrave" unicode="&#xf9;" horiz-adv-x="573" 
d="M442 0v72q-28 -34 -77 -60.5t-111 -26.5q-96 0 -152 58t-56 157v374h86v-349q0 -46 12.5 -77.5t33.5 -50.5t49 -27t57 -8q25 0 52.5 9.5t50 28.5t37.5 48t15 67v359h86v-574h-83zM130 798h108l87 -147h-70z" />
    <glyph glyph-name="uacute" unicode="&#xfa;" horiz-adv-x="573" 
d="M442 0v72q-28 -34 -77 -60.5t-111 -26.5q-96 0 -152 58t-56 157v374h86v-349q0 -46 12.5 -77.5t33.5 -50.5t49 -27t57 -8q25 0 52.5 9.5t50 28.5t37.5 48t15 67v359h86v-574h-83zM440 798l-126 -147h-68l88 147h106z" />
    <glyph glyph-name="ucircumflex" unicode="&#xfb;" horiz-adv-x="573" 
d="M442 0v72q-28 -34 -77 -60.5t-111 -26.5q-96 0 -152 58t-56 157v374h86v-349q0 -46 12.5 -77.5t33.5 -50.5t49 -27t57 -8q25 0 52.5 9.5t50 28.5t37.5 48t15 67v359h86v-574h-83zM366 651l-80 98l-80 -98h-73l104 147h98l104 -147h-73z" />
    <glyph glyph-name="udieresis" unicode="&#xfc;" horiz-adv-x="573" 
d="M442 0v72q-28 -34 -77 -60.5t-111 -26.5q-96 0 -152 58t-56 157v374h86v-349q0 -46 12.5 -77.5t33.5 -50.5t49 -27t57 -8q25 0 52.5 9.5t50 28.5t37.5 48t15 67v359h86v-574h-83zM434 735v-84h-90v84h90zM228 735v-84h-90v84h90z" />
    <glyph glyph-name="yacute" unicode="&#xfd;" horiz-adv-x="576" 
d="M273 -220h-86l79 209l-267 585h96l211 -480l182 480h89zM443 798l-126 -147h-68l88 147h106z" />
    <glyph glyph-name="thorn" unicode="&#xfe;" horiz-adv-x="707" 
d="M132 287q0 -46 17.5 -89t48 -75t73 -51.5t91.5 -19.5q50 0 92 19.5t72 51.5t47 75t17 89q0 47 -17 89.5t-47 75t-72 51.5t-92 19q-49 0 -91.5 -19.5t-73 -51.5t-48 -75t-17.5 -89zM378 -25q-75 0 -138.5 34t-105.5 89v-318h-86v1000h86v-305q41 55 105 89.5t139 34.5
q65 0 120.5 -25.5t96 -68.5t63.5 -100t23 -119t-23 -119t-63.5 -99.5t-96 -67.5t-120.5 -25z" />
    <glyph glyph-name="ydieresis" unicode="&#xff;" horiz-adv-x="576" 
d="M273 -220h-86l79 209l-267 585h96l211 -480l182 480h89zM437 735v-84h-90v84h90zM231 735v-84h-90v84h90z" />
    <glyph glyph-name="Amacron" unicode="&#x100;" horiz-adv-x="698" 
d="M506 233l-158 402l-159 -402h317zM598 0l-61 156h-378l-62 -156h-95l301 746h93l300 -746h-98zM480 875v-68h-264v68h264z" />
    <glyph glyph-name="amacron" unicode="&#x101;" horiz-adv-x="514" 
d="M244 42q58 0 97.5 38t39.5 92q0 51 -38 88.5t-99 37.5q-58 0 -94 -37.5t-36 -88.5q0 -54 36 -92t94 -38zM385 0v56q-28 -31 -70.5 -53t-95.5 -22q-41 0 -77 14.5t-62 40t-41 60t-15 74.5q0 39 15 73.5t42 60t64.5 40.5t82.5 15q49 0 87 -15.5t65 -39.5v55q0 91 -36.5 124
t-96.5 33q-29 0 -57 -3.5t-82 -13.5l-6 73q52 10 83.5 13.5t68.5 3.5q109 0 160.5 -54.5t51.5 -147.5v-387h-81zM392 719v-68h-264v68h264z" />
    <glyph glyph-name="Abreve" unicode="&#x102;" horiz-adv-x="698" 
d="M506 233l-158 402l-159 -402h317zM598 0l-61 156h-378l-62 -156h-95l301 746h93l300 -746h-98zM498 946q-16 -65 -54.5 -104.5t-95.5 -39.5t-95.5 39.5t-54.5 104.5l61 3q16 -43 40.5 -65t48.5 -22t48.5 22t40.5 65z" />
    <glyph glyph-name="abreve" unicode="&#x103;" horiz-adv-x="514" 
d="M244 42q58 0 97.5 38t39.5 92q0 51 -38 88.5t-99 37.5q-58 0 -94 -37.5t-36 -88.5q0 -54 36 -92t94 -38zM385 0v56q-28 -31 -70.5 -53t-95.5 -22q-41 0 -77 14.5t-62 40t-41 60t-15 74.5q0 39 15 73.5t42 60t64.5 40.5t82.5 15q49 0 87 -15.5t65 -39.5v55q0 91 -36.5 124
t-96.5 33q-29 0 -57 -3.5t-82 -13.5l-6 73q52 10 83.5 13.5t68.5 3.5q109 0 160.5 -54.5t51.5 -147.5v-387h-81zM410 790q-16 -65 -54.5 -104.5t-95.5 -39.5t-95.5 39.5t-54.5 104.5l61 3q16 -43 40.5 -65t48.5 -22t48.5 22t40.5 65z" />
    <glyph glyph-name="Aogonek" unicode="&#x104;" horiz-adv-x="698" 
d="M623 -175q-45 0 -65.5 22.5t-20.5 48.5q0 28 17 49t39 40l9 8l-65 163h-378l-62 -156h-95l301 746h93l300 -746l-42 -33q-21 -17 -32.5 -29t-11.5 -27q0 -10 8.5 -19.5t23.5 -9.5q12 0 21 4.5t16 10.5l31 -39q-11 -11 -34 -22t-53 -11zM507 233l-159 402l-159 -402h318z
" />
    <glyph glyph-name="aogonek" unicode="&#x105;" horiz-adv-x="514" 
d="M244 42q58 0 97.5 38t39.5 92q0 51 -38 88.5t-99 37.5q-58 0 -94 -37.5t-36 -88.5q0 -54 36 -92t94 -38zM479 -142q-11 -11 -34 -22t-53 -11q-45 0 -65.5 22.5t-20.5 48.5q0 27 16.5 46.5t38.5 38.5l24 21v54q-28 -31 -70.5 -53t-95.5 -22q-41 0 -77 14.5t-62 40t-41 60
t-15 74.5q0 39 15 73.5t42 60t64.5 40.5t82.5 15q49 0 87 -15.5t65 -39.5v55q0 91 -36.5 124t-96.5 33q-29 0 -57 -3.5t-82 -13.5l-6 73q52 10 83.5 13.5t68.5 3.5q109 0 160.5 -54.5t51.5 -147.5v-387l-43 -33q-20 -16 -32 -28.5t-12 -27.5q0 -10 8.5 -19.5t23.5 -9.5
q12 0 21 4.5t16 10.5z" />
    <glyph glyph-name="Cacute" unicode="&#x106;" horiz-adv-x="645" 
d="M610 730v-93q-37 23 -80.5 36t-89.5 13q-66 0 -124 -25.5t-101.5 -68.5t-68.5 -99.5t-25 -117.5q0 -63 25 -120t68.5 -100.5t101.5 -69t124 -25.5q46 0 89.5 13t80.5 36v-93q-39 -19 -83 -29.5t-91 -10.5q-85 0 -160 31.5t-130 85t-86.5 126.5t-31.5 155t31.5 154.5
t86.5 126t130 84.5t160 31q47 0 90.5 -10.5t83.5 -29.5zM566 954l-126 -147h-68l88 147h106z" />
    <glyph glyph-name="cacute" unicode="&#x107;" horiz-adv-x="530" 
d="M488 91v-81q-31 -16 -70.5 -22t-67.5 -6q-68 0 -127.5 24.5t-103 65.5t-68.5 97t-25 118t25 118t68.5 97t103 65.5t127.5 24.5q27 0 66 -7t72 -24v-82h-3q-36 24 -73 31t-62 7q-49 0 -91.5 -18t-74 -49t-49.5 -73.5t-18 -89.5t18 -89.5t49.5 -73.5t74 -49t91.5 -18
q25 0 59 6t76 28h3zM484 798l-126 -147h-68l88 147h106z" />
    <glyph glyph-name="Ccircumflex" unicode="&#x108;" horiz-adv-x="645" 
d="M610 730v-93q-37 23 -80.5 36t-89.5 13q-66 0 -124 -25.5t-101.5 -68.5t-68.5 -99.5t-25 -117.5q0 -63 25 -120t68.5 -100.5t101.5 -69t124 -25.5q46 0 89.5 13t80.5 36v-93q-39 -19 -83 -29.5t-91 -10.5q-85 0 -160 31.5t-130 85t-86.5 126.5t-31.5 155t31.5 154.5
t86.5 126t130 84.5t160 31q47 0 90.5 -10.5t83.5 -29.5zM492 807l-80 98l-80 -98h-73l104 147h98l104 -147h-73z" />
    <glyph glyph-name="ccircumflex" unicode="&#x109;" horiz-adv-x="530" 
d="M488 91v-81q-31 -16 -70.5 -22t-67.5 -6q-68 0 -127.5 24.5t-103 65.5t-68.5 97t-25 118t25 118t68.5 97t103 65.5t127.5 24.5q27 0 66 -7t72 -24v-82h-3q-36 24 -73 31t-62 7q-49 0 -91.5 -18t-74 -49t-49.5 -73.5t-18 -89.5t18 -89.5t49.5 -73.5t74 -49t91.5 -18
q25 0 59 6t76 28h3zM410 651l-80 98l-80 -98h-73l104 147h98l104 -147h-73z" />
    <glyph glyph-name="Cdotaccent" unicode="&#x10a;" horiz-adv-x="645" 
d="M610 730v-93q-37 23 -80.5 36t-89.5 13q-66 0 -124 -25.5t-101.5 -68.5t-68.5 -99.5t-25 -117.5q0 -63 25 -120t68.5 -100.5t101.5 -69t124 -25.5q46 0 89.5 13t80.5 36v-93q-39 -19 -83 -29.5t-91 -10.5q-85 0 -160 31.5t-130 85t-86.5 126.5t-31.5 155t31.5 154.5
t86.5 126t130 84.5t160 31q47 0 90.5 -10.5t83.5 -29.5zM457 911v-104h-90v104h90z" />
    <glyph glyph-name="cdotaccent" unicode="&#x10b;" horiz-adv-x="530" 
d="M488 91v-81q-31 -16 -70.5 -22t-67.5 -6q-68 0 -127.5 24.5t-103 65.5t-68.5 97t-25 118t25 118t68.5 97t103 65.5t127.5 24.5q27 0 66 -7t72 -24v-82h-3q-36 24 -73 31t-62 7q-49 0 -91.5 -18t-74 -49t-49.5 -73.5t-18 -89.5t18 -89.5t49.5 -73.5t74 -49t91.5 -18
q25 0 59 6t76 28h3zM375 780v-114h-90v114h90z" />
    <glyph glyph-name="Ccaron" unicode="&#x10c;" horiz-adv-x="645" 
d="M610 730v-93q-37 23 -80.5 36t-89.5 13q-66 0 -124 -25.5t-101.5 -68.5t-68.5 -99.5t-25 -117.5q0 -63 25 -120t68.5 -100.5t101.5 -69t124 -25.5q46 0 89.5 13t80.5 36v-93q-39 -19 -83 -29.5t-91 -10.5q-85 0 -160 31.5t-130 85t-86.5 126.5t-31.5 155t31.5 154.5
t86.5 126t130 84.5t160 31q47 0 90.5 -10.5t83.5 -29.5zM462 807h-98l-104 147h72l80 -98l81 98h73z" />
    <glyph glyph-name="ccaron" unicode="&#x10d;" horiz-adv-x="530" 
d="M488 91v-81q-31 -16 -70.5 -22t-67.5 -6q-68 0 -127.5 24.5t-103 65.5t-68.5 97t-25 118t25 118t68.5 97t103 65.5t127.5 24.5q27 0 66 -7t72 -24v-82h-3q-36 24 -73 31t-62 7q-49 0 -91.5 -18t-74 -49t-49.5 -73.5t-18 -89.5t18 -89.5t49.5 -73.5t74 -49t91.5 -18
q25 0 59 6t76 28h3zM379 651h-98l-104 147h72l80 -98l81 98h73z" />
    <glyph glyph-name="Dcaron" unicode="&#x10e;" horiz-adv-x="640" 
d="M52 0v746h183q72 0 140 -25t119.5 -72.5t83 -117t31.5 -157.5q0 -89 -31.5 -159t-83 -117.5t-119.5 -72.5t-140 -25h-183zM144 664v-582h88q55 0 106.5 19t91 55.5t63 91.5t23.5 126t-23.5 125t-63 90.5t-91 55.5t-106.5 19h-88zM338 807h-98l-104 147h72l80 -98l81 98
h73z" />
    <glyph glyph-name="dcaron" unicode="&#x10f;" horiz-adv-x="707" 
d="M575 287q0 46 -17.5 89t-48 75t-73 51.5t-91.5 19.5q-50 0 -92 -19t-72 -51.5t-47 -75t-17 -89.5q0 -46 17 -89t47 -75t72 -51.5t92 -19.5q49 0 91.5 19.5t73 51.5t48 75t17.5 89zM576 0v102q-41 -57 -105.5 -92t-141.5 -35q-65 0 -120.5 25t-96 67.5t-63.5 99.5t-23 119
t23 119t63.5 100t96 68.5t120.5 25.5q75 0 139 -34t105 -90v305h85v-780h-82zM797 780l-43 -158h-54l16 158h81z" />
    <glyph glyph-name="Dcroat" unicode="&#x110;" horiz-adv-x="649" 
d="M245 0h-183v344h-52v75h52v327h183q72 0 139.5 -25t119 -72.5t83 -117t31.5 -157.5q0 -89 -31 -159t-82.5 -117.5t-119.5 -72.5t-140 -25zM154 82h87q55 0 106.5 19t91 55.5t63 91.5t23.5 126t-23.5 125t-63 90.5t-91 55.5t-106.5 19h-87v-245h144v-75h-144v-262z" />
    <glyph glyph-name="dcroat" unicode="&#x111;" horiz-adv-x="707" 
d="M575 287q0 46 -17.5 89t-48 75t-73 51.5t-91.5 19.5q-50 0 -92 -19t-72 -51.5t-47 -75t-17 -89.5q0 -46 17 -89t47 -75t72 -51.5t92 -19.5q49 0 91.5 19.5t73 51.5t48 75t17.5 89zM576 0v102q-41 -57 -105.5 -92t-141.5 -35q-65 0 -120.5 25t-96 67.5t-63.5 99.5t-23 119
t23 119t63.5 100t96 68.5t120.5 25.5q75 0 139 -34t105 -90v144h-90v62h90v99h85v-99h48v-62h-48v-619h-82z" />
    <glyph glyph-name="Emacron" unicode="&#x112;" horiz-adv-x="474" 
d="M52 0v746h373v-80h-281v-231h260v-80h-260v-275h289v-80h-381zM380 875v-68h-264v68h264z" />
    <glyph glyph-name="emacron" unicode="&#x113;" horiz-adv-x="658" 
d="M332 528q-78 0 -135 -49.5t-73 -128.5h416q-16 77 -74 127.5t-134 50.5zM622 82q-43 -46 -111.5 -78.5t-160.5 -32.5q-72 0 -131.5 25t-102.5 67.5t-66.5 100.5t-23.5 123q0 64 22.5 121.5t63 100.5t97 68.5t123.5 25.5q62 0 117.5 -24t96.5 -65t65 -97t24 -119v-18h-518
q1 -51 19 -94t49 -74t73 -48.5t92 -17.5q69 0 124 26.5t95 66.5zM464 719v-68h-264v68h264z" />
    <glyph glyph-name="Ebreve" unicode="&#x114;" horiz-adv-x="474" 
d="M52 0v746h373v-80h-281v-231h260v-80h-260v-275h289v-80h-381zM398 946q-16 -65 -54.5 -104.5t-95.5 -39.5t-95.5 39.5t-54.5 104.5l61 3q16 -43 40.5 -65t48.5 -22t48.5 22t40.5 65z" />
    <glyph glyph-name="ebreve" unicode="&#x115;" horiz-adv-x="658" 
d="M332 528q-78 0 -135 -49.5t-73 -128.5h416q-16 77 -74 127.5t-134 50.5zM622 82q-43 -46 -111.5 -78.5t-160.5 -32.5q-72 0 -131.5 25t-102.5 67.5t-66.5 100.5t-23.5 123q0 64 22.5 121.5t63 100.5t97 68.5t123.5 25.5q62 0 117.5 -24t96.5 -65t65 -97t24 -119v-18h-518
q1 -51 19 -94t49 -74t73 -48.5t92 -17.5q69 0 124 26.5t95 66.5zM482 790q-16 -65 -54.5 -104.5t-95.5 -39.5t-95.5 39.5t-54.5 104.5l61 3q16 -43 40.5 -65t48.5 -22t48.5 22t40.5 65z" />
    <glyph glyph-name="Edotaccent" unicode="&#x116;" horiz-adv-x="474" 
d="M52 0v746h373v-80h-281v-231h260v-80h-260v-275h289v-80h-381zM293 911v-104h-90v104h90z" />
    <glyph glyph-name="edotaccent" unicode="&#x117;" horiz-adv-x="658" 
d="M332 528q-78 0 -135 -49.5t-73 -128.5h416q-16 77 -74 127.5t-134 50.5zM622 82q-43 -46 -111.5 -78.5t-160.5 -32.5q-72 0 -131.5 25t-102.5 67.5t-66.5 100.5t-23.5 123q0 64 22.5 121.5t63 100.5t97 68.5t123.5 25.5q62 0 117.5 -24t96.5 -65t65 -97t24 -119v-18h-518
q1 -51 19 -94t49 -74t73 -48.5t92 -17.5q69 0 124 26.5t95 66.5zM377 780v-114h-90v114h90z" />
    <glyph glyph-name="Eogonek" unicode="&#x118;" horiz-adv-x="474" 
d="M447 -142q-11 -11 -34 -22t-53 -11q-45 0 -65.5 22.5t-20.5 48.5q0 27 16.5 46.5t38.5 38.5l23 19h-300v746h373v-80h-281v-231h260v-80h-260v-275h289v-80l-43 -33q-20 -16 -31.5 -28.5t-11.5 -27.5q0 -10 8.5 -19.5t23.5 -9.5q12 0 21 4.5t16 10.5z" />
    <glyph glyph-name="eogonek" unicode="&#x119;" horiz-adv-x="658" 
d="M332 528q-78 0 -135 -49.5t-73 -128.5h416q-16 77 -74 127.5t-134 50.5zM627 -142q-12 -11 -35 -22t-52 -11q-45 0 -66 23t-21 54q0 25 10.5 47.5t26.5 45.5q-30 -11 -65 -17.5t-75 -6.5q-72 0 -131.5 25t-102.5 67.5t-66.5 100.5t-23.5 123q0 64 22.5 121.5t63 100.5
t97 68.5t123.5 25.5q62 0 117.5 -24t96.5 -65t65 -97t24 -119v-18h-518q1 -51 19 -94t49 -74t73 -48.5t92 -17.5q69 0 124 26.5t95 66.5l53 -57l-2 -2l-2 -2l-58 -83q-17 -25 -25 -43.5t-8 -33.5q0 -16 8.5 -26t23.5 -10q12 0 21 4.5t16 10.5z" />
    <glyph glyph-name="Ecaron" unicode="&#x11a;" horiz-adv-x="474" 
d="M52 0v746h373v-80h-281v-231h260v-80h-260v-275h289v-80h-381zM298 807h-98l-104 147h72l80 -98l81 98h73z" />
    <glyph glyph-name="ecaron" unicode="&#x11b;" horiz-adv-x="658" 
d="M332 528q-78 0 -135 -49.5t-73 -128.5h416q-16 77 -74 127.5t-134 50.5zM622 82q-43 -46 -111.5 -78.5t-160.5 -32.5q-72 0 -131.5 25t-102.5 67.5t-66.5 100.5t-23.5 123q0 64 22.5 121.5t63 100.5t97 68.5t123.5 25.5q62 0 117.5 -24t96.5 -65t65 -97t24 -119v-18h-518
q1 -51 19 -94t49 -74t73 -48.5t92 -17.5q69 0 124 26.5t95 66.5zM382 651h-98l-104 147h72l80 -98l81 98h73z" />
    <glyph glyph-name="Gcircumflex" unicode="&#x11c;" horiz-adv-x="841" 
d="M814 372q0 -81 -29.5 -153.5t-80.5 -126t-120 -85t-148 -31.5q-85 0 -160 31.5t-129.5 85t-86.5 126.5t-32 155t32 154.5t86.5 126t129.5 84.5t160 31q81 0 154 -28.5t124 -75.5l-62 -64q-46 40 -100.5 62t-115.5 22q-65 0 -122.5 -25.5t-100 -68t-67.5 -99t-25 -118.5
q0 -63 25 -120.5t67.5 -100.5t100 -68.5t122.5 -25.5q55 0 104.5 21.5t87 57.5t62 85t29.5 103l-254 -1l37 85h312v-39zM517 807l-80 98l-80 -98h-73l104 147h98l104 -147h-73z" />
    <glyph glyph-name="gcircumflex" unicode="&#x11d;" horiz-adv-x="672" 
d="M329 103q43 0 81.5 16.5t66.5 45t44.5 67t16.5 81.5t-16.5 81.5t-44.5 67.5t-66.5 45.5t-81.5 16.5t-82 -16.5t-67.5 -45.5t-45.5 -67.5t-17 -81.5t17 -81.5t45.5 -67t67.5 -45t82 -16.5zM324 -219q-39 0 -87 4.5t-106 16.5v75q68 -13 113 -18t79 -4q42 0 81 10.5
t68.5 36t47 70t17.5 112.5v49q-44 -51 -104.5 -78.5t-113.5 -27.5q-57 0 -110 20t-93 57.5t-64 90.5t-24 118t24 118t63.5 90.5t92.5 58.5t111 21q54 0 115.5 -28t104.5 -81v82h84v-488q0 -88 -23 -147t-63.5 -94t-95 -49.5t-117.5 -14.5zM412 651l-80 98l-80 -98h-73
l104 147h98l104 -147h-73z" />
    <glyph glyph-name="Gbreve" unicode="&#x11e;" horiz-adv-x="841" 
d="M814 372q0 -81 -29.5 -153.5t-80.5 -126t-120 -85t-148 -31.5q-85 0 -160 31.5t-129.5 85t-86.5 126.5t-32 155t32 154.5t86.5 126t129.5 84.5t160 31q81 0 154 -28.5t124 -75.5l-62 -64q-46 40 -100.5 62t-115.5 22q-65 0 -122.5 -25.5t-100 -68t-67.5 -99t-25 -118.5
q0 -63 25 -120.5t67.5 -100.5t100 -68.5t122.5 -25.5q55 0 104.5 21.5t87 57.5t62 85t29.5 103l-254 -1l37 85h312v-39zM586 946q-16 -65 -54.5 -104.5t-95.5 -39.5t-95.5 39.5t-54.5 104.5l61 3q16 -43 40.5 -65t48.5 -22t48.5 22t40.5 65z" />
    <glyph glyph-name="gbreve" unicode="&#x11f;" horiz-adv-x="672" 
d="M329 103q43 0 81.5 16.5t66.5 45t44.5 67t16.5 81.5t-16.5 81.5t-44.5 67.5t-66.5 45.5t-81.5 16.5t-82 -16.5t-67.5 -45.5t-45.5 -67.5t-17 -81.5t17 -81.5t45.5 -67t67.5 -45t82 -16.5zM324 -219q-39 0 -87 4.5t-106 16.5v75q68 -13 113 -18t79 -4q42 0 81 10.5
t68.5 36t47 70t17.5 112.5v49q-44 -51 -104.5 -78.5t-113.5 -27.5q-57 0 -110 20t-93 57.5t-64 90.5t-24 118t24 118t63.5 90.5t92.5 58.5t111 21q54 0 115.5 -28t104.5 -81v82h84v-488q0 -88 -23 -147t-63.5 -94t-95 -49.5t-117.5 -14.5zM482 790q-16 -65 -54.5 -104.5
t-95.5 -39.5t-95.5 39.5t-54.5 104.5l61 3q16 -43 40.5 -65t48.5 -22t48.5 22t40.5 65z" />
    <glyph glyph-name="Gdotaccent" unicode="&#x120;" horiz-adv-x="841" 
d="M814 372q0 -81 -29.5 -153.5t-80.5 -126t-120 -85t-148 -31.5q-85 0 -160 31.5t-129.5 85t-86.5 126.5t-32 155t32 154.5t86.5 126t129.5 84.5t160 31q81 0 154 -28.5t124 -75.5l-62 -64q-46 40 -100.5 62t-115.5 22q-65 0 -122.5 -25.5t-100 -68t-67.5 -99t-25 -118.5
q0 -63 25 -120.5t67.5 -100.5t100 -68.5t122.5 -25.5q55 0 104.5 21.5t87 57.5t62 85t29.5 103l-254 -1l37 85h312v-39zM481 911v-104h-90v104h90z" />
    <glyph glyph-name="gdotaccent" unicode="&#x121;" horiz-adv-x="672" 
d="M329 103q43 0 81.5 16.5t66.5 45t44.5 67t16.5 81.5t-16.5 81.5t-44.5 67.5t-66.5 45.5t-81.5 16.5t-82 -16.5t-67.5 -45.5t-45.5 -67.5t-17 -81.5t17 -81.5t45.5 -67t67.5 -45t82 -16.5zM324 -219q-39 0 -87 4.5t-106 16.5v75q68 -13 113 -18t79 -4q42 0 81 10.5
t68.5 36t47 70t17.5 112.5v49q-44 -51 -104.5 -78.5t-113.5 -27.5q-57 0 -110 20t-93 57.5t-64 90.5t-24 118t24 118t63.5 90.5t92.5 58.5t111 21q54 0 115.5 -28t104.5 -81v82h84v-488q0 -88 -23 -147t-63.5 -94t-95 -49.5t-117.5 -14.5zM377 780v-114h-90v114h90z" />
    <glyph glyph-name="Gcommaaccent" unicode="&#x122;" horiz-adv-x="841" 
d="M814 372q0 -81 -29.5 -153.5t-80.5 -126t-120 -85t-148 -31.5q-85 0 -160 31.5t-129.5 85t-86.5 126.5t-32 155t32 154.5t86.5 126t129.5 84.5t160 31q81 0 154 -28.5t124 -75.5l-62 -64q-46 40 -100.5 62t-115.5 22q-65 0 -122.5 -25.5t-100 -68t-67.5 -99t-25 -118.5
q0 -63 25 -120.5t67.5 -100.5t100 -68.5t122.5 -25.5q55 0 104.5 21.5t87 57.5t62 85t29.5 103l-254 -1l37 85h312v-39zM474 -69l-51 -158h-62l19 158h94z" />
    <glyph glyph-name="gcommaaccent" unicode="&#x123;" horiz-adv-x="672" 
d="M329 103q43 0 81.5 16.5t66.5 45t44.5 67t16.5 81.5t-16.5 81.5t-44.5 67.5t-66.5 45.5t-81.5 16.5t-82 -16.5t-67.5 -45.5t-45.5 -67.5t-17 -81.5t17 -81.5t45.5 -67t67.5 -45t82 -16.5zM324 -219q-39 0 -87 4.5t-106 16.5v75q68 -13 113 -18t79 -4q42 0 81 10.5
t68.5 36t47 70t17.5 112.5v49q-44 -51 -104.5 -78.5t-113.5 -27.5q-57 0 -110 20t-93 57.5t-64 90.5t-24 118t24 118t63.5 90.5t92.5 58.5t111 21q54 0 115.5 -28t104.5 -81v82h84v-488q0 -88 -23 -147t-63.5 -94t-95 -49.5t-117.5 -14.5z" />
    <glyph glyph-name="Hcircumflex" unicode="&#x124;" horiz-adv-x="660" 
d="M52 0v746h92v-308h372v308h92v-746h-92v357h-372v-357h-92zM411 807l-80 98l-80 -98h-73l104 147h98l104 -147h-73z" />
    <glyph glyph-name="hcircumflex" unicode="&#x125;" horiz-adv-x="573" 
d="M134 359v-359h-86v780h84v-277q28 34 77 60t111 26q95 0 151 -58t56 -157v-374h-86v349q0 46 -12.5 77.5t-33.5 50.5t-49 27t-57 8q-25 0 -52 -9.5t-50 -28.5t-38 -48t-15 -67zM171 840l-80 98l-80 -98h-73l104 147h98l104 -147h-73z" />
    <glyph glyph-name="Hbar" unicode="&#x126;" horiz-adv-x="664" 
d="M147 438h371v109h-371v-109zM147 357v-357h-92v547h-47v75h47v124h92v-124h371v124h92v-124h46v-75h-46v-547h-92v357h-371z" />
    <glyph glyph-name="hbar" unicode="&#x127;" horiz-adv-x="572" 
d="M134 359v-359h-86v619h-47v62h47v99h84v-99h92v-62h-92v-116q28 34 77 60t111 26q95 0 151 -58t56 -157v-374h-86v349q0 46 -12.5 77.5t-33.5 50.5t-49 27t-57 8q-25 0 -52 -9.5t-50 -28.5t-38 -48t-15 -67z" />
    <glyph glyph-name="Itilde" unicode="&#x128;" horiz-adv-x="200" 
d="M54 0v746h92v-746h-92zM-28 807l-70 1q-4 40 3.5 67.5t22 44t34.5 23.5t41 7q22 0 47.5 -11t50 -24.5t47 -24.5t38.5 -11t29.5 14t12.5 57l70 -1q7 -75 -25 -107.5t-76 -32.5q-23 0 -49 11t-50 24.5t-46 24.5t-38 11q-17 0 -30.5 -13.5t-11.5 -59.5z" />
    <glyph glyph-name="itilde" unicode="&#x129;" horiz-adv-x="188" 
d="M137 574v-574h-86v574h86zM-34 651l-70 1q-4 40 3.5 67.5t22 44t34.5 23.5t41 7q22 0 47.5 -11t50 -24.5t47 -24.5t38.5 -11t29.5 14t12.5 57l70 -1q7 -75 -25 -107.5t-76 -32.5q-23 0 -49 11t-50 24.5t-46 24.5t-38 11q-17 0 -30.5 -13.5t-11.5 -59.5z" />
    <glyph glyph-name="Imacron" unicode="&#x12a;" horiz-adv-x="200" 
d="M54 0v746h92v-746h-92zM232 875v-68h-264v68h264z" />
    <glyph glyph-name="imacron" unicode="&#x12b;" horiz-adv-x="188" 
d="M137 574v-574h-86v574h86zM226 719v-68h-264v68h264z" />
    <glyph glyph-name="Ibreve" unicode="&#x12c;" horiz-adv-x="200" 
d="M54 0v746h92v-746h-92zM250 946q-16 -65 -54.5 -104.5t-95.5 -39.5t-95.5 39.5t-54.5 104.5l61 3q16 -43 40.5 -65t48.5 -22t48.5 22t40.5 65z" />
    <glyph glyph-name="ibreve" unicode="&#x12d;" horiz-adv-x="188" 
d="M137 574v-574h-86v574h86zM244 790q-16 -65 -54.5 -104.5t-95.5 -39.5t-95.5 39.5t-54.5 104.5l61 3q16 -43 40.5 -65t48.5 -22t48.5 22t40.5 65z" />
    <glyph glyph-name="Iogonek" unicode="&#x12e;" horiz-adv-x="200" 
d="M73 -175q-45 0 -66 22.5t-21 48.5q0 28 16 49t38 40l14 11v750h92v-746l-43 -33q-20 -16 -31.5 -28.5t-11.5 -27.5q0 -10 8.5 -19.5t23.5 -9.5q12 0 21 4.5t16 10.5l31 -39q-12 -11 -34.5 -22t-52.5 -11z" />
    <glyph glyph-name="iogonek" unicode="&#x12f;" horiz-adv-x="188" 
d="M139 780v-113h-90v113h90zM151 -142q-12 -11 -35 -22t-53 -11q-44 0 -65 22.5t-21 48.5q0 27 16.5 48t38.5 40l19 16v0v574h86v-574l-43 -33q-20 -16 -31.5 -28.5t-11.5 -27.5q0 -10 8.5 -19.5t22.5 -9.5q12 0 21.5 4.5t16.5 10.5z" />
    <glyph glyph-name="Idotaccent" unicode="&#x130;" horiz-adv-x="200" 
d="M54 0v746h92v-746h-92zM145 911v-104h-90v104h90z" />
    <glyph glyph-name="dotlessi" unicode="&#x131;" horiz-adv-x="188" 
d="M137 574v-574h-86v574h86z" />
    <glyph glyph-name="IJ" unicode="&#x132;" horiz-adv-x="506" 
d="M54 0v746h92v-746h-92zM205 0v85q15 -7 31 -10.5t34 -3.5t35 5t29.5 21t20 46.5t7.5 81.5v521h92v-539q0 -121 -40.5 -170.5t-135.5 -49.5q-21 0 -39 3t-34 10z" />
    <glyph glyph-name="ij" unicode="&#x133;" horiz-adv-x="376" 
d="M139 780v-113h-90v113h90zM137 574v-574h-86v574h86zM327 780v-113h-90v113h90zM121 -144h9q55 0 82 34t27 104v580h86v-580q0 -116 -46.5 -166.5t-141.5 -51.5h-16v80z" />
    <glyph glyph-name="Jcircumflex" unicode="&#x134;" horiz-adv-x="306" 
d="M5 0v85q15 -7 31 -10.5t34 -3.5t35 5t29.5 21t20 46.5t7.5 81.5v521h92v-539q0 -121 -40.5 -170.5t-135.5 -49.5q-21 0 -39 3t-34 10zM289 807l-80 98l-80 -98h-73l104 147h98l104 -147h-73z" />
    <glyph glyph-name="jcircumflex" unicode="&#x135;" horiz-adv-x="182" 
d="M-60 -146h7q48 1 74.5 38t26.5 106v576h85v-577q0 -110 -47 -165t-131 -56h-15v78zM171 651l-80 98l-80 -98h-73l104 147h98l104 -147h-73z" />
    <glyph glyph-name="Kcommaaccent" unicode="&#x136;" horiz-adv-x="610" 
d="M465 0l-321 361v-361h-92v746h92v-351l306 351h110l-320 -363l344 -383h-119zM341 -58l-51 -158h-62l19 158h94z" />
    <glyph glyph-name="kcommaaccent" unicode="&#x137;" horiz-adv-x="533" 
d="M426 0l-226 288l-66 -60v-228h-86v780h86v-444l267 238h114l-254 -230l272 -344h-107zM337 -58l-51 -158h-62l19 158h94z" />
    <glyph glyph-name="kgreenlandic" unicode="&#x138;" horiz-adv-x="533" 
d="M426 0l-226 288l-66 -60v-228h-86v574h86v-238l267 238h114l-254 -230l272 -344h-107z" />
    <glyph glyph-name="Lacute" unicode="&#x139;" horiz-adv-x="430" 
d="M52 746h92v-664h275v-82h-367v746zM253 954l-126 -147h-68l88 147h106z" />
    <glyph glyph-name="lacute" unicode="&#x13a;" horiz-adv-x="188" 
d="M137 780v-780h-86v780h86zM248 987l-126 -147h-68l88 147h106z" />
    <glyph glyph-name="Lcommaaccent" unicode="&#x13b;" horiz-adv-x="430" 
d="M52 746h92v-664h275v-82h-367v746zM302 -58l-51 -158h-62l19 158h94z" />
    <glyph glyph-name="lcommaaccent" unicode="&#x13c;" horiz-adv-x="188" 
d="M137 780v-780h-86v780h86zM140 -64l-51 -158h-62l19 158h94z" />
    <glyph glyph-name="Lcaron" unicode="&#x13d;" horiz-adv-x="430" 
d="M52 746h92v-664h275v-82h-367v746zM356 780l-43 -158h-54l16 158h81z" />
    <glyph glyph-name="lcaron" unicode="&#x13e;" horiz-adv-x="188" 
d="M137 780v-780h-86v780h86zM275 780l-43 -158h-54l16 158h81z" />
    <glyph glyph-name="Ldot" unicode="&#x13f;" horiz-adv-x="430" 
d="M52 746h92v-664h275v-82h-367v746zM339 461v-104h-90v104h90z" />
    <glyph glyph-name="ldot" unicode="&#x140;" horiz-adv-x="218" 
d="M137 780v-780h-86v780h86zM248 467v-114h-90v114h90z" />
    <glyph glyph-name="Lslash" unicode="&#x141;" horiz-adv-x="434" 
d="M419 0h-367v309l-47 -24l-1 82l48 25v354h92v-307l175 91v-82l-175 -91v-275h275v-82z" />
    <glyph glyph-name="lslash" unicode="&#x142;" horiz-adv-x="194" 
d="M141 0h-86v372l-50 -27v72l50 27v336h86v-289l52 28v-72l-52 -28v-419z" />
    <glyph glyph-name="Nacute" unicode="&#x143;" horiz-adv-x="711" 
d="M568 0l-424 597v-597h-92v746h97l417 -588v588h92v-746h-90zM505 954l-126 -147h-68l88 147h106z" />
    <glyph glyph-name="nacute" unicode="&#x144;" horiz-adv-x="573" 
d="M134 359v-359h-86v574h84v-71q28 34 77 60t111 26q95 0 150.5 -58t55.5 -157v-374h-86v349q0 46 -12.5 77.5t-33.5 50.5t-48.5 27t-56.5 8q-25 0 -52 -9.5t-50 -28.5t-38 -48t-15 -67zM442 798l-126 -147h-68l88 147h106z" />
    <glyph glyph-name="Ncommaaccent" unicode="&#x145;" horiz-adv-x="711" 
d="M568 0l-424 597v-597h-92v746h97l417 -588v588h92v-746h-90zM395 -58l-51 -158h-62l19 158h94z" />
    <glyph glyph-name="ncommaaccent" unicode="&#x146;" horiz-adv-x="573" 
d="M134 359v-359h-86v574h84v-71q28 34 77 60t111 26q95 0 150.5 -58t55.5 -157v-374h-86v349q0 46 -12.5 77.5t-33.5 50.5t-48.5 27t-56.5 8q-25 0 -52 -9.5t-50 -28.5t-38 -48t-15 -67zM334 -58l-51 -158h-62l19 158h94z" />
    <glyph glyph-name="Ncaron" unicode="&#x147;" horiz-adv-x="711" 
d="M568 0l-424 597v-597h-92v746h97l417 -588v588h92v-746h-90zM401 807h-98l-104 147h72l80 -98l81 98h73z" />
    <glyph glyph-name="ncaron" unicode="&#x148;" horiz-adv-x="573" 
d="M134 359v-359h-86v574h84v-71q28 34 77 60t111 26q95 0 150.5 -58t55.5 -157v-374h-86v349q0 46 -12.5 77.5t-33.5 50.5t-48.5 27t-56.5 8q-25 0 -52 -9.5t-50 -28.5t-38 -48t-15 -67zM338 651h-98l-104 147h72l80 -98l81 98h73z" />
    <glyph glyph-name="Eng" unicode="&#x14a;" horiz-adv-x="711" 
d="M473 -224h-17v78h15q46 0 71.5 37.5t25.5 106.5v2l-424 597v-597h-92v746h97l417 -588v588h92v-749q0 -116 -49.5 -168.5t-135.5 -52.5z" />
    <glyph glyph-name="eng" unicode="&#x14b;" horiz-adv-x="573" 
d="M348 -224h-16v78h7q49 1 75 38t26 105v352q0 46 -12.5 77.5t-33.5 50.5t-48.5 27t-56.5 8q-25 0 -52 -9.5t-50 -28.5t-38 -48t-15 -67v-359h-86v574h84v-71q28 34 77 60t111 26q95 0 150.5 -58t55.5 -157v-377q0 -110 -47 -165t-131 -56z" />
    <glyph glyph-name="Omacron" unicode="&#x14c;" horiz-adv-x="872" 
d="M436 770q85 0 159.5 -31t129 -84.5t86.5 -126t32 -154.5t-32 -155t-86.5 -126.5t-129 -85t-159.5 -31.5t-160 31.5t-129.5 85t-86.5 126.5t-32 155t32 154.5t86.5 126t129.5 84.5t160 31zM436 686q-65 0 -122.5 -25.5t-100 -68t-67.5 -99t-25 -118.5q0 -63 25 -120.5
t67.5 -100.5t100 -68.5t122.5 -25.5t122.5 25.5t100 68.5t67 100.5t24.5 120.5q0 62 -24.5 118.5t-67 99t-100 68t-122.5 25.5zM568 875v-68h-264v68h264z" />
    <glyph glyph-name="omacron" unicode="&#x14d;" horiz-adv-x="695" 
d="M348 603q69 0 128.5 -25.5t102 -68.5t67 -101t24.5 -121t-24.5 -121t-67 -101t-102 -68.5t-128.5 -25.5t-128.5 25.5t-102 68.5t-67 101t-24.5 121t24.5 121t67 101t102 68.5t128.5 25.5zM348 528q-50 0 -92.5 -19.5t-73 -52.5t-48 -77t-17.5 -92t17.5 -92t48 -77
t73 -52.5t92.5 -19.5t92.5 19.5t73 53t48 77t17.5 91.5t-17.5 92t-48 77t-73 52.5t-92.5 19.5zM480 719v-68h-264v68h264z" />
    <glyph glyph-name="Obreve" unicode="&#x14e;" horiz-adv-x="872" 
d="M436 770q85 0 159.5 -31t129 -84.5t86.5 -126t32 -154.5t-32 -155t-86.5 -126.5t-129 -85t-159.5 -31.5t-160 31.5t-129.5 85t-86.5 126.5t-32 155t32 154.5t86.5 126t129.5 84.5t160 31zM436 686q-65 0 -122.5 -25.5t-100 -68t-67.5 -99t-25 -118.5q0 -63 25 -120.5
t67.5 -100.5t100 -68.5t122.5 -25.5t122.5 25.5t100 68.5t67 100.5t24.5 120.5q0 62 -24.5 118.5t-67 99t-100 68t-122.5 25.5zM586 946q-16 -65 -54.5 -104.5t-95.5 -39.5t-95.5 39.5t-54.5 104.5l61 3q16 -43 40.5 -65t48.5 -22t48.5 22t40.5 65z" />
    <glyph glyph-name="obreve" unicode="&#x14f;" horiz-adv-x="695" 
d="M348 603q69 0 128.5 -25.5t102 -68.5t67 -101t24.5 -121t-24.5 -121t-67 -101t-102 -68.5t-128.5 -25.5t-128.5 25.5t-102 68.5t-67 101t-24.5 121t24.5 121t67 101t102 68.5t128.5 25.5zM348 528q-50 0 -92.5 -19.5t-73 -52.5t-48 -77t-17.5 -92t17.5 -92t48 -77
t73 -52.5t92.5 -19.5t92.5 19.5t73 53t48 77t17.5 91.5t-17.5 92t-48 77t-73 52.5t-92.5 19.5zM498 790q-16 -65 -54.5 -104.5t-95.5 -39.5t-95.5 39.5t-54.5 104.5l61 3q16 -43 40.5 -65t48.5 -22t48.5 22t40.5 65z" />
    <glyph glyph-name="Ohungarumlaut" unicode="&#x150;" horiz-adv-x="872" 
d="M436 770q85 0 159.5 -31t129 -84.5t86.5 -126t32 -154.5t-32 -155t-86.5 -126.5t-129 -85t-159.5 -31.5t-160 31.5t-129.5 85t-86.5 126.5t-32 155t32 154.5t86.5 126t129.5 84.5t160 31zM436 686q-65 0 -122.5 -25.5t-100 -68t-67.5 -99t-25 -118.5q0 -63 25 -120.5
t67.5 -100.5t100 -68.5t122.5 -25.5t122.5 25.5t100 68.5t67 100.5t24.5 120.5q0 62 -24.5 118.5t-67 99t-100 68t-122.5 25.5zM579 954h100l-132 -147h-64zM412 954h100l-132 -147h-65z" />
    <glyph glyph-name="ohungarumlaut" unicode="&#x151;" horiz-adv-x="695" 
d="M348 603q69 0 128.5 -25.5t102 -68.5t67 -101t24.5 -121t-24.5 -121t-67 -101t-102 -68.5t-128.5 -25.5t-128.5 25.5t-102 68.5t-67 101t-24.5 121t24.5 121t67 101t102 68.5t128.5 25.5zM348 528q-50 0 -92.5 -19.5t-73 -52.5t-48 -77t-17.5 -92t17.5 -92t48 -77
t73 -52.5t92.5 -19.5t92.5 19.5t73 53t48 77t17.5 91.5t-17.5 92t-48 77t-73 52.5t-92.5 19.5zM491 798h100l-132 -147h-64zM324 798h100l-132 -147h-65z" />
    <glyph glyph-name="OE" unicode="&#x152;" horiz-adv-x="940" 
d="M444 82h70v582h-70q-62 0 -120.5 -19t-102.5 -55.5t-71 -90.5t-27 -125t27 -126t71 -91.5t102.5 -55.5t120.5 -19zM441 0q-80 0 -154.5 25t-131 72.5t-91 117.5t-34.5 159q0 88 34.5 157.5t91 117t131.5 72.5t154 25h446v-80h-281v-231h274v-80h-274v-275h289v-80h-454z
" />
    <glyph glyph-name="oe" unicode="&#x153;" horiz-adv-x="1209" 
d="M884 528q-78 0 -135.5 -49.5t-73.5 -128.5h416q-16 77 -73.5 127.5t-133.5 50.5zM348 528q-50 0 -92.5 -19.5t-73 -52.5t-48 -77t-17.5 -92t17.5 -91.5t48 -77t73 -53t92.5 -19.5t93 19.5t73.5 53t47.5 77t17 91.5t-17.5 92t-48 77t-73 52.5t-92.5 19.5zM1173 82
q-43 -46 -111.5 -78.5t-159.5 -32.5q-95 0 -167 43t-112 113q-40 -69 -112.5 -112.5t-162.5 -43.5q-69 0 -128.5 25.5t-102 68.5t-67 101t-24.5 121t24.5 121t67 101t102 68.5t128.5 25.5q90 0 162 -43t112 -112q37 69 105.5 112t156.5 43q62 0 117.5 -24t96 -65t64.5 -97
t24 -119v-18h-518q1 -51 19 -94t49 -74t73.5 -48.5t92.5 -17.5q68 0 123 26.5t96 66.5z" />
    <glyph glyph-name="Racute" unicode="&#x154;" horiz-adv-x="538" 
d="M219 662h-75v-291h73q78 0 128.5 45t50.5 111q0 25 -10 49.5t-31 43.5t-54.5 30.5t-81.5 11.5zM405 0l-259 289h-2v-289h-92v746h161q134 0 205 -61t71 -158q0 -48 -17.5 -88t-48 -69.5t-72.5 -49t-91 -26.5l261 -294h-116zM404 954l-126 -147h-68l88 147h106z" />
    <glyph glyph-name="racute" unicode="&#x155;" horiz-adv-x="336" 
d="M134 321v-321h-86v574h84v-113q9 17 24 36.5t35.5 36.5t46 28.5t54.5 11.5h19v-98q-4 2 -10.5 3t-10.5 1q-35 0 -64 -16t-49.5 -39.5t-31.5 -51.5t-11 -52zM343 798l-126 -147h-68l88 147h106z" />
    <glyph glyph-name="Rcommaaccent" unicode="&#x156;" horiz-adv-x="538" 
d="M219 662h-75v-291h73q78 0 128.5 45t50.5 111q0 25 -10 49.5t-31 43.5t-54.5 30.5t-81.5 11.5zM405 0l-259 289h-2v-289h-92v746h161q134 0 205 -61t71 -158q0 -48 -17.5 -88t-48 -69.5t-72.5 -49t-91 -26.5l261 -294h-116zM304 -58l-51 -158h-62l19 158h94z" />
    <glyph glyph-name="rcommaaccent" unicode="&#x157;" horiz-adv-x="336" 
d="M134 321v-321h-86v574h84v-113q9 17 24 36.5t35.5 36.5t46 28.5t54.5 11.5h19v-98q-4 2 -10.5 3t-10.5 1q-35 0 -64 -16t-49.5 -39.5t-31.5 -51.5t-11 -52zM137 -58l-51 -158h-62l19 158h94z" />
    <glyph glyph-name="Rcaron" unicode="&#x158;" horiz-adv-x="538" 
d="M219 662h-75v-291h73q78 0 128.5 45t50.5 111q0 25 -10 49.5t-31 43.5t-54.5 30.5t-81.5 11.5zM405 0l-259 289h-2v-289h-92v746h161q134 0 205 -61t71 -158q0 -48 -17.5 -88t-48 -69.5t-72.5 -49t-91 -26.5l261 -294h-116zM300 807h-98l-104 147h72l80 -98l81 98h73z
" />
    <glyph glyph-name="rcaron" unicode="&#x159;" horiz-adv-x="336" 
d="M134 321v-321h-86v574h84v-113q9 17 24 36.5t35.5 36.5t46 28.5t54.5 11.5h19v-98q-4 2 -10.5 3t-10.5 1q-35 0 -64 -16t-49.5 -39.5t-31.5 -51.5t-11 -52zM239 651h-98l-104 147h72l80 -98l81 98h73z" />
    <glyph glyph-name="Sacute" unicode="&#x15a;" horiz-adv-x="506" 
d="M418 732l-3 -88q-28 16 -67 27t-78 11q-38 0 -63.5 -9.5t-40.5 -23t-21.5 -30.5t-6.5 -32q0 -38 32 -74t111 -82q98 -57 145.5 -111.5t47.5 -121.5q0 -49 -19 -88.5t-53 -66t-80 -41t-100 -14.5q-22 0 -47.5 3t-50.5 8t-47.5 12.5t-37.5 16.5l3 91q38 -24 85.5 -38
t100.5 -14q39 0 68 11t48 29t28 40.5t9 45.5q0 43 -36 82t-121 88q-99 59 -138.5 110t-39.5 111q0 34 13 66t40 56.5t69.5 39.5t99.5 15q35 0 76 -7t74 -22zM421 954l-126 -147h-68l88 147h106z" />
    <glyph glyph-name="sacute" unicode="&#x15b;" horiz-adv-x="421" 
d="M211 591q34 0 65 -8t56 -20v-82q-28 17 -58 26.5t-58 9.5q-43 0 -69.5 -19t-26.5 -50q0 -24 24.5 -46.5t83.5 -59.5q101 -63 136 -107t35 -94q0 -72 -54.5 -114t-141.5 -43q-39 0 -85.5 13t-80.5 30v83q42 -23 85 -37t72 -14q58 1 86 25t28 57q0 9 -3.5 20.5t-16.5 27
t-38.5 36t-69.5 46.5q-44 28 -73 49.5t-46.5 41.5t-24.5 42t-7 50q0 22 10.5 46.5t32.5 44.5t56.5 33t82.5 13zM363 798l-126 -147h-68l88 147h106z" />
    <glyph glyph-name="Scircumflex" unicode="&#x15c;" horiz-adv-x="506" 
d="M418 732l-3 -88q-28 16 -67 27t-78 11q-38 0 -63.5 -9.5t-40.5 -23t-21.5 -30.5t-6.5 -32q0 -38 32 -74t111 -82q98 -57 145.5 -111.5t47.5 -121.5q0 -49 -19 -88.5t-53 -66t-80 -41t-100 -14.5q-22 0 -47.5 3t-50.5 8t-47.5 12.5t-37.5 16.5l3 91q38 -24 85.5 -38
t100.5 -14q39 0 68 11t48 29t28 40.5t9 45.5q0 43 -36 82t-121 88q-99 59 -138.5 110t-39.5 111q0 34 13 66t40 56.5t69.5 39.5t99.5 15q35 0 76 -7t74 -22zM348 807l-80 98l-80 -98h-73l104 147h98l104 -147h-73z" />
    <glyph glyph-name="scircumflex" unicode="&#x15d;" horiz-adv-x="421" 
d="M211 591q34 0 65 -8t56 -20v-82q-28 17 -58 26.5t-58 9.5q-43 0 -69.5 -19t-26.5 -50q0 -24 24.5 -46.5t83.5 -59.5q101 -63 136 -107t35 -94q0 -72 -54.5 -114t-141.5 -43q-39 0 -85.5 13t-80.5 30v83q42 -23 85 -37t72 -14q58 1 86 25t28 57q0 9 -3.5 20.5t-16.5 27
t-38.5 36t-69.5 46.5q-44 28 -73 49.5t-46.5 41.5t-24.5 42t-7 50q0 22 10.5 46.5t32.5 44.5t56.5 33t82.5 13zM290 651l-80 98l-80 -98h-73l104 147h98l104 -147h-73z" />
    <glyph glyph-name="Scedilla" unicode="&#x15e;" horiz-adv-x="506" 
d="M418 732l-3 -88q-28 16 -67 27t-78 11q-38 0 -63.5 -9.5t-40.5 -23t-21.5 -30.5t-6.5 -32q0 -38 32 -74t111 -82q98 -57 145.5 -111.5t47.5 -121.5q0 -49 -19 -88.5t-53 -66t-80 -41t-100 -14.5q-22 0 -47.5 3t-50.5 8t-47.5 12.5t-37.5 16.5l3 91q38 -24 85.5 -38
t100.5 -14q39 0 68 11t48 29t28 40.5t9 45.5q0 43 -36 82t-121 88q-99 59 -138.5 110t-39.5 111q0 34 13 66t40 56.5t69.5 39.5t99.5 15q35 0 76 -7t74 -22zM208 -207q-10 0 -30.5 3t-37.5 9v50h1q18 -7 36 -10t27 -3q26 0 41 10.5t15 26.5q0 14 -17.5 23t-47.5 9h-20l-3 7
l30 80h53l-19 -44q42 -5 64 -26t22 -52q0 -34 -31.5 -58.5t-82.5 -24.5z" />
    <glyph glyph-name="scedilla" unicode="&#x15f;" horiz-adv-x="421" 
d="M211 591q34 0 65 -8t56 -20v-82q-28 17 -58 26.5t-58 9.5q-43 0 -69.5 -19t-26.5 -50q0 -24 24.5 -46.5t83.5 -59.5q101 -63 136 -107t35 -94q0 -72 -54.5 -114t-141.5 -43q-39 0 -85.5 13t-80.5 30v83q42 -23 85 -37t72 -14q58 1 86 25t28 57q0 9 -3.5 20.5t-16.5 27
t-38.5 36t-69.5 46.5q-44 28 -73 49.5t-46.5 41.5t-24.5 42t-7 50q0 22 10.5 46.5t32.5 44.5t56.5 33t82.5 13zM183 -211q-10 0 -30.5 3t-37.5 9v50h1q18 -6 36 -9.5t27 -3.5q26 0 41 10.5t15 26.5q0 14 -17.5 23t-47.5 9h-20l-3 7l30 80h53l-19 -44q42 -5 64 -26t22 -52
q0 -34 -31.5 -58.5t-82.5 -24.5z" />
    <glyph glyph-name="Scaron" unicode="&#x160;" horiz-adv-x="506" 
d="M418 732l-3 -88q-28 16 -67 27t-78 11q-38 0 -63.5 -9.5t-40.5 -23t-21.5 -30.5t-6.5 -32q0 -38 32 -74t111 -82q98 -57 145.5 -111.5t47.5 -121.5q0 -49 -19 -88.5t-53 -66t-80 -41t-100 -14.5q-22 0 -47.5 3t-50.5 8t-47.5 12.5t-37.5 16.5l3 91q38 -24 85.5 -38
t100.5 -14q39 0 68 11t48 29t28 40.5t9 45.5q0 43 -36 82t-121 88q-99 59 -138.5 110t-39.5 111q0 34 13 66t40 56.5t69.5 39.5t99.5 15q35 0 76 -7t74 -22zM317 807h-98l-104 147h72l80 -98l81 98h73z" />
    <glyph glyph-name="scaron" unicode="&#x161;" horiz-adv-x="421" 
d="M211 591q34 0 65 -8t56 -20v-82q-28 17 -58 26.5t-58 9.5q-43 0 -69.5 -19t-26.5 -50q0 -24 24.5 -46.5t83.5 -59.5q101 -63 136 -107t35 -94q0 -72 -54.5 -114t-141.5 -43q-39 0 -85.5 13t-80.5 30v83q42 -23 85 -37t72 -14q58 1 86 25t28 57q0 9 -3.5 20.5t-16.5 27
t-38.5 36t-69.5 46.5q-44 28 -73 49.5t-46.5 41.5t-24.5 42t-7 50q0 22 10.5 46.5t32.5 44.5t56.5 33t82.5 13zM259 651h-98l-104 147h72l80 -98l81 98h73z" />
    <glyph glyph-name="Tcaron" unicode="&#x164;" horiz-adv-x="420" 
d="M164 0v665h-155v81h402v-81h-155v-665h-92zM260 807h-98l-104 147h72l80 -98l81 98h73z" />
    <glyph glyph-name="tcaron" unicode="&#x165;" horiz-adv-x="271" 
d="M258 500h-80v-500h-86v500h-79v74h79v139l86 30v-169h80v-74zM314 849l-43 -158h-54l16 158h81z" />
    <glyph glyph-name="Tbar" unicode="&#x166;" horiz-adv-x="420" 
d="M336 329h-80v-329h-92v329h-80v75h80v261h-155v81h402v-81h-155v-261h80v-75z" />
    <glyph glyph-name="tbar" unicode="&#x167;" horiz-adv-x="271" 
d="M256 307h-78v-307h-86v307h-81v62h81v131h-79v74h79v139l86 30v-169h80v-74h-80v-131h78v-62z" />
    <glyph glyph-name="Utilde" unicode="&#x168;" horiz-adv-x="650" 
d="M598 291q0 -144 -69.5 -229.5t-204.5 -85.5q-133 0 -202.5 85.5t-69.5 229.5v455h92v-484q0 -50 15.5 -88t40.5 -63t57.5 -38t66.5 -13q36 0 69 13t58 38t40 63t15 88v484h92v-455zM197 807l-70 1q-4 40 3.5 67.5t22 44t34.5 23.5t41 7q22 0 47.5 -11t50 -24.5t47 -24.5
t38.5 -11t29.5 14t12.5 57l70 -1q7 -75 -25 -107.5t-76 -32.5q-23 0 -49 11t-50 24.5t-46 24.5t-38 11q-17 0 -30.5 -13.5t-11.5 -59.5z" />
    <glyph glyph-name="utilde" unicode="&#x169;" horiz-adv-x="573" 
d="M442 0v72q-28 -34 -77 -60.5t-111 -26.5q-96 0 -152 58t-56 157v374h86v-349q0 -46 12.5 -77.5t33.5 -50.5t49 -27t57 -8q25 0 52.5 9.5t50 28.5t37.5 48t15 67v359h86v-574h-83zM158 651l-70 1q-4 40 3.5 67.5t22 44t34.5 23.5t41 7q22 0 47.5 -11t50 -24.5t47 -24.5
t38.5 -11t29.5 14t12.5 57l70 -1q7 -75 -25 -107.5t-76 -32.5q-23 0 -49 11t-50 24.5t-46 24.5t-38 11q-17 0 -30.5 -13.5t-11.5 -59.5z" />
    <glyph glyph-name="Umacron" unicode="&#x16a;" horiz-adv-x="650" 
d="M598 291q0 -144 -69.5 -229.5t-204.5 -85.5q-133 0 -202.5 85.5t-69.5 229.5v455h92v-484q0 -50 15.5 -88t40.5 -63t57.5 -38t66.5 -13q36 0 69 13t58 38t40 63t15 88v484h92v-455zM457 875v-68h-264v68h264z" />
    <glyph glyph-name="umacron" unicode="&#x16b;" horiz-adv-x="573" 
d="M442 0v72q-28 -34 -77 -60.5t-111 -26.5q-96 0 -152 58t-56 157v374h86v-349q0 -46 12.5 -77.5t33.5 -50.5t49 -27t57 -8q25 0 52.5 9.5t50 28.5t37.5 48t15 67v359h86v-574h-83zM418 719v-68h-264v68h264z" />
    <glyph glyph-name="Ubreve" unicode="&#x16c;" horiz-adv-x="650" 
d="M598 291q0 -144 -69.5 -229.5t-204.5 -85.5q-133 0 -202.5 85.5t-69.5 229.5v455h92v-484q0 -50 15.5 -88t40.5 -63t57.5 -38t66.5 -13q36 0 69 13t58 38t40 63t15 88v484h92v-455zM475 946q-16 -65 -54.5 -104.5t-95.5 -39.5t-95.5 39.5t-54.5 104.5l61 3
q16 -43 40.5 -65t48.5 -22t48.5 22t40.5 65z" />
    <glyph glyph-name="ubreve" unicode="&#x16d;" horiz-adv-x="573" 
d="M442 0v72q-28 -34 -77 -60.5t-111 -26.5q-96 0 -152 58t-56 157v374h86v-349q0 -46 12.5 -77.5t33.5 -50.5t49 -27t57 -8q25 0 52.5 9.5t50 28.5t37.5 48t15 67v359h86v-574h-83zM436 790q-16 -65 -54.5 -104.5t-95.5 -39.5t-95.5 39.5t-54.5 104.5l61 3q16 -43 40.5 -65
t48.5 -22t48.5 22t40.5 65z" />
    <glyph glyph-name="Uring" unicode="&#x16e;" horiz-adv-x="650" 
d="M598 291q0 -144 -69.5 -229.5t-204.5 -85.5q-133 0 -202.5 85.5t-69.5 229.5v455h92v-484q0 -50 15.5 -88t40.5 -63t57.5 -38t66.5 -13q36 0 69 13t58 38t40 63t15 88v484h92v-455zM325 1023q47 0 80 -33.5t33 -77.5t-33 -77t-80 -33t-80 33.5t-33 76.5q0 44 33 77.5
t80 33.5zM325 978q-27 0 -46 -19t-19 -47q0 -27 19 -46t46 -19t46 19t19 46q0 28 -19 47t-46 19z" />
    <glyph glyph-name="uring" unicode="&#x16f;" horiz-adv-x="573" 
d="M442 0v72q-28 -34 -77 -60.5t-111 -26.5q-96 0 -152 58t-56 157v374h86v-349q0 -46 12.5 -77.5t33.5 -50.5t49 -27t57 -8q25 0 52.5 9.5t50 28.5t37.5 48t15 67v359h86v-574h-83zM286 867q47 0 80 -33.5t33 -77.5t-33 -77t-80 -33t-80 33.5t-33 76.5q0 44 33 77.5
t80 33.5zM286 822q-27 0 -46 -19t-19 -47q0 -27 19 -46t46 -19t46 19t19 46q0 28 -19 47t-46 19z" />
    <glyph glyph-name="Uhungarumlaut" unicode="&#x170;" horiz-adv-x="650" 
d="M598 291q0 -144 -69.5 -229.5t-204.5 -85.5q-133 0 -202.5 85.5t-69.5 229.5v455h92v-484q0 -50 15.5 -88t40.5 -63t57.5 -38t66.5 -13q36 0 69 13t58 38t40 63t15 88v484h92v-455zM468 954h100l-132 -147h-64zM301 954h100l-132 -147h-65z" />
    <glyph glyph-name="uhungarumlaut" unicode="&#x171;" horiz-adv-x="573" 
d="M442 0v72q-28 -34 -77 -60.5t-111 -26.5q-96 0 -152 58t-56 157v374h86v-349q0 -46 12.5 -77.5t33.5 -50.5t49 -27t57 -8q25 0 52.5 9.5t50 28.5t37.5 48t15 67v359h86v-574h-83zM429 798h100l-132 -147h-64zM262 798h100l-132 -147h-65z" />
    <glyph glyph-name="Uogonek" unicode="&#x172;" horiz-adv-x="650" 
d="M394 -175q-45 0 -65.5 23.5t-20.5 49.5q0 24 10.5 43.5t27.5 35.5q-5 -1 -10.5 -1h-11.5q-133 0 -202.5 85.5t-69.5 229.5v455h92v-484q0 -50 15.5 -88t40.5 -63t57.5 -38t66.5 -13q36 0 69 13t58 38t40 63t15 88v484h92v-455q0 -99 -33 -171.5t-98 -109.5l-39 -31
q-24 -18 -35.5 -32.5t-11.5 -32.5q0 -13 8.5 -22.5t23.5 -9.5q12 0 21 4.5t16 10.5l31 -39q-12 -11 -34.5 -22t-52.5 -11z" />
    <glyph glyph-name="uogonek" unicode="&#x173;" horiz-adv-x="573" 
d="M539 -142q-12 -11 -35 -22t-53 -11q-44 0 -65 22.5t-21 48.5q0 27 16.5 47.5t38.5 38.5l22 19v71q-28 -34 -77 -60.5t-111 -26.5q-96 0 -152 58t-56 157v374h86v-349q0 -46 12.5 -77.5t33.5 -50.5t49 -27t57 -8q25 0 52.5 9.5t50 28.5t37.5 48t15 67v359h86v-574l-43 -33
q-20 -16 -31.5 -28.5t-11.5 -27.5q0 -10 8.5 -19.5t22.5 -9.5q12 0 21.5 4.5t16.5 10.5z" />
    <glyph glyph-name="Wcircumflex" unicode="&#x174;" horiz-adv-x="984" 
d="M662 0l-169 598l-171 -598h-97l-222 746h97l177 -611l170 611h96l169 -612l177 612h92l-222 -746h-97zM573 807l-80 98l-80 -98h-73l104 147h98l104 -147h-73z" />
    <glyph glyph-name="wcircumflex" unicode="&#x175;" horiz-adv-x="860" 
d="M579 0l-148 451l-147 -451h-86l-199 574h92l150 -459l145 459h94l143 -460l151 460h87l-198 -574h-84zM511 651l-80 98l-80 -98h-73l104 147h98l104 -147h-73z" />
    <glyph glyph-name="Ycircumflex" unicode="&#x176;" horiz-adv-x="604" 
d="M347 0h-92v244l-253 502h101l200 -410l203 410h96l-255 -504v-242zM382 807l-80 98l-80 -98h-73l104 147h98l104 -147h-73z" />
    <glyph glyph-name="ycircumflex" unicode="&#x177;" horiz-adv-x="576" 
d="M273 -220h-86l79 209l-267 585h96l211 -480l182 480h89zM370 651l-80 98l-80 -98h-73l104 147h98l104 -147h-73z" />
    <glyph glyph-name="Ydieresis" unicode="&#x178;" horiz-adv-x="604" 
d="M347 0h-92v244l-253 502h101l200 -410l203 410h96l-255 -504v-242zM450 891v-84h-90v84h90zM244 891v-84h-90v84h90z" />
    <glyph glyph-name="Zacute" unicode="&#x179;" horiz-adv-x="594" 
d="M545 0h-530l-1 7l398 661h-350l37 78h459l1 -7l-399 -661h422zM460 954l-126 -147h-68l88 147h106z" />
    <glyph glyph-name="zacute" unicode="&#x17a;" horiz-adv-x="559" 
d="M500 0h-490l-1 3l385 497h-315l34 74h431l1 -3l-384 -497h372zM449 798l-126 -147h-68l88 147h106z" />
    <glyph glyph-name="Zdotaccent" unicode="&#x17b;" horiz-adv-x="594" 
d="M545 0h-530l-1 7l398 661h-350l37 78h459l1 -7l-399 -661h422zM351 911v-104h-90v104h90z" />
    <glyph glyph-name="zdotaccent" unicode="&#x17c;" horiz-adv-x="559" 
d="M500 0h-490l-1 3l385 497h-315l34 74h431l1 -3l-384 -497h372zM340 780v-114h-90v114h90z" />
    <glyph glyph-name="Zcaron" unicode="&#x17d;" horiz-adv-x="594" 
d="M545 0h-530l-1 7l398 661h-350l37 78h459l1 -7l-399 -661h422zM355 807h-98l-104 147h72l80 -98l81 98h73z" />
    <glyph glyph-name="zcaron" unicode="&#x17e;" horiz-adv-x="559" 
d="M500 0h-490l-1 3l385 497h-315l34 74h431l1 -3l-384 -497h372zM345 651h-98l-104 147h72l80 -98l81 98h73z" />
    <glyph glyph-name="florin" unicode="&#x192;" horiz-adv-x="452" 
d="M227 -28q-8 -58 -25 -95.5t-43 -59t-60 -29.5t-77 -8v77q20 0 39 3.5t34.5 15t27 35t17.5 62.5q2 19 8.5 64t14.5 103t17 124.5t18 127.5h-85v74h95q4 29 7.5 54t6.5 44q8 57 26.5 93t45 55.5t59.5 26.5t69 7v-77q-17 0 -35 -3t-33.5 -14t-27 -32t-16.5 -57
q-3 -19 -6.5 -43.5t-7.5 -53.5h85v-74h-95q-9 -61 -18 -127.5t-17.5 -125t-14.5 -103.5t-9 -64z" />
    <glyph glyph-name="Aringacute" unicode="&#x1fa;" horiz-adv-x="698" 
d="M506 233l-158 402l-159 -402h317zM598 0l-61 156h-378l-62 -156h-95l301 746h93l300 -746h-98zM348 923q47 0 80 -33.5t33 -77.5t-33 -77t-80 -33t-80 33.5t-33 76.5q0 44 33 77.5t80 33.5zM348 878q-27 0 -46 -19t-19 -47q0 -27 19 -46t46 -19t46 19t19 46q0 28 -19 47
t-46 19zM502 1093l-126 -147h-68l88 147h106z" />
    <glyph glyph-name="aringacute" unicode="&#x1fb;" horiz-adv-x="514" 
d="M244 42q58 0 97.5 38t39.5 92q0 51 -38 88.5t-99 37.5q-58 0 -94 -37.5t-36 -88.5q0 -54 36 -92t94 -38zM385 0v56q-28 -31 -70.5 -53t-95.5 -22q-41 0 -77 14.5t-62 40t-41 60t-15 74.5q0 39 15 73.5t42 60t64.5 40.5t82.5 15q49 0 87 -15.5t65 -39.5v55q0 91 -36.5 124
t-96.5 33q-29 0 -57 -3.5t-82 -13.5l-6 73q52 10 83.5 13.5t68.5 3.5q109 0 160.5 -54.5t51.5 -147.5v-387h-81zM260 867q47 0 80 -33.5t33 -77.5t-33 -77t-80 -33t-80 33.5t-33 76.5q0 44 33 77.5t80 33.5zM260 822q-27 0 -46 -19t-19 -47q0 -27 19 -46t46 -19t46 19t19 46
q0 28 -19 47t-46 19zM414 1036l-126 -147h-68l88 147h106z" />
    <glyph glyph-name="AEacute" unicode="&#x1fc;" horiz-adv-x="943" 
d="M488 233l-154 422l-152 -422h306zM573 0l-57 156h-362l-56 -156h-96l288 746h419v-80h-296l89 -231h304v-80h-273l106 -275h302v-80h-368zM514 954l-126 -147h-68l88 147h106z" />
    <glyph glyph-name="aeacute" unicode="&#x1fd;" horiz-adv-x="996" 
d="M671 528q-78 0 -135.5 -49.5t-73.5 -128.5h416q-16 77 -73.5 127.5t-133.5 50.5zM244 33q58 0 97.5 37.5t39.5 96.5q0 54 -38.5 92.5t-98.5 38.5q-58 0 -94 -38.5t-36 -92.5q0 -57 36 -95.5t94 -38.5zM960 82q-43 -46 -111.5 -78.5t-160.5 -32.5q-84 0 -150.5 35.5
t-107.5 93.5q-17 -53 -68 -91t-132 -38q-90 0 -148 55t-58 139q0 41 15 76.5t41.5 61.5t64.5 41t83 15q43 0 79 -12.5t62 -33.5v46q0 91 -34 124t-91 33q-29 0 -55.5 -3.5t-80.5 -13.5l-6 73q52 10 82 13.5t67 3.5q75 0 121 -27t66 -76q40 53 100 85t133 32q62 0 117 -24
t96 -65t65 -97t24 -119v-18h-518q1 -51 19 -94t49 -74t73 -48.5t92 -17.5q69 0 124 26.5t95 66.5zM390 151l2 3v5zM628 798l-126 -147h-68l88 147h106z" />
    <glyph glyph-name="Oslashacute" unicode="&#x1fe;" horiz-adv-x="880" 
d="M121 375q0 -69 29 -130t78 -105l354 509q-32 18 -69 27.5t-77 9.5q-65 0 -122.5 -25.5t-100 -68t-67.5 -99t-25 -118.5zM436 60q65 0 122.5 25.5t100 68.5t67 100.5t24.5 120.5q0 66 -28.5 127t-77.5 104l-355 -509q33 -17 70 -27t77 -10zM436 -24q-54 0 -104 13t-93 36
l-51 -73h-91l79 114q-68 54 -108 134.5t-40 173.5q0 82 32 154.5t86.5 126t129.5 84.5t160 31q54 0 103.5 -13t93.5 -36l50 73h92l-80 -114q68 -54 108 -134t40 -172q0 -82 -32 -155t-86.5 -126.5t-129 -85t-159.5 -31.5zM590 954l-126 -147h-68l88 147h106z" />
    <glyph glyph-name="oslashacute" unicode="&#x1ff;" horiz-adv-x="692" 
d="M117 287q0 -51 20 -97.5t54 -80.5l250 399q-21 10 -44.5 15t-48.5 5q-50 0 -92.5 -19.5t-73 -52.5t-48 -77t-17.5 -92zM348 46q50 0 92.5 19.5t73 53t48 77t17.5 91.5q0 52 -20.5 99t-55.5 81l-251 -400q22 -10 46 -15.5t50 -5.5zM348 -29q-37 0 -72 8t-66 21l-30 -48
h-88l55 87q-56 44 -88.5 109t-32.5 139q0 63 24.5 121t67 101t102 68.5t128.5 25.5q37 0 70.5 -7.5t64.5 -20.5l29 47h88l-53 -85q57 -44 90 -109.5t33 -140.5q0 -63 -24.5 -121t-67 -101t-102 -68.5t-128.5 -25.5zM502 798l-126 -147h-68l88 147h106z" />
    <glyph glyph-name="Scommaaccent" unicode="&#x218;" horiz-adv-x="506" 
d="M418 732l-3 -88q-28 16 -67 27t-78 11q-38 0 -63.5 -9.5t-40.5 -23t-21.5 -30.5t-6.5 -32q0 -38 32 -74t111 -82q98 -57 145.5 -111.5t47.5 -121.5q0 -49 -19 -88.5t-53 -66t-80 -41t-100 -14.5q-22 0 -47.5 3t-50.5 8t-47.5 12.5t-37.5 16.5l3 91q38 -24 85.5 -38
t100.5 -14q39 0 68 11t48 29t28 40.5t9 45.5q0 43 -36 82t-121 88q-99 59 -138.5 110t-39.5 111q0 34 13 66t40 56.5t69.5 39.5t99.5 15q35 0 76 -7t74 -22zM274 -70l-51 -158h-62l19 158h94z" />
    <glyph glyph-name="scommaaccent" unicode="&#x219;" horiz-adv-x="421" 
d="M211 591q34 0 65 -8t56 -20v-82q-28 17 -58 26.5t-58 9.5q-43 0 -69.5 -19t-26.5 -50q0 -24 24.5 -46.5t83.5 -59.5q101 -63 136 -107t35 -94q0 -72 -54.5 -114t-141.5 -43q-39 0 -85.5 13t-80.5 30v83q42 -23 85 -37t72 -14q58 1 86 25t28 57q0 9 -3.5 20.5t-16.5 27
t-38.5 36t-69.5 46.5q-44 28 -73 49.5t-46.5 41.5t-24.5 42t-7 50q0 22 10.5 46.5t32.5 44.5t56.5 33t82.5 13zM249 -58l-51 -158h-62l19 158h94z" />
    <glyph glyph-name="Tcommaaccent" unicode="&#x21a;" horiz-adv-x="420" 
d="M164 0v665h-155v81h402v-81h-155v-665h-92zM256 -58l-51 -158h-62l19 158h94z" />
    <glyph glyph-name="tcommaaccent" unicode="&#x21b;" horiz-adv-x="271" 
d="M258 500h-80v-500h-86v500h-79v74h79v139l86 30v-169h80v-74zM181 -58l-51 -158h-62l19 158h94z" />
    <glyph glyph-name="dotlessj" unicode="&#x237;" horiz-adv-x="182" 
d="M-60 -146h7q48 1 74.5 38t26.5 106v576h85v-577q0 -110 -47 -165t-131 -56h-15v78z" />
    <glyph glyph-name="schwa" unicode="&#x259;" horiz-adv-x="658" 
d="M326 -29q-62 0 -117.5 24t-96.5 65t-65 97t-24 119v18h518q-1 51 -19 94t-49 74t-73 48.5t-92 17.5q-69 0 -124 -26.5t-95 -66.5l-53 57q43 46 111.5 78.5t160.5 32.5q72 0 131.5 -25t102.5 -67.5t66.5 -100.5t23.5 -123q0 -64 -22.5 -121.5t-63 -100.5t-97 -68.5
t-123.5 -25.5zM326 46q78 0 135 49.5t73 128.5h-416q16 -77 74 -127.5t134 -50.5z" />
    <glyph glyph-name="circumflex" unicode="&#x2c6;" horiz-adv-x="500" 
d="M329 643l-80 98l-80 -98h-73l104 147h98l104 -147h-73z" />
    <glyph glyph-name="caron" unicode="&#x2c7;" horiz-adv-x="500" 
d="M298 643h-98l-104 147h72l80 -98l81 98h73z" />
    <glyph glyph-name="breve" unicode="&#x2d8;" horiz-adv-x="500" 
d="M400 785q-16 -65 -54.5 -104.5t-95.5 -39.5t-95.5 39.5t-54.5 104.5l61 3q16 -43 40.5 -65t48.5 -22t48.5 22t40.5 65z" />
    <glyph glyph-name="dotaccent" unicode="&#x2d9;" horiz-adv-x="500" 
d="M295 744v-104h-90v104h90z" />
    <glyph glyph-name="ring" unicode="&#x2da;" horiz-adv-x="500" 
d="M250 864q47 0 80 -33.5t33 -77.5t-33 -77t-80 -33t-80 33.5t-33 76.5q0 44 33 77.5t80 33.5zM250 819q-27 0 -46 -19t-19 -47q0 -27 19 -46t46 -19t46 19t19 46q0 28 -19 47t-46 19z" />
    <glyph glyph-name="ogonek" unicode="&#x2db;" horiz-adv-x="500" 
d="M255 -27q-20 -16 -31.5 -28.5t-11.5 -27.5q0 -10 8.5 -19.5t23.5 -9.5q12 0 21 4.5t16 10.5l31 -39q-12 -11 -34.5 -22t-52.5 -11q-45 0 -66 22.5t-21 48.5q0 27 16.5 46.5t38.5 38.5l37 30l68 -11z" />
    <glyph glyph-name="tilde" unicode="&#x2dc;" horiz-adv-x="500" 
d="M122 643l-70 1q-4 40 3.5 67.5t22 44t34.5 23.5t41 7q22 0 47.5 -11t50 -24.5t47 -24.5t38.5 -11t29.5 14t12.5 57l70 -1q7 -75 -25 -107.5t-76 -32.5q-23 0 -49 11t-50 24.5t-46 24.5t-38 11q-17 0 -30.5 -13.5t-11.5 -59.5z" />
    <glyph glyph-name="hungarumlaut" unicode="&#x2dd;" horiz-adv-x="500" 
d="M388 790h100l-132 -147h-64zM221 790h100l-132 -147h-65z" />
    <glyph glyph-name="acute.cmb" unicode="&#x301;" 
d="M114 790l-126 -147h-68l88 147h106z" />
    <glyph glyph-name="mu" unicode="&#x3bc;" horiz-adv-x="575" 
d="M126 -190l-78 -30v794h86v-359q0 -39 15 -68t37.5 -48t49.5 -28t51 -9t51.5 9t50 28t37.5 48t15 68v359h86v-574h-77v70q-24 -40 -67.5 -62.5t-94.5 -22.5t-94 22.5t-68 61.5v-259z" />
    <glyph glyph-name="Wgrave" unicode="&#x1e80;" horiz-adv-x="984" 
d="M662 0l-169 598l-171 -598h-97l-222 746h97l177 -611l170 611h96l169 -612l177 612h92l-222 -746h-97zM337 954h108l87 -147h-70z" />
    <glyph glyph-name="wgrave" unicode="&#x1e81;" horiz-adv-x="860" 
d="M579 0l-148 451l-147 -451h-86l-199 574h92l150 -459l145 459h94l143 -460l151 460h87l-198 -574h-84zM274 798h108l87 -147h-70z" />
    <glyph glyph-name="Wacute" unicode="&#x1e82;" horiz-adv-x="984" 
d="M662 0l-169 598l-171 -598h-97l-222 746h97l177 -611l170 611h96l169 -612l177 612h92l-222 -746h-97zM647 954l-126 -147h-68l88 147h106z" />
    <glyph glyph-name="wacute" unicode="&#x1e83;" horiz-adv-x="860" 
d="M579 0l-148 451l-147 -451h-86l-199 574h92l150 -459l145 459h94l143 -460l151 460h87l-198 -574h-84zM585 798l-126 -147h-68l88 147h106z" />
    <glyph glyph-name="Wdieresis" unicode="&#x1e84;" horiz-adv-x="984" 
d="M662 0l-169 598l-171 -598h-97l-222 746h97l177 -611l170 611h96l169 -612l177 612h92l-222 -746h-97zM641 891v-84h-90v84h90zM435 891v-84h-90v84h90z" />
    <glyph glyph-name="wdieresis" unicode="&#x1e85;" horiz-adv-x="860" 
d="M579 0l-148 451l-147 -451h-86l-199 574h92l150 -459l145 459h94l143 -460l151 460h87l-198 -574h-84zM579 735v-84h-90v84h90zM373 735v-84h-90v84h90z" />
    <glyph glyph-name="Ygrave" unicode="&#x1ef2;" horiz-adv-x="604" 
d="M347 0h-92v244l-253 502h101l200 -410l203 410h96l-255 -504v-242zM145 954h108l87 -147h-70z" />
    <glyph glyph-name="ygrave" unicode="&#x1ef3;" horiz-adv-x="576" 
d="M273 -220h-86l79 209l-267 585h96l211 -480l182 480h89zM133 798h108l87 -147h-70z" />
    <glyph glyph-name="uni2000" unicode="&#x2000;" horiz-adv-x="500" 
 />
    <glyph glyph-name="uni2001" unicode="&#x2001;" horiz-adv-x="1000" 
 />
    <glyph glyph-name="uni2002" unicode="&#x2002;" horiz-adv-x="500" 
 />
    <glyph glyph-name="uni2003" unicode="&#x2003;" horiz-adv-x="1000" 
 />
    <glyph glyph-name="uni2004" unicode="&#x2004;" horiz-adv-x="333" 
 />
    <glyph glyph-name="uni2005" unicode="&#x2005;" horiz-adv-x="250" 
 />
    <glyph glyph-name="uni2009" unicode="&#x2009;" horiz-adv-x="166" 
 />
    <glyph glyph-name="uni200A" unicode="&#x200a;" horiz-adv-x="100" 
 />
    <glyph glyph-name="uni200B" unicode="&#x200b;" 
 />
    <glyph glyph-name="endash" unicode="&#x2013;" horiz-adv-x="524" 
d="M494 352v-69h-464v69h464z" />
    <glyph glyph-name="emdash" unicode="&#x2014;" horiz-adv-x="724" 
d="M694 352v-69h-664v69h664z" />
    <glyph glyph-name="emdash.salt_em" unicode="&#x2015;" horiz-adv-x="1000" 
d="M1000 352v-69h-1000v69h1000z" />
    <glyph glyph-name="quoteleft" unicode="&#x2018;" horiz-adv-x="260" 
d="M207 746l-53 -273h-101l92 273h62z" />
    <glyph glyph-name="quoteright" unicode="&#x2019;" horiz-adv-x="255" 
d="M57 473l54 273h100l-92 -273h-62z" />
    <glyph glyph-name="quotesinglbase" unicode="&#x201a;" horiz-adv-x="257" 
d="M37 -273l54 273h100l-92 -273h-62z" />
    <glyph glyph-name="quotedblleft" unicode="&#x201c;" horiz-adv-x="414" 
d="M207 746l-53 -273h-101l92 273h62zM361 746l-53 -273h-101l92 273h62z" />
    <glyph glyph-name="quotedblright" unicode="&#x201d;" horiz-adv-x="409" 
d="M57 473l54 273h100l-92 -273h-62zM211 473l54 273h100l-92 -273h-62z" />
    <glyph glyph-name="quotedblbase" unicode="&#x201e;" horiz-adv-x="411" 
d="M37 -273l54 273h100l-92 -273h-62zM191 -273l54 273h100l-92 -273h-62z" />
    <glyph glyph-name="dagger" unicode="&#x2020;" horiz-adv-x="483" 
d="M440 492h-155v-602l-86 30v572h-156v71h156v183h86v-183h155v-71z" />
    <glyph glyph-name="daggerdbl" unicode="&#x2021;" horiz-adv-x="489" 
d="M443 241h-156v-351l-86 30v321h-155v71h155v180h-155v71h155v183h86v-183h156v-71h-156v-180h156v-71z" />
    <glyph glyph-name="bullet" unicode="&#x2022;" horiz-adv-x="243" 
d="M63 380h117v-125h-117v125z" />
    <glyph glyph-name="ellipsis" unicode="&#x2026;" horiz-adv-x="684" 
d="M61 119h108v-119h-108v119zM287 119h108v-119h-108v119zM514 119h108v-119h-108v119z" />
    <glyph glyph-name="perthousand" unicode="&#x2030;" horiz-adv-x="1057" 
d="M626 746l-461 -746h-72l460 746h73zM165 746q62 0 102.5 -47.5t40.5 -140.5v-26q0 -93 -41 -140.5t-102 -47.5q-60 0 -101 47.5t-41 140.5v26q0 93 41 140.5t101 47.5zM239 532v26q0 68 -20.5 101.5t-53.5 33.5q-31 0 -52 -33.5t-21 -101.5v-26q0 -69 21 -102t52 -33
q33 0 53.5 33t20.5 102zM552 402q61 0 102 -47.5t41 -140.5v-26q0 -93 -41 -140.5t-102 -47.5q-60 0 -101 47.5t-41 140.5v26q0 93 41 140.5t101 47.5zM891 402q61 0 102 -47.5t41 -140.5v-26q0 -93 -41 -140.5t-102 -47.5q-60 0 -100.5 47.5t-40.5 140.5v26
q0 93 40.5 140.5t100.5 47.5zM965 188v26q0 69 -20.5 102.5t-53.5 33.5q-31 0 -52 -33.5t-21 -102.5v-26q0 -69 21 -102.5t52 -33.5q33 0 53.5 33.5t20.5 102.5zM626 188v26q0 68 -20.5 101.5t-53.5 33.5q-31 0 -52 -33.5t-21 -101.5v-26q0 -69 21 -102t52 -33q33 0 53.5 33
t20.5 102z" />
    <glyph glyph-name="minute" unicode="&#x2032;" horiz-adv-x="209" 
d="M37 428l57 318h78l-58 -318h-77z" />
    <glyph glyph-name="second" unicode="&#x2033;" horiz-adv-x="376" 
d="M37 428l57 318h78l-58 -318h-77zM204 428l57 318h78l-58 -318h-77z" />
    <glyph glyph-name="guilsinglleft" unicode="&#x2039;" horiz-adv-x="362" 
d="M308 0h-76l-185 285v4l185 285h78l-186 -287z" />
    <glyph glyph-name="guilsinglright" unicode="&#x203a;" horiz-adv-x="362" 
d="M130 0h-78l186 288l-184 286h76l185 -285v-4z" />
    <glyph glyph-name="fraction" unicode="&#x2044;" horiz-adv-x="250" 
d="M307 746h77l-441 -746h-77z" />
    <glyph glyph-name="zero.sups" unicode="&#x2070;" horiz-adv-x="423" 
d="M212 761q72 0 120 -58.5t48 -174.5v-32q0 -114 -48 -173t-120 -59t-120.5 59t-48.5 173v32q0 116 48.5 174.5t120.5 58.5zM310 496v32q0 88 -27.5 130.5t-70.5 42.5t-71.5 -42.5t-28.5 -130.5v-32q0 -87 28.5 -129.5t71.5 -42.5t70.5 42.5t27.5 129.5z" />
    <glyph glyph-name="four.sups" unicode="&#x2074;" horiz-adv-x="426" 
d="M270 430v202l-144 -202h144zM381 371h-40v-92h-71v92h-240l-5 11l258 364h58v-316h58z" />
    <glyph glyph-name="five.sups" unicode="&#x2075;" horiz-adv-x="392" 
d="M147 264q-25 0 -57 7t-58 22v63q25 -15 55 -24t59 -9q53 0 89 31.5t36 80.5q0 40 -32.5 67.5t-85.5 27.5q-26 0 -49 -5t-45 -12l59 233h243l-19 -59h-177l-27 -100q9 1 18 1.5t18 0.5q78 0 123.5 -43.5t45.5 -110.5q0 -74 -54 -122.5t-142 -48.5z" />
    <glyph glyph-name="six.sups" unicode="&#x2076;" horiz-adv-x="405" 
d="M205 264q-35 0 -66.5 11t-55 31.5t-37 50.5t-13.5 68q0 37 15.5 77.5t40.5 81t56.5 81.5t62.5 81h86q-42 -51 -79.5 -98t-64.5 -90q16 9 34.5 14t38.5 5q63 0 108 -45t45 -108q0 -66 -49 -113t-122 -47zM205 521q-42 0 -72.5 -29t-30.5 -70q0 -40 30.5 -69.5t72.5 -29.5
t71.5 29.5t29.5 69.5q0 41 -29.5 70t-71.5 29z" />
    <glyph glyph-name="seven.sups" unicode="&#x2077;" horiz-adv-x="378" 
d="M157 279h-77l176 408h-227l20 59h307z" />
    <glyph glyph-name="eight.sups" unicode="&#x2078;" horiz-adv-x="399" 
d="M199 264q-75 0 -122.5 44t-47.5 108q0 41 22.5 73.5t62.5 50.5q-27 16 -42.5 41.5t-15.5 55.5q0 51 40 87.5t103 36.5q65 0 104 -36.5t39 -87.5q0 -30 -15 -55.5t-42 -41.5q40 -18 62.5 -51t22.5 -73q0 -64 -48 -108t-123 -44zM199 561q30 0 52.5 21t22.5 52q0 28 -22 48
t-53 20t-52.5 -20t-21.5 -48q0 -31 21.5 -52t52.5 -21zM199 323q43 0 72.5 28t29.5 69q0 39 -29.5 65t-72.5 26q-41 0 -71 -26t-30 -65q0 -41 30 -69t71 -28z" />
    <glyph glyph-name="nine.sups" unicode="&#x2079;" horiz-adv-x="405" 
d="M197 279h-86q43 50 80 97.5t64 90.5q-16 -9 -34.5 -14t-38.5 -5q-63 0 -108 44.5t-45 108.5q0 32 13 61.5t36 51t54.5 34.5t68.5 13q35 0 66 -11t54.5 -31.5t37.5 -50.5t14 -68q0 -37 -16 -77.5t-41 -81t-56.5 -82t-62.5 -80.5zM201 503q41 0 71 29.5t30 69.5t-30 69.5
t-71 29.5q-43 0 -72.5 -29.5t-29.5 -69.5t29.5 -69.5t72.5 -29.5z" />
    <glyph glyph-name="zero.sinf" unicode="&#x2080;" horiz-adv-x="383" 
d="M192 282q72 0 120 -58.5t48 -174.5v-32q0 -114 -48 -173t-120 -59t-120.5 59t-48.5 173v32q0 116 48.5 174.5t120.5 58.5zM290 17v32q0 88 -27.5 130.5t-70.5 42.5t-71.5 -42.5t-28.5 -130.5v-32q0 -87 28.5 -129.5t71.5 -42.5t70.5 42.5t27.5 129.5z" />
    <glyph glyph-name="one.sinf" unicode="&#x2081;" horiz-adv-x="219" 
d="M180 -200h-70v363l-90 -94v92l105 106h55v-467z" />
    <glyph glyph-name="two.sinf" unicode="&#x2082;" horiz-adv-x="348" 
d="M314 -200h-304l-4 8q8 10 37 45t61 74t61 73.5t37 45.5q22 27 33.5 46.5t11.5 48.5q0 31 -25.5 56t-65.5 26q-26 0 -52.5 -10t-54.5 -34v72q26 16 55 23.5t59 7.5q69 -1 113 -41t44 -97q-1 -47 -19.5 -74t-43.5 -57q-7 -9 -22 -26.5t-33.5 -39t-39.5 -45t-39 -43.5h216z
" />
    <glyph glyph-name="three.sinf" unicode="&#x2083;" horiz-adv-x="309" 
d="M119 -215q-20 0 -54 5t-56 18v60q16 -13 47 -18t46 -5q55 -1 90 25.5t35 68.5q0 40 -33 64t-83 24h-34l2 59h32q39 0 64.5 21.5t25.5 51.5q0 28 -23.5 45.5t-60.5 17.5q-16 0 -37 -3t-41 -13l6 64q15 5 36 8.5t47 3.5q60 1 101.5 -32.5t41.5 -82.5q-1 -31 -18.5 -59.5
t-45.5 -44.5q40 -15 65 -48.5t25 -77.5q0 -65 -50 -109t-128 -43z" />
    <glyph glyph-name="four.sinf" unicode="&#x2084;" horiz-adv-x="386" 
d="M250 -49v202l-144 -202h144zM361 -108h-40v-92h-71v92h-240l-5 11l258 364h58v-316h58z" />
    <glyph glyph-name="five.sinf" unicode="&#x2085;" horiz-adv-x="352" 
d="M127 -215q-25 0 -57 7t-58 22v63q25 -15 55 -24t59 -9q53 0 89 31.5t36 80.5q0 40 -32.5 67.5t-85.5 27.5q-26 0 -49 -5t-45 -12l59 233h243l-19 -59h-177l-27 -100q9 1 18 1.5t18 0.5q78 0 123.5 -43.5t45.5 -110.5q0 -74 -54 -122.5t-142 -48.5z" />
    <glyph glyph-name="six.sinf" unicode="&#x2086;" horiz-adv-x="365" 
d="M185 -215q-35 0 -66.5 11t-55 31.5t-37 50.5t-13.5 68q0 37 15.5 77.5t40.5 81t56.5 81.5t62.5 81h86q-42 -51 -79.5 -98t-64.5 -90q16 9 34.5 14t38.5 5q63 0 108 -45t45 -108q0 -66 -49 -113t-122 -47zM185 42q-42 0 -72.5 -29t-30.5 -70q0 -40 30.5 -69.5t72.5 -29.5
t71.5 29.5t29.5 69.5q0 41 -29.5 70t-71.5 29z" />
    <glyph glyph-name="seven.sinf" unicode="&#x2087;" horiz-adv-x="338" 
d="M137 -200h-77l176 408h-227l20 59h307z" />
    <glyph glyph-name="eight.sinf" unicode="&#x2088;" horiz-adv-x="359" 
d="M179 -215q-75 0 -122.5 44t-47.5 108q0 41 22.5 73.5t62.5 50.5q-27 16 -42.5 41.5t-15.5 55.5q0 51 40 87.5t103 36.5q65 0 104 -36.5t39 -87.5q0 -30 -15 -55.5t-42 -41.5q40 -18 62.5 -51t22.5 -73q0 -64 -48 -108t-123 -44zM179 82q30 0 52.5 21t22.5 52q0 28 -22 48
t-53 20t-52.5 -20t-21.5 -48q0 -31 21.5 -52t52.5 -21zM179 -156q43 0 72.5 28t29.5 69q0 39 -29.5 65t-72.5 26q-41 0 -71 -26t-30 -65q0 -41 30 -69t71 -28z" />
    <glyph glyph-name="nine.sinf" unicode="&#x2089;" horiz-adv-x="365" 
d="M177 -200h-86q43 50 80 97.5t64 90.5q-16 -9 -34.5 -14t-38.5 -5q-63 0 -108 44.5t-45 108.5q0 32 13 61.5t36 51t54.5 34.5t68.5 13q35 0 66 -11t54.5 -31.5t37.5 -50.5t14 -68q0 -37 -16 -77.5t-41 -81t-56.5 -82t-62.5 -80.5zM181 24q41 0 71 29.5t30 69.5t-30 69.5
t-71 29.5q-43 0 -72.5 -29.5t-29.5 -69.5t29.5 -69.5t72.5 -29.5z" />
    <glyph glyph-name="Euro" unicode="&#x20ac;" horiz-adv-x="641" 
d="M607 13q-33 -17 -68.5 -26t-75.5 -9q-64 0 -119.5 21.5t-99.5 59t-75 90t-46 114.5h-116l12 56h94q-1 13 -2 27t-1 28q0 10 0.5 21t1.5 21h-105l12 56h101q14 63 45 117.5t75 94t101 62t122 22.5q40 0 75 -9t69 -26v-84q-31 19 -64.5 30.5t-71.5 11.5q-47 0 -88.5 -17
t-75 -46t-57.5 -69.5t-37 -86.5h322l-13 -56h-320q-1 -10 -1.5 -20.5t-0.5 -20.5q0 -14 1 -28.5t3 -27.5h301l-13 -56h-275q14 -44 38.5 -82.5t57 -66t72.5 -43.5t86 -16q38 0 71.5 12t64.5 31v-85z" />
    <glyph glyph-name="copyrightsound" unicode="&#x2117;" horiz-adv-x="879" 
d="M440 756q83 0 154.5 -30t123.5 -82t81.5 -122t29.5 -149t-29.5 -149t-81.5 -122t-123.5 -82t-154.5 -30t-155 30t-124 82t-81.5 122t-29.5 149t29.5 149t81.5 122t124 82t155 30zM440 716q-71 0 -134 -27t-109.5 -73.5t-73.5 -109t-27 -133.5t27 -133.5t73.5 -109
t109.5 -73.5t134 -27t133.5 27t109 73.5t73.5 109t27 133.5t-27 133.5t-73.5 109t-109 73.5t-133.5 27zM449 317h-36v-158h-73v434h112q70 0 114.5 -31t45.5 -106q0 -35 -14 -61.5t-36.5 -43.5t-52 -25.5t-60.5 -8.5zM457 524h-44v-138h44q36 0 58.5 19t22.5 50t-18.5 50
t-62.5 19z" />
    <glyph glyph-name="trademark" unicode="&#x2122;" horiz-adv-x="625" 
d="M86 442v254h-64v50h182v-50h-63v-254h-55zM407 491l-97 160v-209h-55v304h59l100 -170l96 170h58v-304h-55v208l-94 -159h-12z" />
    <glyph glyph-name="arrowleft" unicode="&#x2190;" horiz-adv-x="750" 
d="M444 91v-4h-127l-312 312v8l312 312h127v-4l-267 -266h569v-92h-569z" />
    <glyph glyph-name="arrowup" unicode="&#x2191;" horiz-adv-x="750" 
d="M687 302l-266 267v-569h-92v569l-266 -267h-4v127l312 312h8l312 -312v-127h-4z" />
    <glyph glyph-name="arrowright" unicode="&#x2192;" horiz-adv-x="750" 
d="M433 82h-127v4l267 266h-569v92h569l-267 266v4h127l312 -312v-8z" />
    <glyph glyph-name="arrowdown" unicode="&#x2193;" horiz-adv-x="750" 
d="M379 5h-8l-312 312v127h4l266 -267v569h92v-569l266 267h4v-127z" />
    <glyph glyph-name="uni2196" unicode="&#x2196;" horiz-adv-x="750" 
d="M662 139l-65 -65l-402 401v-376l-3 -3l-90 90l1 441l5 5l441 1l90 -90l-3 -2h-377z" />
    <glyph glyph-name="uni2197" unicode="&#x2197;" horiz-adv-x="750" 
d="M556 102v376l-402 -402l-65 65l402 402h-377l-3 3l90 90l441 -1l6 -5v-441l-89 -90z" />
    <glyph glyph-name="uni2198" unicode="&#x2198;" horiz-adv-x="750" 
d="M201 86l-90 90l3 3l377 -1l-403 403l65 65l402 -402v376l3 3l90 -89l-1 -442l-5 -5z" />
    <glyph glyph-name="uni2199" unicode="&#x2199;" horiz-adv-x="750" 
d="M549 83l-441 1l-6 5v442l89 89l3 -3v-376l402 402l65 -65l-402 -402h377l3 -3z" />
    <glyph glyph-name="minus" unicode="&#x2212;" horiz-adv-x="580" 
d="M544 386v-73h-508v73h508z" />
    <glyph glyph-name="radical" unicode="&#x221a;" horiz-adv-x="658" 
d="M361 0h-87l-138 383h-89v72h142l129 -366l256 657h78z" />
    <glyph glyph-name="infinity" unicode="&#x221e;" horiz-adv-x="670" 
d="M495 172q-60 0 -96.5 35.5t-62.5 77.5q-29 -46 -66.5 -79.5t-96.5 -33.5q-35 0 -65 14t-51.5 37t-33.5 53.5t-12 64.5t12 64.5t34 53.5t52 37t66 14q59 0 95 -32t65 -77q33 56 72 82.5t90 26.5q35 0 65 -14t51.5 -37t33.5 -53.5t12 -64.5t-12.5 -64.5t-34 -53.5t-52 -37
t-65.5 -14zM178 235q25 0 44 10t33.5 25t25.5 33.5t20 36.5q-32 48 -55.5 77.5t-69.5 29.5q-43 0 -70 -32t-27 -74t28 -74t71 -32zM494 235q43 0 70 32t27 74t-28 74t-71 32q-46 0 -71.5 -27.5t-50.5 -73.5q27 -45 51.5 -78t72.5 -33z" />
    <glyph glyph-name="approxequal" unicode="&#x2248;" horiz-adv-x="547" 
d="M107 387l-68 9q0 35 10.5 58.5t27 37.5t37 20t40.5 6q28 0 59.5 -12t62.5 -27t59 -27t50 -12q19 0 37 9.5t18 45.5l67 -10q0 -35 -10.5 -58.5t-26.5 -37.5t-36.5 -19.5t-41.5 -5.5q-28 0 -59.5 12t-62.5 27t-59 27t-50 12q-19 0 -36.5 -10t-17.5 -45zM107 188l-68 10
q0 35 10.5 58t27 37t37 20t40.5 6q28 0 59.5 -12t62.5 -27t59 -27t50 -12q19 0 37 10t18 45l67 -9q0 -35 -10.5 -58.5t-26.5 -37.5t-36.5 -20t-41.5 -6q-28 0 -59.5 12t-62.5 27t-59 27t-50 12q-19 0 -36.5 -10t-17.5 -45z" />
    <glyph glyph-name="notequal" unicode="&#x2260;" horiz-adv-x="535" 
d="M184 30l-79 -1l73 172h-139v69h168l59 139h-227v69h256l73 172h79l-73 -172h122v-69h-151l-59 -139h210v-69h-239z" />
    <glyph glyph-name="lessequal" unicode="&#x2264;" horiz-adv-x="560" 
d="M531 143l-502 195v66l502 198v-80l-401 -150l401 -147v-82zM29 98h502v-66h-502v66z" />
    <glyph glyph-name="greaterequal" unicode="&#x2265;" horiz-adv-x="560" 
d="M29 143v82l401 147l-401 150v80l502 -198v-66zM531 98v-66h-502v66h502z" />
    <glyph glyph-name="lozenge" unicode="&#x25ca;" horiz-adv-x="582" 
d="M542 373l-215 -373h-71l-216 373l215 373h73zM292 71l173 300l-174 305l-173 -302z" />
    <glyph glyph-name="commaaccent" unicode="&#xf6c3;" horiz-adv-x="500" 
d="M296 -30l-51 -158h-62l19 158h94z" />
    <glyph glyph-name="apple" unicode="&#xf8ff;" horiz-adv-x="596" 
d="M10 -101v761h576v-761h-576zM107 560v-560h170q47 0 91 20t77.5 57t53.5 89t20 115q0 62 -20.5 114t-54 88.5t-77 56.5t-90.5 20h-170zM271 17h-156v525h156q43 0 83.5 -17t72 -49.5t50.5 -81.5t19 -113q0 -65 -19 -114.5t-50.5 -82.5t-72 -50t-83.5 -17zM271 535h-149
v-510h149q41 0 80.5 16.5t69.5 49t48.5 80.5t18.5 110t-18.5 109.5t-48.5 79.5t-69.5 48.5t-80.5 16.5zM145 32v495h126q40 0 78 -16t67.5 -47t47 -77.5t17.5 -105.5q0 -60 -17.5 -106.5t-47 -78t-67.5 -48t-78 -16.5h-126z" />
    <glyph glyph-name="uniFEFF" unicode="&#xfeff;" 
 />
    <glyph glyph-name="Jacute" horiz-adv-x="306" 
d="M5 0v85q15 -7 31 -10.5t34 -3.5t35 5t29.5 21t20 46.5t7.5 81.5v521h92v-539q0 -121 -40.5 -170.5t-135.5 -49.5q-21 0 -39 3t-34 10zM362 954l-126 -147h-68l88 147h106z" />
    <glyph glyph-name="jacute" horiz-adv-x="182" 
d="M-60 -146h7q48 1 74.5 38t26.5 106v576h85v-577q0 -110 -47 -165t-131 -56h-15v78zM245 798l-126 -147h-68l88 147h106z" />
    <glyph glyph-name="I_Jacute" horiz-adv-x="506" 
d="M54 0v746h92v-746h-92zM254 954l-126 -147h-68l88 147h106zM205 0v85q15 -7 31 -10.5t34 -3.5t35 5t29.5 21t20 46.5t7.5 81.5v521h92v-539q0 -121 -40.5 -170.5t-135.5 -49.5q-21 0 -39 3t-34 10zM562 954l-126 -147h-68l88 147h106z" />
    <glyph glyph-name="c_h" horiz-adv-x="1080" 
d="M488 91v-81q-31 -16 -70.5 -22t-67.5 -6q-68 0 -127.5 24.5t-103 65.5t-68.5 97t-25 118t25 118t68.5 97t103 65.5t127.5 24.5q27 0 66 -7t72 -24v-82h-3q-36 24 -73 31t-62 7q-49 0 -91.5 -18t-74 -49t-49.5 -73.5t-18 -89.5t18 -89.5t49.5 -73.5t74 -49t91.5 -18
q25 0 59 6t76 28h3zM641 359v-359h-86v780h84v-277q28 34 77 60t111 26q95 0 151 -58t56 -157v-374h-86v349q0 46 -12.5 77.5t-33.5 50.5t-49 27t-57 8q-25 0 -52 -9.5t-50 -28.5t-38 -48t-15 -67z" />
    <glyph glyph-name="c_k" horiz-adv-x="1040" 
d="M488 91v-81q-31 -16 -70.5 -22t-67.5 -6q-68 0 -127.5 24.5t-103 65.5t-68.5 97t-25 118t25 118t68.5 97t103 65.5t127.5 24.5q27 0 66 -7t72 -24v-82h-3q-36 24 -73 31t-62 7q-49 0 -91.5 -18t-74 -49t-49.5 -73.5t-18 -89.5t18 -89.5t49.5 -73.5t74 -49t91.5 -18
q25 0 59 6t76 28h3zM933 0l-226 288l-66 -60v-228h-86v780h86v-444l267 238h114l-254 -230l272 -344h-107z" />
    <glyph glyph-name="i_jacute" horiz-adv-x="369" 
d="M137 574v-574h-86v574h86zM248 798l-126 -147h-68l88 147h106zM128 -146h7q48 1 74.5 38t26.5 106v576h85v-577q0 -110 -47 -165t-131 -56h-15v78zM433 798l-126 -147h-68l88 147h106z" />
    <glyph glyph-name="caron.vertical" orientation="v" 
d="M30 -30l-43 -158h-54l16 158h81z" />
    <glyph glyph-name="endash.salt_en" horiz-adv-x="500" 
d="M500 352v-69h-500v69h500z" />
    <glyph glyph-name="emdash.uc_salt_em" horiz-adv-x="1000" 
d="M1000 408v-69h-1000v69h1000z" />
    <glyph glyph-name="endash.uc_salt_en" horiz-adv-x="500" 
d="M500 408v-69h-500v69h500z" />
    <glyph glyph-name="registered.salt_big" horiz-adv-x="879" 
d="M440 756q83 0 154.5 -30t123.5 -82t81.5 -122t29.5 -149t-29.5 -149t-81.5 -122t-123.5 -82t-154.5 -30t-155 30t-124 82t-81.5 122t-29.5 149t29.5 149t81.5 122t124 82t155 30zM440 716q-71 0 -134 -27t-109.5 -73.5t-73.5 -109t-27 -133.5t27 -133.5t73.5 -109
t109.5 -73.5t134 -27t133.5 27t109 73.5t73.5 109t27 133.5t-27 133.5t-73.5 109t-109 73.5t-133.5 27zM433 525h-35v-139h35q37 0 58.5 20t21.5 51q0 28 -20 48t-60 20zM537 160l-134 159h-5v-159h-73v433h108q67 0 110.5 -33.5t43.5 -102.5q0 -49 -29 -82t-70 -46
l134 -162l-6 -7h-79z" />
    <glyph glyph-name="acute.lc" 
d="M114 790l-126 -147h-68l88 147h106z" />
    <glyph glyph-name="grave.lc" 
d="M-113 790h108l87 -147h-70z" />
    <glyph glyph-name="hungarumlaut.lc" 
d="M138 790h100l-132 -147h-64zM-29 790h100l-132 -147h-65z" />
    <glyph glyph-name="circumflex.lc" 
d="M79 643l-80 98l-80 -98h-73l104 147h98l104 -147h-73z" />
    <glyph glyph-name="caron.lc" 
d="M48 643h-98l-104 147h72l80 -98l81 98h73z" />
    <glyph glyph-name="breve.lc" 
d="M150 785q-16 -65 -54.5 -104.5t-95.5 -39.5t-95.5 39.5t-54.5 104.5l61 3q16 -43 40.5 -65t48.5 -22t48.5 22t40.5 65z" />
    <glyph glyph-name="tilde.lc" 
d="M-128 643l-70 1q-4 40 3.5 67.5t22 44t34.5 23.5t41 7q22 0 47.5 -11t50 -24.5t47 -24.5t38.5 -11t29.5 14t12.5 57l70 -1q7 -75 -25 -107.5t-76 -32.5q-23 0 -49 11t-50 24.5t-46 24.5t-38 11q-17 0 -30.5 -13.5t-11.5 -59.5z" />
    <glyph glyph-name="macron.lc" 
d="M132 733v-68h-264v68h264z" />
    <glyph glyph-name="dieresis.lc" 
d="M148 759v-84h-90v84h90zM-58 759v-84h-90v84h90z" />
    <glyph glyph-name="dotaccent.lc" 
d="M45 754v-114h-90v114h90z" />
    <glyph glyph-name="ring.lc" 
d="M0 864q47 0 80 -33.5t33 -77.5t-33 -77t-80 -33t-80 33.5t-33 76.5q0 44 33 77.5t80 33.5zM0 819q-27 0 -46 -19t-19 -47q0 -27 19 -46t46 -19t46 19t19 46q0 28 -19 47t-46 19z" />
    <glyph glyph-name="cedilla.lc" 
d="M-28 -195q-10 0 -30.5 3t-37.5 9v50h1q18 -6 36 -9.5t27 -3.5q26 0 41 10.5t15 26.5q0 14 -17.5 23t-47.5 9h-20l-3 7l30 80h53l-19 -44q42 -5 64 -26t22 -52q0 -34 -31.5 -58.5t-82.5 -24.5z" />
    <glyph glyph-name="ogonek.lc" 
d="M5 -27q-20 -16 -31.5 -28.5t-11.5 -27.5q0 -10 8.5 -19.5t23.5 -9.5q12 0 21 4.5t16 10.5l31 -39q-12 -11 -34.5 -22t-52.5 -11q-45 0 -66 22.5t-21 48.5q0 27 16.5 46.5t38.5 38.5l37 30l68 -11z" />
    <glyph glyph-name="commaaccent.lc" 
d="M46 -30l-51 -158h-62l19 158h94z" />
    <glyph glyph-name="grave.cmb" 
d="M-113 790h108l87 -147h-70z" />
    <glyph glyph-name="hungarumlaut.cmb" 
d="M138 790h100l-132 -147h-64zM-29 790h100l-132 -147h-65z" />
    <glyph glyph-name="circumflex.cmb" 
d="M79 643l-80 98l-80 -98h-73l104 147h98l104 -147h-73z" />
    <glyph glyph-name="caron.cmb" 
d="M48 643h-98l-104 147h72l80 -98l81 98h73z" />
    <glyph glyph-name="breve.cmb" 
d="M150 785q-16 -65 -54.5 -104.5t-95.5 -39.5t-95.5 39.5t-54.5 104.5l61 3q16 -43 40.5 -65t48.5 -22t48.5 22t40.5 65z" />
    <glyph glyph-name="tilde.cmb" 
d="M-128 643l-70 1q-4 40 3.5 67.5t22 44t34.5 23.5t41 7q22 0 47.5 -11t50 -24.5t47 -24.5t38.5 -11t29.5 14t12.5 57l70 -1q7 -75 -25 -107.5t-76 -32.5q-23 0 -49 11t-50 24.5t-46 24.5t-38 11q-17 0 -30.5 -13.5t-11.5 -59.5z" />
    <glyph glyph-name="macron.cmb" 
d="M132 733v-68h-264v68h264z" />
    <glyph glyph-name="dieresis.cmb" 
d="M148 759v-84h-90v84h90zM-58 759v-84h-90v84h90z" />
    <glyph glyph-name="dotaccent.cmb" 
d="M45 744v-104h-90v104h90z" />
    <glyph glyph-name="ring.cmb" 
d="M0 864q47 0 80 -33.5t33 -77.5t-33 -77t-80 -33t-80 33.5t-33 76.5q0 44 33 77.5t80 33.5zM0 819q-27 0 -46 -19t-19 -47q0 -27 19 -46t46 -19t46 19t19 46q0 28 -19 47t-46 19z" />
    <glyph glyph-name="cedilla.cmb" 
d="M-28 -195q-10 0 -30.5 3t-37.5 9v50h1q18 -7 36 -10t27 -3q26 0 41 10.5t15 26.5q0 14 -17.5 23t-47.5 9h-20l-3 7l30 80h53l-19 -44q42 -5 64 -26t22 -52q0 -34 -31.5 -58.5t-82.5 -24.5z" />
    <glyph glyph-name="ogonek.cmb" 
d="M5 -27q-20 -16 -31.5 -28.5t-11.5 -27.5q0 -10 8.5 -19.5t23.5 -9.5q12 0 21 4.5t16 10.5l31 -39q-12 -11 -34.5 -22t-52.5 -11q-45 0 -66 22.5t-21 48.5q0 27 16.5 46.5t38.5 38.5l37 30l68 -11z" />
    <glyph glyph-name="commaaccent.cmb" 
d="M46 -30l-51 -158h-62l19 158h94z" />
    <glyph glyph-name="hyphen.uc" horiz-adv-x="404" 
d="M364 416v-85h-324v85h324z" />
    <glyph glyph-name="endash.uc" horiz-adv-x="524" 
d="M494 408v-69h-464v69h464z" />
    <glyph glyph-name="emdash.uc" horiz-adv-x="724" 
d="M694 408v-69h-664v69h664z" />
    <glyph glyph-name="parenleft.uc" horiz-adv-x="399" 
d="M291 838l50 -57q-27 -26 -56 -67t-53.5 -94t-40 -117.5t-15.5 -136.5v-13q0 -72 15.5 -136.5t39.5 -118t53 -94.5t57 -65l-49 -57q-33 27 -69 71t-65 103.5t-48.5 134t-19.5 161.5v15q0 87 19 161t48.5 133t65.5 103.5t68 73.5z" />
    <glyph glyph-name="parenright.uc" horiz-adv-x="407" 
d="M115 838q33 -29 68.5 -73.5t65 -103.5t48.5 -133t19 -161v-15q0 -87 -19 -161.5t-48.5 -134t-65.5 -103.5t-69 -71l-48 57q28 24 57 65t52.5 94.5t39 118t15.5 136.5v13q0 72 -15.5 136.5t-39.5 117.5t-53 94t-56 67z" />
    <glyph glyph-name="bracketleft.uc" horiz-adv-x="381" 
d="M119 -122v960h213v-59h-127v-842h135v-59h-221z" />
    <glyph glyph-name="bracketright.uc" horiz-adv-x="381" 
d="M262 -122h-221v59h135v842h-127v59h213v-960z" />
    <glyph glyph-name="braceleft.uc" horiz-adv-x="397" 
d="M330 -122h-72q-55 0 -84.5 28.5t-29.5 109.5v210q0 46 -15.5 67t-40.5 28q-1 0 -3 0.5t-3 0.5v70q1 0 3 0.5t3 0.5q25 7 40.5 27.5t15.5 66.5v213q0 81 29.5 109.5t84.5 28.5h72v-59h-38q-31 0 -46.5 -17.5t-15.5 -76.5v-198q0 -47 -16.5 -77.5t-54.5 -45.5v-14
q38 -14 54.5 -44t16.5 -78v-201q0 -59 15.5 -74.5t46.5 -15.5h38v-59z" />
    <glyph glyph-name="braceright.uc" horiz-adv-x="397" 
d="M139 -122h-73v55h39q31 0 46 16t15 75v204q0 48 17 78t54 44v14q-37 15 -54 45.5t-17 77.5v202q0 59 -15 76.5t-46 17.5h-39v55h73q54 0 84 -28.5t30 -109.5v-213q0 -46 15.5 -66.5t40.5 -27.5q1 0 3 -0.5t3 -0.5v-70q-1 0 -3.5 -0.5l-2.5 -0.5q-25 -7 -40.5 -28
t-15.5 -67v-210q0 -81 -30 -109.5t-84 -28.5z" />
    <glyph glyph-name="guilsinglleft.uc" horiz-adv-x="362" 
d="M308 46h-76l-185 285v4l185 285h78l-186 -287z" />
    <glyph glyph-name="guilsinglright.uc" horiz-adv-x="362" 
d="M130 46h-78l186 288l-184 286h76l185 -285v-4z" />
    <glyph glyph-name="guillemotleft.uc" horiz-adv-x="541" 
d="M488 46h-76l-185 285v4l185 285h78l-186 -287zM308 46h-76l-185 285v4l185 285h78l-186 -287z" />
    <glyph glyph-name="guillemotright.uc" horiz-adv-x="541" 
d="M310 46h-78l185 288l-184 286h77l185 -285v-4zM130 46h-78l186 288l-184 286h76l185 -285v-4z" />
    <glyph glyph-name="colon.uc" horiz-adv-x="232" 
d="M64 621h105v-129h-105v129zM64 229h105v-129h-105v129z" />
    <glyph glyph-name="semicolon.uc" horiz-adv-x="246" 
d="M75 621h104v-129h-104v129zM77 209h104l-75 -255h-66z" />
    <glyph glyph-name="plus.uc" horiz-adv-x="612" 
d="M573 338h-226v-246h-82v246h-226v72h226v226h82v-226h226v-72z" />
    <glyph glyph-name="minus.uc" horiz-adv-x="580" 
d="M544 410v-73h-508v73h508z" />
    <glyph glyph-name="divide.uc" horiz-adv-x="596" 
d="M254 515v106h89v-106h-89zM558 410v-73h-520v73h520zM254 126v106h89v-106h-89z" />
    <glyph glyph-name="multiply.uc" horiz-adv-x="526" 
d="M445 126l-187 188l-179 -179l-49 51l178 178l-172 172l51 50l172 -172l162 162l50 -50l-162 -162l187 -187z" />
    <glyph glyph-name="equal.uc" horiz-adv-x="537" 
d="M499 502v-69h-460v69h460zM499 294v-69h-460v69h460z" />
    <glyph glyph-name="zero.dnom" horiz-adv-x="383" 
d="M192 482q72 0 120 -58.5t48 -174.5v-32q0 -114 -48 -173t-120 -59t-120.5 59t-48.5 173v32q0 116 48.5 174.5t120.5 58.5zM290 217v32q0 88 -27.5 130.5t-70.5 42.5t-71.5 -42.5t-28.5 -130.5v-32q0 -87 28.5 -129.5t71.5 -42.5t70.5 42.5t27.5 129.5z" />
    <glyph glyph-name="one.dnom" horiz-adv-x="219" 
d="M180 0h-70v363l-90 -94v92l105 106h55v-467z" />
    <glyph glyph-name="two.dnom" horiz-adv-x="348" 
d="M314 0h-304l-4 8q8 10 37 45t61 74t61 73.5t37 45.5q22 27 33.5 46.5t11.5 48.5q0 31 -25.5 56t-65.5 26q-26 0 -52.5 -10t-54.5 -34v72q26 16 55 23.5t59 7.5q69 -1 113 -41t44 -97q-1 -47 -19.5 -74t-43.5 -57q-7 -9 -22 -26.5t-33.5 -39t-39.5 -45t-39 -43.5h216z" />
    <glyph glyph-name="three.dnom" horiz-adv-x="309" 
d="M119 -15q-20 0 -54 5t-56 18v60q16 -13 47 -18t46 -5q55 -1 90 25.5t35 68.5q0 40 -33 64t-83 24h-34l2 59h32q39 0 64.5 21.5t25.5 51.5q0 28 -23.5 45.5t-60.5 17.5q-16 0 -37 -3t-41 -13l6 64q15 5 36 8.5t47 3.5q60 1 101.5 -32.5t41.5 -82.5q-1 -31 -18.5 -59.5
t-45.5 -44.5q40 -15 65 -48.5t25 -77.5q0 -65 -50 -109t-128 -43z" />
    <glyph glyph-name="four.dnom" horiz-adv-x="386" 
d="M250 151v202l-144 -202h144zM361 92h-40v-92h-71v92h-240l-5 11l258 364h58v-316h58z" />
    <glyph glyph-name="five.dnom" horiz-adv-x="352" 
d="M127 -15q-25 0 -57 7t-58 22v63q25 -15 55 -24t59 -9q53 0 89 31.5t36 80.5q0 40 -32.5 67.5t-85.5 27.5q-26 0 -49 -5t-45 -12l59 233h243l-19 -59h-177l-27 -100q9 1 18 1.5t18 0.5q78 0 123.5 -43.5t45.5 -110.5q0 -74 -54 -122.5t-142 -48.5z" />
    <glyph glyph-name="six.dnom" horiz-adv-x="365" 
d="M185 -15q-35 0 -66.5 11t-55 31.5t-37 50.5t-13.5 68q0 37 15.5 77.5t40.5 81t56.5 81.5t62.5 81h86q-42 -51 -79.5 -98t-64.5 -90q16 9 34.5 14t38.5 5q63 0 108 -45t45 -108q0 -66 -49 -113t-122 -47zM185 242q-42 0 -72.5 -29t-30.5 -70q0 -40 30.5 -69.5t72.5 -29.5
t71.5 29.5t29.5 69.5q0 41 -29.5 70t-71.5 29z" />
    <glyph glyph-name="seven.dnom" horiz-adv-x="338" 
d="M137 0h-77l176 408h-227l20 59h307z" />
    <glyph glyph-name="eight.dnom" horiz-adv-x="359" 
d="M179 -15q-75 0 -122.5 44t-47.5 108q0 41 22.5 73.5t62.5 50.5q-27 16 -42.5 41.5t-15.5 55.5q0 51 40 87.5t103 36.5q65 0 104 -36.5t39 -87.5q0 -30 -15 -55.5t-42 -41.5q40 -18 62.5 -51t22.5 -73q0 -64 -48 -108t-123 -44zM179 282q30 0 52.5 21t22.5 52q0 28 -22 48
t-53 20t-52.5 -20t-21.5 -48q0 -31 21.5 -52t52.5 -21zM179 44q43 0 72.5 28t29.5 69q0 39 -29.5 65t-72.5 26q-41 0 -71 -26t-30 -65q0 -41 30 -69t71 -28z" />
    <glyph glyph-name="nine.dnom" horiz-adv-x="365" 
d="M177 0h-86q43 50 80 97.5t64 90.5q-16 -9 -34.5 -14t-38.5 -5q-63 0 -108 44.5t-45 108.5q0 32 13 61.5t36 51t54.5 34.5t68.5 13q35 0 66 -11t54.5 -31.5t37.5 -50.5t14 -68q0 -37 -16 -77.5t-41 -81t-56.5 -82t-62.5 -80.5zM181 224q41 0 71 29.5t30 69.5t-30 69.5
t-71 29.5q-43 0 -72.5 -29.5t-29.5 -69.5t29.5 -69.5t72.5 -29.5z" />
    <glyph glyph-name="zero.numr" horiz-adv-x="383" 
d="M192 761q72 0 120 -58.5t48 -174.5v-32q0 -114 -48 -173t-120 -59t-120.5 59t-48.5 173v32q0 116 48.5 174.5t120.5 58.5zM290 496v32q0 88 -27.5 130.5t-70.5 42.5t-71.5 -42.5t-28.5 -130.5v-32q0 -87 28.5 -129.5t71.5 -42.5t70.5 42.5t27.5 129.5z" />
    <glyph glyph-name="one.numr" horiz-adv-x="219" 
d="M180 279h-70v363l-90 -94v92l105 106h55v-467z" />
    <glyph glyph-name="two.numr" horiz-adv-x="348" 
d="M314 279h-304l-4 8q8 10 37 45t61 74t61 73.5t37 45.5q22 27 33.5 46.5t11.5 48.5q0 31 -25.5 56t-65.5 26q-26 0 -52.5 -10t-54.5 -34v72q26 16 55 23.5t59 7.5q69 -1 113 -41t44 -97q-1 -47 -19.5 -74t-43.5 -57q-7 -9 -22 -26.5t-33.5 -39t-39.5 -45t-39 -43.5h216z
" />
    <glyph glyph-name="three.numr" horiz-adv-x="309" 
d="M119 264q-20 0 -54 5t-56 18v60q16 -13 47 -18t46 -5q55 -1 90 25.5t35 68.5q0 40 -33 64t-83 24h-34l2 59h32q39 0 64.5 21.5t25.5 51.5q0 28 -23.5 45.5t-60.5 17.5q-16 0 -37 -3t-41 -13l6 64q15 5 36 8.5t47 3.5q60 1 101.5 -32.5t41.5 -82.5q-1 -31 -18.5 -59.5
t-45.5 -44.5q40 -15 65 -48.5t25 -77.5q0 -65 -50 -109t-128 -43z" />
    <glyph glyph-name="four.numr" horiz-adv-x="386" 
d="M250 430v202l-144 -202h144zM361 371h-40v-92h-71v92h-240l-5 11l258 364h58v-316h58z" />
    <glyph glyph-name="five.numr" horiz-adv-x="352" 
d="M127 264q-25 0 -57 7t-58 22v63q25 -15 55 -24t59 -9q53 0 89 31.5t36 80.5q0 40 -32.5 67.5t-85.5 27.5q-26 0 -49 -5t-45 -12l59 233h243l-19 -59h-177l-27 -100q9 1 18 1.5t18 0.5q78 0 123.5 -43.5t45.5 -110.5q0 -74 -54 -122.5t-142 -48.5z" />
    <glyph glyph-name="six.numr" horiz-adv-x="365" 
d="M185 264q-35 0 -66.5 11t-55 31.5t-37 50.5t-13.5 68q0 37 15.5 77.5t40.5 81t56.5 81.5t62.5 81h86q-42 -51 -79.5 -98t-64.5 -90q16 9 34.5 14t38.5 5q63 0 108 -45t45 -108q0 -66 -49 -113t-122 -47zM185 521q-42 0 -72.5 -29t-30.5 -70q0 -40 30.5 -69.5t72.5 -29.5
t71.5 29.5t29.5 69.5q0 41 -29.5 70t-71.5 29z" />
    <glyph glyph-name="seven.numr" horiz-adv-x="338" 
d="M137 279h-77l176 408h-227l20 59h307z" />
    <glyph glyph-name="eight.numr" horiz-adv-x="359" 
d="M179 264q-75 0 -122.5 44t-47.5 108q0 41 22.5 73.5t62.5 50.5q-27 16 -42.5 41.5t-15.5 55.5q0 51 40 87.5t103 36.5q65 0 104 -36.5t39 -87.5q0 -30 -15 -55.5t-42 -41.5q40 -18 62.5 -51t22.5 -73q0 -64 -48 -108t-123 -44zM179 561q30 0 52.5 21t22.5 52q0 28 -22 48
t-53 20t-52.5 -20t-21.5 -48q0 -31 21.5 -52t52.5 -21zM179 323q43 0 72.5 28t29.5 69q0 39 -29.5 65t-72.5 26q-41 0 -71 -26t-30 -65q0 -41 30 -69t71 -28z" />
    <glyph glyph-name="nine.numr" horiz-adv-x="365" 
d="M177 279h-86q43 50 80 97.5t64 90.5q-16 -9 -34.5 -14t-38.5 -5q-63 0 -108 44.5t-45 108.5q0 32 13 61.5t36 51t54.5 34.5t68.5 13q35 0 66 -11t54.5 -31.5t37.5 -50.5t14 -68q0 -37 -16 -77.5t-41 -81t-56.5 -82t-62.5 -80.5zM181 503q41 0 71 29.5t30 69.5t-30 69.5
t-71 29.5q-43 0 -72.5 -29.5t-29.5 -69.5t29.5 -69.5t72.5 -29.5z" />
    <glyph glyph-name="zero.salt_slash" horiz-adv-x="594" 
d="M297 770q55 0 102 -23.5t81 -70t53 -116.5t19 -162v-52q0 -91 -19.5 -160.5t-53 -116t-80.5 -70t-102 -23.5q-54 0 -101 23.5t-81 70t-53.5 116t-19.5 160.5v52q0 92 19.5 162t53.5 116.5t81 70t101 23.5zM297 695q-22 0 -42 -6.5t-38 -19.5l211 -530q18 36 28 88t10 119
v52q0 151 -47 224t-122 73zM297 51q22 0 42.5 6t37.5 19l-211 528q-18 -36 -28 -88t-10 -118v-52q0 -150 48.5 -222.5t120.5 -72.5z" />
    <glyph glyph-name="C.salt_low" horiz-adv-x="704" 
d="M664 703l-42 -72q-40 25 -87.5 40t-98.5 15q-69 0 -127.5 -25.5t-100 -68.5t-64.5 -99.5t-23 -117.5q0 -63 23 -120t64.5 -100.5t100 -69t127.5 -25.5q47 0 93 13.5t93 41.5l42 -72q-58 -36 -113.5 -51.5t-116.5 -15.5q-90 0 -165 31.5t-128 85t-83 126.5t-30 155
t30 154.5t83.5 126t128.5 84.5t164 31q61 0 115.5 -15t114.5 -52z" />
    <glyph glyph-name="Ccedilla.salt_low" horiz-adv-x="704" 
d="M664 703l-42 -72q-40 25 -87.5 40t-98.5 15q-69 0 -127.5 -25.5t-100 -68.5t-64.5 -99.5t-23 -117.5q0 -63 23 -120t64.5 -100.5t100 -69t127.5 -25.5q47 0 93 13.5t93 41.5l42 -72q-58 -36 -113.5 -51.5t-116.5 -15.5q-90 0 -165 31.5t-128 85t-83 126.5t-30 155
t30 154.5t83.5 126t128.5 84.5t164 31q61 0 115.5 -15t114.5 -52zM401 -219q-10 0 -30.5 3t-37.5 9v50h1q18 -7 36 -10t27 -3q26 0 41 10.5t15 26.5q0 14 -17.5 23t-47.5 9h-20l-3 7l30 80h53l-19 -44q42 -5 64 -26t22 -52q0 -34 -31.5 -58.5t-82.5 -24.5z" />
    <glyph glyph-name="Cacute.salt_low" horiz-adv-x="704" 
d="M664 703l-42 -72q-40 25 -87.5 40t-98.5 15q-69 0 -127.5 -25.5t-100 -68.5t-64.5 -99.5t-23 -117.5q0 -63 23 -120t64.5 -100.5t100 -69t127.5 -25.5q47 0 93 13.5t93 41.5l42 -72q-58 -36 -113.5 -51.5t-116.5 -15.5q-90 0 -165 31.5t-128 85t-83 126.5t-30 155
t30 154.5t83.5 126t128.5 84.5t164 31q61 0 115.5 -15t114.5 -52zM573 954l-126 -147h-68l88 147h106z" />
    <glyph glyph-name="Ccircumflex.salt_low" horiz-adv-x="704" 
d="M664 703l-42 -72q-40 25 -87.5 40t-98.5 15q-69 0 -127.5 -25.5t-100 -68.5t-64.5 -99.5t-23 -117.5q0 -63 23 -120t64.5 -100.5t100 -69t127.5 -25.5q47 0 93 13.5t93 41.5l42 -72q-58 -36 -113.5 -51.5t-116.5 -15.5q-90 0 -165 31.5t-128 85t-83 126.5t-30 155
t30 154.5t83.5 126t128.5 84.5t164 31q61 0 115.5 -15t114.5 -52zM499 807l-80 98l-80 -98h-73l104 147h98l104 -147h-73z" />
    <glyph glyph-name="Cdotaccent.salt_low" horiz-adv-x="704" 
d="M664 703l-42 -72q-40 25 -87.5 40t-98.5 15q-69 0 -127.5 -25.5t-100 -68.5t-64.5 -99.5t-23 -117.5q0 -63 23 -120t64.5 -100.5t100 -69t127.5 -25.5q47 0 93 13.5t93 41.5l42 -72q-58 -36 -113.5 -51.5t-116.5 -15.5q-90 0 -165 31.5t-128 85t-83 126.5t-30 155
t30 154.5t83.5 126t128.5 84.5t164 31q61 0 115.5 -15t114.5 -52zM464 911v-104h-90v104h90z" />
    <glyph glyph-name="Ccaron.salt_low" horiz-adv-x="704" 
d="M664 703l-42 -72q-40 25 -87.5 40t-98.5 15q-69 0 -127.5 -25.5t-100 -68.5t-64.5 -99.5t-23 -117.5q0 -63 23 -120t64.5 -100.5t100 -69t127.5 -25.5q47 0 93 13.5t93 41.5l42 -72q-58 -36 -113.5 -51.5t-116.5 -15.5q-90 0 -165 31.5t-128 85t-83 126.5t-30 155
t30 154.5t83.5 126t128.5 84.5t164 31q61 0 115.5 -15t114.5 -52zM468 807h-98l-104 147h72l80 -98l81 98h73z" />
    <glyph glyph-name="S.salt_low" horiz-adv-x="481" 
d="M420 710l-41 -76q-26 19 -59.5 33.5t-67.5 14.5q-32 0 -53.5 -8.5t-34.5 -21.5t-18.5 -28.5t-5.5 -29.5q0 -40 30.5 -75t99.5 -86q96 -72 137.5 -128t41.5 -113q0 -48 -17.5 -86t-48.5 -64t-72.5 -40t-89.5 -14q-47 0 -103 16.5t-99 44.5l41 77q35 -22 77 -40.5t88 -18.5
q34 0 58.5 10.5t40.5 27.5t24 38.5t8 43.5q0 42 -32 81t-109 95q-89 68 -128 117t-39 111q0 32 12 63t37 54.5t64.5 38t92.5 14.5q43 0 87 -14.5t79 -36.5z" />
    <glyph glyph-name="Sacute.salt_low" horiz-adv-x="481" 
d="M420 710l-41 -76q-26 19 -59.5 33.5t-67.5 14.5q-32 0 -53.5 -8.5t-34.5 -21.5t-18.5 -28.5t-5.5 -29.5q0 -40 30.5 -75t99.5 -86q96 -72 137.5 -128t41.5 -113q0 -48 -17.5 -86t-48.5 -64t-72.5 -40t-89.5 -14q-47 0 -103 16.5t-99 44.5l41 77q35 -22 77 -40.5t88 -18.5
q34 0 58.5 10.5t40.5 27.5t24 38.5t8 43.5q0 42 -32 81t-109 95q-89 68 -128 117t-39 111q0 32 12 63t37 54.5t64.5 38t92.5 14.5q43 0 87 -14.5t79 -36.5zM410 954l-126 -147h-68l88 147h106z" />
    <glyph glyph-name="Scircumflex.salt_low" horiz-adv-x="481" 
d="M420 710l-41 -76q-26 19 -59.5 33.5t-67.5 14.5q-32 0 -53.5 -8.5t-34.5 -21.5t-18.5 -28.5t-5.5 -29.5q0 -40 30.5 -75t99.5 -86q96 -72 137.5 -128t41.5 -113q0 -48 -17.5 -86t-48.5 -64t-72.5 -40t-89.5 -14q-47 0 -103 16.5t-99 44.5l41 77q35 -22 77 -40.5t88 -18.5
q34 0 58.5 10.5t40.5 27.5t24 38.5t8 43.5q0 42 -32 81t-109 95q-89 68 -128 117t-39 111q0 32 12 63t37 54.5t64.5 38t92.5 14.5q43 0 87 -14.5t79 -36.5zM336 807l-80 98l-80 -98h-73l104 147h98l104 -147h-73z" />
    <glyph glyph-name="Scedilla.salt_low" horiz-adv-x="481" 
d="M420 710l-41 -76q-26 19 -59.5 33.5t-67.5 14.5q-32 0 -53.5 -8.5t-34.5 -21.5t-18.5 -28.5t-5.5 -29.5q0 -40 30.5 -75t99.5 -86q96 -72 137.5 -128t41.5 -113q0 -48 -17.5 -86t-48.5 -64t-72.5 -40t-89.5 -14q-47 0 -103 16.5t-99 44.5l41 77q35 -22 77 -40.5t88 -18.5
q34 0 58.5 10.5t40.5 27.5t24 38.5t8 43.5q0 42 -32 81t-109 95q-89 68 -128 117t-39 111q0 32 12 63t37 54.5t64.5 38t92.5 14.5q43 0 87 -14.5t79 -36.5zM199 -207q-10 0 -30.5 3t-37.5 9v50h1q18 -7 36 -10t27 -3q26 0 41 10.5t15 26.5q0 14 -17.5 23t-47.5 9h-20l-3 7
l30 80h53l-19 -44q42 -5 64 -26t22 -52q0 -34 -31.5 -58.5t-82.5 -24.5z" />
    <glyph glyph-name="Scaron.salt_low" horiz-adv-x="481" 
d="M420 710l-41 -76q-26 19 -59.5 33.5t-67.5 14.5q-32 0 -53.5 -8.5t-34.5 -21.5t-18.5 -28.5t-5.5 -29.5q0 -40 30.5 -75t99.5 -86q96 -72 137.5 -128t41.5 -113q0 -48 -17.5 -86t-48.5 -64t-72.5 -40t-89.5 -14q-47 0 -103 16.5t-99 44.5l41 77q35 -22 77 -40.5t88 -18.5
q34 0 58.5 10.5t40.5 27.5t24 38.5t8 43.5q0 42 -32 81t-109 95q-89 68 -128 117t-39 111q0 32 12 63t37 54.5t64.5 38t92.5 14.5q43 0 87 -14.5t79 -36.5zM305 807h-98l-104 147h72l80 -98l81 98h73z" />
    <glyph glyph-name="Scommaaccent.salt_low" horiz-adv-x="481" 
d="M420 710l-41 -76q-26 19 -59.5 33.5t-67.5 14.5q-32 0 -53.5 -8.5t-34.5 -21.5t-18.5 -28.5t-5.5 -29.5q0 -40 30.5 -75t99.5 -86q96 -72 137.5 -128t41.5 -113q0 -48 -17.5 -86t-48.5 -64t-72.5 -40t-89.5 -14q-47 0 -103 16.5t-99 44.5l41 77q35 -22 77 -40.5t88 -18.5
q34 0 58.5 10.5t40.5 27.5t24 38.5t8 43.5q0 42 -32 81t-109 95q-89 68 -128 117t-39 111q0 32 12 63t37 54.5t64.5 38t92.5 14.5q43 0 87 -14.5t79 -36.5zM265 -58l-51 -158h-62l19 158h94z" />
    <glyph glyph-name="a.salt_low" horiz-adv-x="514" 
d="M244 42q58 0 97.5 38t39.5 92q0 51 -38 88.5t-99 37.5q-58 0 -94 -37.5t-36 -88.5q0 -54 36 -92t94 -38zM385 0v56q-28 -31 -70.5 -53t-95.5 -22q-41 0 -77 14.5t-62 40t-41 60t-15 74.5q0 39 15 73.5t42 60t64.5 40.5t82.5 15q49 0 87 -15.5t65 -39.5v55q0 91 -36.5 124
t-96.5 33q-29 0 -57 -3.5t-77 -12.5l-17 70q57 12 89.5 15.5t68.5 3.5q109 0 160.5 -54.5t51.5 -147.5v-387h-81z" />
    <glyph glyph-name="agrave.salt_low" horiz-adv-x="514" 
d="M244 42q58 0 97.5 38t39.5 92q0 51 -38 88.5t-99 37.5q-58 0 -94 -37.5t-36 -88.5q0 -54 36 -92t94 -38zM385 0v56q-28 -31 -70.5 -53t-95.5 -22q-41 0 -77 14.5t-62 40t-41 60t-15 74.5q0 39 15 73.5t42 60t64.5 40.5t82.5 15q49 0 87 -15.5t65 -39.5v55q0 91 -36.5 124
t-96.5 33q-29 0 -57 -3.5t-77 -12.5l-17 70q57 12 89.5 15.5t68.5 3.5q109 0 160.5 -54.5t51.5 -147.5v-387h-81zM103 798h108l87 -147h-70z" />
    <glyph glyph-name="aacute.salt_low" horiz-adv-x="514" 
d="M244 42q58 0 97.5 38t39.5 92q0 51 -38 88.5t-99 37.5q-58 0 -94 -37.5t-36 -88.5q0 -54 36 -92t94 -38zM385 0v56q-28 -31 -70.5 -53t-95.5 -22q-41 0 -77 14.5t-62 40t-41 60t-15 74.5q0 39 15 73.5t42 60t64.5 40.5t82.5 15q49 0 87 -15.5t65 -39.5v55q0 91 -36.5 124
t-96.5 33q-29 0 -57 -3.5t-77 -12.5l-17 70q57 12 89.5 15.5t68.5 3.5q109 0 160.5 -54.5t51.5 -147.5v-387h-81zM414 798l-126 -147h-68l88 147h106z" />
    <glyph glyph-name="acircumflex.salt_low" horiz-adv-x="514" 
d="M244 42q58 0 97.5 38t39.5 92q0 51 -38 88.5t-99 37.5q-58 0 -94 -37.5t-36 -88.5q0 -54 36 -92t94 -38zM385 0v56q-28 -31 -70.5 -53t-95.5 -22q-41 0 -77 14.5t-62 40t-41 60t-15 74.5q0 39 15 73.5t42 60t64.5 40.5t82.5 15q49 0 87 -15.5t65 -39.5v55q0 91 -36.5 124
t-96.5 33q-29 0 -57 -3.5t-77 -12.5l-17 70q57 12 89.5 15.5t68.5 3.5q109 0 160.5 -54.5t51.5 -147.5v-387h-81zM340 651l-80 98l-80 -98h-73l104 147h98l104 -147h-73z" />
    <glyph glyph-name="atilde.salt_low" horiz-adv-x="514" 
d="M244 42q58 0 97.5 38t39.5 92q0 51 -38 88.5t-99 37.5q-58 0 -94 -37.5t-36 -88.5q0 -54 36 -92t94 -38zM385 0v56q-28 -31 -70.5 -53t-95.5 -22q-41 0 -77 14.5t-62 40t-41 60t-15 74.5q0 39 15 73.5t42 60t64.5 40.5t82.5 15q49 0 87 -15.5t65 -39.5v55q0 91 -36.5 124
t-96.5 33q-29 0 -57 -3.5t-77 -12.5l-17 70q57 12 89.5 15.5t68.5 3.5q109 0 160.5 -54.5t51.5 -147.5v-387h-81zM132 651l-70 1q-4 40 3.5 67.5t22 44t34.5 23.5t41 7q22 0 47.5 -11t50 -24.5t47 -24.5t38.5 -11t29.5 14t12.5 57l70 -1q7 -75 -25 -107.5t-76 -32.5
q-23 0 -49 11t-50 24.5t-46 24.5t-38 11q-17 0 -30.5 -13.5t-11.5 -59.5z" />
    <glyph glyph-name="adieresis.salt_low" horiz-adv-x="514" 
d="M244 42q58 0 97.5 38t39.5 92q0 51 -38 88.5t-99 37.5q-58 0 -94 -37.5t-36 -88.5q0 -54 36 -92t94 -38zM385 0v56q-28 -31 -70.5 -53t-95.5 -22q-41 0 -77 14.5t-62 40t-41 60t-15 74.5q0 39 15 73.5t42 60t64.5 40.5t82.5 15q49 0 87 -15.5t65 -39.5v55q0 91 -36.5 124
t-96.5 33q-29 0 -57 -3.5t-77 -12.5l-17 70q57 12 89.5 15.5t68.5 3.5q109 0 160.5 -54.5t51.5 -147.5v-387h-81zM408 735v-84h-90v84h90zM202 735v-84h-90v84h90z" />
    <glyph glyph-name="aring.salt_low" horiz-adv-x="514" 
d="M244 42q58 0 97.5 38t39.5 92q0 51 -38 88.5t-99 37.5q-58 0 -94 -37.5t-36 -88.5q0 -54 36 -92t94 -38zM385 0v56q-28 -31 -70.5 -53t-95.5 -22q-41 0 -77 14.5t-62 40t-41 60t-15 74.5q0 39 15 73.5t42 60t64.5 40.5t82.5 15q49 0 87 -15.5t65 -39.5v55q0 91 -36.5 124
t-96.5 33q-29 0 -57 -3.5t-77 -12.5l-17 70q57 12 89.5 15.5t68.5 3.5q109 0 160.5 -54.5t51.5 -147.5v-387h-81zM260 867q47 0 80 -33.5t33 -77.5t-33 -77t-80 -33t-80 33.5t-33 76.5q0 44 33 77.5t80 33.5zM260 822q-27 0 -46 -19t-19 -47q0 -27 19 -46t46 -19t46 19
t19 46q0 28 -19 47t-46 19z" />
    <glyph glyph-name="amacron.salt_low" horiz-adv-x="514" 
d="M244 42q58 0 97.5 38t39.5 92q0 51 -38 88.5t-99 37.5q-58 0 -94 -37.5t-36 -88.5q0 -54 36 -92t94 -38zM385 0v56q-28 -31 -70.5 -53t-95.5 -22q-41 0 -77 14.5t-62 40t-41 60t-15 74.5q0 39 15 73.5t42 60t64.5 40.5t82.5 15q49 0 87 -15.5t65 -39.5v55q0 91 -36.5 124
t-96.5 33q-29 0 -57 -3.5t-77 -12.5l-17 70q57 12 89.5 15.5t68.5 3.5q109 0 160.5 -54.5t51.5 -147.5v-387h-81zM392 719v-68h-264v68h264z" />
    <glyph glyph-name="abreve.salt_low" horiz-adv-x="514" 
d="M244 42q58 0 97.5 38t39.5 92q0 51 -38 88.5t-99 37.5q-58 0 -94 -37.5t-36 -88.5q0 -54 36 -92t94 -38zM385 0v56q-28 -31 -70.5 -53t-95.5 -22q-41 0 -77 14.5t-62 40t-41 60t-15 74.5q0 39 15 73.5t42 60t64.5 40.5t82.5 15q49 0 87 -15.5t65 -39.5v55q0 91 -36.5 124
t-96.5 33q-29 0 -57 -3.5t-77 -12.5l-17 70q57 12 89.5 15.5t68.5 3.5q109 0 160.5 -54.5t51.5 -147.5v-387h-81zM410 790q-16 -65 -54.5 -104.5t-95.5 -39.5t-95.5 39.5t-54.5 104.5l61 3q16 -43 40.5 -65t48.5 -22t48.5 22t40.5 65z" />
    <glyph glyph-name="aogonek.salt_low" horiz-adv-x="514" 
d="M244 42q58 0 97.5 38t39.5 92q0 51 -38 88.5t-99 37.5q-58 0 -94 -37.5t-36 -88.5q0 -54 36 -92t94 -38zM479 -142q-12 -11 -34.5 -22t-52.5 -11q-45 0 -65.5 22.5t-20.5 48.5q0 27 16.5 47t38.5 38l24 21v54q-28 -31 -70.5 -53t-95.5 -22q-41 0 -77 14.5t-62 40t-41 60
t-15 74.5q0 39 15 73.5t42 60t64.5 40.5t82.5 15q49 0 87 -15.5t65 -39.5v55q0 91 -36.5 124t-96.5 33q-29 0 -57 -3.5t-77 -12.5l-17 70q57 12 89.5 15.5t68.5 3.5q109 0 160.5 -54.5t51.5 -147.5v-387l-43 -33q-20 -16 -32 -28.5t-12 -27.5q0 -10 8.5 -19.5t23.5 -9.5
q12 0 21 4.5t16 10.5z" />
    <glyph glyph-name="aringacute.salt_low" horiz-adv-x="514" 
d="M244 42q58 0 97.5 38t39.5 92q0 51 -38 88.5t-99 37.5q-58 0 -94 -37.5t-36 -88.5q0 -54 36 -92t94 -38zM385 0v56q-28 -31 -70.5 -53t-95.5 -22q-41 0 -77 14.5t-62 40t-41 60t-15 74.5q0 39 15 73.5t42 60t64.5 40.5t82.5 15q49 0 87 -15.5t65 -39.5v55q0 91 -36.5 124
t-96.5 33q-29 0 -57 -3.5t-77 -12.5l-17 70q57 12 89.5 15.5t68.5 3.5q109 0 160.5 -54.5t51.5 -147.5v-387h-81zM260 867q47 0 80 -33.5t33 -77.5t-33 -77t-80 -33t-80 33.5t-33 76.5q0 44 33 77.5t80 33.5zM260 822q-27 0 -46 -19t-19 -47q0 -27 19 -46t46 -19t46 19
t19 46q0 28 -19 47t-46 19zM414 1036l-126 -147h-68l88 147h106z" />
    <glyph glyph-name="c.salt_low" horiz-adv-x="537" 
d="M480 94l36 -65q-38 -24 -82.5 -36t-86.5 -12q-68 0 -126.5 24.5t-101.5 65.5t-68 97t-25 118t25 118t68 97t101.5 65.5t126.5 24.5q42 0 86.5 -12t82.5 -35l-36 -66h-3q-34 23 -70 30.5t-60 7.5q-48 0 -90 -18t-73 -49t-49 -73.5t-18 -89.5t18 -89.5t49 -73.5t73 -49
t90 -18q24 0 60 7.5t70 30.5h3z" />
    <glyph glyph-name="ccedilla.salt_low" horiz-adv-x="537" 
d="M480 94l36 -65q-38 -24 -82.5 -36t-86.5 -12q-68 0 -126.5 24.5t-101.5 65.5t-68 97t-25 118t25 118t68 97t101.5 65.5t126.5 24.5q42 0 86.5 -12t82.5 -35l-36 -66h-3q-34 23 -70 30.5t-60 7.5q-48 0 -90 -18t-73 -49t-49 -73.5t-18 -89.5t18 -89.5t49 -73.5t73 -49
t90 -18q24 0 60 7.5t70 30.5h3zM305 -213q-10 0 -30.5 3t-37.5 9v50h1q18 -6 36 -9.5t27 -3.5q26 0 41 10.5t15 26.5q0 14 -17.5 23t-47.5 9h-20l-3 7l30 80h53l-19 -44q42 -5 64 -26t22 -52q0 -34 -31.5 -58.5t-82.5 -24.5z" />
    <glyph glyph-name="cacute.salt_low" horiz-adv-x="537" 
d="M480 94l36 -65q-38 -24 -82.5 -36t-86.5 -12q-68 0 -126.5 24.5t-101.5 65.5t-68 97t-25 118t25 118t68 97t101.5 65.5t126.5 24.5q42 0 86.5 -12t82.5 -35l-36 -66h-3q-34 23 -70 30.5t-60 7.5q-48 0 -90 -18t-73 -49t-49 -73.5t-18 -89.5t18 -89.5t49 -73.5t73 -49
t90 -18q24 0 60 7.5t70 30.5h3zM484 798l-126 -147h-68l88 147h106z" />
    <glyph glyph-name="ccircumflex.salt_low" horiz-adv-x="537" 
d="M480 94l36 -65q-38 -24 -82.5 -36t-86.5 -12q-68 0 -126.5 24.5t-101.5 65.5t-68 97t-25 118t25 118t68 97t101.5 65.5t126.5 24.5q42 0 86.5 -12t82.5 -35l-36 -66h-3q-34 23 -70 30.5t-60 7.5q-48 0 -90 -18t-73 -49t-49 -73.5t-18 -89.5t18 -89.5t49 -73.5t73 -49
t90 -18q24 0 60 7.5t70 30.5h3zM410 651l-80 98l-80 -98h-73l104 147h98l104 -147h-73z" />
    <glyph glyph-name="cdotaccent.salt_low" horiz-adv-x="537" 
d="M480 94l36 -65q-38 -24 -82.5 -36t-86.5 -12q-68 0 -126.5 24.5t-101.5 65.5t-68 97t-25 118t25 118t68 97t101.5 65.5t126.5 24.5q42 0 86.5 -12t82.5 -35l-36 -66h-3q-34 23 -70 30.5t-60 7.5q-48 0 -90 -18t-73 -49t-49 -73.5t-18 -89.5t18 -89.5t49 -73.5t73 -49
t90 -18q24 0 60 7.5t70 30.5h3zM375 780v-114h-90v114h90z" />
    <glyph glyph-name="ccaron.salt_low" horiz-adv-x="537" 
d="M480 94l36 -65q-38 -24 -82.5 -36t-86.5 -12q-68 0 -126.5 24.5t-101.5 65.5t-68 97t-25 118t25 118t68 97t101.5 65.5t126.5 24.5q42 0 86.5 -12t82.5 -35l-36 -66h-3q-34 23 -70 30.5t-60 7.5q-48 0 -90 -18t-73 -49t-49 -73.5t-18 -89.5t18 -89.5t49 -73.5t73 -49
t90 -18q24 0 60 7.5t70 30.5h3zM379 651h-98l-104 147h72l80 -98l81 98h73z" />
    <glyph glyph-name="s.salt_low" horiz-adv-x="421" 
d="M209 590q44 0 83 -13t66 -29l-36 -66q-26 16 -54 25t-53 9q-43 0 -69 -19t-26 -49q0 -25 25 -47.5t85 -59.5q99 -63 134 -104t35 -90q0 -74 -55.5 -118t-142.5 -45q-45 0 -93 16t-91 42l34 68q43 -25 77 -38t64 -13q60 1 88 25.5t28 56.5q0 9 -3.5 20.5t-16.5 26.5
t-38 35.5t-68 46.5q-44 28 -73.5 49.5t-47 41t-24.5 40.5t-7 49q0 22 10.5 47t32 45.5t55.5 34t81 13.5z" />
    <glyph glyph-name="sacute.salt_low" horiz-adv-x="421" 
d="M209 590q44 0 83 -13t66 -29l-36 -66q-26 16 -54 25t-53 9q-43 0 -69 -19t-26 -49q0 -25 25 -47.5t85 -59.5q99 -63 134 -104t35 -90q0 -74 -55.5 -118t-142.5 -45q-45 0 -93 16t-91 42l34 68q43 -25 77 -38t64 -13q60 1 88 25.5t28 56.5q0 9 -3.5 20.5t-16.5 26.5
t-38 35.5t-68 46.5q-44 28 -73.5 49.5t-47 41t-24.5 40.5t-7 49q0 22 10.5 47t32 45.5t55.5 34t81 13.5zM364 798l-126 -147h-68l88 147h106z" />
    <glyph glyph-name="scircumflex.salt_low" horiz-adv-x="421" 
d="M209 590q44 0 83 -13t66 -29l-36 -66q-26 16 -54 25t-53 9q-43 0 -69 -19t-26 -49q0 -25 25 -47.5t85 -59.5q99 -63 134 -104t35 -90q0 -74 -55.5 -118t-142.5 -45q-45 0 -93 16t-91 42l34 68q43 -25 77 -38t64 -13q60 1 88 25.5t28 56.5q0 9 -3.5 20.5t-16.5 26.5
t-38 35.5t-68 46.5q-44 28 -73.5 49.5t-47 41t-24.5 40.5t-7 49q0 22 10.5 47t32 45.5t55.5 34t81 13.5zM290 651l-80 98l-80 -98h-73l104 147h98l104 -147h-73z" />
    <glyph glyph-name="scedilla.salt_low" horiz-adv-x="421" 
d="M209 590q44 0 83 -13t66 -29l-36 -66q-26 16 -54 25t-53 9q-43 0 -69 -19t-26 -49q0 -25 25 -47.5t85 -59.5q99 -63 134 -104t35 -90q0 -74 -55.5 -118t-142.5 -45q-45 0 -93 16t-91 42l34 68q43 -25 77 -38t64 -13q60 1 88 25.5t28 56.5q0 9 -3.5 20.5t-16.5 26.5
t-38 35.5t-68 46.5q-44 28 -73.5 49.5t-47 41t-24.5 40.5t-7 49q0 22 10.5 47t32 45.5t55.5 34t81 13.5zM181 -211q-10 0 -30.5 3t-37.5 9v50h1q18 -6 36 -9.5t27 -3.5q26 0 41 10.5t15 26.5q0 14 -17.5 23t-47.5 9h-20l-3 7l30 80h53l-19 -44q42 -5 64 -26t22 -52
q0 -34 -31.5 -58.5t-82.5 -24.5z" />
    <glyph glyph-name="scaron.salt_low" horiz-adv-x="421" 
d="M209 590q44 0 83 -13t66 -29l-36 -66q-26 16 -54 25t-53 9q-43 0 -69 -19t-26 -49q0 -25 25 -47.5t85 -59.5q99 -63 134 -104t35 -90q0 -74 -55.5 -118t-142.5 -45q-45 0 -93 16t-91 42l34 68q43 -25 77 -38t64 -13q60 1 88 25.5t28 56.5q0 9 -3.5 20.5t-16.5 26.5
t-38 35.5t-68 46.5q-44 28 -73.5 49.5t-47 41t-24.5 40.5t-7 49q0 22 10.5 47t32 45.5t55.5 34t81 13.5zM259 651h-98l-104 147h72l80 -98l81 98h73z" />
    <glyph glyph-name="scommaaccent.salt_low" horiz-adv-x="421" 
d="M209 590q44 0 83 -13t66 -29l-36 -66q-26 16 -54 25t-53 9q-43 0 -69 -19t-26 -49q0 -25 25 -47.5t85 -59.5q99 -63 134 -104t35 -90q0 -74 -55.5 -118t-142.5 -45q-45 0 -93 16t-91 42l34 68q43 -25 77 -38t64 -13q60 1 88 25.5t28 56.5q0 9 -3.5 20.5t-16.5 26.5
t-38 35.5t-68 46.5q-44 28 -73.5 49.5t-47 41t-24.5 40.5t-7 49q0 22 10.5 47t32 45.5t55.5 34t81 13.5zM247 -58l-51 -158h-62l19 158h94z" />
    <glyph glyph-name="ae.salt_low" horiz-adv-x="996" 
d="M671 528q-78 0 -135.5 -49.5t-73.5 -128.5h416q-16 77 -73.5 127.5t-133.5 50.5zM244 33q58 0 97.5 37.5t39.5 96.5q0 54 -38.5 92.5t-98.5 38.5q-58 0 -94 -38.5t-36 -92.5q0 -57 36 -95.5t94 -38.5zM960 82q-43 -46 -111.5 -78.5t-160.5 -32.5q-84 0 -150.5 35.5
t-107.5 93.5q-17 -53 -68 -91t-132 -38q-90 0 -148 55t-58 139q0 41 15 76.5t41.5 61.5t64.5 41t83 15q43 0 79 -12.5t62 -33.5v46q0 91 -34 124t-91 33q-29 0 -55.5 -3.5t-80.5 -13.5l-6 73q52 10 82 13.5t67 3.5q75 0 121 -27t66 -76q40 53 100 85t133 32q62 0 117 -24
t96 -65t65 -97t24 -119v-18h-518q1 -51 19 -94t49 -74t73 -48.5t92 -17.5q69 0 124 26.5t95 66.5zM390 151l2 3v5z" />
    <glyph glyph-name="aeacute.salt_low" horiz-adv-x="996" 
d="M671 528q-78 0 -135.5 -49.5t-73.5 -128.5h416q-16 77 -73.5 127.5t-133.5 50.5zM244 33q58 0 97.5 37.5t39.5 96.5q0 54 -38.5 92.5t-98.5 38.5q-58 0 -94 -38.5t-36 -92.5q0 -57 36 -95.5t94 -38.5zM960 82q-43 -46 -111.5 -78.5t-160.5 -32.5q-84 0 -150.5 35.5
t-107.5 93.5q-17 -53 -68 -91t-132 -38q-90 0 -148 55t-58 139q0 41 15 76.5t41.5 61.5t64.5 41t83 15q43 0 79 -12.5t62 -33.5v46q0 91 -34 124t-91 33q-29 0 -55.5 -3.5t-80.5 -13.5l-6 73q52 10 82 13.5t67 3.5q75 0 121 -27t66 -76q40 53 100 85t133 32q62 0 117 -24
t96 -65t65 -97t24 -119v-18h-518q1 -51 19 -94t49 -74t73 -48.5t92 -17.5q69 0 124 26.5t95 66.5zM390 151l2 3v5zM628 798l-126 -147h-68l88 147h106z" />
    <glyph glyph-name="K.salt_tall" horiz-adv-x="615" 
d="M494 0l-295 354l-55 -62v-292h-92v746h92v-324l289 324h113l-288 -325l352 -421h-116z" />
    <glyph glyph-name="Kcommaaccent.salt_tall" horiz-adv-x="615" 
d="M494 0l-295 354l-55 -62v-292h-92v746h92v-324l289 324h113l-288 -325l352 -421h-116zM344 -58l-51 -158h-62l19 158h94z" />
    <glyph glyph-name="P.salt_tall" horiz-adv-x="503" 
d="M218 299h-74v-299h-92v746h172q124 0 189 -56t66 -164q0 -54 -21 -96.5t-56 -71t-82.5 -44t-101.5 -15.5zM229 662h-85v-278h85q69 0 113 39.5t44 102.5q-1 55 -34.5 95.5t-122.5 40.5z" />
    <glyph glyph-name="R.salt_tall" horiz-adv-x="556" 
d="M216 662h-72v-272h70q71 0 115 40t44 100q0 25 -9 49t-28 42.5t-49 29.5t-71 11zM428 0l-279 309h-5v-309h-92v746h164q122 0 186 -60t64 -156q0 -88 -57.5 -144.5t-144.5 -71.5l278 -314h-114z" />
    <glyph glyph-name="Racute.salt_tall" horiz-adv-x="556" 
d="M216 662h-72v-272h70q71 0 115 40t44 100q0 25 -9 49t-28 42.5t-49 29.5t-71 11zM428 0l-279 309h-5v-309h-92v746h164q122 0 186 -60t64 -156q0 -88 -57.5 -144.5t-144.5 -71.5l278 -314h-114zM393 954l-126 -147h-68l88 147h106z" />
    <glyph glyph-name="Rcommaaccent.salt_tall" horiz-adv-x="556" 
d="M216 662h-72v-272h70q71 0 115 40t44 100q0 25 -9 49t-28 42.5t-49 29.5t-71 11zM428 0l-279 309h-5v-309h-92v746h164q122 0 186 -60t64 -156q0 -88 -57.5 -144.5t-144.5 -71.5l278 -314h-114zM308 -58l-51 -158h-62l19 158h94z" />
    <glyph glyph-name="Rcaron.salt_tall" horiz-adv-x="556" 
d="M216 662h-72v-272h70q71 0 115 40t44 100q0 25 -9 49t-28 42.5t-49 29.5t-71 11zM428 0l-279 309h-5v-309h-92v746h164q122 0 186 -60t64 -156q0 -88 -57.5 -144.5t-144.5 -71.5l278 -314h-114zM288 807h-98l-104 147h72l80 -98l81 98h73z" />
    <glyph glyph-name="S.salt_tall" horiz-adv-x="479" 
d="M399 733l-2 -89q-28 15 -63.5 26.5t-72.5 11.5q-34 0 -57.5 -8.5t-37.5 -21.5t-20 -28.5t-6 -29.5q0 -40 30.5 -75t99.5 -86q96 -72 137.5 -127.5t41.5 -112.5q0 -48 -18.5 -86.5t-50.5 -64.5t-76 -40t-95 -14q-40 0 -90 11.5t-83 27.5l2 92q38 -24 86 -38t91 -14
q36 0 63 10.5t44 27.5t25.5 38.5t8.5 43.5q0 42 -32 81t-109 95q-89 68 -128 117t-39 111q0 32 12.5 63t38 54.5t66 38t94.5 14.5q33 0 71 -7t69 -21z" />
    <glyph glyph-name="Sacute.salt_tall" horiz-adv-x="479" 
d="M399 733l-2 -89q-28 15 -63.5 26.5t-72.5 11.5q-34 0 -57.5 -8.5t-37.5 -21.5t-20 -28.5t-6 -29.5q0 -40 30.5 -75t99.5 -86q96 -72 137.5 -127.5t41.5 -112.5q0 -48 -18.5 -86.5t-50.5 -64.5t-76 -40t-95 -14q-40 0 -90 11.5t-83 27.5l2 92q38 -24 86 -38t91 -14
q36 0 63 10.5t44 27.5t25.5 38.5t8.5 43.5q0 42 -32 81t-109 95q-89 68 -128 117t-39 111q0 32 12.5 63t38 54.5t66 38t94.5 14.5q33 0 71 -7t69 -21zM414 954l-126 -147h-68l88 147h106z" />
    <glyph glyph-name="Scircumflex.salt_tall" horiz-adv-x="479" 
d="M399 733l-2 -89q-28 15 -63.5 26.5t-72.5 11.5q-34 0 -57.5 -8.5t-37.5 -21.5t-20 -28.5t-6 -29.5q0 -40 30.5 -75t99.5 -86q96 -72 137.5 -127.5t41.5 -112.5q0 -48 -18.5 -86.5t-50.5 -64.5t-76 -40t-95 -14q-40 0 -90 11.5t-83 27.5l2 92q38 -24 86 -38t91 -14
q36 0 63 10.5t44 27.5t25.5 38.5t8.5 43.5q0 42 -32 81t-109 95q-89 68 -128 117t-39 111q0 32 12.5 63t38 54.5t66 38t94.5 14.5q33 0 71 -7t69 -21zM340 807l-80 98l-80 -98h-73l104 147h98l104 -147h-73z" />
    <glyph glyph-name="Scedilla.salt_tall" horiz-adv-x="479" 
d="M399 733l-2 -89q-28 15 -63.5 26.5t-72.5 11.5q-34 0 -57.5 -8.5t-37.5 -21.5t-20 -28.5t-6 -29.5q0 -40 30.5 -75t99.5 -86q96 -72 137.5 -127.5t41.5 -112.5q0 -48 -18.5 -86.5t-50.5 -64.5t-76 -40t-95 -14q-40 0 -90 11.5t-83 27.5l2 92q38 -24 86 -38t91 -14
q36 0 63 10.5t44 27.5t25.5 38.5t8.5 43.5q0 42 -32 81t-109 95q-89 68 -128 117t-39 111q0 32 12.5 63t38 54.5t66 38t94.5 14.5q33 0 71 -7t69 -21zM194 -207q-10 0 -30.5 3t-37.5 9v50h1q18 -7 36 -10t27 -3q26 0 41 10.5t15 26.5q0 14 -17.5 23t-47.5 9h-20l-3 7l30 80
h53l-19 -44q42 -5 64 -26t22 -52q0 -34 -31.5 -58.5t-82.5 -24.5z" />
    <glyph glyph-name="Scaron.salt_tall" horiz-adv-x="479" 
d="M399 733l-2 -89q-28 15 -63.5 26.5t-72.5 11.5q-34 0 -57.5 -8.5t-37.5 -21.5t-20 -28.5t-6 -29.5q0 -40 30.5 -75t99.5 -86q96 -72 137.5 -127.5t41.5 -112.5q0 -48 -18.5 -86.5t-50.5 -64.5t-76 -40t-95 -14q-40 0 -90 11.5t-83 27.5l2 92q38 -24 86 -38t91 -14
q36 0 63 10.5t44 27.5t25.5 38.5t8.5 43.5q0 42 -32 81t-109 95q-89 68 -128 117t-39 111q0 32 12.5 63t38 54.5t66 38t94.5 14.5q33 0 71 -7t69 -21zM310 807h-98l-104 147h72l80 -98l81 98h73z" />
    <glyph glyph-name="Scommaaccent.salt_tall" horiz-adv-x="479" 
d="M399 733l-2 -89q-28 15 -63.5 26.5t-72.5 11.5q-34 0 -57.5 -8.5t-37.5 -21.5t-20 -28.5t-6 -29.5q0 -40 30.5 -75t99.5 -86q96 -72 137.5 -127.5t41.5 -112.5q0 -48 -18.5 -86.5t-50.5 -64.5t-76 -40t-95 -14q-40 0 -90 11.5t-83 27.5l2 92q38 -24 86 -38t91 -14
q36 0 63 10.5t44 27.5t25.5 38.5t8.5 43.5q0 42 -32 81t-109 95q-89 68 -128 117t-39 111q0 32 12.5 63t38 54.5t66 38t94.5 14.5q33 0 71 -7t69 -21zM260 -58l-51 -158h-62l19 158h94z" />
    <glyph glyph-name="T.salt_tall" horiz-adv-x="383" 
d="M145 0v665h-135v81h363v-81h-136v-665h-92z" />
    <glyph glyph-name="Tcaron.salt_tall" horiz-adv-x="383" 
d="M145 0v665h-135v81h363v-81h-136v-665h-92zM241 807h-98l-104 147h72l80 -98l81 98h73z" />
    <glyph glyph-name="Tcommaaccent.salt_tall" horiz-adv-x="383" 
d="M145 0v665h-135v81h363v-81h-136v-665h-92zM238 -58l-51 -158h-62l19 158h94z" />
    <glyph glyph-name="Tbar.salt_tall" horiz-adv-x="383" 
d="M316 329h-79v-329h-92v329h-81v75h81v261h-135v81h363v-81h-136v-261h79v-75z" />
    <glyph glyph-name="a.salt_ss" horiz-adv-x="707" 
d="M575 287q0 46 -17.5 89t-48 75t-73 51.5t-91.5 19.5q-50 0 -92 -19t-72 -51.5t-47 -75t-17 -89.5q0 -46 17 -89t47 -75t72 -51.5t92 -19.5q49 0 91.5 19.5t73 51.5t48 75t17.5 89zM576 0v101q-41 -57 -105 -91.5t-142 -34.5q-65 0 -120.5 25t-96 67.5t-63.5 99.5t-23 119
t23 119t63.5 100t96 68.5t120.5 25.5q75 0 139 -34.5t105 -89.5v99h85v-574h-82z" />
    <glyph glyph-name="agrave.salt_ss" horiz-adv-x="707" 
d="M575 287q0 46 -17.5 89t-48 75t-73 51.5t-91.5 19.5q-50 0 -92 -19t-72 -51.5t-47 -75t-17 -89.5q0 -46 17 -89t47 -75t72 -51.5t92 -19.5q49 0 91.5 19.5t73 51.5t48 75t17.5 89zM576 0v101q-41 -57 -105 -91.5t-142 -34.5q-65 0 -120.5 25t-96 67.5t-63.5 99.5t-23 119
t23 119t63.5 100t96 68.5t120.5 25.5q75 0 139 -34.5t105 -89.5v99h85v-574h-82zM196 798h108l87 -147h-70z" />
    <glyph glyph-name="aacute.salt_ss" horiz-adv-x="707" 
d="M575 287q0 46 -17.5 89t-48 75t-73 51.5t-91.5 19.5q-50 0 -92 -19t-72 -51.5t-47 -75t-17 -89.5q0 -46 17 -89t47 -75t72 -51.5t92 -19.5q49 0 91.5 19.5t73 51.5t48 75t17.5 89zM576 0v101q-41 -57 -105 -91.5t-142 -34.5q-65 0 -120.5 25t-96 67.5t-63.5 99.5t-23 119
t23 119t63.5 100t96 68.5t120.5 25.5q75 0 139 -34.5t105 -89.5v99h85v-574h-82zM506 798l-126 -147h-68l88 147h106z" />
    <glyph glyph-name="acircumflex.salt_ss" horiz-adv-x="707" 
d="M575 287q0 46 -17.5 89t-48 75t-73 51.5t-91.5 19.5q-50 0 -92 -19t-72 -51.5t-47 -75t-17 -89.5q0 -46 17 -89t47 -75t72 -51.5t92 -19.5q49 0 91.5 19.5t73 51.5t48 75t17.5 89zM576 0v101q-41 -57 -105 -91.5t-142 -34.5q-65 0 -120.5 25t-96 67.5t-63.5 99.5t-23 119
t23 119t63.5 100t96 68.5t120.5 25.5q75 0 139 -34.5t105 -89.5v99h85v-574h-82zM432 651l-80 98l-80 -98h-73l104 147h98l104 -147h-73z" />
    <glyph glyph-name="atilde.salt_ss" horiz-adv-x="707" 
d="M575 287q0 46 -17.5 89t-48 75t-73 51.5t-91.5 19.5q-50 0 -92 -19t-72 -51.5t-47 -75t-17 -89.5q0 -46 17 -89t47 -75t72 -51.5t92 -19.5q49 0 91.5 19.5t73 51.5t48 75t17.5 89zM576 0v101q-41 -57 -105 -91.5t-142 -34.5q-65 0 -120.5 25t-96 67.5t-63.5 99.5t-23 119
t23 119t63.5 100t96 68.5t120.5 25.5q75 0 139 -34.5t105 -89.5v99h85v-574h-82zM224 651l-70 1q-4 40 3.5 67.5t22 44t34.5 23.5t41 7q22 0 47.5 -11t50 -24.5t47 -24.5t38.5 -11t29.5 14t12.5 57l70 -1q7 -75 -25 -107.5t-76 -32.5q-23 0 -49 11t-50 24.5t-46 24.5t-38 11
q-17 0 -30.5 -13.5t-11.5 -59.5z" />
    <glyph glyph-name="adieresis.salt_ss" horiz-adv-x="707" 
d="M575 287q0 46 -17.5 89t-48 75t-73 51.5t-91.5 19.5q-50 0 -92 -19t-72 -51.5t-47 -75t-17 -89.5q0 -46 17 -89t47 -75t72 -51.5t92 -19.5q49 0 91.5 19.5t73 51.5t48 75t17.5 89zM576 0v101q-41 -57 -105 -91.5t-142 -34.5q-65 0 -120.5 25t-96 67.5t-63.5 99.5t-23 119
t23 119t63.5 100t96 68.5t120.5 25.5q75 0 139 -34.5t105 -89.5v99h85v-574h-82zM500 735v-84h-90v84h90zM294 735v-84h-90v84h90z" />
    <glyph glyph-name="aring.salt_ss" horiz-adv-x="707" 
d="M575 287q0 46 -17.5 89t-48 75t-73 51.5t-91.5 19.5q-50 0 -92 -19t-72 -51.5t-47 -75t-17 -89.5q0 -46 17 -89t47 -75t72 -51.5t92 -19.5q49 0 91.5 19.5t73 51.5t48 75t17.5 89zM576 0v101q-41 -57 -105 -91.5t-142 -34.5q-65 0 -120.5 25t-96 67.5t-63.5 99.5t-23 119
t23 119t63.5 100t96 68.5t120.5 25.5q75 0 139 -34.5t105 -89.5v99h85v-574h-82zM353 867q47 0 80 -33.5t33 -77.5t-33 -77t-80 -33t-80 33.5t-33 76.5q0 44 33 77.5t80 33.5zM353 822q-27 0 -46 -19t-19 -47q0 -27 19 -46t46 -19t46 19t19 46q0 28 -19 47t-46 19z" />
    <glyph glyph-name="amacron.salt_ss" horiz-adv-x="707" 
d="M575 287q0 46 -17.5 89t-48 75t-73 51.5t-91.5 19.5q-50 0 -92 -19t-72 -51.5t-47 -75t-17 -89.5q0 -46 17 -89t47 -75t72 -51.5t92 -19.5q49 0 91.5 19.5t73 51.5t48 75t17.5 89zM576 0v101q-41 -57 -105 -91.5t-142 -34.5q-65 0 -120.5 25t-96 67.5t-63.5 99.5t-23 119
t23 119t63.5 100t96 68.5t120.5 25.5q75 0 139 -34.5t105 -89.5v99h85v-574h-82zM484 719v-68h-264v68h264z" />
    <glyph glyph-name="abreve.salt_ss" horiz-adv-x="707" 
d="M575 287q0 46 -17.5 89t-48 75t-73 51.5t-91.5 19.5q-50 0 -92 -19t-72 -51.5t-47 -75t-17 -89.5q0 -46 17 -89t47 -75t72 -51.5t92 -19.5q49 0 91.5 19.5t73 51.5t48 75t17.5 89zM576 0v101q-41 -57 -105 -91.5t-142 -34.5q-65 0 -120.5 25t-96 67.5t-63.5 99.5t-23 119
t23 119t63.5 100t96 68.5t120.5 25.5q75 0 139 -34.5t105 -89.5v99h85v-574h-82zM502 790q-16 -65 -54.5 -104.5t-95.5 -39.5t-95.5 39.5t-54.5 104.5l61 3q16 -43 40.5 -65t48.5 -22t48.5 22t40.5 65z" />
    <glyph glyph-name="aogonek.salt_ss" horiz-adv-x="707" 
d="M585 -175q-45 0 -65.5 22.5t-20.5 48.5q0 27 16.5 46.5t38.5 38.5l22 18v102q-41 -57 -105 -91.5t-142 -34.5q-65 0 -120.5 25t-96 67.5t-63.5 99.5t-23 119t23 119t63.5 100t96 68.5t120.5 25.5q75 0 139 -34.5t105 -89.5v99h85v-574l-42 -33q-20 -16 -32 -28.5
t-12 -27.5q0 -10 8.5 -19.5t23.5 -9.5q12 0 21 4.5t16 10.5l31 -39q-11 -11 -34 -22t-53 -11zM575 287q0 46 -17.5 89t-48 75t-73 51.5t-91.5 19.5q-50 0 -92 -19t-72 -51.5t-47 -75t-17 -89.5q0 -46 17 -89t47 -75t72 -51.5t92 -19.5q49 0 91.5 19.5t73 51.5t48 75t17.5 89
z" />
    <glyph glyph-name="aringacute.salt_ss" horiz-adv-x="707" 
d="M575 287q0 46 -17.5 89t-48 75t-73 51.5t-91.5 19.5q-50 0 -92 -19t-72 -51.5t-47 -75t-17 -89.5q0 -46 17 -89t47 -75t72 -51.5t92 -19.5q49 0 91.5 19.5t73 51.5t48 75t17.5 89zM576 0v101q-41 -57 -105 -91.5t-142 -34.5q-65 0 -120.5 25t-96 67.5t-63.5 99.5t-23 119
t23 119t63.5 100t96 68.5t120.5 25.5q75 0 139 -34.5t105 -89.5v99h85v-574h-82zM352 867q47 0 80 -33.5t33 -77.5t-33 -77t-80 -33t-80 33.5t-33 76.5q0 44 33 77.5t80 33.5zM352 822q-27 0 -46 -19t-19 -47q0 -27 19 -46t46 -19t46 19t19 46q0 28 -19 47t-46 19zM506 1036
l-126 -147h-68l88 147h106z" />
    <glyph glyph-name="Adieresis.salt" horiz-adv-x="698" 
d="M569 746v-93h-98v93h98zM228 746v-93h-98v93h98zM506 233l-158 402l-159 -402h317zM598 0l-61 156h-378l-62 -156h-95l301 746h93l300 -746h-98z" />
    <glyph glyph-name="Odieresis.salt" horiz-adv-x="872" 
d="M436 770q85 0 159.5 -31t129 -84.5t86.5 -126t32 -154.5t-32 -155t-86.5 -126.5t-129 -85t-159.5 -31.5t-160 31.5t-129.5 85t-86.5 126.5t-32 155t32 154.5t86.5 126t129.5 84.5t160 31zM828 746v-93h-98v93h98zM142 746v-93h-98v93h98zM436 686q-65 0 -122.5 -25.5
t-100 -68t-67.5 -99t-25 -118.5q0 -63 25 -120.5t67.5 -100.5t100 -68.5t122.5 -25.5t122.5 25.5t100 68.5t67 100.5t24.5 120.5q0 62 -24.5 118.5t-67 99t-100 68t-122.5 25.5z" />
    <glyph glyph-name="Udieresis.salt" horiz-adv-x="650" 
d="M598 291q0 -144 -69.5 -229.5t-204.5 -85.5q-133 0 -202.5 85.5t-69.5 229.5v455h92v-484q0 -50 15.5 -88t40.5 -63t57.5 -38t66.5 -13q36 0 69 13t58 38t40 63t15 88v484h92v-455zM456 746v-93h-98v93h98zM293 746v-93h-98v93h98z" />
    <glyph glyph-name="asterisk.salt1" horiz-adv-x="354" 
d="M318 510l-115 29l-40 -106l-20 2l-7 118l-114 6l-4 19l109 44l-29 110l17 10l76 -91l95 62l15 -13l-64 -101l89 -71z" />
    <glyph glyph-name="space.em" horiz-adv-x="1000" 
 />
    <glyph glyph-name="space.en" horiz-adv-x="500" 
 />
    <glyph glyph-name="space.frac" horiz-adv-x="85" 
 />
    <glyph glyph-name="space.thin" horiz-adv-x="150" 
 />
    </font>
</defs>
</svg>
